<?xml version="1.0" encoding="utf-8"?><svg xmlns="http://www.w3.org/2000/svg" xmlns:xlink="http://www.w3.org/1999/xlink"><symbol viewBox="0 0 26 16" id="arrow-left" xmlns="http://www.w3.org/2000/svg"><path d="M.293 7.293a1 1 0 000 1.414l6.364 6.364a1 1 0 001.414-1.414L2.414 8l5.657-5.657A1 1 0 006.657.93L.293 7.293zM26 7H1v2h25V7z"/></symbol><symbol viewBox="0 0 26 16" id="arrow-right" xmlns="http://www.w3.org/2000/svg"><path d="M25.707 7.293a1 1 0 010 1.414l-6.364 6.364a1 1 0 01-1.414-1.414L23.586 8l-5.657-5.657A1 1 0 0119.343.93l6.364 6.364zM0 7h25v2H0V7z"/></symbol><symbol viewBox="0 0 18 20" id="avatar" xmlns="http://www.w3.org/2000/svg"><path d="M13 6.333c0 3.334-2 6-4 6s-4-2.666-4-6C5 3 6.333 1 9 1s4 2 4 5.333zM1 19h16c0-6-4-6.667-8-6.667S1 13 1 19z"/></symbol><symbol id="bin" viewBox="0 0 512 512" xml:space="preserve" xmlns="http://www.w3.org/2000/svg"><style>.adst0{fill:#000}</style><path class="adst0" d="M439.114 69.747s2.977 2.1-43.339-11.966c-41.52-12.604-80.795-15.309-80.795-15.309l-2.722-19.297C310.387 9.857 299.484 0 286.642 0H225.34c-12.825 0-23.729 9.857-25.616 23.175l-2.722 19.297s-39.258 2.705-80.778 15.309C69.891 71.848 72.868 69.747 72.868 69.747c-10.324 2.849-17.536 12.655-17.536 23.864v16.695h401.337V93.611c0-11.209-7.213-21.015-17.555-23.864zM88.593 464.731C90.957 491.486 113.367 512 140.234 512h231.524c26.857 0 49.276-20.514 51.64-47.269l25.642-327.21H62.952l25.641 327.21zm253.423-254.827c.51-8.402 7.731-14.807 16.134-14.296 8.402.51 14.798 7.731 14.296 16.134l-14.492 239.493c-.51 8.402-7.731 14.798-16.133 14.288-8.403-.51-14.806-7.722-14.296-16.125l14.491-239.494zm-101.265.919c0-8.42 6.821-15.241 15.24-15.241 8.42 0 15.24 6.821 15.24 15.241v239.492c0 8.42-6.821 15.24-15.24 15.24-8.42 0-15.24-6.821-15.24-15.24V210.823zm-86.918-15.215c8.403-.51 15.624 5.894 16.134 14.296l14.509 239.492c.51 8.403-5.894 15.615-14.296 16.125-8.403.51-15.624-5.886-16.134-14.288L139.537 211.74c-.511-8.401 5.893-15.622 14.296-16.132z"/></symbol><symbol viewBox="0 0 24 21" id="brand" xmlns="http://www.w3.org/2000/svg"><path d="M23.184 10.046L17.388 0h-5.093l-2.117 3.67h5.09l3.678 6.377-3.678 6.375h-5.09l2.117 3.671h5.093l5.796-10.046zm-18.946 0L10.034 0H5.796L0 10.046l5.796 10.047h4.238L4.238 10.047z"/></symbol><symbol viewBox="0 0 16 17" id="burger" xmlns="http://www.w3.org/2000/svg"><path d="M0 0h16v3H0zm0 7h16v3H0zm0 7h16v3H0z"/></symbol><symbol viewBox="0 0 448 512" id="calendar" xmlns="http://www.w3.org/2000/svg"><path d="M148 288h-40c-6.6 0-12-5.4-12-12v-40c0-6.6 5.4-12 12-12h40c6.6 0 12 5.4 12 12v40c0 6.6-5.4 12-12 12zm108-12v-40c0-6.6-5.4-12-12-12h-40c-6.6 0-12 5.4-12 12v40c0 6.6 5.4 12 12 12h40c6.6 0 12-5.4 12-12zm96 0v-40c0-6.6-5.4-12-12-12h-40c-6.6 0-12 5.4-12 12v40c0 6.6 5.4 12 12 12h40c6.6 0 12-5.4 12-12zm-96 96v-40c0-6.6-5.4-12-12-12h-40c-6.6 0-12 5.4-12 12v40c0 6.6 5.4 12 12 12h40c6.6 0 12-5.4 12-12zm-96 0v-40c0-6.6-5.4-12-12-12h-40c-6.6 0-12 5.4-12 12v40c0 6.6 5.4 12 12 12h40c6.6 0 12-5.4 12-12zm192 0v-40c0-6.6-5.4-12-12-12h-40c-6.6 0-12 5.4-12 12v40c0 6.6 5.4 12 12 12h40c6.6 0 12-5.4 12-12zm96-260v352c0 26.5-21.5 48-48 48H48c-26.5 0-48-21.5-48-48V112c0-26.5 21.5-48 48-48h48V12c0-6.6 5.4-12 12-12h40c6.6 0 12 5.4 12 12v52h128V12c0-6.6 5.4-12 12-12h40c6.6 0 12 5.4 12 12v52h48c26.5 0 48 21.5 48 48zm-48 346V160H48v298c0 3.3 2.7 6 6 6h340c3.3 0 6-2.7 6-6z"/></symbol><symbol viewBox="0 0 25 25" id="call" xmlns="http://www.w3.org/2000/svg"><path d="M23.91 3.959L20.58.634a2.15 2.15 0 00-3.05 0l-3.584 3.578a2.157 2.157 0 000 3.056l2.8 2.803a12.667 12.667 0 01-2.7 3.977 12.694 12.694 0 01-3.975 2.706l-2.8-2.803a2.15 2.15 0 00-3.05 0L.634 17.53a2.156 2.156 0 000 3.056L3.96 23.91A3.742 3.742 0 006.591 25c.203 0 .4-.016.6-.05 4.137-.681 8.243-2.884 11.56-6.196 3.312-3.318 5.512-7.424 6.2-11.564a3.724 3.724 0 00-1.041-3.231zm-1.175 2.859c-.61 3.684-2.591 7.358-5.576 10.342-2.984 2.984-6.656 4.965-10.34 5.575a1.47 1.47 0 01-1.275-.413l-3.266-3.265 3.463-3.465 3.743 3.75.029.027.675-.25a15.04 15.04 0 008.928-8.93l.25-.675-3.775-3.771 3.462-3.465 3.266 3.265c.337.338.494.812.416 1.275z"/></symbol><symbol id="car" viewBox="0 0 25 18.7" xml:space="preserve" xmlns="http://www.w3.org/2000/svg"><style>.aist0{fill:#4c4c4d}</style><path class="aist0" d="M22.5 6.2l-2.1-4.7c-.2-.4-.5-.8-.9-1.1-.5-.3-.9-.4-1.4-.4H6.9c-.5 0-.9.1-1.3.4-.5.3-.8.6-1 1.1L2.5 6.2c-.4 0-.9.2-1.2.5-.3.3-.5.7-.5 1.2v5.8c0 .4.2.9.5 1.2.3.3.7.5 1.2.5v2.1c0 .3.1.6.4.9.2.2.6.4.9.4h2.9c.3 0 .6-.1.9-.4.2-.2.4-.6.4-.9v-2.1h9.2v2.1c0 .3.1.6.4.9.2.2.6.4.9.4h2.9c.3 0 .6-.1.9-.4.2-.2.4-.6.4-.9v-2.1c.4 0 .9-.2 1.2-.5.3-.3.5-.7.5-1.2V7.9c0-.4-.2-.9-.5-1.2-.5-.3-1-.5-1.4-.5zm-16.3-4c0-.2.1-.3.3-.4.1-.1.3-.1.5-.1h11.2c.2 0 .3 0 .5.1.1.1.2.2.3.4l1.8 4H4.4l1.8-4zm0 14.8h-2v-1.7h2.1V17zm14.6 0h-2.1v-1.7h2.1V17zm1.7-3.3h-20V7.9h20v5.8z"/><path class="aist0" d="M4.2 10h4.2v1.7H4.2V10zm12.5 0h4.2v1.7h-4.2V10zM12.5-6.3H0h12.5z"/></symbol><symbol viewBox="0 0 25 20" id="car-forward" xmlns="http://www.w3.org/2000/svg"><path d="M24.4 7.2c-.3-.3-.8-.5-1.3-.5l-2.3-5.1c-.2-.5-.6-.9-1-1.2S19 0 18.4 0H6.5C6 0 5.5.1 5 .4c-.4.3-.8.7-1 1.2l-2.2 5c-.5 0-.9.2-1.3.5-.3.4-.5.8-.5 1.3v6.2c0 .5.2.9.5 1.3.3.3.8.5 1.3.5v2.3c0 .4.1.7.4.9.2.3.6.4.9.4h3.1c.4 0 .7-.1.9-.4.3-.2.4-.6.4-.9v-2.3h9.8v2.3c0 .4.1.7.4.9.3.2.6.4.9.4h3.1c.4 0 .7-.1.9-.4.3-.2.4-.6.4-.9v-2.3c.5 0 .9-.2 1.3-.5.3-.3.5-.8.5-1.3V8.4c.2-.5 0-.9-.4-1.2zM5.7 2.3c.1-.2.2-.3.3-.4.1-.1.3-.1.5-.1h11.9c.2 0 .3 0 .5.1.1.1.3.2.3.4l1.9 4.3H3.8l1.9-4.3zm.1 15.9H3.6v-1.8h2.2v1.8zM8 12.4H3.6v-1.8H8v1.8zm8.9 0v-1.8h4.5v1.8h-4.5zm4.5 5.8h-2.2v-1.8h2.2v1.8z"/></symbol><symbol viewBox="0 0 448 512" id="check" xmlns="http://www.w3.org/2000/svg"><path d="M413.505 91.951L133.49 371.966l-98.995-98.995c-4.686-4.686-12.284-4.686-16.971 0L6.211 284.284c-4.686 4.686-4.686 12.284 0 16.971l118.794 118.794c4.686 4.686 12.284 4.686 16.971 0l299.813-299.813c4.686-4.686 4.686-12.284 0-16.971l-11.314-11.314c-4.686-4.686-12.284-4.686-16.97 0z"/></symbol><symbol viewBox="0 0 1024 1024" id="check-circle" xmlns="http://www.w3.org/2000/svg"><path d="M512 64a448 448 0 110 896 448 448 0 010-896zm-55.808 536.384l-99.52-99.584a38.4 38.4 0 10-54.336 54.336l126.72 126.72a38.272 38.272 0 0054.336 0l262.4-262.464a38.4 38.4 0 10-54.272-54.336L456.192 600.384z"/></symbol><symbol viewBox="0 0 28 22" id="check-rounded" xmlns="http://www.w3.org/2000/svg"><path d="M24.84.925a1.833 1.833 0 012.617 0c.715.722.725 1.89.025 2.625L12.7 21.025a1.833 1.833 0 01-2.663.05L1.042 11.96a1.893 1.893 0 010-2.65 1.832 1.832 0 012.618 0l7.63 7.732L24.79.98a.635.635 0 01.05-.055z"/></symbol><symbol viewBox="0 0 11 6" id="chevron-down" xmlns="http://www.w3.org/2000/svg"><path d="M5.825 5a.712.712 0 01-.456-.163L1.09 1.265a.716.716 0 01.912-1.1l3.822 3.2L9.647.28a.713.713 0 011.005.108.714.714 0 01-.1 1.042L6.275 4.88a.712.712 0 01-.449.122z"/></symbol><symbol viewBox="0 0 17 27" id="chevron-left" xmlns="http://www.w3.org/2000/svg"><path d="M.725 13.354c-.001.445.178.875.507 1.217l11.04 11.409c.374.388.912.632 1.496.679a2.459 2.459 0 001.616-.432c.451-.323.735-.787.788-1.29.054-.502-.126-1.003-.5-1.391L5.78 13.354l9.538-10.191c.183-.195.32-.419.403-.659.083-.24.11-.492.079-.741a1.723 1.723 0 00-.258-.71 2.003 2.003 0 00-.555-.572 2.318 2.318 0 00-.782-.387 2.545 2.545 0 00-1.759.145 2.14 2.14 0 00-.682.509L1.1 12.156c-.277.352-.41.774-.375 1.198z"/></symbol><symbol viewBox="0 0 17 27" id="chevron-right" xmlns="http://www.w3.org/2000/svg"><path d="M16.276 13.354c0 .445-.18.875-.508 1.217L4.728 25.98c-.374.388-.913.632-1.496.679a2.458 2.458 0 01-1.616-.432c-.451-.323-.735-.787-.788-1.29-.054-.502.126-1.003.5-1.391l9.892-10.192L1.682 3.163a1.83 1.83 0 01-.403-.659 1.65 1.65 0 01-.079-.741c.031-.25.119-.49.258-.71.14-.22.328-.415.555-.572a2.31 2.31 0 01.782-.387A2.545 2.545 0 014.554.24c.266.128.498.3.683.509L15.9 12.156c.277.352.41.774.376 1.198z"/></symbol><symbol viewBox="0 0 11 6" id="chevron-up" xmlns="http://www.w3.org/2000/svg"><path d="M5.825.5a.712.712 0 00-.456.163L1.09 4.235a.716.716 0 00.912 1.1l3.822-3.2L9.647 5.22a.712.712 0 001.005-.108.714.714 0 00-.1-1.042L6.275.62a.712.712 0 00-.449-.122z"/></symbol><symbol viewBox="0 0 20 20" id="clock" xmlns="http://www.w3.org/2000/svg"><path d="M13.71 3.049a.2.2 0 00.076.273 7.685 7.685 0 01.94.628.2.2 0 00.28-.035l.692-.887a.2.2 0 00-.034-.281 9.23 9.23 0 00-1.126-.752.2.2 0 00-.273.075l-.554.979zm3.238 3.232a.2.2 0 00-.089.268 7.788 7.788 0 01.431 1.043.2.2 0 00.253.127l1.069-.352a.2.2 0 00.127-.252 9.18 9.18 0 00-.518-1.252.2.2 0 00-.268-.088l-1.005.506zm.895 4.484a.2.2 0 00-.223.174 8.137 8.137 0 01-.088.559 7.712 7.712 0 01-.132.549.2.2 0 00.14.246l1.084.3a.2.2 0 00.246-.139c.12-.435.21-.88.264-1.328a.2.2 0 00-.173-.223l-1.117-.139zm-7.839-8.44a.2.2 0 00.2-.2V1a.2.2 0 00-.2-.2 9.201 9.201 0 106.505 15.706.2.2 0 000-.283l-.795-.796a.2.2 0 00-.283 0 7.675 7.675 0 11-5.427-13.102z"/><path d="M13.76 12.716l-.003-.003-3.554-2.03V5.938a.762.762 0 10-1.525 0v5.187a.762.762 0 00.385.662L13 14.037l.004.002a.762.762 0 00.757-1.323z"/></symbol><symbol viewBox="0 0 15 15" id="close" xmlns="http://www.w3.org/2000/svg"><path d="M9.26 7.498l5.37-5.357A1.254 1.254 0 1012.858.367L7.5 5.737 2.143.367A1.254 1.254 0 00.369 2.141l5.37 5.357-5.37 5.357a1.249 1.249 0 000 1.774 1.25 1.25 0 001.774 0L7.5 9.259l5.357 5.37a1.25 1.25 0 001.774 0 1.248 1.248 0 000-1.774L9.26 7.498z"/></symbol><symbol viewBox="0 0 18 16" id="comment" xmlns="http://www.w3.org/2000/svg"><path d="M2 0a2 2 0 00-2 2v9.672a2 2 0 002 2h2.251l1.858 1.86a.713.713 0 00.985-.002l1.856-1.858h6.823a2 2 0 002-2V2a2 2 0 00-2-2H2zm-.633 3.367a2 2 0 012-2h12.039a1 1 0 011 1v8.938a1 1 0 01-1 1H8.661a.752.752 0 00-.5.19l-.853.854a1 1 0 01-1.415 0l-.85-.851a.753.753 0 00-.504-.193H2.367a1 1 0 01-1-1V3.367zm3.418.813a.684.684 0 100 1.367h8.203a.684.684 0 100-1.367H4.785zm.762 3.945a.684.684 0 000 1.367h4.707a.684.684 0 000-1.367H5.547z"/></symbol><symbol viewBox="0 0 511.449 511.449" id="contacts" xmlns="http://www.w3.org/2000/svg"><path d="M436.508 74.941c-99.912-99.914-261.639-99.93-361.566 0-99.914 99.912-99.93 261.639 0 361.566 99.912 99.914 261.639 99.93 361.566 0 99.913-99.911 99.929-261.638 0-361.566zm-180.784 394.45c-117.816 0-213.667-95.851-213.667-213.667S137.908 42.057 255.724 42.057s213.667 95.851 213.667 213.667-95.85 213.667-213.667 213.667z"/><path d="M308.428 248.731c28.476-41.939-1.616-99.339-52.706-99.339-51.102 0-81.181 57.409-52.705 99.342-32.011 18.347-53.625 52.858-53.625 92.324 0 11.598 9.402 21 21 21s21-9.402 21-21c0-35.474 28.859-64.333 64.333-64.333s64.333 28.859 64.333 64.333c0 11.598 9.402 21 21 21s21-9.402 21-21c-.001-39.468-21.617-73.981-53.63-92.327zm-52.706-57.34c11.946 0 21.666 9.72 21.666 21.666 0 11.947-9.72 21.667-21.666 21.667-11.947 0-21.667-9.72-21.667-21.667 0-11.946 9.719-21.666 21.667-21.666z"/></symbol><symbol id="dots" viewBox="0 0 19 19" xml:space="preserve" xmlns="http://www.w3.org/2000/svg"><style>.avst0{fill:#4c4c4d}</style><ellipse class="avst0" cx="9.5" cy="2" rx="2.1" ry="2"/><ellipse class="avst0" cx="9.5" cy="9.5" rx="2.1" ry="2"/><ellipse class="avst0" cx="9.5" cy="17" rx="2.1" ry="2"/></symbol><symbol viewBox="0 0 17 19" id="edit" xmlns="http://www.w3.org/2000/svg"><path d="M11.415 3.732l1.853 1.852M12.606 2.1l-5.01 5.011a1.853 1.853 0 00-.508.947l-.463 2.317 2.317-.464c.359-.072.688-.247.947-.506l5.01-5.011A1.621 1.621 0 1012.608 2.1z"/><path d="M14 13v3c0 .53-.183 1.04-.508 1.414-.325.375-.766.586-1.225.586H2.733c-.46 0-.9-.21-1.225-.586A2.166 2.166 0 011 16V5c0-.53.183-1.04.508-1.414C1.833 3.21 2.274 3 2.733 3h2.6"/></symbol><symbol viewBox="0 0 320 512" id="ellipsis-h" xmlns="http://www.w3.org/2000/svg"><path d="M192 256c0 17.7-14.3 32-32 32s-32-14.3-32-32 14.3-32 32-32 32 14.3 32 32zm88-32c-17.7 0-32 14.3-32 32s14.3 32 32 32 32-14.3 32-32-14.3-32-32-32zm-240 0c-17.7 0-32 14.3-32 32s14.3 32 32 32 32-14.3 32-32-14.3-32-32-32z"/></symbol><symbol viewBox="0 0 64 512" id="ellipsis-v" xmlns="http://www.w3.org/2000/svg"><path d="M32 224c17.7 0 32 14.3 32 32s-14.3 32-32 32-32-14.3-32-32 14.3-32 32-32zM0 136c0 17.7 14.3 32 32 32s32-14.3 32-32-14.3-32-32-32-32 14.3-32 32zm0 240c0 17.7 14.3 32 32 32s32-14.3 32-32-14.3-32-32-32-32 14.3-32 32z"/></symbol><symbol viewBox="0 0 31 31" id="facebook" xmlns="http://www.w3.org/2000/svg"><path d="M27.556 0H3.444A3.455 3.455 0 000 3.444v24.112A3.453 3.453 0 003.444 31H15.5V18.944h-3.444v-4.262H15.5v-3.53c0-3.727 2.087-6.345 6.486-6.345l3.105.003v4.487H23.03c-1.712 0-2.363 1.284-2.363 2.476v2.91h4.422l-.978 4.261h-3.444V31h6.889A3.453 3.453 0 0031 27.556V3.444A3.455 3.455 0 0027.556 0z"/></symbol><symbol viewBox="0 0 264 512" id="fb" xmlns="http://www.w3.org/2000/svg"><path d="M76.7 512V283H0v-91h76.7v-71.7C76.7 42.4 124.3 0 193.8 0c33.3 0 61.9 2.5 70.2 3.6V85h-48.2c-37.8 0-45.1 18-45.1 44.3V192H256l-11.7 91h-73.6v229"/></symbol><symbol viewBox="0 0 384 384" id="file" xmlns="http://www.w3.org/2000/svg"><path d="M321.938 5.078A16.033 16.033 0 00310.238 0H160c-8.832 0-16 7.168-16 16v64H16C7.168 80 0 87.168 0 96v272c0 8.832 7.168 16 16 16h208c8.832 0 16-7.168 16-16v-64h128c8.832 0 16-7.168 16-16V77.84a15.97 15.97 0 00-4.305-10.918zM208 352H32V160h32c8.832 0 16-7.168 16-16s-7.168-16-16-16H32v-16h127.29L208 164.152zm32-80V157.84a15.97 15.97 0 00-4.305-10.918L177.93 85.078c-.594-.629-1.258-1.156-1.93-1.68V32h127.29L352 84.152V224h-32c-8.832 0-16 7.168-16 16s7.168 16 16 16h32v16zm0 0"/></symbol><symbol viewBox="0 0 20 19" id="funnel" xmlns="http://www.w3.org/2000/svg"><path fill-rule="evenodd" clip-rule="evenodd" d="M0 1a1 1 0 011-1h17.053a1 1 0 011 1c0 .775-.322 1.61-.714 2.37-.406.787-.957 1.622-1.549 2.428-1.185 1.615-2.602 3.205-3.554 4.225a2.977 2.977 0 00-.815 2.02v3.168a1 1 0 01-.553.894L8.078 18a1 1 0 01-1.446-.895v-5.058a2.976 2.976 0 00-.812-2.02l-.004-.004c-.95-1.02-2.368-2.61-3.553-4.225C1.67 4.99 1.12 4.158.713 3.369.323 2.61 0 1.774 0 1zm2.276 1c.06.14.131.29.215.452.34.66.824 1.4 1.384 2.162C4.992 6.136 6.348 7.66 7.277 8.658a4.976 4.976 0 011.355 3.379v3.45l1.79-.895v-2.549c0-1.271.503-2.472 1.35-3.383h.001c.93-.998 2.287-2.523 3.405-4.045.56-.763 1.044-1.503 1.384-2.162.083-.162.155-.313.215-.453H2.276z"/></symbol><symbol viewBox="0 0 25 25" id="garage" xmlns="http://www.w3.org/2000/svg"><path d="M22.5 12.504h-.027l-2.105-4.725a2.497 2.497 0 00-2.285-1.48H6.916a2.507 2.507 0 00-2.284 1.48l-2.106 4.725H2.5a1.662 1.662 0 00-1.667 1.662v5.819A1.662 1.662 0 002.5 21.646v2.106A1.247 1.247 0 003.75 25h2.916a1.253 1.253 0 001.25-1.247v-2.106h9.167v2.106A1.246 1.246 0 0018.333 25h2.917a1.253 1.253 0 001.25-1.247v-2.106a1.67 1.67 0 001.178-.487c.312-.312.488-.735.488-1.175v-5.819c0-.44-.176-.863-.488-1.175a1.67 1.67 0 00-1.178-.487zM6.155 8.454a.832.832 0 01.761-.493h11.167a.835.835 0 01.762.493l1.804 4.05H4.35l1.805-4.05zm.095 14.884H4.166v-1.691H6.25v1.69zm14.583 0H18.75v-1.691h2.083v1.69zm1.667-3.354h-20v-5.818h20v5.819z"/><path d="M4.167 16.273h4.166v1.662H4.167v-1.662zm12.5 0h4.166v1.662h-4.166v-1.662zM12.5 0L0 5.006v1.791l12.5-5.006L25 6.797V5.006L12.5 0z"/></symbol><symbol viewBox="-1 0 19 19" class="becf-icon-svg" id="info" xmlns="http://www.w3.org/2000/svg"><path d="M16.417 9.583A7.917 7.917 0 118.5 1.666a7.917 7.917 0 017.917 7.917zM9.64 5.78a1.136 1.136 0 10-1.136 1.135A1.136 1.136 0 009.64 5.781zm-.344 2.884a.792.792 0 10-1.583 0v5.203a.792.792 0 001.583 0z"/></symbol><symbol viewBox="0 0 512 512" id="instagram" xmlns="http://www.w3.org/2000/svg"><path d="M256 49.471c67.266 0 75.233.257 101.8 1.469 24.562 1.121 37.9 5.224 46.778 8.674a78.052 78.052 0 0128.966 18.845 78.052 78.052 0 0118.845 28.966c3.45 8.877 7.554 22.216 8.674 46.778 1.212 26.565 1.469 34.532 1.469 101.8s-.257 75.233-1.469 101.8c-1.121 24.562-5.225 37.9-8.674 46.778a83.427 83.427 0 01-47.811 47.811c-8.877 3.45-22.216 7.554-46.778 8.674-26.56 1.212-34.527 1.469-101.8 1.469s-75.237-.257-101.8-1.469c-24.562-1.121-37.9-5.225-46.778-8.674a78.051 78.051 0 01-28.966-18.845 78.053 78.053 0 01-18.845-28.966c-3.45-8.877-7.554-22.216-8.674-46.778-1.212-26.564-1.469-34.532-1.469-101.8s.257-75.233 1.469-101.8c1.121-24.562 5.224-37.9 8.674-46.778a78.052 78.052 0 0118.847-28.967 78.053 78.053 0 0128.966-18.845c8.877-3.45 22.216-7.554 46.778-8.674 26.565-1.212 34.532-1.469 101.8-1.469m0-45.391c-68.418 0-77 .29-103.866 1.516-26.815 1.224-45.127 5.482-61.151 11.71a123.488 123.488 0 00-44.62 29.057A123.488 123.488 0 0017.3 90.982c-6.223 16.025-10.481 34.337-11.7 61.152C4.369 179 4.079 187.582 4.079 256s.29 77 1.521 103.866c1.224 26.815 5.482 45.127 11.71 61.151a123.489 123.489 0 0029.057 44.62 123.486 123.486 0 0044.62 29.057c16.025 6.228 34.337 10.486 61.151 11.71 26.87 1.226 35.449 1.516 103.866 1.516s77-.29 103.866-1.516c26.815-1.224 45.127-5.482 61.151-11.71a128.817 128.817 0 0073.677-73.677c6.228-16.025 10.486-34.337 11.71-61.151 1.226-26.87 1.516-35.449 1.516-103.866s-.29-77-1.516-103.866c-1.224-26.815-5.482-45.127-11.71-61.151a123.486 123.486 0 00-29.057-44.62A123.487 123.487 0 00421.018 17.3c-16.025-6.223-34.337-10.481-61.152-11.7C333 4.369 324.418 4.079 256 4.079z"/><path d="M256 126.635A129.365 129.365 0 10385.365 256 129.365 129.365 0 00256 126.635zm0 213.338A83.973 83.973 0 11339.974 256 83.974 83.974 0 01256 339.973z"/><circle cx="390.476" cy="121.524" r="30.23"/></symbol><symbol viewBox="0 0 384 384" id="key" xmlns="http://www.w3.org/2000/svg"><path d="M268.566 165.945C270.754 156.297 272 146.297 272 136 272 61.008 210.992 0 136 0S0 61.008 0 136s61.008 136 136 136c10.297 0 20.297-1.246 29.945-3.434l30.735 30.73c.746.75 1.566 1.415 2.457 2.009.383.254.793.422 1.183.648.52.285 1.016.598 1.567.824.52.215 1.066.336 1.601.496.465.133.903.313 1.383.407 1.031.207 2.082.32 3.129.32h32v32c0 1.047.113 2.098.313 3.137.093.472.273.91.406 1.367.16.543.289 1.09.504 1.617.226.535.53 1.024.808 1.535.227.407.403.832.664 1.223a15.96 15.96 0 002.008 2.45L272 374.624c6.047 6.047 14.078 9.375 22.625 9.375H352c17.648 0 32-14.352 32-32v-57.367c0-8.543-3.328-16.586-9.375-22.633zM32 136C32 78.656 78.656 32 136 32s104 46.656 104 104-46.656 104-104 104S32 193.344 32 136zm320 216h-57.375L272 329.375V304c0-17.648-14.352-32-32-32h-25.375l-15.602-15.602a136.791 136.791 0 0057.375-57.375L352 294.633zm0 0"/><path d="M120 72c-26.473 0-48 21.527-48 48s21.527 48 48 48 48-21.527 48-48-21.527-48-48-48zm0 64c-8.824 0-16-7.176-16-16s7.176-16 16-16 16 7.176 16 16-7.176 16-16 16zm0 0"/></symbol><symbol viewBox="0 0 13 12" id="like" xmlns="http://www.w3.org/2000/svg"><path d="M1.3 12h.65V3.79H1.3a1.32 1.32 0 00-.92.37c-.243.236-.38.558-.38.893v5.684c0 .335.137.656.38.893.245.237.575.37.92.37zm10.4-8.21H7.15l.73-2.128A1.23 1.23 0 007.7.525a1.29 1.29 0 00-.462-.386A1.33 1.33 0 006.646 0H6.5L3.25 3.435V12h7.15l2.543-5.43.057-.254V5.053a1.25 1.25 0 00-.38-.894 1.32 1.32 0 00-.92-.37z"/></symbol><symbol viewBox="0 0 120 120" id="location" xmlns="http://www.w3.org/2000/svg"><path d="M60.5-.12c-24.778 0-44.865 20.087-44.865 44.865 0 41.909 44.865 75.405 44.865 75.405s44.865-33.494 44.865-75.405C105.365 19.966 85.277-.121 60.5-.12zm.001 64.688c-10.948 0-19.823-8.875-19.823-19.823s8.875-19.823 19.823-19.823 19.823 8.875 19.823 19.823-8.875 19.823-19.823 19.823z"/></symbol><symbol viewBox="0 0 24 24" id="lock" xmlns="http://www.w3.org/2000/svg"><path fill-rule="evenodd" clip-rule="evenodd" d="M5.5 10V7a6.5 6.5 0 1113 0v3h.5a3 3 0 013 3v7a3 3 0 01-3 3H5a3 3 0 01-3-3v-7a3 3 0 013-3h.5zm4.025-5.475A3.5 3.5 0 0115.5 7v3h-7V7a3.5 3.5 0 011.025-2.475z"/></symbol><symbol id="log-in" viewBox="0 0 20.7 16.4" xml:space="preserve" xmlns="http://www.w3.org/2000/svg"><style>.bkst0{fill:none;stroke:#4c4c4d;stroke-width:2;stroke-linecap:round;stroke-linejoin:round}</style><path class="bkst0" d="M6.8 4.6V2.8c0-.5.2-.9.5-1.3S8.1 1 8.6 1h9.3c.5 0 .9.2 1.3.5.3.3.5.8.5 1.3v10.8c0 .5-.2.9-.5 1.3-.3.3-.8.5-1.3.5H8.6c-.5 0-.9-.2-1.3-.5s-.5-.8-.5-1.3v-1.8"/><path class="bkst0" d="M11.1 11.8l3.6-3.6-3.6-3.6M1 8.2h13"/></symbol><symbol viewBox="0 0 16 17" id="login" xmlns="http://www.w3.org/2000/svg"><path d="M10.5 8.5l-3 3v-6l3 3zm0 0h-9"/><path d="M2.5 5.5V3.492a2 2 0 011.992-2l7.952-.032a2 2 0 012.008 1.993l.04 10.029A1.998 1.998 0 0112.5 15.49h-8a2 2 0 01-2-2V11.5"/></symbol><symbol viewBox="0 0 512 512" id="logout" xmlns="http://www.w3.org/2000/svg"><path d="M330.667 384h-21.333c-5.891 0-10.667 4.776-10.667 10.667v74.667h-256V42.667h256v74.667c0 5.891 4.776 10.667 10.667 10.667h21.333c5.891 0 10.667-4.776 10.667-10.667V42.667C341.333 19.103 322.231 0 298.667 0h-256C19.103 0 0 19.103 0 42.667v426.667C0 492.898 19.103 512 42.667 512h256c23.564 0 42.667-19.102 42.667-42.667v-74.667c-.001-5.89-4.776-10.666-10.667-10.666z"/><path d="M508.542 248.135l-128-117.333c-3.125-2.844-7.656-3.625-11.5-1.896a10.655 10.655 0 00-6.375 9.76V160c0 3.021 1.281 5.906 3.531 7.927l74.151 66.74H138.667A10.66 10.66 0 00128 245.334v21.333a10.66 10.66 0 0010.667 10.667h301.682l-74.151 66.74a10.656 10.656 0 00-3.531 7.927v21.333c0 4.229 2.5 8.063 6.375 9.76 1.375.615 2.844.906 4.292.906 2.615 0 5.198-.969 7.208-2.802l128-117.333C510.75 261.844 512 258.99 512 256s-1.25-5.844-3.458-7.865z"/></symbol><symbol viewBox="0 0 20 22" id="logout-2" xmlns="http://www.w3.org/2000/svg"><path fill-rule="evenodd" clip-rule="evenodd" d="M9.698 14.881l3.849-3.849-3.85-3.849v7.698zm3.849-3.849H2h11.547z"/><path d="M13.547 11.032l-3.85 3.85v-7.7l3.85 3.85zm0 0H2"/><path d="M3.283 7.183V4.607a2.566 2.566 0 012.556-2.566L16.04 2a2.566 2.566 0 012.576 2.557l.051 12.867A2.567 2.567 0 0116.113 20H5.849a2.566 2.566 0 01-2.566-2.566v-2.553"/></symbol><symbol viewBox="0 0 256 512" id="long-arrow-down" xmlns="http://www.w3.org/2000/svg"><path d="M252.485 343.03l-7.07-7.071c-4.686-4.686-12.284-4.686-16.971 0L145 419.887V44c0-6.627-5.373-12-12-12h-10c-6.627 0-12 5.373-12 12v375.887l-83.444-83.928c-4.686-4.686-12.284-4.686-16.971 0l-7.07 7.071c-4.686 4.686-4.686 12.284 0 16.97l116 116.485c4.686 4.686 12.284 4.686 16.971 0l116-116.485c4.686-4.686 4.686-12.284-.001-16.97z"/></symbol><symbol viewBox="0 0 448 512" id="long-arrow-left" xmlns="http://www.w3.org/2000/svg"><path d="M136.97 380.485l7.071-7.07c4.686-4.686 4.686-12.284 0-16.971L60.113 273H436c6.627 0 12-5.373 12-12v-10c0-6.627-5.373-12-12-12H60.113l83.928-83.444c4.686-4.686 4.686-12.284 0-16.971l-7.071-7.07c-4.686-4.686-12.284-4.686-16.97 0l-116.485 116c-4.686 4.686-4.686 12.284 0 16.971l116.485 116c4.686 4.686 12.284 4.686 16.97-.001z"/></symbol><symbol viewBox="0 0 448 512" id="long-arrow-right" xmlns="http://www.w3.org/2000/svg"><path d="M311.03 131.515l-7.071 7.07c-4.686 4.686-4.686 12.284 0 16.971L387.887 239H12c-6.627 0-12 5.373-12 12v10c0 6.627 5.373 12 12 12h375.887l-83.928 83.444c-4.686 4.686-4.686 12.284 0 16.971l7.071 7.07c4.686 4.686 12.284 4.686 16.97 0l116.485-116c4.686-4.686 4.686-12.284 0-16.971L328 131.515c-4.686-4.687-12.284-4.687-16.97 0z"/></symbol><symbol viewBox="0 0 256 512" id="long-arrow-up" xmlns="http://www.w3.org/2000/svg"><path d="M3.515 168.97l7.07 7.071c4.686 4.686 12.284 4.686 16.971 0L111 92.113V468c0 6.627 5.373 12 12 12h10c6.627 0 12-5.373 12-12V92.113l83.444 83.928c4.686 4.686 12.284 4.686 16.971 0l7.07-7.071c4.686-4.686 4.686-12.284 0-16.97l-116-116.485c-4.686-4.686-12.284-4.686-16.971 0L3.515 152c-4.687 4.686-4.687 12.284 0 16.97z"/></symbol><symbol viewBox="0 0 16 16" id="magnifying-zoom-glass" xmlns="http://www.w3.org/2000/svg"><path d="M15.78 13.833l-3.116-3.115a.75.75 0 00-.53-.219h-.51a6.468 6.468 0 001.375-4c0-3.59-2.91-6.499-6.5-6.499S0 2.91 0 6.5s2.91 6.499 6.5 6.499a6.469 6.469 0 003.999-1.375v.51c0 .2.078.39.219.53l3.115 3.116a.747.747 0 001.06 0l.884-.885a.753.753 0 00.003-1.062zM6.5 10.499c-2.21 0-4-1.787-4-4 0-2.209 1.787-4 4-4a3.997 3.997 0 013.999 4c0 2.21-1.787 4-4 4z"/></symbol><symbol viewBox="0 0 20 17" id="menu" xmlns="http://www.w3.org/2000/svg"><path d="M0 0h20v3H0zm0 7h20v3H0zm0 7h20v3H0z"/></symbol><symbol viewBox="0 0 512 512" id="menu-dots" xmlns="http://www.w3.org/2000/svg"><circle cx="256" cy="256" r="64"/><circle cx="256" cy="448" r="64"/><circle cx="256" cy="64" r="64"/></symbol><symbol viewBox="0 0 24 24" id="minus" xmlns="http://www.w3.org/2000/svg"><path d="M6 12a1 1 0 011-1h10a1 1 0 010 2H7a1 1 0 01-1-1z"/></symbol><symbol viewBox="0 0 6 11" id="next" xmlns="http://www.w3.org/2000/svg"><path d="M.557 10.5l4.526-5.037L.557.5v10z"/></symbol><symbol viewBox="0 0 320 512" id="ok" xmlns="http://www.w3.org/2000/svg"><path d="M275.1 334c-27.4 17.4-65.1 24.3-90 26.9l20.9 20.6 76.3 76.3c27.9 28.6-17.5 73.3-45.7 45.7-19.1-19.4-47.1-47.4-76.3-76.6L84 503.4c-28.2 27.5-73.6-17.6-45.4-45.7 19.4-19.4 47.1-47.4 76.3-76.3l20.6-20.6c-24.6-2.6-62.9-9.1-90.6-26.9-32.6-21-46.9-33.3-34.3-59 7.4-14.6 27.7-26.9 54.6-5.7 0 0 36.3 28.9 94.9 28.9s94.9-28.9 94.9-28.9c26.9-21.1 47.1-8.9 54.6 5.7 12.4 25.7-1.9 38-34.5 59.1zM30.3 129.7C30.3 58 88.6 0 160 0s129.7 58 129.7 129.7c0 71.4-58.3 129.4-129.7 129.4s-129.7-58-129.7-129.4zm66 0c0 35.1 28.6 63.7 63.7 63.7s63.7-28.6 63.7-63.7c0-35.4-28.6-64-63.7-64s-63.7 28.6-63.7 64z"/></symbol><symbol viewBox="0 0 11 11" id="pen" xmlns="http://www.w3.org/2000/svg"><path d="M.632 6.936l-.617 2.66a.668.668 0 00.65.811.692.692 0 00.139 0l2.676-.616 5.138-5.119-2.867-2.861L.63 6.936zm9.602-4.826L8.32.194a.671.671 0 00-.947 0L6.309 1.26l2.864 2.865 1.064-1.064a.67.67 0 00-.003-.95z"/></symbol><symbol viewBox="0 0 448 448" id="phone" xmlns="http://www.w3.org/2000/svg"><path d="M384 0H64C28.6 0 0 28.7 0 64v320c0 35.4 28.6 64 64 64h320c35.4 0 64-28.6 64-64V64c0-35.3-28.7-64-64-64zm-32.4 289.5L340 339.9c-1.6 7.1-7.9 12.1-15.2 12.1C198.6 352 96 249.4 96 123.2c0-7.3 5-13.6 12.1-15.2l50.4-11.6c7.3-1.7 14.9 2.1 17.9 9.1l23.3 54.3c2.7 6.4.9 13.8-4.5 18.2l-26.9 22c17 34.6 45.1 62.8 79.8 79.8l22-26.9c4.3-5.4 11.9-7.2 18.2-4.5l54.2 23.2c7 3 10.8 10.6 9.1 17.9z"/></symbol><symbol viewBox="0 0 22 22" id="phone-rounded" xmlns="http://www.w3.org/2000/svg"><path d="M11 0C4.925 0 0 4.925 0 11s4.925 11 11 11 11-4.925 11-11S17.075 0 11 0zM7.047 4.37c.227-.014.431.121.587.362l1.504 2.852c.158.338.068.7-.168.941l-.69.69a.337.337 0 00-.07.195c.264 1.023 1.065 1.966 1.772 2.614.707.65 1.467 1.527 2.453 1.735.122.034.272.047.359-.034l.8-.816c.277-.209.676-.31.971-.14h.014l2.713 1.603c.398.25.44.732.155 1.026l-1.87 1.854c-.275.283-.642.378-.998.379-1.576-.048-3.065-.821-4.288-1.616-2.007-1.46-3.849-3.271-5.004-5.46-.444-.917-.965-2.088-.915-3.112.005-.385.109-.763.38-1.011l1.87-1.87a.731.731 0 01.425-.193z"/></symbol><symbol viewBox="0 0 13 11" id="photo" xmlns="http://www.w3.org/2000/svg"><path d="M6.111 7.944a1.833 1.833 0 100-3.666 1.833 1.833 0 000 3.666z"/><path d="M11 1.222H9.063L8.305.397A1.216 1.216 0 007.407 0H4.816a1.24 1.24 0 00-.905.397l-.752.825H1.222C.55 1.222 0 1.772 0 2.444v7.334C0 10.45.55 11 1.222 11H11c.672 0 1.222-.55 1.222-1.222V2.444c0-.672-.55-1.222-1.222-1.222zM6.111 9.167a3.057 3.057 0 010-6.111 3.057 3.057 0 010 6.11z"/></symbol><symbol viewBox="0 0 24 24" class="ccicon ccflat-color" id="plus" xmlns="http://www.w3.org/2000/svg"><path d="M12 20a1 1 0 01-1-1v-6H5a1 1 0 010-2h6V5a1 1 0 012 0v6h6a1 1 0 010 2h-6v6a1 1 0 01-1 1z"/></symbol><symbol viewBox="0 0 5 11" id="prev" xmlns="http://www.w3.org/2000/svg"><path d="M4.294 10.5L0 5.463 4.294.5v10z"/></symbol><symbol viewBox="0 0 512 512" id="question-circle" xmlns="http://www.w3.org/2000/svg"><path d="M256 340c-15.464 0-28 12.536-28 28s12.536 28 28 28 28-12.536 28-28-12.536-28-28-28zm7.67-24h-16c-6.627 0-12-5.373-12-12v-.381c0-70.343 77.44-63.619 77.44-107.408 0-20.016-17.761-40.211-57.44-40.211-29.144 0-44.265 9.649-59.211 28.692-3.908 4.98-11.054 5.995-16.248 2.376l-13.134-9.15c-5.625-3.919-6.86-11.771-2.645-17.177C185.658 133.514 210.842 116 255.67 116c52.32 0 97.44 29.751 97.44 80.211 0 67.414-77.44 63.849-77.44 107.408V304c0 6.627-5.373 12-12 12zM256 40c118.621 0 216 96.075 216 216 0 119.291-96.61 216-216 216-119.244 0-216-96.562-216-216 0-119.203 96.602-216 216-216m0-32C119.043 8 8 119.083 8 256c0 136.997 111.043 248 248 248s248-111.003 248-248C504 119.083 392.957 8 256 8z"/></symbol><symbol viewBox="0 0 448 512" id="save" xmlns="http://www.w3.org/2000/svg"><path d="M433.941 129.941l-83.882-83.882A48 48 0 00316.118 32H48C21.49 32 0 53.49 0 80v352c0 26.51 21.49 48 48 48h352c26.51 0 48-21.49 48-48V163.882a48 48 0 00-14.059-33.941zM224 416c-35.346 0-64-28.654-64-64 0-35.346 28.654-64 64-64s64 28.654 64 64c0 35.346-28.654 64-64 64zm96-304.52V212c0 6.627-5.373 12-12 12H76c-6.627 0-12-5.373-12-12V108c0-6.627 5.373-12 12-12h228.52c3.183 0 6.235 1.264 8.485 3.515l3.48 3.48A11.996 11.996 0 01320 111.48z"/></symbol><symbol viewBox="0 0 14 12" id="scales" xmlns="http://www.w3.org/2000/svg"><path d="M5.507 7.219c0-.348.028-.188-1.83-3.9a1.034 1.034 0 00-1.847 0C-.044 7.063 0 6.882 0 7.22c0 .949 1.233 1.718 2.753 1.718s2.754-.77 2.754-1.718zM2.753 3.78l1.55 3.094H1.204L2.752 3.78zm11.013 3.44c0-.348.03-.188-1.83-3.9a1.034 1.034 0 00-1.846 0c-1.874 3.744-1.83 3.563-1.83 3.9 0 .949 1.233 1.718 2.753 1.718 1.521 0 2.753-.77 2.753-1.718zm-4.301-.344l1.548-3.094 1.55 3.094H9.464zm-.107 3.75H7.572V3.292a1.72 1.72 0 00.998-1.23h2.788c.19 0 .344-.153.344-.343V1.03a.344.344 0 00-.344-.343H8.252A1.713 1.713 0 006.883 0c-.56 0-1.055.272-1.369.688H2.41a.344.344 0 00-.344.343v.688c0 .19.154.343.344.343h2.788a1.72 1.72 0 00.998 1.23v7.333H4.409a.344.344 0 00-.344.344v.687c0 .19.154.344.344.344h4.949c.19 0 .344-.154.344-.344v-.687a.344.344 0 00-.344-.344z"/></symbol><symbol id="scales-add" viewBox="0 0 22 12" xml:space="preserve" xmlns="http://www.w3.org/2000/svg"><style>.chst0{fill:#828282}</style><path class="chst0" d="M17.9 9.3c0 .3.3.6.6.6s.6-.3.6-.6V7.1h2.2c.3 0 .6-.3.6-.6s-.3-.6-.6-.6h-2.2V3.6c0-.3-.3-.6-.6-.6s-.6.3-.6.6v2.2h-2.2c-.3 0-.6.3-.6.6s.3.6.6.6h2.2v2.3zM5.5 7.2c0-.3 0-.2-1.8-3.9-.4-.8-1.5-.8-1.8 0C0 7.1 0 6.9 0 7.2c0 .9 1.2 1.7 2.8 1.7s2.7-.7 2.7-1.7zM2.8 3.8l1.5 3.1H1.2l1.6-3.1zm11 3.4c0-.3 0-.2-1.8-3.9-.4-.8-1.5-.8-1.8 0-2 3.8-1.9 3.6-1.9 3.9 0 .9 1.2 1.7 2.8 1.7s2.7-.7 2.7-1.7zm-4.3-.3L11 3.8l1.5 3.1h-3zm-.1 3.7H7.6V3.3c.5-.2.9-.7 1-1.2h2.8c.2 0 .3-.2.3-.3V1c0-.2-.2-.3-.3-.3H8.3C7.9.3 7.4 0 6.9 0c-.6 0-1.1.3-1.4.7H2.4c-.2 0-.3.1-.3.3v.7c0 .2.2.3.3.3h2.8c.1.6.5 1 1 1.2v7.3H4.4c-.2 0-.3.2-.3.3v.7c0 .2.2.3.3.3h4.9c.2 0 .3-.2.3-.3V11c.1-.2-.1-.4-.2-.4z"/></symbol><symbol id="scales-remove" viewBox="0 0 22 12" xml:space="preserve" xmlns="http://www.w3.org/2000/svg"><style>.cist0{fill:#49a122}</style><path class="cist0" d="M21.3 7.1c.3 0 .6-.3.6-.6s-.3-.6-.6-.6h-5.7c-.3 0-.6.3-.6.6s.3.6.6.6h5.7zm-15.8.1c0-.3 0-.2-1.8-3.9-.4-.8-1.5-.8-1.8 0C0 7.1 0 6.9 0 7.2c0 .9 1.2 1.7 2.8 1.7s2.7-.7 2.7-1.7zM2.8 3.8l1.5 3.1H1.2l1.6-3.1zm11 3.4c0-.3 0-.2-1.8-3.9-.4-.8-1.5-.8-1.8 0-2 3.8-1.9 3.6-1.9 3.9 0 .9 1.2 1.7 2.8 1.7s2.7-.7 2.7-1.7zm-4.3-.3L11 3.8l1.5 3.1h-3zm-.1 3.7H7.6V3.3c.5-.2.9-.7 1-1.2h2.8c.2 0 .3-.2.3-.3V1c0-.2-.2-.3-.3-.3H8.3C7.9.3 7.4 0 6.9 0c-.6 0-1.1.3-1.4.7H2.4c-.2 0-.3.1-.3.3v.7c0 .2.2.3.3.3h2.8c.1.6.5 1 1 1.2v7.3H4.4c-.2 0-.3.2-.3.3v.7c0 .2.2.3.3.3h4.9c.2 0 .3-.2.3-.3V11c.1-.2-.1-.4-.2-.4z"/></symbol><symbol viewBox="0 0 511.999 511.999" id="search" xmlns="http://www.w3.org/2000/svg"><path d="M508.874 478.708L360.142 329.976c28.21-34.827 45.191-79.103 45.191-127.309C405.333 90.917 314.416 0 202.666 0S0 90.917 0 202.667s90.917 202.667 202.667 202.667c48.206 0 92.482-16.982 127.309-45.191l148.732 148.732c4.167 4.165 10.919 4.165 15.086 0l15.081-15.082c4.165-4.166 4.165-10.92-.001-15.085zM202.667 362.667c-88.229 0-160-71.771-160-160s71.771-160 160-160 160 71.771 160 160-71.771 160-160 160z"/></symbol><symbol id="search-glass" viewBox="0 0 18.7 18.7" xml:space="preserve" xmlns="http://www.w3.org/2000/svg"><style>.ckst0{fill:#4c4c4d}</style><path class="ckst0" d="M8 16c1.8 0 3.5-.6 4.9-1.7l4.4 4.4 1.4-1.4-4.4-4.4C15.4 11.5 16 9.8 16 8c0-4.4-3.6-8-8-8S0 3.6 0 8s3.6 8 8 8zM8 2c3.3 0 6 2.7 6 6s-2.7 6-6 6-6-2.7-6-6 2.7-6 6-6z"/><path class="ckst0" d="M10.4 6.6c.4.4.6.9.6 1.4h2c0-.5-.1-1-.3-1.5s-.5-.9-.9-1.3c-1.5-1.5-4.1-1.5-5.7 0l1.4 1.4c.8-.8 2.2-.8 2.9 0z"/></symbol><symbol viewBox="0 0 19 14" id="self-delivery" xmlns="http://www.w3.org/2000/svg"><path d="M14.34.042a.992.992 0 00-.556 1.381c.325.657 1.268.725 1.685.118a.991.991 0 00-.388-1.457c-.134-.063-.181-.073-.389-.077-.178-.005-.263.004-.353.035zM15.295 3.11c-.822.162-.894.186-.99.348-.027.042-.177.367-.333.723-.157.355-.294.656-.303.668a7.74 7.74 0 01-.603.158c-.612.145-.673.171-.79.329-.102.136-.095.398.018.57a.56.56 0 00.38.204c.131 0 1.489-.327 1.607-.388.105-.054.195-.177.303-.419a1.53 1.53 0 01.118-.228c.007 0 .101.487.207 1.085l.19 1.082-.7.986c-.384.541-.707 1.01-.716 1.04a114.1 114.1 0 00-.226 3.18c0 .353.19.548.518.53.211-.013.334-.09.411-.262.052-.115.062-.214.153-1.57.052-.795.104-1.475.116-1.508.019-.059 1.179-1.713 1.202-1.716.007 0 .28 1.076.61 2.389.515 2.066.605 2.403.663 2.483.191.26.62.251.808-.017.138-.198.157-.092-.528-2.836-.435-1.734-.611-2.478-.59-2.485.063-.02.176-.139.216-.228.085-.184.066-.325-.294-2.304-.384-2.094-.348-1.97-.565-1.965-.066.003-.463.07-.882.15zM8.074 3.667a1 1 0 011 1v4.049a1 1 0 01-1 1h-6.14a1 1 0 01-1-1v-4.05a1 1 0 011-1h6.14zm3.743 1.768a.349.349 0 010 .697c-.194 0-.349.556-.349.75v3.834c0 .77-.624 1.394-1.394 1.394H.282a.349.349 0 010-.697h9.792c.415 0 .697-.282.697-.697V6.882c0-.573.472-1.447 1.046-1.447z"/><circle cx="1.75" cy="12.75" r=".75"/><circle cx="8.75" cy="12.75" r=".75"/></symbol><symbol viewBox="0 0 25 24" id="shopping-cart" xmlns="http://www.w3.org/2000/svg"><path d="M24.014 16.36H7.418l.834-1.742 13.844-.026c.468 0 .87-.343.953-.818l1.918-11.016a1.014 1.014 0 00-.21-.813.954.954 0 00-.741-.358l-17.612-.06-.15-.726A.996.996 0 005.288 0H.984a.971.971 0 00-.696.296 1.026 1.026 0 000 1.428.97.97 0 00.696.296h3.508l.658 3.21 1.619 8.046-2.084 3.493a1.016 1.016 0 00-.084 1.053c.167.34.504.555.878.555h1.75a2.981 2.981 0 00-.574 1.765c0 1.619 1.282 2.935 2.859 2.935s2.86-1.316 2.86-2.935c0-.638-.207-1.259-.575-1.765h4.49a2.982 2.982 0 00-.575 1.765c0 1.619 1.282 2.935 2.86 2.935 1.577 0 2.859-1.316 2.859-2.935 0-.638-.206-1.259-.574-1.765h3.157a1 1 0 00.984-1.01 1.027 1.027 0 00-.291-.712.974.974 0 00-.695-.295zM6.814 3.52l16.046.054-1.572 9.034-12.604.023-1.87-9.111zm2.7 17.527a.894.894 0 01-.88-.904c0-.498.395-.904.88-.904s.88.406.88.904c0 .24-.092.47-.257.64a.87.87 0 01-.623.264zm9.06 0a.894.894 0 01-.88-.904c0-.498.395-.904.88-.904s.88.406.88.904c0 .24-.092.47-.258.64a.87.87 0 01-.622.264z"/></symbol><symbol viewBox="0 0 20 20" id="shopping-cart-main" xmlns="http://www.w3.org/2000/svg"><path d="M18.897 10.804l1.085-5.97a1.071 1.071 0 00-1.054-1.263H4.823L4.44 1.466A1.785 1.785 0 002.683 0H1.071a1.071 1.071 0 000 2.143h1.314l2.363 12.999a2.855 2.855 0 104.804 1.286h3.753a2.857 2.857 0 102.766-2.143h-9.3l-.26-1.428h9.926a2.5 2.5 0 002.46-2.053zM7.5 17.142a.715.715 0 11-1.43 0 .715.715 0 011.43 0zm8.571.715a.714.714 0 110-1.429.714.714 0 010 1.429zM5.212 5.714h12.432l-.855 4.707a.357.357 0 01-.352.293H6.121l-.909-5z"/></symbol><symbol viewBox="0 0 576 512" id="star" xmlns="http://www.w3.org/2000/svg"><path d="M259.3 17.8L194 150.2 47.9 171.5c-26.2 3.8-36.7 36.1-17.7 54.6l105.7 103-25 145.5c-4.5 26.3 23.2 46 46.4 33.7L288 439.6l130.7 68.7c23.2 12.2 50.9-7.4 46.4-33.7l-25-145.5 105.7-103c19-18.5 8.5-50.8-17.7-54.6L382 150.2 316.7 17.8c-11.7-23.6-45.6-23.9-57.4 0z"/></symbol><symbol viewBox="0 0 12 12" id="stock" xmlns="http://www.w3.org/2000/svg"><path d="M2.91 6.902a.656.656 0 010-.93L4.223 4.66a.657.657 0 11.93.93l-.192.191h3.008V4.688a.656.656 0 111.312 0v1.75a.656.656 0 01-.656.656H4.961l.191.191a.656.656 0 01-.465 1.12.662.662 0 01-.464-.19L2.91 6.902zm8.996-4.84v7.876a1.1 1.1 0 01-1.094 1.093H1.188A1.1 1.1 0 01.093 9.937V2.064A1.1 1.1 0 011.187.968h9.626a1.1 1.1 0 011.093 1.094zm-1.312.22H1.406v7.437h9.188V2.28z"/></symbol><symbol viewBox="0 0 512 512" id="th" xmlns="http://www.w3.org/2000/svg"><path d="M149.333 56v80c0 13.255-10.745 24-24 24H24c-13.255 0-24-10.745-24-24V56c0-13.255 10.745-24 24-24h101.333c13.255 0 24 10.745 24 24zm181.334 240v-80c0-13.255-10.745-24-24-24H205.333c-13.255 0-24 10.745-24 24v80c0 13.255 10.745 24 24 24h101.333c13.256 0 24.001-10.745 24.001-24zm32-240v80c0 13.255 10.745 24 24 24H488c13.255 0 24-10.745 24-24V56c0-13.255-10.745-24-24-24H386.667c-13.255 0-24 10.745-24 24zm-32 80V56c0-13.255-10.745-24-24-24H205.333c-13.255 0-24 10.745-24 24v80c0 13.255 10.745 24 24 24h101.333c13.256 0 24.001-10.745 24.001-24zm-205.334 56H24c-13.255 0-24 10.745-24 24v80c0 13.255 10.745 24 24 24h101.333c13.255 0 24-10.745 24-24v-80c0-13.255-10.745-24-24-24zM0 376v80c0 13.255 10.745 24 24 24h101.333c13.255 0 24-10.745 24-24v-80c0-13.255-10.745-24-24-24H24c-13.255 0-24 10.745-24 24zm386.667-56H488c13.255 0 24-10.745 24-24v-80c0-13.255-10.745-24-24-24H386.667c-13.255 0-24 10.745-24 24v80c0 13.255 10.745 24 24 24zm0 160H488c13.255 0 24-10.745 24-24v-80c0-13.255-10.745-24-24-24H386.667c-13.255 0-24 10.745-24 24v80c0 13.255 10.745 24 24 24zM181.333 376v80c0 13.255 10.745 24 24 24h101.333c13.255 0 24-10.745 24-24v-80c0-13.255-10.745-24-24-24H205.333c-13.255 0-24 10.745-24 24z"/></symbol><symbol viewBox="0 0 512 512" id="th-list" xmlns="http://www.w3.org/2000/svg"><path d="M149.333 216v80c0 13.255-10.745 24-24 24H24c-13.255 0-24-10.745-24-24v-80c0-13.255 10.745-24 24-24h101.333c13.255 0 24 10.745 24 24zM0 376v80c0 13.255 10.745 24 24 24h101.333c13.255 0 24-10.745 24-24v-80c0-13.255-10.745-24-24-24H24c-13.255 0-24 10.745-24 24zM125.333 32H24C10.745 32 0 42.745 0 56v80c0 13.255 10.745 24 24 24h101.333c13.255 0 24-10.745 24-24V56c0-13.255-10.745-24-24-24zm80 448H488c13.255 0 24-10.745 24-24v-80c0-13.255-10.745-24-24-24H205.333c-13.255 0-24 10.745-24 24v80c0 13.255 10.745 24 24 24zm-24-424v80c0 13.255 10.745 24 24 24H488c13.255 0 24-10.745 24-24V56c0-13.255-10.745-24-24-24H205.333c-13.255 0-24 10.745-24 24zm24 264H488c13.255 0 24-10.745 24-24v-80c0-13.255-10.745-24-24-24H205.333c-13.255 0-24 10.745-24 24v80c0 13.255 10.745 24 24 24z"/></symbol><symbol viewBox="0 0 320 512" id="times" xmlns="http://www.w3.org/2000/svg"><path d="M193.94 256L296.5 153.44l21.15-21.15c3.12-3.12 3.12-8.19 0-11.31l-22.63-22.63c-3.12-3.12-8.19-3.12-11.31 0L160 222.06 36.29 98.34c-3.12-3.12-8.19-3.12-11.31 0L2.34 120.97c-3.12 3.12-3.12 8.19 0 11.31L126.06 256 2.34 379.71c-3.12 3.12-3.12 8.19 0 11.31l22.63 22.63c3.12 3.12 8.19 3.12 11.31 0L160 289.94 262.56 392.5l21.15 21.15c3.12 3.12 8.19 3.12 11.31 0l22.63-22.63c3.12-3.12 3.12-8.19 0-11.31L193.94 256z"/></symbol><symbol viewBox="0 0 24 24" id="trash" xmlns="http://www.w3.org/2000/svg"><path d="M21 6h-5V4.33A2.42 2.42 0 0013.5 2h-3A2.42 2.42 0 008 4.33V6H3a1 1 0 000 2h1v11a3 3 0 003 3h10a3 3 0 003-3V8h1a1 1 0 100-2zM10 4.33c0-.16.21-.33.5-.33h3c.29 0 .5.17.5.33V6h-4V4.33zM18 19a1 1 0 01-1 1H7a1 1 0 01-1-1V8h12v11z"/><path d="M9 17a1 1 0 001-1v-4a1 1 0 10-2 0v4a1 1 0 001 1zm6 0a1 1 0 001-1v-4a1 1 0 00-2 0v4a1 1 0 001 1z"/></symbol><symbol viewBox="0 0 32 32" id="tree" xmlns="http://www.w3.org/2000/svg"><path d="M27 22.141V18a2 2 0 00-2-2h-8v-4h2a2.002 2.002 0 002-2V4a2.002 2.002 0 00-2-2h-6a2.002 2.002 0 00-2 2v6a2.002 2.002 0 002 2h2v4H7a2 2 0 00-2 2v4.142a4 4 0 102 0V18h8v4.142a4 4 0 102 0V18h8v4.141a4 4 0 102 0zM13 4h6l.001 6H13zM8 26a2 2 0 11-2-2 2.002 2.002 0 012 2zm10 0a2 2 0 11-2-2 2.003 2.003 0 012 2zm8 2a2 2 0 112-2 2.002 2.002 0 01-2 2z"/></symbol><symbol viewBox="0 0 18 13" id="truck" xmlns="http://www.w3.org/2000/svg"><path d="M1.576 0A1.55 1.55 0 00.462.476 1.651 1.651 0 000 1.625v7.938a1 1 0 001 1h.576c0 .646.249 1.266.692 1.723A2.328 2.328 0 003.939 13c.627 0 1.228-.257 1.672-.714a2.477 2.477 0 00.692-1.723h4.727c0 .646.25 1.266.693 1.723a2.328 2.328 0 001.67.714c.628 0 1.229-.257 1.672-.714a2.477 2.477 0 00.693-1.723h.575a1 1 0 001-1V6.5L14.97 3.25h-2.364V1a1 1 0 00-1-1H1.576zm11.03 4.469h1.97L16.128 6.5h-3.522V4.469zM3.94 9.344c.314 0 .614.128.836.357.222.228.346.538.346.861 0 .324-.124.634-.346.862a1.164 1.164 0 01-.836.357 1.16 1.16 0 01-.835-.357 1.239 1.239 0 01-.346-.861c0-.324.124-.634.346-.862a1.16 1.16 0 01.835-.357zm9.455 0c.313 0 .614.128.836.357.221.228.346.538.346.861 0 .324-.125.634-.346.862a1.164 1.164 0 01-.836.357c-.313 0-.614-.128-.836-.357a1.238 1.238 0 01-.346-.861c0-.324.125-.634.346-.862.222-.229.523-.357.836-.357z"/></symbol><symbol viewBox="0 0 512 512" id="twitter" xmlns="http://www.w3.org/2000/svg"><path d="M459.37 151.716c.325 4.548.325 9.097.325 13.645 0 138.72-105.583 298.558-298.558 298.558-59.452 0-114.68-17.219-161.137-47.106 8.447.974 16.568 1.299 25.34 1.299 49.055 0 94.213-16.568 130.274-44.832-46.132-.975-84.792-31.188-98.112-72.772 6.498.974 12.995 1.624 19.818 1.624 9.421 0 18.843-1.3 27.614-3.573-48.081-9.747-84.143-51.98-84.143-102.985v-1.299c13.969 7.797 30.214 12.67 47.431 13.319-28.264-18.843-46.781-51.005-46.781-87.391 0-19.492 5.197-37.36 14.294-52.954 51.655 63.675 129.3 105.258 216.365 109.807-1.624-7.797-2.599-15.918-2.599-24.04 0-57.828 46.782-104.934 104.934-104.934 30.213 0 57.502 12.67 76.67 33.137 23.715-4.548 46.456-13.32 66.599-25.34-7.798 24.366-24.366 44.833-46.132 57.827 21.117-2.273 41.584-8.122 60.426-16.243-14.292 20.791-32.161 39.308-52.628 54.253z"/></symbol><symbol viewBox="0 0 19 11" id="undo" xmlns="http://www.w3.org/2000/svg"><path d="M15.071 7.95a.623.623 0 00.879 0 .623.623 0 000-.879l-1.586-1.585L15.95 3.9a.623.623 0 000-.88.623.623 0 00-.879 0l-1.586 1.587L11.9 3.02a.623.623 0 00-.88 0 .623.623 0 000 .879l1.587 1.586L11.02 7.07a.623.623 0 000 .88.623.623 0 00.878 0l1.586-1.587 1.586 1.586zM4 0v2.75c0 .313.126.612.351.833.226.221.53.346.849.346H8V9.82c0 .313-.126.613-.351.834-.226.22-.53.345-.849.345H1.2c-.318 0-.623-.124-.849-.345A1.168 1.168 0 010 9.82V1.18C0 .866.126.566.351.345.577.125.881 0 1.2 0H4zm.8.196V2.75a.39.39 0 00.117.278.404.404 0 00.283.115h2.6L4.8.196z"/></symbol><symbol viewBox="0 0 17.1 19" id="user" xmlns="http://www.w3.org/2000/svg"><path d="M8.6 7.6c1.6 0 2.9-1.3 2.9-2.8S10.2 2 8.6 2s-3 1.2-3 2.8 1.3 2.8 3 2.8zm0 1.9c-2.7 0-4.8-2.1-4.8-4.8S5.9 0 8.6 0s4.8 2.1 4.8 4.8-2.2 4.7-4.8 4.7zm-6.7 7.6h13.3v-1.3c0-1.7-2.2-3.4-6.6-3.4s-6.7 1.7-6.7 3.4v1.3zm6.7-6.5c6.3 0 8.6 3.2 8.6 5.3V19H0v-3.2c0-2.1 2.2-5.2 8.6-5.2z"/></symbol><symbol viewBox="0 0 31 20" id="vin" xmlns="http://www.w3.org/2000/svg"><path d="M26 0H5C2.2 0 0 2.2 0 5v10c0 2.8 2.2 5 5 5h21c2.8 0 5-2.2 5-5V5c0-2.8-2.2-5-5-5zM9.4 15h-2l-4-9.1h2.3l2.8 6.5 2.8-6.5h2.1l-4 9.1zm6.8 0h-2.1V5.9h2.1V15zm10.6 0H25l-4.5-5.5V15h-2.1V5.9h1.7l4.5 5.5V5.9h2.1V15z"/></symbol><symbol viewBox="0 0 24 24" id="vin-bubble" xmlns="http://www.w3.org/2000/svg"><path d="M8.586 18L12 21.414 15.414 18H19c1.103 0 2-.897 2-2V4c0-1.103-.897-2-2-2H4c-1.103 0-2 .897-2 2v12c0 1.103.897 2 2 2h4.586zM4 4h15v12h-4.414L12 18.586 9.414 16H4V4z"/><path d="M6.736 13l-1.64-5.584H6.28l.896 3.392.176 1.152h.128l.176-1.152.88-3.392h1.152L8.08 13H6.736zm3.405 0v-.904h.656V8.32h-.656v-.904h2.456v.904h-.656v3.776h.656V13h-2.456zm4.852-2.992l-.352-.888h-.128l.064.936V13h-1.072V7.416h1.248l1.408 2.992.352.888h.128l-.064-.936V7.416h1.072V13H16.4l-1.408-2.992z"/></symbol><symbol viewBox="0 0 576 512" id="vk" xmlns="http://www.w3.org/2000/svg"><path d="M545 117.7c3.7-12.5 0-21.7-17.8-21.7h-58.9c-15 0-21.9 7.9-25.6 16.7 0 0-30 73.1-72.4 120.5-13.7 13.7-20 18.1-27.5 18.1-3.7 0-9.4-4.4-9.4-16.9V117.7c0-15-4.2-21.7-16.6-21.7h-92.6c-9.4 0-15 7-15 13.5 0 14.2 21.2 17.5 23.4 57.5v86.8c0 19-3.4 22.5-10.9 22.5-20 0-68.6-73.4-97.4-157.4-5.8-16.3-11.5-22.9-26.6-22.9H38.8c-16.8 0-20.2 7.9-20.2 16.7 0 15.6 20 93.1 93.1 195.5C160.4 378.1 229 416 291.4 416c37.5 0 42.1-8.4 42.1-22.9 0-66.8-3.4-73.1 15.4-73.1 8.7 0 23.7 4.4 58.7 38.1 40 40 46.6 57.9 69 57.9h58.9c16.8 0 25.3-8.4 20.4-25-11.2-34.9-86.9-106.7-90.3-111.5-8.7-11.2-6.2-16.2 0-26.2.1-.1 72-101.3 79.4-135.6z"/></symbol><symbol viewBox="0 0 31 31" id="youtube" xmlns="http://www.w3.org/2000/svg"><path d="M12.926 11.77l6.587 3.744-6.587 3.743V11.77zM31 3.321V27.68A3.322 3.322 0 0127.679 31H3.32A3.322 3.322 0 010 27.679V3.32A3.322 3.322 0 013.321 0H27.68A3.322 3.322 0 0131 3.321zm-2.906 12.2s0-4.124-.526-6.103a3.159 3.159 0 00-2.228-2.242c-1.959-.533-9.84-.533-9.84-.533s-7.881 0-9.84.533a3.158 3.158 0 00-2.228 2.242c-.526 1.972-.526 6.103-.526 6.103s0 4.124.526 6.103A3.113 3.113 0 005.66 23.83c1.959.526 9.84.526 9.84.526s7.881 0 9.84-.533a3.113 3.113 0 002.228-2.207c.526-1.972.526-6.096.526-6.096z"/></symbol></svg>