<svg xmlns="http://www.w3.org/2000/svg" width="77.969" height="25.094"><path d="M62.775 13.441a5.829 5.829 0 1 1-5.822 5.828 5.825 5.825 0 0 1 5.822-5.828zM57.363 3.108l-.389 5.081c1.141-.061 2.242-.113 3.265-.147a.815.815 0 0 0 .725-.392 8.563 8.563 0 0 0 .7-1.469.654.654 0 0 0-.165-.737 19.422 19.422 0 0 0-4.139-2.336zm-1.254 5.127l.477-5.479a11.093 11.093 0 0 0-1.14-.448 15.007 15.007 0 0 0-4.016-.645l-4.451-.053a.743.743 0 0 0-.622.292c-.358.93-.442 2.195-.908 6.017-.128 1.045-.06.762 1.1.748 2.855-.034 6.325-.254 9.561-.432zm15.685 13.614c1.182-.091 2.521-.2 3.578-.384a3.961 3.961 0 0 0 1.748-.578c.855-.8.757-3.276.743-4.548 0-.309-.787-.31-.806-.633-.114-1.96-.251-4.131-.465-6.146-.257-2.418-5.21-2.507-8.246-3.469-2.159-.684-3.937-2.151-6.71-3.379C58.583 1.361 55.918.121 52.707.121c-5.217 0-12.972-.623-17.829.923-4.651 1.479-8.889 4.154-13.3 6.238a127.645 127.645 0 0 0-16.676 3 4.171 4.171 0 0 0-3.049 2.287 26.859 26.859 0 0 0-1.131 2.845c-.429.035-.445-.074-.581.177a2.906 2.906 0 0 0-.094 1.045 10.33 10.33 0 0 0 .192 3.142 2.57 2.57 0 0 0 .868 1.558 2 2 0 0 0 1.139.434l1.981.064c1.183-.218.96-.37.885-1.875q-.018-.343-.018-.69a7.569 7.569 0 1 1 15.138 0c0 .426-.009.844-.038 1.25-.177 2.538-.413 2.1 1.886 2.215l31.757-.035c1.69-.233 1.594-.02 1.417-2.146-.035-.417-.047-.846-.047-1.284a7.569 7.569 0 1 1 15.138 0c0 .359-.01.716-.037 1.07-.136 1.739.351 1.6 1.485 1.51zM29.739 9.263a6.09 6.09 0 0 0 .274-1.317c.06-1.011-1.786-1.086-2.931-1.011a34.121 34.121 0 0 1 8.465-4.436 26.222 26.222 0 0 1 5.8-.836l2.508-.053c.453-.006.513.2.38.561a39.658 39.658 0 0 0-.894 5.53.961.961 0 0 1-1.186 1.046c-3.385.028-12.462.679-12.42.516zm-17.076 4.178a5.829 5.829 0 1 1-5.822 5.828 5.826 5.826 0 0 1 5.822-5.828z" fill-rule="evenodd"/></svg>
