<svg xmlns="http://www.w3.org/2000/svg" width="72.094" height="26.594"><path data-name="station wagon.png" class="cls-1" d="M71.714 20.705a20.3 20.3 0 0 0 .382-4.832.912.912 0 0 0-.709-1.106.969.969 0 0 1-.725-.3c-.106-1.826-.234-3.176-.433-5.053-.12-1.162-2.157-2.188-3.381-3.293-1.446-1.305-6.5-5.85-10.467-5.974-5.9-.183-13.893-.254-19.654.168a26.009 26.009 0 0 0-5.659.926c-4.34 1.378-8.058 4.78-12.174 6.723a109.423 109.423 0 0 0-15.045 2.237 3.143 3.143 0 0 0-2.489 2.012c-.547 1.058-.331 2.05-.581 2.651-.4.033-.415-.069-.542.165a2.742 2.742 0 0 0-.088.974c-.133 1.84-.545 4.581.989 5.725a2.1 2.1 0 0 0 .24.127h2.314c1.157 0 1.08-.22 1.206-1.435a7.062 7.062 0 0 1 7.025-6.329 7.178 7.178 0 0 1 6.981 6.018c.236 1.507-.128 1.778 1.415 1.778h30.239c1.079 0 1.009-.106 1.078-1.188a7.063 7.063 0 0 1 14.089-.108c.12 1.289-.02 1.3 1.191 1.3h2.934a1.625 1.625 0 0 0 1.864-1.181zm-13.03-4.974a5.431 5.431 0 1 1-5.433 5.43 5.431 5.431 0 0 1 5.433-5.43zm-46.761 0a5.431 5.431 0 1 1-5.433 5.43 5.431 5.431 0 0 1 5.433-5.43zM26.51 9.136a5.69 5.69 0 0 0 .255-1.227c.057-.942-1.666-1.012-2.734-.943a30.754 30.754 0 0 1 7.661-4.37 29.1 29.1 0 0 1 5.653-.542l2.34-.05c.423 0 .479.191.355.524a37.014 37.014 0 0 0-.835 5.152.9.9 0 0 1-1.106.975c-3.159.026-11.628.632-11.589.481zm25.281-.958a39.348 39.348 0 0 0-1.166-5.928s-4.912-.209-8.027-.246a.7.7 0 0 0-.58.273c-.334.866-.412 2.045-.847 5.606-.119.974-.056.71 1.026.7 2.663-.032 6.574-.236 9.594-.4zm2.48-.043c1.064-.057 10.4.147 11.354.115 1.385-.046-5.013-4.889-7-6-.443-.248-1.866-.042-6 0a19.051 19.051 0 0 1 1.646 5.885z" fill-rule="evenodd"/></svg>