<svg xmlns="http://www.w3.org/2000/svg" width="77.094" height="25.188">
    <path d="M71.323 21.887c1.078-.089 2.243-.178 3.184-.318a3.706 3.706 0 0 0 1.744-.575c.853-.793.755-3.267.741-4.535 0-.309-.786-.31-.8-.631-.113-1.955-.251-3.641-.464-5.649a2.361 2.361 0 0 0-1.866-1.85c-3.3-1.031-8.165-1.69-9.729-2.148a7.616 7.616 0 0 1-2.249-1.1 66.024 66.024 0 0 0-6.551-3.592C53.886.846 52.747.021 50.785.021c-5.2 0-11.181-.357-16.025 1.183-4.638 1.476-8.865 4.142-13.265 6.221a127.252 127.252 0 0 0-16.631 2.986 4.161 4.161 0 0 0-3.041 2.281 26.763 26.763 0 0 0-1.128 2.837.548.548 0 0 0-.579.414 5.437 5.437 0 0 0-.1 1.517c.013.536.052 1.34.1 1.861a2.629 2.629 0 0 0 .833 2.113 2.429 2.429 0 0 0 1.268.431l1.478.049c1.647-.214 1.5.082 1.388-1.745-.017-.268-.024-.533-.024-.792a7.55 7.55 0 1 1 15.1 0 10.9 10.9 0 0 1-.169 2.039c-.311 1.636-.479 1.3 1.2 1.416l32.234-.035c1.619-.2 1.466.069 1.267-1.825a15.345 15.345 0 0 1-.07-1.6 7.55 7.55 0 1 1 15.1 0c0 .389.011.772.009 1.145-.011 1.612.241 1.475 1.608 1.361zM46.917 7.839c.4-3.322.588-4.559.748-5.487a.577.577 0 0 1 .646-.632l1.146-.026c.831-.019 4.832 2.635 6.431 4.3.924.96 1.3 2.311-.741 2.406l-7.167.333c-1.153.054-1.19.151-1.063-.891zM29.631 9.4a8.191 8.191 0 0 1 .273-1.313c.06-1.008-1.781-1.083-2.923-1.009a34 34 0 0 1 8.442-4.422 27.494 27.494 0 0 1 5.788-.834l4.085-.132c.452-.006.435.184.379.56-.2 1.359-.585 3.817-.892 5.513a.978.978 0 0 1-1.182 1.043l-13.97.594zm32.527 4.165a5.812 5.812 0 1 1-5.807 5.812 5.809 5.809 0 0 1 5.807-5.812zm-49.557 0a5.812 5.812 0 1 1-5.806 5.812 5.809 5.809 0 0 1 5.806-5.812z" fill-rule="evenodd"/>
</svg>