<svg xmlns="http://www.w3.org/2000/svg" width="69.875" height="23.219">
    <path d="M65.799 19.802c.515-.059 1.035-.129 1.53-.214a3.95 3.95 0 0 0 1.747-.578 3.423 3.423 0 0 0 .779-2.67c.01-1.038.25-1.917-.63-2.277a1.149 1.149 0 0 1-.714-.449c-.113-1.962-.146-1.765-.359-3.78a2.371 2.371 0 0 0-1.87-1.857 50.576 50.576 0 0 0-13.983-2.072c-1.023-.042-1.224.761-2.25 1.187-1.046.433-1.253.339-1.243-.255l.024-1.352a.276.276 0 0 0-.262-.292L47.536 5.1a.319.319 0 0 0-.307.292l-.213 1.18c-.146.8-.286 1.126-1.082 1.221a80.039 80.039 0 0 1-12.125.741c-1.074-.053-.877.1-.622-.794a4.414 4.414 0 0 0 .185-.877c.061-1.011-1.784-1.086-2.929-1.012a55.244 55.244 0 0 1 7.878-4.7c.374-.176.592-.189.35-.571-.081-.126-.16-.253-.24-.379-.178-.28-.393-.231-.691-.121a93.608 93.608 0 0 0-12.349 6.144c-5.336.323-15.2.627-20.608 2.44a4.99 4.99 0 0 0-2.941 2.819c-.586 1.136-.864 1.4-1.132 2.045a.55.55 0 0 0-.58.415 5.484 5.484 0 0 0-.1 1.523c.012.538.052 1.345.1 1.867a2.635 2.635 0 0 0 .834 2.12 2.456 2.456 0 0 0 1.271.469l1.758.057c1.084-.159 1.263-.014 1.14-1.4-.035-.39-.05-.788-.05-1.187a7.565 7.565 0 1 1 15.13 0 10.457 10.457 0 0 1-.226 2.32c-.291 1.27-.105 1.042.954 1.109h27.067a1.431 1.431 0 0 0 1.415-1.811 15.226 15.226 0 0 1-.072-1.618 7.565 7.565 0 1 1 15.13 0c0 .438.014.868.007 1.286-.02 1.192.009 1.275 1.312 1.125zM12.647 11.56a5.831 5.831 0 1 1-5.819 5.831 5.825 5.825 0 0 1 5.819-5.831zm44.268 0a5.831 5.831 0 1 1-5.819 5.831 5.825 5.825 0 0 1 5.819-5.831z" fill-rule="evenodd"/>
</svg>