<svg xmlns="http://www.w3.org/2000/svg" width="53" height="24" viewBox="0 0 53 24">
  <defs>
    <style>
      .cls-1 {
        fill: #0f787c;
        fill-rule: evenodd;
      }
    </style>
  </defs>
  <path id="light_truck.png" class="cls-1" d="M1.837,17.89l4.145,0.62a5.225,5.225,0,0,1,10.386.556l2.348-.006,17.226-.047a5.225,5.225,0,0,1,10.436-.137l4.912-.8,0-.741,0.875,0a0.722,0.722,0,0,0,.719-0.724L52.876,14.35a0.722,0.722,0,0,0-.723-0.72l-0.966,0V13.606L50.787,9.1A37.766,37.766,0,0,0,49.13,1.563,1.885,1.885,0,0,0,47.2.676L12.408,0.77a2.668,2.668,0,0,0-1.845,1.045L5.321,7.4a0.865,0.865,0,0,1-.808.25S1.081,9.423,1.7,13.124a3.617,3.617,0,0,0-1.019.637A4.578,4.578,0,0,0,1.837,17.89ZM50.331,9.812l0.2,2.4a0.18,0.18,0,0,1-.164.194l-0.709.06a0.18,0.18,0,0,1-.194-0.165l-0.2-2.4a0.18,0.18,0,0,1,.164-0.2l0.709-.059A0.179,0.179,0,0,1,50.331,9.812ZM49.295,8.521L50,8.461a0.18,0.18,0,0,1,.195.164L50.247,9.2a0.18,0.18,0,0,1-.164.195l-0.709.061a0.18,0.18,0,0,1-.194-0.165L49.13,8.716A0.181,0.181,0,0,1,49.295,8.521ZM36.345,3.033a0.722,0.722,0,0,1,.72-0.724l8.02-.021a0.721,0.721,0,0,1,.723.72L45.82,7.189a0.722,0.722,0,0,1-.719.724l-8.021.022a0.721,0.721,0,0,1-.723-0.72Zm-14,.038a0.722,0.722,0,0,1,.719-0.724l10.422-.028a0.721,0.721,0,0,1,.723.72L34.22,7.22a0.722,0.722,0,0,1-.719.724l-10.422.028a0.721,0.721,0,0,1-.723-0.72ZM19.154,8.763V9.106a0.18,0.18,0,0,1-.18.181l-2.15.006a0.18,0.18,0,0,1-.181-0.18V8.77a0.18,0.18,0,0,1,.18-0.181l2.15-.006A0.18,0.18,0,0,1,19.154,8.763ZM7.721,7.435l4.59-4.618A1.743,1.743,0,0,1,13.54,2.3l4.744-.013a0.721,0.721,0,0,1,.723.72l0.009,3.337a0.722,0.722,0,0,1-.719.724l-6.761.018a0.829,0.829,0,0,0-.619.3,1.582,1.582,0,0,1-1.192.548l-1.792.005A0.3,0.3,0,0,1,7.721,7.435Zm33.431,7.591a4.185,4.185,0,0,0-4.166,3.983c0,0.073-.01.145-0.01,0.219a4.188,4.188,0,1,0,8.375-.023c0-.074-0.008-0.146-0.012-0.219A4.186,4.186,0,0,0,41.152,15.026Zm2.406,4.185a2.394,2.394,0,1,1-4.789.013c0-.074,0-0.147.01-0.219a2.393,2.393,0,0,1,4.767-.012C43.553,19.064,43.558,19.137,43.558,19.211Zm-32.421-4.1a4.191,4.191,0,1,0,4.2,4.179c0-.074-0.008-0.146-0.011-0.219A4.185,4.185,0,0,0,11.137,15.108Zm2.406,4.184a2.4,2.4,0,1,1-.011-0.219C13.537,19.145,13.542,19.218,13.542,19.292Zm6.691,0.676a0.722,0.722,0,0,0-.719.724v0.156a0.721,0.721,0,0,0,.723.719l14.446-.039A0.721,0.721,0,0,0,35.4,20.8V20.649a0.721,0.721,0,0,0-.723-0.72Zm26.906,1.32L48,21.76a0.213,0.213,0,0,0,.315-0.187L48.3,19.2l-1.485.209,0,1.348A0.613,0.613,0,0,0,47.14,21.289Zm-30.222-.273,0.933,0.77a0.169,0.169,0,0,0,.277-0.131l-0.006-2.169-1.486,0,0,0.936A0.771,0.771,0,0,0,16.918,21.016Z"/>
</svg>
