<svg xmlns="http://www.w3.org/2000/svg" width="78" height="32.031">
    <path d="M71.134 28.901c1.314-.116 3.12-.243 4.457-.5a3.575 3.575 0 0 0 1.684-.619c.825-.854.73-3.514.716-4.878 0-.332-.788-.332-.777-.679-.022-7.094-.113-11.86-.493-20.655a1.711 1.711 0 0 0-1.7-1.482c-.964-.084-1.9-.055-4.085-.047L26.902.257c-3.091.017-5.245.1-7.861 1.963-2.677 1.908-4.645 5.914-5.8 8.174-2.548.891-6.446 2.047-10.013 3.322-.886.317-1.673.5-1.826 1.572a29.3 29.3 0 0 0-.128 3.389 14.641 14.641 0 0 1-.073 2.96c-.123.355-.893.083-1.077.461a3.451 3.451 0 0 0-.09 1.12 12.247 12.247 0 0 0 .185 3.37 2.845 2.845 0 0 0 .835 1.671 1.815 1.815 0 0 0 1.1.464l2.272.083c1.007-.082.675-.243.525-1.5a7.29 7.29 0 1 1 14.531-.868 7.23 7.23 0 0 1-.249 1.89c-.35 1.3-.39 1.435 1.084 1.433l35.232-.039a1.358 1.358 0 0 0 1-.176 2.1 2.1 0 0 0-.145-1.267 7.292 7.292 0 1 1 14.136-.1c-.126.509.064.76.6.714zm-52.96-16.933a7.223 7.223 0 0 0 .263-1.413c.058-1.084-1.652-.487-2.755-.407a25.7 25.7 0 0 1 3.784-6.042c1.53-1.594 3.225-1.875 5.413-1.885l3.562-.015a.466.466 0 0 1 .54.611c-.192 1.343-.394 4.916-.8 6.781a1.56 1.56 0 0 1-1.55 1.257 64.641 64.641 0 0 1-8.458 1.113zm-5.985 8.885a5.589 5.589 0 1 1-5.609 5.589 5.6 5.6 0 0 1 5.609-5.589zm51.235 0a5.589 5.589 0 1 1-5.609 5.589 5.6 5.6 0 0 1 5.609-5.589z" fill-rule="evenodd"/>
</svg>