<svg xmlns="http://www.w3.org/2000/svg" width="81.937" height="39.937">
    <path d="M11.806 27.511a6.21 6.21 0 1 1-6.191 6.209 6.2 6.2 0 0 1 6.191-6.209zM33.977.069l.3.122a.443.443 0 0 1 .228.614c-.087.283-.173.566-.26.848a8.854 8.854 0 0 0-.161 2.2v.554A59.328 59.328 0 0 1 44.7 3.959c2.255.041 2.547-.2 2.547 2.295v20.157c0 1.332-.08 1.863 1.285 1.863h1.922l.58-.639a9.985 9.985 0 0 1 14.192-.131 11.137 11.137 0 0 1 7.51-2.82 10.061 10.061 0 0 1 7.23 3.59h1.184c.776 0 .788.332.788 1.153v5.542c0 .423.014.745-.46.744-.186 0-.372 0-.559.009-.987 0-.643-1-.643-2.006a7.876 7.876 0 0 0-7.473-7.5 7.352 7.352 0 0 0-6.7 4.142.971.971 0 0 1-1.2.036 7.469 7.469 0 0 0-14.174 3.318c0 1.74-.089 2.006-1.833 2.006h-29.89a7.473 7.473 0 1 0-14.4 0H.982c-.985 0-.873-.4-.873-1.382q.018-1.6.035-3.2c0-.664-.07-1.332.658-1.349l1.168-.086.274-9.639c0-.951 1.156-1.593 2.1-1.593l14.205-1.078a1.677 1.677 0 0 0 1.824-1.279q.743-3.246 1.486-6.494a1.814 1.814 0 0 1 1.92-1.633h3.491v-.09a10.243 10.243 0 0 1 5.462-3.2V3.71a8.612 8.612 0 0 1 .209-2.27l.351-1.175a.457.457 0 0 1 .686-.2zm38.824 27.442a6.21 6.21 0 1 1-6.19 6.209 6.2 6.2 0 0 1 6.19-6.209zm-14.606 0a6.21 6.21 0 1 1-6.19 6.209 6.2 6.2 0 0 1 6.19-6.209zM38.423 9.929h5.458a.474.474 0 0 1 .472.473v2.184a.474.474 0 0 1-.472.473h-5.458a.474.474 0 0 1-.472-.473v-2.18a.474.474 0 0 1 .472-.473zm-14.968.128h.651c.42 0 .553.063.553.529v6.441c0 .71-.014.767-.734.767h-1.8c-.53-.009-.639-.263-.546-.745l1.212-6.4a.543.543 0 0 1 .658-.589zm3.248 0h4.553a.871.871 0 0 1 .988.984v5.877c0 .665-.125.849-.806.858-1.645-.026-3.289.01-4.934.018-.641 0-.759-.152-.759-.767V10.95c0-.864.208-.893.958-.893z" fill-rule="evenodd"/>
</svg>