<svg xmlns="http://www.w3.org/2000/svg" width="67.062" height="35">
    <path d="M27.942.29C20.72-.344 14.006.011 9.731 1.809a8.678 8.678 0 0 0-3.627 2.588 1.742 1.742 0 0 0-.74.467 1.627 1.627 0 0 0-.43.984l-1.4 6.144c-.4 1.715-2.532 2.863-2.532 4.684v8.987a1.256 1.256 0 0 1-.3.8l-.1.014c-.6.084-.53.779-.53 1.335v2.72c0 1.352-.032 2.2 1.361 2.2h.932c.665-.105.736-.3.531-1.18a5.88 5.88 0 1 1 11.6-1.343 6.008 6.008 0 0 1-.151 1.337c-.2.87-.214 1.194.677 1.194h21.2c1.225-.049 1.472.193 1.242-1.4a6.052 6.052 0 0 1-.061-.856 5.876 5.876 0 1 1 11.751 0 5.319 5.319 0 0 1-.138 1.354c-.194.82-.244.83.383.9h.629c.57-.089.574-.168.4-.926a6.011 6.011 0 0 1-.149-1.33 5.875 5.875 0 1 1 11.75 0 5.991 5.991 0 0 1-.13 1.243c-.208.974-.112 1.013.58 1.013h3.757c.729 0 .839-.239.839-.982V27.23a.7.7 0 0 0-.83-.78h-3.9c-1.37-2.653-4.173-3.3-6.075-3.359A8.608 8.608 0 0 0 49.701 26c-1.605-1.4-3.326-2.931-5.623-2.979a7.922 7.922 0 0 0-6.982 3.43h-5.6c-1.053 0-1.025-.449-1.042-1.412V1.931c0-1.465-1.307-1.536-2.51-1.641zm-21.5 5.968h4.88a.823.823 0 0 1 .932.931v5.56a.671.671 0 0 1-.761.811c-2.083-.032-4.206.018-6.3.018-.647 0-.626-.117-.515-.706q.572-3.027 1.144-6.056a.514.514 0 0 1 .621-.558zm7.954-.154l3.269.033a.515.515 0 0 1 .445.635 11.614 11.614 0 0 1-3.779 5.892c-.419.359-.944.912-.944-.176V7.164a1.07 1.07 0 0 1 1.009-1.06zM8.61 25.689a4.518 4.518 0 1 1-4.494 4.518 4.506 4.506 0 0 1 4.494-4.518zm34.655.275a4.518 4.518 0 1 1-4.494 4.518 4.506 4.506 0 0 1 4.494-4.518zm12.875 0a4.518 4.518 0 1 1-4.494 4.518 4.506 4.506 0 0 1 4.494-4.518z" fill-rule="evenodd"/>
</svg>