<svg xmlns="http://www.w3.org/2000/svg" width="78.094" height="30" viewBox="0 0 78.094 30">
    <path d="M62.878 18.4a5.8 5.8 0 1 1-5.832 5.8 5.816 5.816 0 0 1 5.832-5.8zm8.339 8.321c1.324-.112 3-.243 4.278-.486a3.721 3.721 0 0 0 1.751-.642c.857-.886.759-3.646.744-5.062 0-.345-.788-.345-.807-.7a34.584 34.584 0 0 0-.837-6.6 19.373 19.373 0 0 0-1.89-4.115c-.569-1.16-1.936-4.906-3.887-7.051a1.521 1.521 0 0 1-.3-1.117c.03-.945-.118-.816-1-.892-1-.088-2.7-.024-4.973-.011L37.513.198c-1.257.007-2.445.12-3.536.2-6 .437-13.187 5.468-18.307 8.529-2.858 1-7.251 2.647-11.087 4.046a3.812 3.812 0 0 0-2.5 2.283 14.2 14.2 0 0 0-.785 2.521 11.915 11.915 0 0 1-.589 1.728c-.429.039-.446-.082-.582.2a3.587 3.587 0 0 0-.094 1.163 12.729 12.729 0 0 0 .192 3.5 2.953 2.953 0 0 0 .869 1.734 1.89 1.89 0 0 0 1.142.482l1.838.067c1.236-.126 1.3.092 1.09-1.386a7.579 7.579 0 1 1 15.091-1.051 7.487 7.487 0 0 1-.307 2.13c-.423 1.433-.213 1.2.969 1.319l33.332-.04c1.215-.116 1.752.192 1.3-1.449a7.409 7.409 0 0 1-.258-1.96 7.582 7.582 0 1 1 15.044 1.346c-.148.813.071 1.244.877 1.175zM40.272 9.679c.467-4.253.578-6.162.937-7.2a.729.729 0 0 1 .622-.326l10.352-.07c.661 0 1.06.015 1.086.9L53.45 9c.022.755.119 1.136-.748 1.168-4.145.153-7.189.287-11.329.342-1.16.016-1.229.331-1.1-.833zm-16.853 1.444a7.457 7.457 0 0 0 .274-1.465c.06-1.126-1.789-1.21-2.936-1.126 3.57-2.952 9.7-6.325 14.267-6.333l3.627-.006c.454-.007.473.214.38.625-.314 1.393-.6 4.683-.869 6.619-.13.934-.329 1.156-1.187 1.164-3.392.031-13.6.7-13.556.522zm31.919-1.857q-.138-2.946-.277-5.893a2.757 2.757 0 0 1 .123-.8.647.647 0 0 1 .586-.326c2.307-.032 1.4-.026 3.705-.058.623-.009 4.614.78 5.894 1.9a22.348 22.348 0 0 1 3.893 4.213c.344.667.192 1.136-.671 1.168-4.128.153-7.926.577-12.059.632-1.159.016-1.14.329-1.194-.833zM12.676 18.4a5.8 5.8 0 1 1-5.833 5.8 5.816 5.816 0 0 1 5.833-5.8z" fill-rule="evenodd"/>
</svg>