<svg xmlns="http://www.w3.org/2000/svg" width="55" height="29" viewBox="0 0 55 29">
  <defs>
    <style>
      .cls-1 {
        fill: #0f787c;
        fill-rule: evenodd;
      }
    </style>
  </defs>
  <path id="truck.png" class="cls-1" d="M7.322,21.164a4.737,4.737,0,0,1,7.812,3.308h0l0.677,0,0,0.561a1.773,1.773,0,0,0,.508,1.236l0.571,0.581a0.294,0.294,0,0,0,.5-0.207l-0.006-2.175,22.128-.06a4.738,4.738,0,0,1,9.459-.026l0.86,0,0,0.687a1.676,1.676,0,0,0,.528,1.215l0.529,0.5a0.312,0.312,0,0,0,.525-0.228l-0.006-2.176,2.222-.006a0.956,0.956,0,0,0,.948-0.692,3.886,3.886,0,0,0-.008-1.964,0.95,0.95,0,0,0-.949-0.674l-2.222.006L51.351,1.6A0.722,0.722,0,0,0,50.627.879l-30.475.083a0.721,0.721,0,0,0-.72.723l0.053,19.446-0.932,0L18.523,9.648A0.722,0.722,0,0,0,17.8,8.928l-8.413.023a1.217,1.217,0,0,0-1.065.636l-4.628,8.55a2.832,2.832,0,0,0-.341,1.355l0,1.682-1.5,0a1,1,0,0,0-.988.668,3.363,3.363,0,0,0,0,1.985,1.009,1.009,0,0,0,.995.676L4.087,24.5h0l0.8,0,0.786,0A4.728,4.728,0,0,1,7.322,21.164ZM8.1,16.523L9.261,14.1,10.1,12.559a1.218,1.218,0,0,1,1.065-.636l3.668-.01a0.721,0.721,0,0,1,.723.719l0.008,2.694a0.722,0.722,0,0,1-.72.724l-3.441.009a0.289,0.289,0,0,0-.259.163L11,16.515a1.154,1.154,0,0,1-1.035.652l-1.46,0A0.452,0.452,0,0,1,8.1,16.523ZM14.2,24.751c0-.093-0.008-0.185-0.015-0.276h0a3.793,3.793,0,0,0-7.566.021c-0.006.091-.013,0.183-0.013,0.277A3.8,3.8,0,0,0,14.2,24.751Zm-3.791,2.181a2.171,2.171,0,0,1-2.177-2.165,2.132,2.132,0,0,1,.019-0.277,2.169,2.169,0,0,1,4.3-.012h0A2.158,2.158,0,0,1,10.411,26.932ZM45.42,21.061A3.793,3.793,0,0,0,40.462,24.4c-0.006.092-.014,0.184-0.013,0.277a3.8,3.8,0,0,0,7.594-.021c0-.093-0.008-0.185-0.015-0.277A3.8,3.8,0,0,0,45.42,21.061Zm1,3.6a2.171,2.171,0,0,1-4.342.011,2.2,2.2,0,0,1,.019-0.277A2.171,2.171,0,0,1,46.417,24.664Z"/>
</svg>
