<svg xmlns="http://www.w3.org/2000/svg" width="72" height="28"><path d="M70.134 22.873a1.259 1.259 0 0 1 .156-.037c.945-.162 1.365-.055 1.516-1.274.182-1.459.117-3.754.191-4.656a1.053 1.053 0 0 0-.706-1.343 1.042 1.042 0 0 1-.768-.314 23.415 23.415 0 0 0-.949-5.575 44.6 44.6 0 0 0-3.22-8.013C65.508.012 65.823.102 63.669.102c-7.75 0-15.923-.069-23.791.083-5.26.1-10.391.137-12.581.832-2.839 1.57-5.5 5.428-7.494 7.007-5.12.543-10.744.93-15.931 2.216-1.829.453-2.426.515-2.775 2.411-.207 1.12-.243 2.347-.38 3.006a2.782 2.782 0 0 1-.3 0c-.271-.006-.334.306-.344.62a36.552 36.552 0 0 0 .059 5.033 1.635 1.635 0 0 0 1.885 1.558h1.877c1.474 0 1.212-.135 1.314-1.544a7.665 7.665 0 0 1 15.287-.015c.114 1.533-.2 1.559 1.369 1.559h30.183c1.789 0 1.44-.1 1.636-1.845a7.665 7.665 0 0 1 15.252.207c.075.88-.166 1.638.729 1.638h.475zm-57.287-7.091a6.111 6.111 0 1 1-6.114 6.11 6.112 6.112 0 0 1 6.114-6.11zm48.447 0a6.111 6.111 0 1 1-6.114 6.11 6.112 6.112 0 0 1 6.114-6.11zM25.848 9.055a3.949 3.949 0 0 0 .324-1.169c.058-.968-1.712-1.04-2.81-.969a21.854 21.854 0 0 1 4.414-4.49c1-.334 6.774-.518 8.644-.557q1.2-.027 2.405-.051c.435-.006.492.2.364.537-.214 1.194-.6 3.629-.857 5.3-.124.8-.315 1.269-1.137 1.255-3.246.176-11.386.423-11.347.149zm27.2-1.291a30.71 30.71 0 0 0-1.332-5.011 1.108 1.108 0 0 0-.973-1.054c-3.1.088-5.876.033-8.92.12a.71.71 0 0 0-.6.28c-.344.89-.424 2.1-.871 5.76-.123 1-.057 1.137 1.054 1.124 2.435 0 7.055.02 10.4-.074 1-.028 1.367.077 1.243-1.145zm4.248.113c-.523-1.126-1.351-3.079-2.127-4.839-.449-1.018-.465-1.338.712-1.357 2.328-.036 6.763.017 8.463.046a1.21 1.21 0 0 1 .671.372 37.459 37.459 0 0 1 2.246 5.454c.361 1 .182 1.367-.526 1.353-1.6-.03-5.6.006-7.97 0a1.552 1.552 0 0 1-1.469-1.032z" fill-rule="evenodd"/></svg>