<svg xmlns="http://www.w3.org/2000/svg" width="80.531" height="30.124">
    <path d="M80.36 22.727a20.527 20.527 0 0 0 .141-3.623c.047-1.268-.493-.855-.982-1.2-.1-1.791-.011-4.8-.206-6.636-.228-2.148-.842-2.414-3.24-2.409l-28.253.06a1.881 1.881 0 0 1-1.121-.223c-.5-.34-.815-4.426-1.347-6.8-.283-1.265-.277-1.89-1.691-1.89H31.013a8.764 8.764 0 0 0-5.341 2.181l-7.211 5.846a99.2 99.2 0 0 0-15.412 2.529 2.18 2.18 0 0 0-1.92 2.507l.03 5.084a2.912 2.912 0 0 0-.652.126.586.586 0 0 0-.473.7c-.023.329-.015.738-.01.943.019.812.1 3.138.69 3.578a2.188 2.188 0 0 0 1.165.4l1.308.026c.976-.194 1.164-.512 1.342-1.608a7.977 7.977 0 0 1 7.979-6.716 8.09 8.09 0 0 1 8.041 7.206c.126 1.158.746 1.173 1.6 1.183l32.547.068c.685 0 .823-.384.874-1.026a8.089 8.089 0 0 1 16.113-.126c.1 1.079.085 1.188 1.053 1.19l2.624.006c1.121 0 4.7-.169 5-1.369zM39.242 8.173c.37-3.042.54-5.241.687-6.091a.539.539 0 0 1 .593-.6h1.924a.972.972 0 0 1 .271.9l.3 5.5c.073 1.333-.07 1.184-.759 1.184h-2.039c-1.057 0-1.092.064-.976-.889zm-14.476.889c-.427 0 .218-.259.25-.8.055-.923-1.635-.992-2.683-.924l4.378-3.929a6.019 6.019 0 0 1 1.787-1.155 7.078 7.078 0 0 1 2.987-.77h6.269c.415-.006.4.169.348.512-.186 1.245-.538 4.563-.819 6.115a.884.884 0 0 1-1.085.955H24.766zm-12.258 8.166a6.442 6.442 0 1 1-6.452 6.442 6.447 6.447 0 0 1 6.452-6.442zm51.123 0a6.442 6.442 0 1 1-6.451 6.442 6.447 6.447 0 0 1 6.451-6.442z" fill-rule="evenodd"/>
</svg>