<svg xmlns="http://www.w3.org/2000/svg" width="77.187" height="24.25">
    <path d="M71.152 20.967c1.174-.1 2.5-.187 3.549-.346a3.766 3.766 0 0 0 1.748-.576c.855-.795.757-3.273.742-4.543 0-.31-.787-.311-.805-.633-.114-1.958-.251-3.647-.465-5.659a2.369 2.369 0 0 0-1.871-1.854c-3.156-.984-10.711-1.9-14.286-2.05l-1.134-.043-1.112-.244c-.74.116-.674-.021-.837.761a1.665 1.665 0 0 1-1.386 1.565c-3.1.144-6.2.177-9.168.28a.619.619 0 0 1-.7-.533l.023-1.35a.275.275 0 0 0-.262-.291l-1.031-.093a.317.317 0 0 0-.307.291l-.214 1.178c-.145.8-.281 1.027-1.082 1.061l-12.837.546a8.218 8.218 0 0 1 .273-1.316c.061-1.009-2.79-1.191-3.935-1.116a56.122 56.122 0 0 1 8.428-4.824c.371-.181.591-.189.349-.57l-.24-.379a.464.464 0 0 0-.691-.12 134.914 134.914 0 0 0-12.344 6.346 127.54 127.54 0 0 0-16.67 2.992 4.165 4.165 0 0 0-3.047 2.284 26.906 26.906 0 0 0-1.132 2.842.55.55 0 0 0-.58.415 5.462 5.462 0 0 0-.1 1.52c.013.537.052 1.343.1 1.864a2.634 2.634 0 0 0 .835 2.117 2.4 2.4 0 0 0 1.271.4l1.695.056c1.108-.157 1.307-.041 1.192-1.494-.027-.331-.039-.67-.039-1.02a7.567 7.567 0 1 1 15.133 0 11.682 11.682 0 0 1-.113 1.715c-.3 2.011 0 1.672 1.567 1.672h31.923c1.047-.214 1.418-.211 1.247-1.67a14.742 14.742 0 0 1-.083-1.717 7.567 7.567 0 1 1 15.133 0c0 .284.006.565.008.841.011 1.44.08 1.8 1.255 1.7zm-8.829-8.36a5.822 5.822 0 1 1-5.821 5.821 5.82 5.82 0 0 1 5.821-5.821zm-49.674 0a5.822 5.822 0 1 1-5.82 5.821 5.821 5.821 0 0 1 5.82-5.821z" fill-rule="evenodd"/>
</svg>