<svg xmlns="http://www.w3.org/2000/svg" width="72.094" height="26.594"><path d="M71.714 20.705a20.3 20.3 0 0 0 .382-4.832.912.912 0 0 0-.709-1.106.973.973 0 0 1-.725-.3c-.106-1.827-.234-3.176-.433-5.054-.12-1.161-2.157-2.187-3.381-3.292-1.087-.981-3.338-2.651-4.289-3.43-.8-.655.395-1.393-.35-1.7a17.914 17.914 0 0 0-5.828-.839c-5.9-.184-13.893-.254-19.654.168a26.073 26.073 0 0 0-5.659.925c-4.34 1.379-8.058 4.781-12.174 6.724a109.423 109.423 0 0 0-15.045 2.237 3.142 3.142 0 0 0-2.489 2.012c-.547 1.058-.331 2.05-.581 2.651-.4.033-.415-.069-.541.165a2.7 2.7 0 0 0-.088.974c-.133 1.839-.546 4.581.988 5.725a2.191 2.191 0 0 0 .24.127h2.314c1.157 0 1.081-.22 1.206-1.436a7.063 7.063 0 0 1 7.025-6.328 7.177 7.177 0 0 1 6.981 6.018c.236 1.507-.128 1.778 1.415 1.778h30.239c1.079 0 1.009-.106 1.078-1.188a7.063 7.063 0 0 1 14.089-.108c.12 1.289-.02 1.3 1.191 1.3h2.934a1.626 1.626 0 0 0 1.864-1.181zm-13.03-4.974a5.431 5.431 0 1 1-5.433 5.43 5.431 5.431 0 0 1 5.433-5.43zm-46.761 0a5.431 5.431 0 1 1-5.432 5.43 5.431 5.431 0 0 1 5.432-5.43zM26.51 9.136a5.642 5.642 0 0 0 .255-1.227c.057-.943-1.666-1.013-2.734-.943a30.754 30.754 0 0 1 7.661-4.37 29.1 29.1 0 0 1 5.653-.542l2.34-.05c.423 0 .479.191.355.524a36.877 36.877 0 0 0-.834 5.152.9.9 0 0 1-1.107.975c-3.158.026-11.628.632-11.589.481zm25.281-.958a18.687 18.687 0 0 0-.9-5.105c-2.96-1.295-5.177-1.032-8.292-1.069a.692.692 0 0 0-.58.273c-.334.866-.412 2.045-.847 5.606-.119.974-.056.71 1.026.7 2.664-.032 6.574-.236 9.594-.4zm.5-4.778a23.934 23.934 0 0 1 .984 4.734c1.064-.056.746-.105 1.7-.137 1.385-.046 1.342-.6.466-1.8a9.476 9.476 0 0 0-3.15-2.8zm6.916-.652l1.81.119c1.783 1.465 3.567 2.759 5.35 4.172.947.75.028.676-.726.538-2.793-.513-4.716-2.685-6.434-4.829z" fill-rule="evenodd"/></svg>