<svg xmlns="http://www.w3.org/2000/svg" width="88.094" height="26.594">
    <path d="M87.714 20.705a20.3 20.3 0 0 0 .382-4.832.912.912 0 0 0-.709-1.106.969.969 0 0 1-.725-.3 22 22 0 0 0-1.037-5.217c-.26-.881-5.776.105-7-1-1.446-1.3-6.279-7.98-10.244-8.1-5.9-.183-23.893-.254-29.654.168a49.16 49.16 0 0 0-7.659.926c-4.34 1.378-8.058 4.78-12.174 6.723a109.423 109.423 0 0 0-15.045 2.237 3.143 3.143 0 0 0-2.489 2.012c-.547 1.058-.331 2.05-.581 2.651-.4.033-.415-.069-.541.165a2.7 2.7 0 0 0-.088.974c-.133 1.84-.546 4.581.988 5.725a2.191 2.191 0 0 0 .24.127h2.314c1.157 0 1.081-.22 1.206-1.435a7.063 7.063 0 0 1 7.025-6.329 7.177 7.177 0 0 1 6.981 6.018c.236 1.507-.128 1.778 1.415 1.778h42.239c1.079 0 1.009-.106 1.078-1.188a7.063 7.063 0 0 1 14.088-.108c.121 1.289-.019 1.3 1.192 1.3h6.934a1.625 1.625 0 0 0 1.864-1.181zm-17.03-4.974a5.431 5.431 0 1 1-5.433 5.43 5.431 5.431 0 0 1 5.433-5.43zm-58.761 0a5.431 5.431 0 1 1-5.432 5.43 5.431 5.431 0 0 1 5.432-5.43zm14.587-6.6a5.627 5.627 0 0 0 .255-1.227c.057-.942-1.666-1.012-2.734-.943a30.754 30.754 0 0 1 7.661-4.37 5.263 5.263 0 0 1 2.653-.542c.78-.017 3.56-.033 4.34-.05.423 0 .479.191.355.524a37.014 37.014 0 0 0-.835 5.152.9.9 0 0 1-1.106.975c-3.158.026-10.628.632-10.589.481zm43.281-.958c-.042-1.74-3.166-5.923-3.166-5.923s-5.912-.209-9.027-.246a.7.7 0 0 0-.58.273c-.334.866-.412 2.045-.847 5.606-.119.974-.056.71 1.026.7 2.664-.032 1.574-.236 4.594-.4h8zm2.48-.044c1.064-.056 2.4.148 3.354.116 1.385-.046-4.013-4.889-6-6-.443-.248 3.134-.042-1 0 0 .005 3.258 2.481 3.646 5.889zM41.625 2.25h13l-1 6h-13z" fill-rule="evenodd"/>
</svg>