<svg xmlns="http://www.w3.org/2000/svg" width="42" height="30" viewBox="0 0 42 30">
  <defs>
    <style>
      .cls-1 {
        fill: #0f787c;
        fill-rule: evenodd;
      }
    </style>
  </defs>
  <path id="motorsycle.png" class="cls-1" d="M12.189,7.129l-0.017,0-6,.016a0.721,0.721,0,0,0-.72.723L5.46,9.912a0.716,0.716,0,0,0,.162.449Zm3-1.288a1.656,1.656,0,0,1,.963.311L16.591,4.9a1.175,1.175,0,0,0,.894-0.762l0.5-1.4L22.433,3.1A1.176,1.176,0,1,0,22.625.759l-5.353-.437a1.18,1.18,0,0,0-1.2.779l-0.8,2.256a1.17,1.17,0,0,0,.216,1.151L15.007,5.852A1.609,1.609,0,0,1,15.185,5.841ZM5,13.144a0.785,0.785,0,0,0,.762.554A0.835,0.835,0,0,0,5.9,13.685a9.333,9.333,0,0,1,10.87,7.97,0.788,0.788,0,0,0,.785.682l6.742-.018a0.788,0.788,0,0,0,.781-0.686,9.331,9.331,0,0,1,11.8-7.808,0.544,0.544,0,0,0,.15.021,0.462,0.462,0,0,0,.485-0.523,14.784,14.784,0,0,0-3.079-5.9,0.96,0.96,0,0,0-.706-0.287,1.213,1.213,0,0,0-.515.119L30.568,8.522,30.507,8.2a0.724,0.724,0,0,0-.021-0.073,0.723,0.723,0,0,0-.822-0.5L21.771,9.132a0.722,0.722,0,0,0-.573.844l0.223,1.171a0.718,0.718,0,0,0,.614.577l0.024,0,0,0.415V12.58l-1.176.56a0.431,0.431,0,0,1-.186.043,0.44,0.44,0,0,1-.354-0.177L15.885,6.975c-0.006-.008-0.014-0.014-0.021-0.022a0.858,0.858,0,0,0-1.055-.239l-0.131.064-0.88.433-0.464.229-0.464.228L6.852,10.63l-0.966.476-0.6.3-0.052.026a0.855,0.855,0,0,0-.442,1.01ZM27.09,22.11a7.083,7.083,0,1,0,7.065-7.1A7.085,7.085,0,0,0,27.09,22.11Zm7.092,2.816a2.835,2.835,0,1,1,2.827-2.843A2.835,2.835,0,0,1,34.181,24.926ZM7.543,29.6a7.083,7.083,0,1,0-7.1-7.064A7.084,7.084,0,0,0,7.543,29.6ZM7.516,19.681a2.835,2.835,0,1,1-2.828,2.843A2.835,2.835,0,0,1,7.516,19.681ZM24.18,23.589l-6.288.017a1.26,1.26,0,0,0-1.083.626l-0.643,1.11a0.414,0.414,0,0,0,.36.622l9.035-.024a0.414,0.414,0,0,0,.356-0.624l-0.649-1.107A1.259,1.259,0,0,0,24.18,23.589Z"/>
</svg>
