<svg width="910" height="253" fill="none" xmlns="http://www.w3.org/2000/svg"><g clip-path="url(#clip0_227_16437)"><path d="M549.39 253C748.55 253 910 247.262 910 240.184s-161.45-12.816-360.61-12.816c-199.159 0-360.609 5.738-360.609 12.816S350.231 253 549.39 253z" fill="#CFCFE5"/><path d="M487.914 146.619c0 105.242-58.968 96.202-131.704 96.202-72.737 0-131.705 5.234-131.705-96.202 0-72.773 58.968-114.093 131.705-114.093 72.736 0 131.704 41.325 131.704 114.093z" fill="#1A272E"/><path opacity=".28" d="M364.06 42.565s-109.574-10.04-118.076 123.269c0 0-8.568 79.418 110.226 76.987 0 0 101.496 3.885 106.473-62.029 4.611-61.039-.398-131.763-98.623-138.227z" fill="#8D8DB1"/><path d="M424.201 206.791c37.552-37.569 37.552-98.481 0-136.05-37.553-37.569-98.437-37.569-135.99 0-37.552 37.569-37.552 98.481 0 136.05 37.553 37.569 98.437 37.569 135.99 0z" fill="#8D8DB1"/><path d="M418.83 201.417c34.586-34.601 34.586-90.701 0-125.302-34.586-34.602-90.661-34.602-125.248 0-34.586 34.601-34.586 90.701 0 125.302 34.587 34.601 90.662 34.601 125.248 0z" fill="#BDBDD8"/><path d="M356.1 62.638h15.792c2.346 0 3.966 2.36 3.117 4.55l-8.577 22.185-7.215 18.668c-1.103 2.851-5.135 2.851-6.234 0l-7.215-18.668-8.576-22.184c-.85-2.19.77-4.551 3.117-4.551H356.1zm0 151.582h-15.791c-2.347 0-3.967-2.361-3.117-4.551l8.576-22.185 7.215-18.667c1.103-2.851 5.136-2.851 6.234 0l7.215 18.667 8.577 22.185c.849 2.19-.771 4.551-3.117 4.551H356.1zm53.57-129.385l11.168 11.174c1.659 1.66 1.138 4.472-1.011 5.422l-21.746 9.619-18.3 8.094c-2.793 1.235-5.643-1.616-4.409-4.411l8.091-18.308 9.614-21.755c.95-2.15 3.761-2.672 5.42-1.012l11.168 11.173.005.004zM302.531 192.018l-11.169-11.174c-1.659-1.66-1.138-4.472 1.012-5.422l21.745-9.618 18.3-8.095c2.794-1.235 5.644 1.617 4.409 4.411l-8.091 18.308-9.614 21.756c-.95 2.15-3.76 2.671-5.42 1.011l-11.168-11.173-.004-.004zm129.327-53.589v15.798c0 2.348-2.36 3.969-4.549 3.119l-22.175-8.58-18.659-7.219c-2.85-1.103-2.85-5.137 0-6.237l18.659-7.218 22.175-8.58c2.189-.85 4.549.771 4.549 3.118v15.799zm-151.515 0V122.63c0-2.347 2.36-3.968 4.549-3.118l22.174 8.58 18.659 7.218c2.851 1.104 2.851 5.138 0 6.237l-18.659 7.219-22.174 8.58c-2.189.85-4.549-.771-4.549-3.119v-15.798zm129.327 53.589l-11.169 11.173c-1.659 1.66-4.47 1.139-5.42-1.012l-9.614-21.755-8.09-18.308c-1.235-2.795 1.615-5.646 4.408-4.411l18.301 8.094 21.745 9.619c2.15.95 2.671 3.762 1.012 5.422l-11.169 11.173-.004.005zM302.531 84.835l11.168-11.173c1.659-1.66 4.47-1.139 5.42 1.012l9.614 21.755 8.091 18.309c1.234 2.794-1.616 5.645-4.409 4.41l-18.3-8.094-21.746-9.618c-2.149-.951-2.67-3.763-1.011-5.423l11.168-11.173.005-.005zm72.156 58.29c2.41-10.217-3.915-20.455-14.128-22.867-10.213-2.411-20.447 3.917-22.857 14.134-2.411 10.218 3.914 20.456 14.127 22.868 10.214 2.411 20.447-3.917 22.858-14.135z" fill="#1A272E"/><path d="M356.205 146.619a7.851 7.851 0 007.85-7.853 7.851 7.851 0 10-15.7 0 7.852 7.852 0 007.85 7.853z" fill="#fff"/><path opacity=".28" d="M283.46 59.673s-55.693 43.12-45.584 103.016c0 0-21.571-61.078 45.584-103.016zm172.376 22.053s20.647 34.067 19.198 93.503c0 0 10.144-62.335-19.198-93.503z" fill="#8D8DB1"/><path d="M612.846 193.625H509.752v-52.012L616.379 0h51.113v140.571h35.322v53.059h-35.322v49.388h-54.646v-49.393zm0-107.822l-40.287 54.763h40.287V85.803zM103.094 193.625H0l7.246-52.012L113.873 0h43.867v140.571h35.322v53.059H157.74v49.388h-54.646v-49.393zm0-107.822l-40.287 54.763h40.287V85.803z" fill="#1A272E"/><path d="M758.025 43.668h-6.151v61.587h6.151V43.668z" fill="#BDBDD8"/><path d="M787.126 38.07H721.88v5.598h65.246v-5.597z" fill="#1A272E"/><path d="M723.347 36.516h-1.419a.846.846 0 00-.845.845v7.021c0 .467.379.846.845.846h1.419a.845.845 0 00.845-.846v-7.02a.845.845 0 00-.845-.846zm64.488 0h-1.418a.845.845 0 00-.845.845v7.021c0 .467.378.846.845.846h1.418a.845.845 0 00.845-.846v-7.02a.845.845 0 00-.845-.846z" fill="#1A272E"/><path d="M762.093 37.09h-14.5v7.564h14.5v-7.565z" fill="#BDBDD8"/><path opacity=".33" d="M751.874 44.654h6.151l-6.151 3.425v-3.425z" fill="#1A272E"/><path d="M750.924 96.342h8.051c5.048 0 9.146 4.099 9.146 9.149v125.876h-26.343V105.491c0-5.05 4.098-9.15 9.146-9.15z" fill="#EA4230"/><mask id="a" style="mask-type:luminance" maskUnits="userSpaceOnUse" x="741" y="96" width="28" height="136"><path d="M750.924 96.342h8.051c5.048 0 9.146 4.099 9.146 9.149v125.876h-26.343V105.491c0-5.05 4.098-9.15 9.146-9.15z" fill="#fff"/></mask><g mask="url(#a)"><path d="M772.967 92.444h-18.125v144.004h18.125V92.444z" fill="#C1271B"/></g><path d="M777.67 242.111h-44.937c0-6.254 5.07-11.326 11.322-11.326h22.289c6.251 0 11.321 5.072 11.321 11.326h.005z" fill="#1A272E"/><path d="M780.077 241.463h-49.878a.824.824 0 00-.824.824v1.515c0 .455.369.823.824.823h49.878a.823.823 0 00.824-.823v-1.515a.824.824 0 00-.824-.824zM761.156 92.444h-12.412a2.11 2.11 0 00-2.11 2.11v1.183a2.11 2.11 0 002.11 2.111h12.412a2.11 2.11 0 002.11-2.11v-1.183a2.11 2.11 0 00-2.11-2.111z" fill="#1A272E"/><path opacity=".32" d="M748.1 171.103a2.62 2.62 0 01-2.618-2.619v-17.818a2.62 2.62 0 012.618-2.619 2.62 2.62 0 012.618 2.619v17.818a2.62 2.62 0 01-2.618 2.619zm0 8.559a2.62 2.62 0 01-2.618-2.619v-1.822a2.62 2.62 0 012.618-2.62 2.62 2.62 0 012.618 2.62v1.822a2.62 2.62 0 01-2.618 2.619z" fill="#fff"/><path d="M777.017 128.877c1.975-12.178-6.29-23.652-18.462-25.629-12.172-1.976-23.642 6.293-25.617 18.47-1.976 12.178 6.29 23.652 18.462 25.629 12.172 1.976 23.641-6.293 25.617-18.47z" fill="#1A272E"/><path d="M762.44 143.38c9.99-4.14 14.734-15.598 10.596-25.592-4.138-9.995-15.591-14.741-25.581-10.601-9.989 4.14-14.733 15.598-10.595 25.592 4.138 9.994 15.59 14.74 25.58 10.601z" fill="#fff"/><mask id="b" style="mask-type:luminance" maskUnits="userSpaceOnUse" x="735" y="105" width="40" height="40"><path d="M762.44 143.38c9.99-4.14 14.734-15.598 10.596-25.592-4.138-9.995-15.591-14.741-25.581-10.601-9.989 4.14-14.733 15.598-10.595 25.592 4.138 9.994 15.59 14.74 25.58 10.601z" fill="#fff"/></mask><g mask="url(#b)"><path d="M766.97 108.282s.718 26.349-23.668 34.273c0 0 17.495 11.226 31.22-3.82 13.729-15.045-7.557-30.453-7.557-30.453h.005z" fill="#BDBDD8"/></g><path d="M755.136 128.368a3.083 3.083 0 10-.002-6.168 3.083 3.083 0 00.002 6.168zm.556-20.086h-1.108v5.299h1.108v-5.299zm0 28.973h-1.108v5.3h1.108v-5.3zm16.575-11.283v-1.108h-5.297v1.108h5.297zm-28.965 0v-1.108h-5.297v1.108h5.297zm24.339-12.277l-.783-.784-3.746 3.748.783.783 3.746-3.747zm-20.479 20.489l-.783-.783-3.746 3.747.783.784 3.746-3.748zm19.695 3.743l.783-.783-3.746-3.748-.783.784 3.746 3.747zm-20.477-20.489l.783-.784-3.746-3.747-.783.783 3.746 3.748z" fill="#1A272E"/><path d="M762.285 118.268l-6.681 5.256-.468 1.896 1.895-.468 5.254-6.684z" fill="#F1BF46"/><path d="M360.461 218.858h-8.507v8.51h8.507v-8.51z" fill="#1A272E"/><path d="M621.768 231.766c-17.267 0-33.579-4.787-49.866-14.634-14.408-8.707-27.012-20.051-40.361-32.061-25.778-23.196-52.431-47.181-92.63-50.028-21.733-1.542-39.512 3.92-52.847 16.237-26.194 24.186-26.895 67.175-26.899 67.604l-5.906-.052c0-.469.136-11.598 3.704-26.03 3.314-13.403 10.35-32.237 25.073-45.841 14.583-13.482 33.86-19.473 57.299-17.813 42.222 2.991 69.646 27.668 96.164 51.53 25.822 23.236 50.207 45.179 86.278 45.179 41.919 0 60.754-8.584 75.884-15.487 11.624-5.3 21.663-9.877 37.997-8.598l-.46 5.891c-14.819-1.161-23.759 2.917-35.085 8.085-15.652 7.135-35.134 16.018-78.336 16.018h-.009z" fill="#EA4230"/><path d="M741.678 198.456h-12.517v12.523h12.517v-12.523z" fill="#1A272E"/></g><defs><clipPath id="clip0_227_16437"><path fill="#fff" d="M0 0h910v253H0z"/></clipPath></defs></svg>