<svg width="659" height="358" fill="none" xmlns="http://www.w3.org/2000/svg"><g clip-path="url(#clip0_227_16120)"><path d="M290.03 158.96c43.896 0 79.48-35.584 79.48-79.48S333.926 0 290.03 0s-79.48 35.584-79.48 79.48 35.584 79.48 79.48 79.48z" fill="#FFDCAE"/><path d="M343.087 132.533c29.301-29.301 29.301-76.807 0-106.108-29.301-29.302-76.807-29.302-106.108 0-29.301 29.3-29.301 76.807 0 106.108 29.301 29.301 76.807 29.301 106.108 0z" fill="#FFD25A"/><path opacity=".2" d="M295.64 113.04c-4 10-19 8-27 2-16.28-11.14-36.24-40.64-53.57-33.11.43 13.51 4.42 26.11 11.08 36.9.16.07.33.15.49.21-.16-.07-.32-.14-.49-.21 13.21 21.41 36.88 35.68 63.88 35.68 41.25 0 74.71-33.29 75.01-74.46-13.63-6.67-24.08-18.4-39.4-22.01-35-8-22 35-30 55z" fill="#fff"/><path d="M269.43 10.49c.84-.33 1.7-.63 2.56-.9l2.63-.66c.88-.21 1.78-.33 2.67-.47.9-.13 1.79-.26 2.7-.26 2.12-.05 3 .36 2.03.92-.4.23-1.05.45-1.82.63-.86.2-1.73.39-2.59.59-.86.19-1.73.33-2.58.56l-2.59.54c-.85.21-1.72.41-2.59.56-2.03.38-2.99.22-2.16-.54.35-.31.96-.67 1.72-.95l.02-.02zm20.28-3c.9-.1 1.81-.1 2.71-.12h1.36l1.36.09c.9.09 1.81.14 2.7.28.89.14 1.79.3 2.67.51 2.05.53 2.78 1.23 1.69 1.46-.45.11-1.13.09-1.92.08-.89-.02-1.77-.08-2.65-.17-.88-.08-1.76-.11-2.64-.17l-1.32-.12-1.32-.07c-.88-.04-1.76-.14-2.64-.22-2.05-.16-2.94-.66-1.92-1.12.42-.19 1.11-.34 1.92-.44v.01zm20.3 2.82c.9.15 1.78.36 2.64.64.86.27 1.73.53 2.58.84l2.51 1.04c.83.36 1.62.81 2.41 1.25 1.83 1.05 2.31 1.97 1.22 1.87-.45-.04-1.12-.21-1.87-.45-.85-.27-1.66-.62-2.49-.92l-2.48-.92c-.82-.33-1.66-.6-2.48-.91-.82-.31-1.65-.63-2.48-.94-1.91-.78-2.63-1.47-1.52-1.64.46-.06 1.15 0 1.96.14zm31.09 18.43c1.38 1.17 2.65 2.47 3.83 3.85.59.68 1.16 1.39 1.69 2.13s1.08 1.45 1.51 2.25c1.05 1.84 1.1 2.82.15 2.23-.39-.24-.89-.71-1.41-1.31-.57-.68-1.19-1.31-1.74-2-.56-.68-1.12-1.36-1.72-2.01-1.11-1.37-2.32-2.65-3.41-4.05-1.32-1.58-1.6-2.55-.56-2.15.43.17 1.03.54 1.66 1.05v.01zm14.63 21.3c.31.46.58.94.83 1.43.23.5.44 1 .65 1.51.39 1.02.77 2.05.93 3.15.34 2.11-.18 2.56-1.13 1.1-.11-.17-.23-.38-.35-.59-.5-.96-.89-1.94-1.31-2.92-.18-.5-.37-1-.54-1.5-.18-.5-.37-1-.5-1.52-.52-2.01-.09-2.59 1-1.22.13.17.28.37.42.58v-.02zm5.77 21.13c.34 1.06.4 2.15.52 3.24.08 1.09.09 2.18-.07 3.28-.3 2.11-.93 2.39-1.4.7-.06-.2-.11-.44-.16-.67-.2-1.06-.24-2.12-.37-3.18-.07-1.06-.09-2.12-.07-3.2.09-2.07.68-2.5 1.32-.86.08.2.16.44.23.68v.01zm-82.09 79.34c-15.01-2.09-29.24-9.24-40.03-19.89-10.81-10.65-18.12-24.8-20.49-39.81-2.4-15 .12-30.73 7.11-44.2 3.46-6.76 8.06-12.9 13.44-18.23 2.7-2.66 5.63-5.08 8.71-7.28 3.08-2.2 6.33-4.17 9.73-5.82 1.87-.95 3.55-1.23 3.66-.84.13.43-1.24 1.32-2.96 2.23a67.273 67.273 0 00-9.46 5.79c-2.99 2.18-5.83 4.56-8.44 7.18-5.21 5.24-9.66 11.25-13 17.84-6.78 13.13-9.19 28.44-6.82 43.02 2.27 14.59 9.34 28.38 19.85 38.77 10.47 10.42 24.27 17.49 38.93 19.7 2.03.27 3.6.84 3.51 1.23-.09.44-1.75.55-3.74.31zm10.52-.59c1.49-.23 2.98-.23 4.46-.37 1.48-.09 2.97-.16 4.47-.2 2.07 0 2.85.43 1.71 1.03-.37.18-.9.36-1.51.52-1.49.41-3.02.51-4.54.65-1.53.09-3.06.07-4.58-.07-2.1-.3-2.77-.87-1.55-1.27.39-.13.94-.23 1.56-.29h-.02zm16.83-2.01c1.41-.5 2.82-.97 4.25-1.39 1.41-.48 2.84-.87 4.28-1.28 2-.52 2.88-.27 1.9.58-.31.27-.79.58-1.34.87-1.34.76-2.82 1.19-4.25 1.73-1.48.38-2.94.85-4.48 1-2.11.23-2.89-.16-1.81-.85.35-.22.86-.45 1.44-.67l.01.01zm15.85-5.98c5.29-2.92 10.21-6.48 14.68-10.51 4.44-4.08 8.43-8.64 11.84-13.63 1.18-1.68 2.22-2.73 2.44-2.25.09.2.02.62-.16 1.18-.21.54-.55 1.22-.97 1.92-3.18 5.31-7.28 10.04-11.8 14.26-4.63 4.11-9.72 7.76-15.3 10.42-.95.45-1.79.76-2.39.87-.6.1-.95.03-.91-.23.08-.41 1.17-1.23 2.57-2.02v-.01zm33.43-37.84c.16-.9.4-1.76.68-2.62.33-.84.59-1.69 1-2.51.96-1.86 1.65-1.76 1.51.32v.11c-.07.94-.31 1.83-.6 2.71-.33.86-.61 1.75-1.11 2.54-1.16 1.81-1.81 1.58-1.48-.42 0-.04.02-.09.02-.13h-.02z" fill="#fff"/><path d="M360.08 86.44c-.11-.91-.06-1.81-.02-2.71.11-.89.1-1.79.32-2.68.47-2.04 1.16-2.12 1.54-.07 0 .03.01.08.02.11.15.92.18 1.85.12 2.77-.1.92-.18 1.84-.43 2.74-.66 2.05-1.35 1.99-1.54-.02 0-.04-.01-.09-.02-.13l.01-.01z" fill="#fff"/><path d="M585.29 301.67s62.67-1.13 62.67 7.68c0 8.81-41.86 16-43.33 20.42-1.47 4.42 53.09 18.46 53.83 22.94.74 4.48-659.19 4.74-658.45 0 .74-4.74 55.3-26.57 53.09-29.18-2.21-2.61-32.29-12.23-31.71-17.39 1.51-13.33 563.91-4.48 563.91-4.48l-.01.01z" fill="#FFDCAE"/><path d="M616.09 291.16l-4.45-.52-226.76-26.29 6.39-8.01s11.36-20.02 16.11-20.76c4.75-.72 12.68 10.14 14.58 10.14 1.9 0 7.77-6.1 10.46-6.1 2.69 0 19.82 4.53 22 4.7 2.19.18 11.28-8.35 12.17-8.74.87-.38 4.19-15.63 5.03-16.34.83-.7 7.88 5.75 9.42 6.28 1.54.52 3.19 13.58 3.19 13.58s1.76-5.22 4.13-9.23c2.37-4 16.24-13.41 16.24-13.41s-3.18-6.87-4.28-9.89c-.55-1.51.56-19.19 1.69-21.1 1.13-1.91 9.34-5.22 11.56-4.53 2.22.7 6.97 17.06 6.97 17.06l-1.59 6.28 4.44 6.09s5.54 4.36 7.45 5.22c1.9.87 5.54 21.77 6.65 23.16 1.11 1.39 17.6 2.79 19.34 2.96 1.75.18 4.44 5.75 5.07 6.79.63 1.04 27.42 6.45 27.11 9.23-.32 2.79 27.06 33.43 27.06 33.43h.02z" fill="#FCCF97"/><path opacity=".5" d="M616.09 291.16l-4.45-.52c-10.4-12.77-24.74-30.43-25.33-31.46-.92-1.62-25.4-8.09-26.09-8.09-.69 0-3.23-6.46-3.93-6.92-.69-.46-24.71 1.85-25.86.92-1.16-.92-2.31-27.25-2.31-27.25s-4.62-3.69-6.24-4.61c-1.62-.93-4.39-7.85-4.39-7.85l-3.23 5.08s2.55-9.71 2.55-12.94c0-3.23-3.7-13.16-4.62-13.85-.92-.7-10.16 1.79-10.16 1.79 1.13-1.92 9.34-5.22 11.56-4.53 2.22.7 6.97 17.06 6.97 17.06l-1.59 6.28 4.44 6.09s5.54 4.36 7.45 5.22c1.9.87 5.54 21.77 6.65 23.16 1.11 1.39 17.6 2.79 19.34 2.96 1.75.18 4.44 5.75 5.07 6.79.63 1.04 27.42 6.45 27.11 9.23-.32 2.79 27.06 33.43 27.06 33.43v.01z" fill="#fff"/><path d="M313.24 278.82L78.06 290.65l-4.45.52s6.86-8.46 13.68-16.89c6.17-7.61 12.32-15.21 13.38-16.54 1.5-1.89 20.18-6.62 25.63-8.56.02 0 .05-.02.08-.03.82-.28 1.32-.5 1.4-.64.63-1.04 3.33-6.61 5.07-6.79 1.74-.17 18.23-1.57 19.34-2.96 1.11-1.39 32.9-22.29 32.9-22.29s13.87 9.41 16.24 13.41c2.38 4 4.13 9.23 4.13 9.23s16.77-3.89 17.65-3.51c.88.39 9.98 8.92 12.17 8.74 2.19-.17 19.31-4.7 22-4.7 2.51 0 7.79 5.32 10.03 6.02.16.05.31.08.43.08 1.9 0 9.83-10.86 14.58-10.14 4.75.73 16.11 20.76 16.11 20.76l14.82 22.47-.01-.01z" fill="#FCCF97"/><path d="M111.03 280.78s-5.75-2.06-5.3-3.24c.44-1.18 5.16-.15 5.16-.15s-2.51-3.54-1.18-4.72c1.33-1.18 9.14.44 9.14.44s-.44-3.83 3.98-4.86c4.42-1.03 5.45 3.24 5.45 3.24s3.54-5.3 5.75-3.83c2.21 1.47-2.36 6.93-2.36 6.93s9.43-5.01 11.64-2.95c2.21 2.06-6.93 8.25-6.93 8.25l-25.34.88-.01.01z" fill="#3C8460"/><path d="M42.75 302.97h596.84v-3.98H42.75v3.98z" fill="#8C9293"/><path d="M42.74 298.98l7.24-2.36h577.65l11.96 2.36H42.74z" fill="#FFDCAE"/><path d="M49.98 296.62h577.63c-.85-.57-20.17-13.46-31.95-15.47-12.05-2.04-122.4-11.68-127.03-13.73-3.83-1.68-43.8-11.32-62.42-14.64-.15-.03-.31-.06-.46-.08-.47-.08-.92-.16-1.35-.23-.45-.08-.89-.14-1.32-.22-2.4-.38-4.22-.59-5.28-.59h-.16c-.25 0-.59.03-1 .08-.1 0-.21.02-.31.03-16.06 1.9-126.8 26.44-134.2 25.88-7.07-.54-75.18-4.27-90.65-3.75-1.39.05-2.36.12-2.82.24-5.56 1.47-99.68 9.06-99.68 9.06l-19.01 13.43.01-.01z" fill="#F99441"/><path d="M540.95 257.9c.02 1.42-1.76 2.19-2.87 1.52-1.15-.59-1.77-1.85-1.84-3.08-.15-2.48 1.8-4.98 4.34-5.18 2.49-.21 4.99 1.42 5.77 3.8.74 2.35-.2 5.26-2.5 6.39-1.14.55-2.5.48-3.63 0-1.14-.48-2.13-1.43-2.45-2.67-.66-2.51 1.61-5.18 4.18-5.02 1.26.05 2.45.68 3.27 1.61.83.94 1.23 2.25 1.02 3.49-.17 1.23-1.06 2.44-2.34 2.71-.62.16-1.28.12-1.88-.13-.59-.24-1.1-.76-1.28-1.39a2.6 2.6 0 01.18-1.88c.29-.57.87-1.05 1.54-1.09.67-.08 1.32.24 1.76.69.45.45.77 1.02.95 1.62.4 1.22.08 2.54-.47 3.63-.59 1.09-1.5 2-2.58 2.61-1.08.61-2.33.93-3.58.8-1.24-.11-2.43-.66-3.37-1.46-1.89-1.58-2.97-4.19-2.45-6.65.5-2.45 2.33-4.51 4.6-5.47 2.3-1 5.02-.65 7.13.6 2.12 1.23 3.79 3.38 4.13 5.86.18 1.22.09 2.49-.34 3.67-.42 1.17-1.21 2.24-2.3 2.88-1.08.66-2.37.86-3.6.81-1.24-.05-2.44-.34-3.6-.7-2.29-.72-4.66-1.76-6.21-3.75a5.833 5.833 0 01-1.24-3.48c-.01-1.26.37-2.49 1-3.56a7.61 7.61 0 012.61-2.62c1.08-.63 2.3-.98 3.53-1.08 4.95-.32 9.87 2.86 11.64 7.5.9 2.31.69 5.04-.58 7.18-.62 1.07-1.51 2.01-2.6 2.64-1.08.64-2.38.91-3.63.76a6.576 6.576 0 01-3.43-1.42c-.97-.79-1.71-1.92-1.9-3.19-.38-2.57 1.29-5.08 3.59-6.08 1.15-.53 2.49-.59 3.71-.31 1.22.3 2.35.91 3.26 1.77.92.84 1.62 1.94 2 3.13.37 1.2.45 2.47.27 3.7a9.456 9.456 0 01-3.73 6.23c-1 .74-2.15 1.28-3.39 1.52-1.23.25-2.53.14-3.71-.29-1.18-.43-2.25-1.19-3-2.22-.75-1.03-1.11-2.31-1.12-3.56 0-2.53 1.07-4.83 2.12-6.99.07-.14.24-.2.38-.13.05.02.09.06.12.1.47.75.67 1.64.63 2.5-.05.87-.34 1.7-.78 2.44-.85 1.49-2.55 2.49-4.28 2.49-1.73.05-3.39-.65-4.67-1.76-1.29-1.12-2.11-2.71-2.46-4.34-.73-3.31.18-6.78 1.96-9.56 1.81-2.79 4.51-4.99 7.63-6.16 6.29-2.35 13.74-.32 18.29 4.5 2.28 2.41 3.84 5.51 4.3 8.81.5 3.29-.38 6.82-2.56 9.38-2.14 2.57-5.27 4.23-8.56 4.7-1.64.24-3.34.17-4.96-.24-1.62-.41-3.13-1.18-4.46-2.18-2.65-2.02-4.53-4.97-5.36-8.17-.84-3.2-.57-6.75 1.03-9.69.79-1.46 1.89-2.79 3.31-3.7 1.41-.93 3.13-1.35 4.79-1.29 1.67.05 3.3.47 4.83 1.08 1.54.59 3 1.39 4.35 2.34 2.7 1.89 4.94 4.44 6.47 7.36.76 1.46 1.37 3.03 1.59 4.69.24 1.65-.08 3.43-1.05 4.83-.96 1.41-2.4 2.37-3.92 3.03-1.52.66-3.15 1.03-4.78 1.24-3.25.42-6.67.19-9.71-1.17-3.01-1.36-5.52-3.98-6.41-7.22-.46-1.6-.43-3.36.14-4.94a8.442 8.442 0 012.97-3.95c1.36-.97 3.08-1.5 4.76-1.24 1.67.25 3.2 1.15 4.32 2.38 1.14 1.23 1.85 2.83 2.08 4.47.24 1.65.07 3.34-.44 4.92-1.02 3.16-3.4 5.82-6.36 7.29-2.93 1.52-6.57 1.74-9.6.37-3.02-1.33-5.5-3.94-6.47-7.13-1-3.19-.14-6.79 1.92-9.36 1.01-1.31 2.34-2.37 3.84-3.07 1.51-.7 3.21-.94 4.85-.79 3.3.3 6.41 2.09 8.36 4.76 1.96 2.63 2.85 6.18 1.9 9.38-.96 3.17-3.71 5.77-6.99 6.37-1.63.32-3.36.03-4.84-.69-1.49-.72-2.78-1.83-3.76-3.15-1.98-2.68-2.68-6.06-2.73-9.31 0-.07.05-.12.12-.13.07 0 .12.05.13.12.06 3.22.75 6.55 2.69 9.16.96 1.29 2.22 2.37 3.67 3.06 1.44.7 3.1.97 4.68.66 3.17-.59 5.85-3.12 6.76-6.18.92-3.1.05-6.55-1.86-9.12-1.9-2.6-4.94-4.34-8.14-4.63-1.6-.14-3.24.09-4.69.77-1.45.68-2.74 1.71-3.71 2.98-1.99 2.51-2.82 5.99-1.85 9.06.93 3.08 3.35 5.62 6.28 6.91 2.94 1.32 6.44 1.11 9.3-.37 2.87-1.43 5.18-4.01 6.16-7.07.49-1.52.66-3.16.42-4.74-.23-1.58-.9-3.09-1.99-4.26-1.07-1.17-2.52-2.02-4.08-2.24-1.57-.24-3.18.26-4.46 1.18a8.016 8.016 0 00-2.82 3.75c-.54 1.49-.56 3.15-.12 4.68.85 3.09 3.28 5.63 6.19 6.93 2.94 1.32 6.28 1.54 9.47 1.12 1.6-.2 3.18-.56 4.65-1.21 1.46-.64 2.83-1.56 3.71-2.87.9-1.3 1.19-2.94.97-4.51-.2-1.58-.8-3.1-1.54-4.52-1.5-2.85-3.69-5.33-6.33-7.18-1.32-.93-2.74-1.7-4.24-2.28-1.49-.59-3.07-1-4.66-1.04-1.59-.06-3.18.35-4.5 1.21-1.33.86-2.37 2.12-3.13 3.52-1.52 2.82-1.78 6.22-.97 9.31.8 3.09 2.63 5.94 5.17 7.87 1.27.96 2.72 1.69 4.26 2.08 1.54.39 3.16.46 4.74.23 3.15-.46 6.16-2.07 8.19-4.52 2.06-2.44 2.9-5.78 2.42-8.93-.45-3.16-1.95-6.16-4.15-8.48-4.38-4.65-11.61-6.59-17.63-4.33-2.99 1.11-5.6 3.23-7.34 5.91-1.72 2.67-2.58 5.99-1.89 9.1.33 1.54 1.09 3 2.27 4.03 1.17 1.02 2.72 1.67 4.27 1.62 1.56 0 3.02-.87 3.8-2.21.81-1.3.99-3.05.16-4.33l.49-.03c-1.05 2.14-2.07 4.39-2.07 6.73 0 1.16.34 2.31 1.01 3.24.67.93 1.66 1.63 2.74 2.03 2.19.85 4.72.26 6.58-1.14 1.9-1.38 3.19-3.55 3.52-5.87.18-1.16.1-2.35-.24-3.46a6.696 6.696 0 00-1.85-2.91 6.83 6.83 0 00-3.03-1.65c-1.13-.25-2.33-.21-3.38.28-2.1.91-3.65 3.25-3.3 5.54.34 2.31 2.61 3.97 4.89 4.2 2.34.32 4.61-1.13 5.76-3.16 1.2-2.03 1.4-4.57.56-6.78-1.66-4.42-6.44-7.53-11.16-7.21-1.17.09-2.33.42-3.34 1.01-1.01.6-1.85 1.46-2.46 2.46-.6 1-.96 2.16-.95 3.32.01 1.16.43 2.3 1.15 3.22 1.45 1.87 3.74 2.9 6 3.61 1.14.35 2.31.63 3.49.68 1.17.05 2.37-.14 3.37-.75 1-.59 1.73-1.57 2.13-2.66.4-1.1.49-2.31.32-3.47-.32-2.35-1.89-4.4-3.93-5.58-2.02-1.2-4.61-1.53-6.78-.59-2.17.91-3.91 2.88-4.39 5.19-.49 2.31.52 4.8 2.32 6.3.89.76 2.01 1.27 3.17 1.38 1.16.12 2.35-.18 3.37-.76a6.39 6.39 0 002.45-2.47c.52-1.03.82-2.26.45-3.37-.17-.55-.46-1.07-.86-1.48-.4-.4-.94-.66-1.49-.59-1.15.08-1.77 1.5-1.44 2.55.16.53.58.96 1.1 1.18.52.22 1.12.26 1.67.12 1.14-.24 1.94-1.31 2.1-2.45.19-1.15-.17-2.36-.94-3.24-.77-.87-1.89-1.46-3.05-1.51-2.35-.17-4.49 2.35-3.87 4.64.61 2.28 3.56 3.49 5.67 2.49 2.15-1.03 3.07-3.82 2.36-6.04-.73-2.24-3.13-3.82-5.48-3.62-2.39.17-4.25 2.55-4.11 4.89.06 1.15.66 2.34 1.7 2.87.51.27 1.12.3 1.63.03.51-.24.9-.76.88-1.31 0-.07.04-.13.11-.13s.13.04.13.11l-.03.01z" fill="#F7B614"/><path d="M547.42 271.29c-.36-1.38 1.18-2.54 2.42-2.16 1.25.3 2.16 1.37 2.53 2.55.74 2.37-.55 5.27-2.97 6.07-2.36.8-5.18-.18-6.51-2.3-1.29-2.1-1.07-5.15.89-6.8.98-.81 2.31-1.06 3.53-.87 1.22.19 2.41.88 3.02 2 1.24 2.28-.32 5.42-2.85 5.88-1.23.25-2.54-.07-3.56-.78-1.03-.71-1.73-1.89-1.83-3.14-.13-1.23.44-2.63 1.62-3.2.56-.3 1.22-.42 1.85-.32.63.09 1.25.47 1.58 1.04.32.56.42 1.24.27 1.87-.14.63-.59 1.23-1.23 1.43-.63.24-1.34.09-1.88-.24-.55-.33-.99-.8-1.31-1.34-.68-1.09-.69-2.44-.41-3.64.31-1.2.98-2.3 1.88-3.15.9-.85 2.04-1.46 3.28-1.64 1.23-.19 2.51.05 3.62.6 2.22 1.08 3.88 3.35 3.97 5.87.1 2.5-1.17 4.93-3.15 6.41-1.99 1.52-4.71 1.84-7.06 1.13-2.35-.68-4.49-2.37-5.41-4.7-.47-1.15-.68-2.4-.55-3.64.13-1.23.63-2.46 1.54-3.35.89-.9 2.09-1.41 3.3-1.65s2.45-.26 3.66-.19c2.4.15 4.95.59 6.93 2.15.98.77 1.72 1.86 2.04 3.08.31 1.22.24 2.5-.12 3.69a7.634 7.634 0 01-1.9 3.17c-.89.88-2 1.5-3.17 1.89-4.73 1.5-10.27-.41-13.1-4.48-1.42-2.03-1.88-4.72-1.16-7.11.35-1.19.98-2.32 1.89-3.19.89-.88 2.1-1.46 3.34-1.61 1.24-.17 2.53.02 3.67.55 1.14.53 2.13 1.46 2.61 2.64.99 2.4-.04 5.24-2.02 6.77-.99.8-2.27 1.17-3.52 1.19-1.26 0-2.5-.32-3.59-.93a7.26 7.26 0 01-2.69-2.56 8.5 8.5 0 01-1.15-3.53c-.25-2.47.52-5.03 2.12-6.94.79-.96 1.78-1.76 2.92-2.29 1.13-.53 2.42-.75 3.67-.61s2.47.61 3.44 1.43c.97.82 1.64 1.98 1.94 3.19.61 2.46.12 4.95-.38 7.3-.03.15-.18.25-.34.22a.37.37 0 01-.14-.07c-.64-.61-1.05-1.43-1.21-2.28-.16-.85-.08-1.73.17-2.55.47-1.65 1.88-3.04 3.55-3.45 1.66-.46 3.45-.18 4.96.59 1.52.78 2.69 2.12 3.43 3.62 1.5 3.04 1.46 6.62.39 9.76-1.09 3.14-3.18 5.93-5.93 7.81-5.54 3.8-13.26 3.62-18.84.02-2.79-1.79-5.05-4.43-6.29-7.52-1.28-3.07-1.27-6.72.23-9.72 1.46-3.01 4.1-5.37 7.18-6.62 1.54-.63 3.2-.97 4.87-.95 1.67.01 3.33.39 4.85 1.05 3.06 1.32 5.59 3.73 7.17 6.65 1.58 2.9 2.17 6.41 1.33 9.65-.42 1.61-1.16 3.16-2.32 4.39-1.15 1.24-2.71 2.06-4.34 2.4-1.64.35-3.32.33-4.95.11-1.64-.2-3.25-.63-4.78-1.23a20.829 20.829 0 01-8.05-5.59c-1.09-1.23-2.06-2.61-2.67-4.17-.62-1.54-.75-3.35-.14-4.94.59-1.6 1.76-2.88 3.07-3.88 1.32-1.01 2.81-1.76 4.34-2.35 3.05-1.19 6.43-1.79 9.7-1.19 3.25.6 6.32 2.54 7.96 5.47.83 1.44 1.23 3.15 1.05 4.82a8.455 8.455 0 01-1.94 4.55c-1.08 1.26-2.63 2.2-4.32 2.35-1.68.16-3.38-.34-4.76-1.27-1.4-.92-2.47-2.3-3.09-3.84-.63-1.54-.87-3.23-.75-4.88.23-3.32 1.9-6.47 4.42-8.6 2.48-2.18 5.96-3.26 9.23-2.66 3.26.57 6.29 2.51 7.99 5.37 1.74 2.86 1.76 6.56.39 9.55-.66 1.52-1.7 2.87-2.99 3.91-1.29 1.04-2.89 1.68-4.52 1.93-3.28.5-6.72-.49-9.26-2.61-2.54-2.09-4.25-5.31-4.09-8.65.17-3.31 2.22-6.49 5.26-7.87 1.51-.7 3.25-.84 4.86-.49 1.62.34 3.14 1.11 4.41 2.15 2.57 2.12 4.05 5.24 4.89 8.38.02.07-.02.13-.09.15-.07.02-.13-.02-.15-.09-.83-3.11-2.3-6.17-4.81-8.24-1.24-1.02-2.72-1.76-4.3-2.09-1.57-.33-3.24-.2-4.7.48-2.93 1.33-4.93 4.43-5.08 7.63-.14 3.23 1.52 6.37 4 8.4 2.47 2.06 5.84 3.03 9.02 2.53 1.58-.25 3.12-.87 4.37-1.88 1.24-1.01 2.25-2.31 2.89-3.79 1.33-2.91 1.3-6.49-.38-9.24-1.65-2.77-4.6-4.65-7.76-5.2-3.18-.58-6.52.47-8.93 2.59-2.45 2.08-4.07 5.14-4.28 8.34-.11 1.6.12 3.23.73 4.7.6 1.48 1.62 2.78 2.95 3.66 1.32.88 2.93 1.35 4.5 1.2 1.58-.14 3.02-1.02 4.05-2.21a8.013 8.013 0 001.83-4.32c.16-1.58-.21-3.19-1.01-4.57-1.57-2.79-4.54-4.67-7.67-5.24-3.17-.57-6.47.01-9.46 1.18-1.51.58-2.96 1.31-4.23 2.29-1.26.97-2.37 2.2-2.91 3.68-.56 1.48-.45 3.14.14 4.61.58 1.48 1.52 2.82 2.58 4.02 2.14 2.41 4.86 4.29 7.87 5.45 1.5.58 3.07 1 4.67 1.19 1.59.21 3.22.23 4.78-.11 1.56-.33 3-1.1 4.08-2.26 1.09-1.15 1.79-2.63 2.19-4.17.8-3.1.23-6.47-1.29-9.27-1.52-2.81-3.98-5.13-6.91-6.4-1.46-.63-3.05-.99-4.64-1-1.59-.01-3.18.32-4.66.92-2.95 1.21-5.48 3.49-6.87 6.35-1.42 2.86-1.43 6.3-.2 9.25 1.19 2.96 3.37 5.51 6.07 7.23 5.37 3.46 12.86 3.61 18.16-.03 2.64-1.8 4.66-4.48 5.7-7.5 1.03-3 1.06-6.44-.35-9.29-.69-1.41-1.78-2.65-3.17-3.36-1.38-.71-3.04-.97-4.53-.55-1.51.38-2.72 1.57-3.16 3.06-.47 1.46-.23 3.2.88 4.25l-.47.15c.5-2.33.96-4.76.39-7.03-.28-1.12-.88-2.17-1.75-2.9-.88-.74-2-1.18-3.15-1.31-2.33-.3-4.65.88-6.12 2.69-1.51 1.8-2.24 4.21-2.01 6.55.1 1.17.47 2.31 1.07 3.3a6.72 6.72 0 002.5 2.38c1.01.57 2.18.88 3.34.87 1.15-.03 2.31-.36 3.22-1.08 1.82-1.39 2.76-4.03 1.87-6.17-.89-2.16-3.48-3.23-5.75-2.9-2.35.25-4.21 2.21-4.83 4.45-.68 2.25-.26 4.78 1.09 6.71 2.68 3.89 8.06 5.76 12.56 4.32 1.11-.37 2.16-.97 3-1.78.83-.82 1.44-1.86 1.79-2.98.34-1.12.41-2.33.12-3.45a5.365 5.365 0 00-1.89-2.85c-1.86-1.47-4.33-1.92-6.69-2.06-1.19-.07-2.39-.06-3.55.18-1.15.23-2.27.71-3.09 1.53-.83.81-1.3 1.94-1.43 3.1-.12 1.17.08 2.36.52 3.45.87 2.2 2.9 3.82 5.15 4.48 2.25.68 4.84.38 6.72-1.06 1.88-1.4 3.1-3.74 3.01-6.09-.08-2.36-1.66-4.53-3.76-5.56-1.05-.52-2.26-.75-3.41-.58-1.16.16-2.24.74-3.09 1.54-.86.81-1.49 1.85-1.78 2.98-.26 1.13-.25 2.39.37 3.38.29.5.7.93 1.19 1.23.48.29 1.07.41 1.59.22 1.1-.36 1.36-1.88.79-2.82-.28-.48-.79-.8-1.35-.88-.56-.09-1.15.02-1.65.29-1.05.51-1.57 1.74-1.45 2.88a3.95 3.95 0 001.69 2.91c.96.66 2.18.96 3.32.73 2.33-.4 3.8-3.36 2.65-5.43-1.14-2.06-4.3-2.53-6.11-1.05-1.83 1.52-2.06 4.44-.84 6.43 1.24 2 3.95 2.96 6.19 2.2 2.28-.74 3.51-3.49 2.81-5.74-.34-1.11-1.2-2.11-2.34-2.38-.56-.14-1.16-.02-1.59.36-.43.36-.7.95-.54 1.48.02.06-.01.14-.08.16-.06.02-.14-.01-.16-.08l.02-.03z" fill="#F7B614"/><path d="M539.53 254.31c-.21-.9-.09-1.88.29-2.73.39-.85.99-1.59 1.71-2.18 1.46-1.21 3.38-1.61 5.18-1.71.91-.04 1.81 0 2.71.05.89.07 1.79.09 2.7.25.9.15 1.82.42 2.59.97.76.54 1.38 1.34 1.53 2.28.01.07-.04.13-.1.14-.06.01-.13-.03-.14-.09-.19-.84-.81-1.52-1.53-1.96-.72-.46-1.57-.68-2.43-.79-1.74-.17-3.55-.28-5.3-.21-1.74.07-3.51.44-4.87 1.5-1.34 1.02-2.37 2.69-2.09 4.44.01.07-.03.13-.1.14-.06.01-.13-.03-.14-.09l-.01-.01z" fill="#F7B614"/><path d="M542 253.72c-1.99-1.68-4.55-2.58-7.1-2.71-2.56-.13-5.18.52-7.27 1.99-2.11 1.44-3.63 3.67-4.41 6.12-.78 2.44-.83 5.15.05 7.6.02.06-.01.14-.08.16-.06.02-.13 0-.16-.07-1.03-2.46-1.1-5.29-.33-7.85.75-2.57 2.35-4.92 4.56-6.47 2.23-1.53 4.99-2.2 7.66-2.01 2.67.18 5.29 1.23 7.24 3.06.05.05.05.13 0 .18-.05.05-.12.05-.17 0h.01zm3.48 18.23c-.5 2.37-2.01 4.48-3.96 5.91a11.733 11.733 0 01-6.81 2.31c-2.44 0-4.85-.74-6.91-2a15.115 15.115 0 01-5.05-5.07c-.04-.06-.02-.14.04-.17s.13-.02.17.04c1.34 1.94 3.1 3.57 5.12 4.74 2.01 1.17 4.31 1.87 6.63 1.84 2.31 0 4.6-.79 6.5-2.12 1.89-1.33 3.41-3.26 4.04-5.53.02-.07.09-.1.15-.09.06.02.1.08.09.15l-.01-.01zm-1.29 5.03c2.57 1.04 5.43 1.24 8.12.72 2.69-.53 5.26-1.78 7.2-3.7 1.97-1.9 3.28-4.44 3.86-7.11.58-2.68.45-5.54-.53-8.14-.02-.06 0-.14.07-.16.06-.02.13 0 .16.07 1.13 2.59 1.39 5.55.83 8.34-.55 2.79-1.91 5.44-3.95 7.45-2.06 1.99-4.74 3.3-7.54 3.78-2.8.49-5.75.17-8.32-1.02-.06-.03-.09-.1-.06-.16s.1-.09.16-.06v-.01z" fill="#F7B614"/><path d="M532 256.1c-.1-1.68.19-3.39.84-4.97.64-1.58 1.63-3.01 2.87-4.19 1.26-1.15 2.77-2.03 4.39-2.55 1.62-.52 3.35-.69 5.02-.46.07 0 .12.07.11.14 0 .06-.07.11-.13.11-1.64-.08-3.29.18-4.82.73-1.53.55-2.96 1.39-4.14 2.5-1.2 1.09-2.14 2.45-2.8 3.94-.66 1.49-1.05 3.11-1.09 4.75 0 .07-.06.12-.13.12-.06 0-.12-.05-.12-.12z" fill="#F7B614"/><path d="M594.86 283.44s-3.81-82.46-2.78-90.15c1.03-7.69 8.76-9.46 10.82-2.37 2.06 7.1 1.55 95.22 1.55 95.22l-9.59-2.7z" fill="#71BF9D"/><path d="M598.28 217.3c-5.7-1.11-9.8-5.04-10.09-9.68-1-15.78-3.07-50.3-2.27-54.38 1.03-5.3 8.76-6.53 10.82-1.63 2.06 4.9 1.55 65.69 1.55 65.69h-.01zm-2.79 22.3s-12.65 2.71-19.73-11.07c-5.23-10.18-8.79-31.01-3-32.98 5.79-1.97 6.19 18.43 12.22 28.55 5.57 9.35 10.29 7.14 10.29 7.14 4.75-.16 4.96 8.21.21 8.37l.01-.01zm9.88-21.93s12.86-.39 17.27-15.56c3.26-11.21 2.95-32.43-3.07-32.97-6.02-.54-2.7 19.51-6.75 30.85-3.75 10.48-8.76 9.45-8.76 9.45-4.67.98-3.36 9.22 1.31 8.23z" fill="#71BF9D"/><path opacity=".5" d="M572.16 199.43c.23 4.19.71 8.37 1.43 12.47.77 4.08 1.7 8.15 3.3 11.86.73 1.89 1.69 3.63 2.75 5.28 1.11 1.61 2.35 3.09 3.76 4.33 2.82 2.45 6.39 3.94 9.97 3.8l.08.63c-3.8.58-7.64-.81-10.76-3.31-3.12-2.55-5.44-6.16-7.07-10.05-1.61-3.92-2.57-8.1-3.22-12.3-.61-4.21-.92-8.46-.8-12.73h.55l.01.02zm16.44-44.78c.34 4.76.64 9.52.89 14.28l.7 14.29.59 14.29c.09 2.38.18 4.77.33 7.12 0 2.27 1.07 4.44 2.75 5.63l-.25.57c-1.96-1.16-3.32-3.56-3.47-6.09-.24-2.39-.4-4.77-.57-7.15-.32-4.76-.54-9.53-.78-14.3-.17-4.77-.38-9.54-.5-14.31-.14-4.77-.21-9.54-.24-14.32l.55-.03v.02zm17.05 60.63c1.75-.7 3.46-1.58 5.07-2.64 1.62-1.03 3.15-2.24 4.5-3.65 1.34-1.42 2.55-3 3.42-4.81.86-1.79 1.42-3.85 1.88-5.88.96-4.09 1.22-8.38 1.19-12.65-.08-4.27-.5-8.55-1.44-12.7l.53-.19c1.3 4.12 1.89 8.48 2.11 12.85.17 4.37-.1 8.8-1.03 13.09-.51 2.14-1.1 4.23-2.08 6.23-1 1.95-2.29 3.68-3.79 5.1-2.99 2.85-6.51 4.78-10.22 5.86l-.14-.62v.01zm-5.03-23.94c.63 7.58 1.02 15.17 1.32 22.76.3 7.59.45 15.19.6 22.79.09 7.6.14 15.2.1 22.8l-.11 11.4-.26 11.4h-.55l-.58-45.57c-.08-7.59-.24-15.18-.4-22.77l-.29-11.38c-.09-3.79-.2-7.59-.38-11.38l.55-.05z" fill="#3C8460"/><path d="M593.55 284.53s-5.52-5.43-4.34-6.94c1.18-1.51 7.89 4.83 7.89 4.83s-1.05-6.34 1.05-6.34 3.55 6.94 3.55 6.94 2.76-4.83 3.95-4.38c1.19.45-.92 5.13-.92 5.13s5.52-2.42 5.66 0c.13 2.42-6.05 3.17-6.05 3.17s4.21 1.81 3.42 3.02-8.02-3.32-8.02-3.32-.39 3.32-1.84 3.17c-1.45-.15.26-3.32.26-3.32s-7.1 3.32-8.29.6c-1.18-2.72 3.68-2.57 3.68-2.57v.01z" fill="#3C8460"/><path d="M67.15 282.53s-3.84-72.35-2.8-79.09c1.04-6.75 8.82-8.3 10.9-2.08 2.08 6.23 1.56 83.54 1.56 83.54l-9.65-2.37h-.01z" fill="#71BF9D"/><path d="M67.79 244.07s-12.74 2.38-19.86-9.72c-5.26-8.93-8.85-27.2-3.02-28.93 5.83-1.73 6.23 16.17 12.31 25.04 5.61 8.2 10.36 6.26 10.36 6.26 4.78-.14 5 7.2.22 7.34l-.01.01zm9.95-19.25s12.95-.34 17.39-13.65c3.28-9.84 2.97-28.45-3.09-28.92-6.06-.47-2.71 17.11-6.8 27.06-3.77 9.2-8.83 8.29-8.83 8.29-4.7.86-3.38 8.09 1.32 7.22h.01z" fill="#71BF9D"/><path opacity=".5" d="M44.3 208.82c.23 3.67.71 7.35 1.44 10.94.78 3.58 1.71 7.15 3.32 10.4.74 1.66 1.71 3.18 2.77 4.64 1.12 1.41 2.37 2.71 3.79 3.8 2.84 2.15 6.44 3.46 10.04 3.33l.08.55c-3.82.5-7.69-.71-10.83-2.9-3.14-2.23-5.48-5.4-7.12-8.81-1.62-3.44-2.59-7.1-3.24-10.79-.61-3.7-.93-7.42-.81-11.17h.56v.01zm33.71 13.91c1.76-.61 3.49-1.39 5.1-2.31 1.63-.91 3.17-1.96 4.53-3.2 1.35-1.25 2.56-2.63 3.45-4.22.87-1.57 1.43-3.38 1.89-5.16.96-3.59 1.23-7.35 1.19-11.09-.08-3.74-.5-7.5-1.45-11.15l.53-.17c1.31 3.61 1.91 7.44 2.13 11.27.17 3.84-.1 7.72-1.04 11.49-.52 1.88-1.1 3.71-2.1 5.47-1 1.71-2.31 3.23-3.81 4.47-3.01 2.5-6.55 4.2-10.29 5.14l-.14-.54h.01zm-5.06-21c.64 6.65 1.03 13.31 1.33 19.97.31 6.66.45 13.33.6 20 .09 6.67.14 13.34.1 20l-.11 10-.26 10h-.56l-.58-39.98c-.08-6.66-.24-13.32-.4-19.98l-.29-9.99c-.09-3.33-.2-6.66-.38-9.98l.56-.05-.01.01z" fill="#3C8460"/><path d="M65.83 283.48s-5.56-4.77-4.37-6.09c1.19-1.32 7.95 4.24 7.95 4.24s-1.06-5.56 1.06-5.56 3.58 6.09 3.58 6.09 2.78-4.24 3.97-3.84c1.19.4-.93 4.5-.93 4.5s5.56-2.12 5.7 0c.13 2.12-6.09 2.78-6.09 2.78s4.24 1.59 3.44 2.65c-.79 1.06-8.08-2.91-8.08-2.91s-.4 2.91-1.85 2.78c-1.46-.13.26-2.91.26-2.91s-7.15 2.91-8.34.53c-1.19-2.38 3.71-2.25 3.71-2.25l-.01-.01z" fill="#3C8460"/><path opacity=".3" d="M481.28 296.62H210.43h.03c2.92-.43 201.03-30.34 213.04-26.65 9.83 3.03 44.96 20.29 57.78 26.66v-.01z" fill="#DD4026"/><path d="M523.73 306.81c1.39-.09 2.78-.1 4.16-.11 1.39.01 2.78.02 4.16.11 1.61.11 2.27.37 1.48.58-.33.09-.86.16-1.48.2-1.39.09-2.78.1-4.16.11-1.39-.01-2.78-.02-4.16-.11-1.61-.11-2.28-.37-1.48-.58.33-.09.86-.16 1.48-.2zm15.81 0c1.39-.09 2.78-.1 4.16-.11 1.39.01 2.78.02 4.16.11 1.61.11 2.27.37 1.48.58-.33.09-.86.16-1.48.2-1.39.09-2.78.1-4.16.11-1.39-.01-2.78-.02-4.16-.11-1.61-.11-2.28-.37-1.48-.58.33-.09.86-.16 1.48-.2zm15.81 0c1.39-.09 2.78-.1 4.16-.11 1.39.01 2.78.02 4.16.11 1.61.11 2.27.37 1.48.58-.33.09-.86.16-1.48.2-1.39.09-2.78.1-4.16.11-1.39-.01-2.78-.02-4.16-.11-1.61-.11-2.28-.37-1.48-.58.33-.09.86-.16 1.48-.2zm28.08 0c1.39-.09 2.78-.1 4.16-.11 1.39.01 2.78.02 4.16.11 1.61.11 2.27.37 1.48.58-.33.09-.86.16-1.48.2-1.39.09-2.78.1-4.16.11-1.39-.01-2.78-.02-4.16-.11-1.61-.11-2.28-.37-1.48-.58.33-.09.86-.16 1.48-.2zm19.98 0c.84-.09 1.68-.1 2.51-.11.84.01 1.68.02 2.51.11 1.61.18 1.85.49.53.71-.16.03-.34.05-.53.07-.84.09-1.68.1-2.51.11-.84-.01-1.68-.02-2.51-.11-1.61-.18-1.85-.49-.54-.71.16-.03.35-.05.54-.07zm16.9.02c.84-.09 1.68-.1 2.51-.11.84.01 1.68.02 2.51.11 1.61.18 1.85.49.53.71-.16.03-.34.05-.53.07-.84.09-1.68.1-2.51.11-.84-.01-1.68-.02-2.51-.11-1.61-.18-1.85-.49-.54-.71.16-.03.35-.05.54-.07zm-246.17.07c11.66-.04 23.33-.07 34.99-.08l34.99-.03 34.99.03c11.66.01 23.33.04 34.99.08 1.61 0 2.89.18 2.85.4-.04.21-1.3.37-2.85.38-11.66.04-23.33.07-34.99.08l-34.99.03-34.99-.03c-11.66-.01-23.33-.04-34.99-.08-1.61 0-2.89-.18-2.85-.4.04-.21 1.3-.37 2.85-.38zm-8.14.69c-1.17.09-2.34.1-3.51.11-1.17-.01-2.34-.02-3.51-.11-1.61-.13-2.15-.4-1.21-.62.3-.07.73-.12 1.21-.16 1.17-.09 2.34-.1 3.51-.11 1.17.01 2.34.02 3.51.11 1.61.13 2.16.4 1.22.62-.3.07-.73.12-1.22.16zm-13.35 0c-1.17.09-2.34.1-3.51.11-1.17-.01-2.34-.02-3.52-.11-1.61-.13-2.15-.4-1.21-.62.3-.07.73-.12 1.21-.16 1.17-.09 2.34-.1 3.52-.11 1.17.01 2.34.02 3.51.11 1.61.13 2.16.4 1.22.62-.3.07-.73.12-1.22.16zm-13.35 0c-4.75.09-9.5.1-14.25.11-4.75-.01-9.5-.02-14.25-.11-1.61-.03-2.73-.23-2.5-.45.19-.18 1.24-.31 2.5-.33 4.75-.09 9.5-.1 14.25-.11 4.75.01 9.5.02 14.25.11 1.61.03 2.73.23 2.5.45-.19.18-1.24.31-2.5.33zm-40.57 0c-.71.09-1.41.1-2.12.11-.71-.01-1.41-.02-2.12-.11-1.61-.21-1.65-.55-.08-.77.02 0 .06 0 .08-.01.71-.09 1.41-.1 2.12-.11.71.01 1.41.02 2.12.11 1.61.21 1.66.55.1.77-.03 0-.07 0-.1.01zm-14.27.02c-.71.09-1.41.1-2.12.11-.71-.01-1.41-.02-2.12-.11-1.61-.21-1.65-.55-.08-.77.02 0 .06 0 .08-.01.71-.09 1.41-.1 2.12-.11.71.01 1.41.02 2.12.11 1.61.21 1.66.55.1.77-.03 0-.07 0-.1.01z" fill="#fff"/><path opacity=".3" d="M262.34 282.58s158.01-17.6 156.34-23.6c-.92-3.28-7.07-5.16-12.47-6.19-.15-.03-.31-.06-.46-.08-.47-.08-.92-.16-1.35-.23-.45-.08-.89-.14-1.32-.22-3.03-.44-5.28-.59-5.28-.59h-.16c-.18.02-.52.04-1 .08-.1 0-.21.02-.31.03-16.06 1.9-126.8 26.44-134.2 25.88-7.07-.54-75.18-4.27-90.65-3.75-.2.08-.37.17-.51.24-11.74 6.65 91.36 8.44 91.36 8.44l.01-.01z" fill="#FFD25A"/><path d="M100.67 257.73c1.5-1.89 20.18-6.62 25.63-8.56-4.85 2.21-20.04 9.12-21 9.44-1.13.37-17.79 15.91-18.31 16.4l.3-.74c6.17-7.61 12.32-15.21 13.38-16.54z" fill="#FCCF97"/><path opacity=".5" d="M267.3 245.65l-10.85-1.93-22.9 8.01-13.36-10.3-27.48 7.63-1.53 12.6-22.51 6.87 18.32-9.55 1.14-10.31 10.31-15.64-14.5-9.92-28.63 20.6-22.14 1.15-5.39 3.64c.63-1.04 3.33-6.61 5.07-6.79 1.74-.17 18.23-1.57 19.34-2.96 1.11-1.39 32.9-22.29 32.9-22.29s13.87 9.41 16.24 13.41c2.38 4 4.13 9.23 4.13 9.23s16.77-3.89 17.65-3.51c.88.39 9.98 8.92 12.17 8.74 2.19-.17 19.31-4.7 22-4.7 2.51 0 7.79 5.32 10.03 6.02h-.01z" fill="#fff"/><path d="M292.61 273.12s-2.74-51.59-2-56.4c.74-4.81 6.29-5.92 7.77-1.48 1.48 4.44 1.11 59.58 1.11 59.58l-6.88-1.69v-.01z" fill="#71BF9D"/><path d="M295.07 231.74c-4.09-.69-7.04-3.16-7.25-6.06-.72-9.87-2.2-31.47-1.63-34.02.74-3.32 6.29-4.08 7.77-1.02 1.48 3.06 1.11 41.1 1.11 41.1zm-2 26.6s-9.08 1.69-14.17-6.93c-3.75-6.37-6.31-19.4-2.16-20.63 4.16-1.23 4.44 11.53 8.78 17.86 4 5.85 7.39 4.47 7.39 4.47 3.41-.1 3.56 5.13.15 5.24l.01-.01zm7.09-16.83s9.24-.24 12.4-9.74c2.34-7.01 2.12-20.29-2.21-20.63-4.32-.34-1.94 12.2-4.85 19.3-2.69 6.56-6.29 5.91-6.29 5.91-3.35.61-2.41 5.77.94 5.15l.01.01z" fill="#71BF9D"/><path opacity=".5" d="M276.31 233.21c.17 2.62.51 5.24 1.03 7.8.55 2.55 1.22 5.1 2.37 7.42.53 1.18 1.22 2.27 1.98 3.31.8 1 1.69 1.93 2.7 2.71 2.03 1.53 4.59 2.46 7.16 2.38l.06.39c-2.73.36-5.49-.51-7.73-2.07-2.24-1.59-3.91-3.85-5.08-6.29-1.15-2.45-1.84-5.07-2.31-7.69-.44-2.64-.66-5.29-.58-7.96h.4zm11.81-40.67c.24 2.98.46 5.96.64 8.94l.5 8.94.42 8.94c.07 1.49.13 2.98.24 4.46 0 1.42.77 2.78 1.98 3.52l-.18.36c-1.41-.72-2.38-2.23-2.49-3.81-.18-1.5-.29-2.98-.41-4.48-.23-2.98-.38-5.96-.56-8.94-.13-2.98-.27-5.97-.36-8.95-.1-2.98-.15-5.97-.17-8.96l.4-.02h-.01zm12.24 47.47c1.25-.44 2.49-.99 3.64-1.65 1.16-.65 2.26-1.4 3.23-2.29.96-.89 1.83-1.88 2.46-3.01.62-1.12 1.02-2.41 1.35-3.68.69-2.56.88-5.25.85-7.91-.06-2.67-.36-5.35-1.03-7.95l.38-.12c.93 2.58 1.36 5.31 1.52 8.04.12 2.74-.07 5.5-.74 8.19-.37 1.34-.79 2.65-1.5 3.9-.72 1.22-1.65 2.3-2.72 3.19-2.15 1.78-4.67 2.99-7.34 3.67l-.1-.39v.01z" fill="#3C8460"/><path d="M292.62 208.89s9.24-.24 12.4-9.74c2.34-7.01 2.12-20.29-2.21-20.63-4.32-.34-1.94 12.2-4.85 19.3-2.69 6.56-6.29 5.91-6.29 5.91-3.35.61-2.41 5.77.94 5.15l.01.01z" fill="#71BF9D"/><path opacity=".5" d="M292.81 207.4c1.25-.44 2.49-.99 3.64-1.65 1.16-.65 2.26-1.4 3.23-2.29.96-.89 1.83-1.88 2.46-3.01.62-1.12 1.02-2.41 1.35-3.68.69-2.56.88-5.25.85-7.91-.06-2.67-.36-5.35-1.03-7.95l.38-.12c.93 2.58 1.36 5.31 1.52 8.04.12 2.74-.07 5.5-.74 8.19-.37 1.34-.79 2.65-1.5 3.9-.72 1.22-1.65 2.3-2.72 3.19-2.15 1.78-4.67 2.99-7.34 3.67l-.1-.39v.01zm3.94 8.1c.45 4.74.73 9.49.94 14.24.22 4.75.32 9.51.43 14.26.06 4.76.1 9.51.07 14.27l-.08 7.13-.18 7.13h-.4l-.42-28.51c-.06-4.75-.17-9.5-.29-14.25l-.21-7.12c-.06-2.37-.14-4.75-.27-7.12l.4-.03h.01z" fill="#3C8460"/><path d="M291.67 273.8s-3.97-3.4-3.12-4.34c.85-.94 5.67 3.02 5.67 3.02s-.76-3.97.76-3.97 2.55 4.34 2.55 4.34 1.98-3.02 2.83-2.74c.85.28-.66 3.21-.66 3.21s3.97-1.51 4.06 0c.09 1.51-4.34 1.98-4.34 1.98s3.02 1.13 2.46 1.89c-.57.76-5.76-2.08-5.76-2.08s-.28 2.08-1.32 1.98c-1.04-.09.19-2.08.19-2.08s-5.1 2.08-5.95.38c-.85-1.7 2.64-1.61 2.64-1.61l-.01.02z" fill="#3C8460"/><path d="M126.93 198.14h-4.88v93.58h4.88v-93.58zm109.26 0h-4.88v93.58h4.88v-93.58z" fill="#A1ABAD"/><path d="M122.05 198.14v24.89c.84-2.06 3.56-2.27 4.88-.74v-24.15h-4.88zm109.26 0v27.06c.64-2.1 4.05-2.1 4.88-.7v-26.36h-4.88z" fill="#8E8E8E" opacity=".5"/><path d="M107.86 129.13h142.47c3.29 0 5.97 2.67 5.97 5.97v67.36c0 3.29-2.67 5.97-5.97 5.97H107.86c-3.29 0-5.97-2.67-5.97-5.97V135.1c0-3.29 2.67-5.97 5.97-5.97z" fill="#3C8460"/><path d="M123.23 166.29c5.11 23.5 39.22 16.31 62.33 11.24 25.37-4.97 48.55-14.07 70.73-25.03v-17.27c0-3.37-2.73-6.1-6.1-6.1H146.18c-13.88 10.35-26.56 22.73-22.96 37.16h.01z" fill="#fff" opacity=".2"/><path d="M248.96 205.85H109.22c-2.74 0-4.96-2.23-4.96-4.96v-64.22c0-2.74 2.23-4.96 4.96-4.96h139.74c2.74 0 4.96 2.23 4.96 4.96v64.22c0 2.74-2.23 4.96-4.96 4.96zm-139.74-72.91c-2.06 0-3.73 1.68-3.73 3.73v64.22c0 2.06 1.68 3.73 3.73 3.73h139.74c2.06 0 3.73-1.68 3.73-3.73v-64.22c0-2.06-1.68-3.73-3.73-3.73H109.22z" fill="#fff"/><path d="M125.12 146.18h28.33v9.52h-19.19l-1.03 6.45c1.33-.62 2.64-1.09 3.94-1.41 1.3-.31 2.58-.47 3.85-.47 4.3 0 7.78 1.3 10.46 3.9 2.68 2.6 4.01 5.87 4.01 9.81 0 2.77-.69 5.44-2.07 8-1.38 2.56-3.33 4.51-5.86 5.86-2.53 1.35-5.77 2.02-9.71 2.02-2.83 0-5.26-.27-7.28-.81-2.02-.54-3.74-1.34-5.16-2.4-1.42-1.06-2.56-2.27-3.44-3.62-.88-1.35-1.61-3.03-2.2-5.04l12.07-1.32c.29 1.93.98 3.4 2.05 4.41 1.07 1.01 2.35 1.51 3.84 1.51 1.66 0 3.03-.63 4.12-1.89 1.08-1.26 1.63-3.14 1.63-5.64 0-2.5-.55-4.43-1.64-5.62-1.09-1.19-2.55-1.79-4.37-1.79-1.15 0-2.27.28-3.34.85-.8.41-1.68 1.15-2.64 2.23l-10.17-1.46 3.78-23.09h.02zm35.19 21.3c0-8.16 1.47-13.88 4.41-17.14 2.94-3.26 7.42-4.89 13.43-4.89 2.89 0 5.26.36 7.12 1.07 1.86.71 3.37 1.64 4.54 2.78s2.09 2.34 2.77 3.6c.68 1.26 1.22 2.73 1.63 4.41.8 3.2 1.2 6.54 1.2 10.02 0 7.79-1.32 13.5-3.96 17.11-2.64 3.61-7.18 5.42-13.62 5.42-3.61 0-6.53-.58-8.76-1.73-2.23-1.15-4.05-2.84-5.48-5.07-1.04-1.58-1.84-3.74-2.42-6.49-.58-2.74-.86-5.78-.86-9.1v.01zm11.84.03c0 5.47.48 9.2 1.45 11.21.97 2 2.37 3 4.2 3 1.21 0 2.26-.42 3.15-1.27.89-.85 1.54-2.19 1.96-4.03.42-1.84.63-4.7.63-8.58 0-5.7-.48-9.54-1.45-11.5-.97-1.96-2.42-2.94-4.35-2.94-1.93 0-3.4 1-4.28 3-.88 2-1.32 5.71-1.32 11.12l.01-.01zm28.18-.03c0-8.16 1.47-13.88 4.41-17.14 2.94-3.26 7.42-4.89 13.43-4.89 2.89 0 5.26.36 7.12 1.07 1.86.71 3.37 1.64 4.54 2.78s2.09 2.34 2.77 3.6c.68 1.26 1.22 2.73 1.63 4.41.8 3.2 1.2 6.54 1.2 10.02 0 7.79-1.32 13.5-3.96 17.11-2.64 3.61-7.18 5.42-13.62 5.42-3.61 0-6.53-.58-8.76-1.73-2.23-1.15-4.05-2.84-5.48-5.07-1.04-1.58-1.84-3.74-2.42-6.49-.58-2.74-.86-5.78-.86-9.1v.01zm11.84.03c0 5.47.48 9.2 1.45 11.21.97 2 2.37 3 4.2 3 1.21 0 2.26-.42 3.15-1.27.89-.85 1.54-2.19 1.96-4.03.42-1.84.63-4.7.63-8.58 0-5.7-.48-9.54-1.45-11.5-.97-1.96-2.42-2.94-4.35-2.94-1.93 0-3.4 1-4.28 3-.88 2-1.32 5.71-1.32 11.12l.01-.01zm74.06 179.44c1.39-.09 2.78-.1 4.16-.11 1.39.01 2.78.02 4.16.11 1.61.11 2.27.37 1.48.58-.33.09-.86.16-1.48.2-1.39.09-2.78.1-4.16.11-1.39-.01-2.78-.02-4.16-.11-1.61-.11-2.28-.37-1.48-.58.33-.09.86-.16 1.48-.2zm15.81 0c1.39-.09 2.78-.1 4.16-.11 1.39.01 2.78.02 4.16.11 1.61.11 2.27.37 1.48.58-.33.09-.86.16-1.48.2-1.39.09-2.78.1-4.16.11-1.39-.01-2.78-.02-4.16-.11-1.61-.11-2.28-.37-1.48-.58.33-.09.86-.16 1.48-.2zm15.81 0c1.39-.09 2.78-.1 4.16-.11 1.39.01 2.78.02 4.16.11 1.61.11 2.27.37 1.48.58-.33.09-.86.16-1.48.2-1.39.09-2.78.1-4.16.11-1.39-.01-2.78-.02-4.16-.11-1.61-.11-2.28-.37-1.48-.58.33-.09.86-.16 1.48-.2zm28.08 0c1.39-.09 2.78-.1 4.16-.11 1.39.01 2.78.02 4.16.11 1.61.11 2.27.37 1.48.58-.33.09-.86.16-1.48.2-1.39.09-2.78.1-4.16.11-1.39-.01-2.78-.02-4.16-.11-1.61-.11-2.28-.37-1.48-.58.33-.09.86-.16 1.48-.2zm19.98 0c.84-.09 1.68-.1 2.51-.11.84.01 1.68.02 2.51.11 1.61.18 1.85.49.53.71-.16.03-.34.05-.53.07-.84.09-1.68.1-2.51.11-.84-.01-1.68-.02-2.51-.11-1.61-.18-1.85-.49-.54-.71.16-.03.35-.05.54-.07zm16.9.02c.84-.09 1.68-.1 2.51-.11.84.01 1.68.02 2.51.11 1.61.18 1.85.49.53.71-.16.03-.34.05-.53.07-.84.09-1.68.1-2.51.11-.84-.01-1.68-.02-2.51-.11-1.61-.18-1.85-.49-.54-.71.16-.03.35-.05.54-.07zm-246.18.07c11.66-.04 23.33-.07 34.99-.08l34.99-.03 34.99.03c11.66.01 23.33.04 34.99.08 1.61 0 2.89.18 2.85.4-.04.21-1.3.37-2.85.38-11.66.04-23.33.07-34.99.08l-34.99.03-34.99-.03c-11.66-.01-23.33-.04-34.99-.08-1.61 0-2.89-.18-2.85-.4.04-.21 1.3-.37 2.85-.38zm-8.13.69c-1.17.09-2.34.1-3.52.11-1.17-.01-2.34-.02-3.52-.11-1.61-.13-2.15-.4-1.21-.62.3-.07.73-.12 1.21-.16 1.17-.09 2.34-.1 3.52-.11 1.17.01 2.34.02 3.52.11 1.61.13 2.16.4 1.22.62-.3.07-.73.12-1.22.16zm-13.35 0c-1.17.09-2.34.1-3.52.11-1.17-.01-2.34-.02-3.51-.11-1.61-.13-2.15-.4-1.21-.62.3-.07.73-.12 1.21-.16 1.17-.09 2.34-.1 3.51-.11 1.17.01 2.34.02 3.52.11 1.61.13 2.16.4 1.22.62-.3.07-.73.12-1.22.16zm-13.35 0c-4.75.09-9.5.1-14.25.11-4.75-.01-9.5-.02-14.25-.11-1.61-.03-2.73-.23-2.5-.45.19-.18 1.24-.31 2.5-.33 4.75-.09 9.5-.1 14.25-.11 4.75.01 9.5.02 14.25.11 1.61.03 2.73.23 2.5.45-.19.18-1.24.31-2.5.33zm-40.57 0c-.71.09-1.41.1-2.12.11-.71-.01-1.41-.02-2.12-.11-1.61-.21-1.65-.55-.08-.77.02 0 .06 0 .08-.01.71-.09 1.41-.1 2.12-.11.71.01 1.41.02 2.12.11 1.61.21 1.66.55.1.77-.03 0-.07 0-.1.01zm-14.27.02c-.71.09-1.41.1-2.12.11-.71-.01-1.41-.02-2.12-.11-1.61-.21-1.65-.55-.08-.77.02 0 .06 0 .08-.01.71-.09 1.41-.1 2.12-.11.71.01 1.41.02 2.12.11 1.61.21 1.66.55.1.77-.03 0-.07 0-.1.01z" fill="#fff"/><path d="M391.52 325.53l-314.33 1.22c-3.89 0 19.64-17.74 23.53-17.74h280.79c3.89 0 13.9 16.51 10.01 16.51v.01z" fill="#8E8E8E" opacity=".5"/><path opacity=".8" d="M119.01 279.87h-24.6c-1.17 0 .24-2.1 1.41-2.1h24.44c1.17 0-.08 2.1-1.25 2.1zm-6.02 9.66s33.86 1.52 34.48 1.23c.62-.28.95-1.28.71-1.52s-35.19-.28-35.19-.28c-.45 0-.45.57 0 .57zm270.06 1.16H368.2c-.81 0-.41-1.46.26-1.47h14.81c.49 0 .27 1.47-.22 1.47z" fill="#fff"/><path d="M196.4 253.16s18.44-23.12 21.33-25.08c2.89-1.96 42.67-2.14 45.14-1.78.75.11 32.73 27.43 33.22 28.29.71 1.24-99.69-1.44-99.69-1.44v.01z" fill="#5BB2E8" opacity=".5"/><path d="M262.87 226.3c-.99-.14-7.96-.2-16.14-.09-11.94 9.92-24.24 19.31-37.4 27.28 3.3.08 7.1.18 11.22.27 15.95-10.06 33.71-15.78 52.15-19.43-5.34-4.51-9.57-7.99-9.83-8.03z" fill="#5BB2E8" opacity=".5"/><path d="M134.82 296.2s20.73.87 118.1.87c97.37 0 122.22-3.7 122.22-3.7s-8.21-24.28-14.95-28.11c-6.74-3.83-206.34-1.29-213.38 3.06-7.04 4.35-11.98 27.87-11.98 27.87l-.01.01z" fill="#1C0F21"/><path d="M168.81 317.11c12.482 0 22.6-10.118 22.6-22.6 0-12.482-10.118-22.6-22.6-22.6-12.482 0-22.6 10.118-22.6 22.6 0 12.482 10.118 22.6 22.6 22.6z" fill="#2F1935"/><path d="M168.81 305.08c5.837 0 10.57-4.732 10.57-10.57s-4.733-10.57-10.57-10.57c-5.838 0-10.57 4.732-10.57 10.57s4.732 10.57 10.57 10.57z" fill="#A1ABAD"/><path d="M204.15 278.26h-62.31v16.37h62.31v-16.37z" fill="#9B9B9B"/><path d="M168.81 306.35c6.539 0 11.84-5.301 11.84-11.84s-5.301-11.84-11.84-11.84-11.84 5.301-11.84 11.84 5.301 11.84 11.84 11.84z" stroke="#A1ABAD" stroke-width=".71" stroke-miterlimit="10"/><path d="M339.62 317.11c12.481 0 22.6-10.118 22.6-22.6 0-12.482-10.119-22.6-22.6-22.6-12.482 0-22.6 10.118-22.6 22.6 0 12.482 10.118 22.6 22.6 22.6z" fill="#2F1935"/><path d="M339.62 305.08c5.837 0 10.57-4.732 10.57-10.57s-4.733-10.57-10.57-10.57c-5.838 0-10.57 4.732-10.57 10.57s4.732 10.57 10.57 10.57z" fill="#A1ABAD"/><path d="M368.15 277.72h-62.31v16.37h62.31v-16.37z" fill="#9B9B9B"/><path d="M339.62 306.35c6.539 0 11.84-5.301 11.84-11.84s-5.301-11.84-11.84-11.84-11.84 5.301-11.84 11.84 5.301 11.84 11.84 11.84z" stroke="#A1ABAD" stroke-width=".71" stroke-miterlimit="10"/><path opacity=".5" d="M441.83 184.1c-1.04 7.01-5.94 12.37-11.48 16.4-3.36 2.44-7.27 4.96-9.68 8.54-3.06 4.53-2.06 9.51-2.07 14.65-.04 20.17-18.22 37.14-37.84 38.64l-60.91-1.35c-.18-.12-.35-.24-.52-.38-1.73-1.31-3.58-3.46-4.54-6.1-.21-.57-.39-1.17-.49-1.79-.65-3.37.29-7.35 4.52-11.36 17.55-16.67 45.9-18.83 66.62-32.03 4.67-2.98 10.01-7.4 10.69-13.4.8-7.06-5.53-11.54-11.64-13.19-7.98-2.15-27.93.09-29.56-11.84-1.14-8.21 8.77-13.72 14.77-17.01 9.36-5.13 33.64-13.61 29.14-28.56-1.58-5.23-7.3-8.53-12.96-9.98-11.13-2.88-14.64-7.51-14.3-10.96h7.75c5.91 6.01 14.76 6.93 22.58 8.61 7.71 1.65 17.92 4.73 18.44 14.22.69 12.71-15.63 19.31-24.26 25.13-4.59 3.08-17.32 11.15-12.88 18.12 4.05 6.36 16.72 4.08 22.74 2.57.9-.22 1.83-.49 2.75-.79 8.39-2.65 17.69-7.46 26.11-3.19 5.65 2.86 7.92 9.02 7.03 15.06l-.01-.01z" fill="url(#paint0_linear_227_16120)"/><path opacity=".4" d="M392.33 223.04c-3.8-3.89 1.24-10.68 8.83-15.02 8.67-5.42 9.01-18.84 2.51-25.35-9.75-7.59-22.99.39-32.52-5.42-3.34-2.03-7.09-7.47-4.92-11.81 7.59-13.01 25.13-15.22 32.16-24.38 4.76-6.2 9.61-14.75 2.03-21.25-7.04-7.92-25.49-5.77-26.89-15.44h-1.97c-.33 3.45 3.17 8.08 14.3 10.96 5.65 1.46 11.38 4.75 12.96 9.98 4.5 14.95-19.78 23.43-29.14 28.56-6 3.28-15.91 8.79-14.77 17.01 1.64 11.93 21.58 9.69 29.56 11.84 6.11 1.65 12.44 6.13 11.64 13.19-.68 6-6.01 10.42-10.69 13.4-20.71 13.2-49.06 15.36-66.62 32.03-4.23 4.02-5.16 7.99-4.52 11.36.1.62.28 1.22.49 1.79.96 2.64 2.82 4.79 4.54 6.1.18.13.34.26.52.38l60.91 1.35c1.39-.11 2.78-.3 4.15-.56 5.14-5.67 29.62-16 7.43-38.73l.01.01z" fill="url(#paint1_linear_227_16120)"/><path opacity=".4" d="M382 246.62c1.08-2.17 1.08-4.34 0-6.5-3.25-5.42-10.84-5.42-15.17-2.17-6.5 7.59-18.43 11.92-23.84 4.34-3.25-3.25-2.17-8.67 1.08-10.84 14.09-9.75 30.35-8.67 44.44-19.51 4.34-4.34 9.75-8.67 8.67-15.17-.23-.93-.58-1.73-1.01-2.46.02.52.02 1.06-.05 1.61-.68 6-6.01 10.42-10.69 13.4-20.71 13.2-49.06 15.36-66.62 32.03-4.23 4.02-5.16 7.99-4.52 11.36.1.62.28 1.22.49 1.79.96 2.64 2.82 4.79 4.54 6.1.18.13.34.26.52.38l46.42 1.03c6.4-3.38 11.8-8.65 15.73-15.39h.01z" fill="url(#paint2_linear_227_16120)"/><path d="M317.37 258.7c5.06-9.25 14.74-13.02 27.36-14.34.82-.07.7.91-.12.99 0 0-19.86 2.11-24.6 13.88l-2.64-.53zm54.54 2.85c-2.14-10.33-9.99-16.76-21.68-21.71-.92-.38-1.39.6-.47.97 0 0 18.38 7.82 19.47 20.47l2.68.27z" fill="#3E2344"/><path d="M342.09 251.33c-21.87-.28-43.29 1.71-44.11 1.79h-.02l-.69-.63-28.84-26.39c-11.22-4.04-55.65-1.99-73.76 1.27-9.29 1.67-33.14 22.85-33.14 22.85s-54.78 3.87-58.79 8.23c-4.01 4.35-5.54 25.54-5.54 25.54 1.6 5.04 3.8 9.44 5.93 10.67 1.85 1.08 30.76 3.88 38.59 4.62 2.56-5.04 9.53-17.24 14.07-20.17 5.64-3.64 27.78-2.43 30.09 0 1.74 1.84 6.21 14.35 8.3 20.36H313.6c2.49-4.93 9.57-17.4 14.16-20.36 5.64-3.64 27.79-2.43 30.1 0 1.36 1.45 4.42 11.84 6.68 18.13 3.92-.42 6.95-.78 8.39-1.02 7.48-1.25 8.28-6.43 8.28-6.43l8.01-25.42c-.89-10-24.26-12.76-47.13-13.03v-.01zm-142.21-.16s15.53-19.96 17.2-21.17c1.54-1.11 36.63-1.4 47.11-.31l6.98 23-71.29-1.51v-.01zm73.51 1.56l-7.07-22.69c6.78 4.53 24.87 23.07 24.87 23.07l-17.8-.38z" fill="#552F5E"/><path d="M355.51 262.3c-.76 6.79-210.44 14.09-214.73 7.55-4.27-6.54 20.75-19.62 20.75-19.62s23.84-21.18 33.14-22.85c18.11-3.26 62.54-5.31 73.76-1.27l28.84 26.39.69.63s21.83-2.08 44.13-1.79c8.17 5.1 13.62 9.19 13.42 10.96z" fill="#fff" opacity=".2"/><path d="M263.28 255.32c.35-.08.69-.08 1.03-.09.34.02.69.03 1.03.13.4.12.55.38.35.59-.08.09-.22.15-.37.19-.35.08-.69.08-1.03.09-.34-.02-.69-.03-1.03-.13-.4-.12-.55-.38-.35-.59.08-.09.22-.15.37-.19zm3.91.09c.35-.08.69-.08 1.03-.09.34.02.69.03 1.03.13.4.12.55.38.35.59-.08.09-.22.15-.37.19-.35.08-.69.08-1.03.09-.34-.02-.69-.03-1.03-.13-.4-.12-.55-.38-.35-.59.08-.09.22-.15.37-.19zm3.91.09c.35-.08.69-.08 1.03-.09.34.02.69.03 1.03.13.4.12.55.38.35.59-.08.09-.22.15-.37.19-.35.08-.69.08-1.03.09-.34-.02-.69-.04-1.03-.13-.4-.12-.55-.38-.35-.59.08-.09.22-.15.37-.19zm6.94.17c.35-.08.69-.08 1.03-.09.34.02.69.03 1.03.13.4.12.55.38.35.59-.08.09-.22.15-.37.19-.35.08-.69.08-1.03.09-.34-.02-.69-.03-1.03-.13-.4-.12-.55-.38-.35-.59.08-.09.22-.15.37-.19zm4.93.11c.21-.09.42-.09.62-.1.21.02.41.03.62.12.39.19.45.5.11.71-.04.02-.09.05-.13.07-.21.09-.42.09-.62.1-.21-.02-.41-.03-.62-.12-.39-.18-.45-.5-.12-.71.04-.03.09-.05.13-.07h.01zm4.18.12c.21-.09.42-.09.62-.1.21.02.41.03.62.12.39.19.45.5.11.71-.04.02-.09.05-.13.07-.21.09-.42.09-.62.1-.21-.02-.41-.03-.62-.12-.39-.19-.45-.5-.12-.71.04-.03.09-.05.13-.07h.01zm-60.84-1.35c2.88.03 5.77.07 8.65.12l8.65.18 8.65.23c2.88.08 5.76.18 8.65.29.4.02.71.2.69.42-.01.21-.33.37-.71.36-2.88-.03-5.77-.07-8.65-.12l-8.65-.18-8.65-.23c-2.88-.08-5.76-.18-8.65-.29-.4-.01-.71-.2-.69-.42.01-.21.33-.37.71-.36zm-2.03.64c-.29.08-.58.08-.87.09-.29-.02-.58-.03-.87-.13-.4-.14-.52-.42-.28-.63.08-.07.18-.12.3-.15.29-.08.58-.08.87-.09.29.02.58.03.87.13.4.13.52.41.29.62-.08.07-.18.12-.3.16h-.01zm-3.3-.08c-.29.08-.58.08-.87.09-.29-.02-.58-.03-.87-.13-.4-.14-.52-.42-.28-.63.08-.07.18-.12.3-.15.29-.08.58-.08.87-.09.29.02.58.03.87.13.4.13.52.41.29.62-.08.07-.18.12-.3.16h-.01zm-3.3-.08c-1.18.06-2.35.04-3.52.03-1.17-.04-2.35-.07-3.52-.19-.4-.04-.67-.25-.61-.46.05-.18.31-.3.63-.32 1.18-.06 2.35-.04 3.52-.03 1.17.04 2.35.07 3.52.19.4.04.67.25.61.46-.05.18-.31.3-.63.32zm-10.03-.23c-.18.09-.35.09-.53.1-.17-.02-.35-.03-.52-.12-.39-.22-.4-.56 0-.77 0 0 .01 0 .02-.01.18-.09.35-.09.53-.1.17.02.35.03.52.12.39.22.4.56 0 .77 0 0-.02 0-.02.01zm-3.52-.06c-.18.09-.35.09-.53.1-.17-.02-.35-.03-.52-.12-.39-.22-.4-.56 0-.77 0 0 .01 0 .02-.01.18-.09.35-.09.53-.1.17.02.35.03.52.12.39.22.4.56 0 .77 0 0-.02 0-.02.01z" fill="#9D68AA"/><path opacity=".2" d="M297.82 253.16l-30.61-26.38c-14.35-2.95-61.87-.42-73.27 2.67-11.39 3.09-28.68 22.36-29.95 23.21-1.27.85-57.38 6.33-59.48 8.44-2.11 2.11-7.31 22.9-7.31 22.9s1.54-21.19 5.54-25.54c4.01-4.35 58.79-8.23 58.79-8.23s23.84-21.18 33.14-22.85c18.11-3.26 62.54-5.31 73.76-1.27l28.84 26.39.56.67-.01-.01z" fill="#fff"/><path d="M373.03 197.4c-3.36-.81-9.59-2.31-9.86-2.35l-9.97 3.45s-16.38 9.93-16.61 10.22c-.24.29-18.41 19.58-18.57 19.87-.14.27-16.46 21.33-18.82 24.52 4.68-.43 10.47-.88 15.38-1.14 3.33-4.84 17.56-24.95 34.91-40.67 6.79-6.15 13.19-8.83 17.7-9.99l6.51-.87 1.43-2.55s-.71-.32-2.1-.51v.02z" fill="#2F1935"/><path d="M297.82 253.16c1.38-.04 4.03-.33 4.03-.33s16.38-24.65 36.99-43.32c13.28-12.03 25.11-11.26 25.11-11.26l1.49-2.65s-23.95-11.01-67.62 57.57v-.01z" fill="#552F5E"/><path d="M94.14 281.21s2.49 12.23 7.73 13.73 6.73 1.5 6.73 1.5-5.36-7.04-6.73-14.65l-7.73-.58zm289.14 8.69c.18-.63 4.52-15.04 5.87-19.68.25-.87-.32-1.74-1.27-1.95-3.06-.66-9.77-.85-12.24 1.25-3.32 2.82-6.18 20.38-6.18 20.38h13.82zm-191.77 2.49h126.25c.73 0 1.4-.34 1.8-.9.93-1.32-.1-3.07-1.8-3.07H191.51c-1.43 0-2.46 1.27-2.06 2.54.27.85 1.11 1.43 2.06 1.43z" fill="#A1ABAD"/><path opacity=".8" d="M317.07 290.45H191.21c-1.17 0-.53-1.21.64-1.21h125.38c1.17 0 1.01 1.21-.16 1.21z" fill="#fff"/><path d="M368.81 288.42c-1.22 0-2.1 1.27-1.76 2.54.23.85.95 1.43 1.76 1.43h13.78c1.35.08 2.47-3.89 1.12-3.97h-14.9zM94.9 276.41c-2.2 0-3.79 2.28-3.17 4.56.41 1.52 1.7 2.57 3.17 2.57h24.79c2.43.15 4.44-6.99 2.01-7.14H94.9v.01zm18.34 12.01c-1.43 0-1.6 1.68 0 1.98l33.77 1.98c1.84 0 3.68-3.97 2.04-3.97h-35.81v.01z" fill="#A1ABAD"/><path d="M294.3 299.48c-.4-3.85-.77-7.71-1.09-11.57l-.91-11.58-.76-11.59c-.23-3.87-.42-7.73-.58-11.61 0-.12.09-.22.21-.23.12 0 .22.08.23.2.4 3.85.77 7.71 1.09 11.57l.91 11.58.76 11.59c.23 3.87.42 7.73.58 11.61 0 .12-.09.22-.21.23-.12 0-.22-.08-.23-.2zm-94.21-48.32c.4 4.02.77 8.03 1.09 12.06l.91 12.07.76 12.08c.23 4.03.42 8.06.58 12.09 0 .12-.09.22-.21.23-.12 0-.22-.08-.23-.2-.4-4.02-.77-8.03-1.09-12.06l-.91-12.07-.76-12.08c-.23-4.03-.42-8.06-.58-12.09 0-.12.09-.22.21-.23.12 0 .22.08.23.2zm24.74 10.08c-.68 1.45-2.04 3.01-4.77 3.01h-8.69c-2.75 0-4.11-1.56-4.79-3.01-.26-.58-.18-1.19.11-1.66.29-.45.8-.76 1.41-.76h15.2c.63 0 1.14.32 1.42.79.29.47.37 1.07.11 1.63z" fill="#2F1935"/><path d="M224.72 259.61c-.71 1.17-2.07 2.36-4.66 2.36h-8.69c-2.63 0-3.99-1.2-4.68-2.38.29-.45.8-.76 1.41-.76h15.2c.63 0 1.14.32 1.42.79v-.01z" fill="#492651"/><path d="M382.63 286.19c-1.01-.26-1.03-3.59-.04-7.44.99-3.85 2.61-6.76 3.63-6.5 1.02.26-2.57 14.21-3.58 13.95l-.01-.01z" fill="#EFE9DA"/><path opacity=".2" d="M389.21 264.37c-6.67-12.88-91.39-11.21-91.39-11.21l.13-.03h.02c.82-.08 22.24-2.07 44.11-1.79 22.86.28 46.24 3.04 47.13 13.03z" fill="#fff"/><path d="M200.09 251.16s13-20.85 16.89-22.32c2.8-1.06 46.12-1.85 49.57-.12 3.45 1.73 24.62 24.19 24.62 24.19s-23.53-21.95-25.26-22.93c-1.73-.98-47.61-.32-48.6.17-.99.49-17.23 21.01-17.23 21.01h.01z" fill="#492651"/><path d="M340.92 241.72s2.39 1.29 2.81 1.03c.49-.3.39-2.27.39-2.27s.15 1.92 1.38 1.72c1.23-.2 2.81-1.18 2.81-1.18s-2.02 1.87-1.58 3c.44 1.13 1.82 1.72 1.82 1.72s-2.46-.34-3 .39-1.48 2.71-1.48 2.71.12-2.56-.72-3.09c-.39-.25-3.81-.26-3.81-.26s2.43-.65 2.53-1.39c.1-.74-1.15-2.41-1.15-2.41v.03z" fill="#F7B614"/><path d="M346 237.07s2.39 1.29 2.81 1.03c.49-.3.11-2.76.11-2.76s.82 1.64 1.62 1.83c.78.18 2.85-.79 2.85-.79s-2.02 1.87-1.58 3c.44 1.13 1.82 1.72 1.82 1.72s-2.46-.34-3 .39c-.54.74-1.48 2.71-1.48 2.71s.26-2.85-.58-3.38c-.39-.25-3.66.41-3.66.41s2.21-1.05 2.31-1.78c.1-.73-1.22-2.39-1.22-2.39v.01z" fill="#F7B614"/><path d="M467.04 203.18c-3.99 7.74-8.91 31.07-8.91 31.07.04 2.48 5.39 2.19 6.32.18 0 0 8.87-17.59 11.6-27.24 1.78-6.29-6.02-9.82-9.01-4.01z" fill="#FFB072"/><path d="M474.63 172.11c-3.69 6.22-5.72 19.99-6.76 28.79-.49.48-5.03 7.1-3.56 8.73.63.7 3.41.23 5.2.79 1.91.6 3.79 2.09 4.67 2.81.88.71 3.01-8.08 2.86-9 2.7-6.75 5.56-18.68 7.59-27.09 1.39-5.75-5.83-12.05-10-5.02v-.01z" fill="#C13725"/><path d="M478.17 200.09c-1.91-1.21-7.56-2.32-7.64-1.43-.07.71 5.32 1.38 5.32 1.38s-6.77-.52-6.34 1.48c.24 1.1 3.6-1.11 8.48-.68 0 0 1.32-.04.19-.76l-.01.01z" fill="#AA251B"/><path d="M467.14 238.81c-.12-.76-.62-2.39-1.65-3.8-2.48-3.42-5.67-2.26-6.86-1.56-1.1.64-.9 5.16-.65 6.51 0 1.78.76 3.89 1.17 4.54.13.21.3.3.47.3.16.59.32 1.04.44 1.24.26.42.73.38.9.07.16.36.31.64.4.78.33.53.96.41.92-.16-.09-1.23-.28-2.02-.28-2.9 0-.6.14-1.9.19-1.91 0 .53.01 1.1.05 1.66.09 1.4.71 2.76.96 3.13.36.51 1.04.3.98-.26-.14-1.26-.31-2.04-.3-2.94 0-.82-.03-3.6.53-4.51.17.17.33.37.49.62.29.45.27.96.69 2.16.3.85 1.54 1.55 1.59.23.02-.57.08-2.5-.03-3.2h-.01z" fill="#FFB072"/><path d="M471.07 321.5l-.02 3.34s.8 2.03.52 2.65c-.47.93-1.16 2.76-1.38 5-.12.6-1.21.64-1.56.14l-.98-2.95s-1.79 2.51-3.28 3.19c-1.8.81-7.78 1.17-8.66.54 0 0-.85-1.83 1.42-2.7 6.59-2.52 8.46-10.04 8.46-10.04.51-3.32 5.98-2.48 5.47.84l.01-.01z" fill="#1C3742"/><mask id="a" style="mask-type:luminance" maskUnits="userSpaceOnUse" x="455" y="318" width="17" height="16"><path d="M471.07 321.5l-.02 3.34s.8 2.03.52 2.65c-.47.93-1.16 2.76-1.38 5-.12.6-1.21.64-1.56.14l-.98-2.95s-1.79 2.51-3.28 3.19c-1.8.81-7.78 1.17-8.66.54 0 0-.85-1.83 1.42-2.7 6.59-2.52 8.46-10.04 8.46-10.04.51-3.32 5.98-2.48 5.47.84l.01-.01z" fill="#fff"/></mask><g mask="url(#a)"><path d="M455.1 333.03c.13 0 6.81.49 8.6-.5s3.68-3.77 4.25-3.87c.57-.1 3.61-1.17 3.61-1.17l-.06 6.62-15.99 2.73-.41-3.81z" fill="#19323A"/></g><path d="M460.22 328.62l.85.78s1.24-.54 1.68-1.43l-.75-.89a.392.392 0 00-.54-.05l-1.22 1.01c-.18.15-.19.42-.02.58z" fill="#E57930"/><path d="M490.19 222.89c.43-9.59-16.24-10.73-17.42-1.22-2.8 22.74-9.16 101.24-9.16 101.24 3.33 2.31 3.61 2.41 8.02 1.41 0 0 16.71-60.39 18.56-101.43z" fill="#19323A"/><path d="M490.04 321.5l.02 3.34s-.8 2.03-.52 2.65c.47.93 1.16 2.76 1.38 5 .12.6 1.21.64 1.56.14l.98-2.95s1.79 2.51 3.28 3.19c1.8.81 7.78 1.17 8.66.54 0 0 .85-1.83-1.42-2.7-6.59-2.52-8.46-10.04-8.46-10.04-.51-3.32-5.98-2.48-5.47.84l-.01-.01z" fill="#1C3742"/><mask id="b" style="mask-type:luminance" maskUnits="userSpaceOnUse" x="489" y="318" width="17" height="16"><path d="M490.04 321.5l.02 3.34s-.8 2.03-.52 2.65c.47.93 1.16 2.76 1.38 5 .12.6 1.21.64 1.56.14l.98-2.95s1.79 2.51 3.28 3.19c1.8.81 7.78 1.17 8.66.54 0 0 .85-1.83-1.42-2.7-6.59-2.52-8.46-10.04-8.46-10.04-.51-3.32-5.98-2.48-5.47.84l-.01-.01z" fill="#fff"/></mask><g mask="url(#b)"><path d="M506.01 333.03c-.13 0-6.81.49-8.6-.5s-3.68-3.77-4.25-3.87c-.57-.1-3.61-1.17-3.61-1.17l.06 6.62 15.99 2.73.41-3.81z" fill="#19323A"/></g><path d="M500.9 328.62l-.85.78s-1.24-.54-1.68-1.43l.75-.89c.14-.16.38-.18.54-.05l1.22 1.01c.18.15.19.42.02.58z" fill="#E57930"/><path d="M507.36 223.56c-1.3-9.51-17.72-10.17-18.48-.6-1.16 14.55.64 101.45.64 101.45 3.52 1.97 3.64 1.67 7.95.24 0 0 13.66-73.5 9.89-101.09z" fill="#1C3742"/><path d="M472.33 224.19c0 5.01 7.95 9.07 17.77 9.07s17.34-4.06 17.34-9.07c0-11.03-7.53-26.48-17.34-26.48-9.81 0-17.77 15.83-17.77 26.48z" fill="#1C3742"/><path d="M508.78 168.81c-6.59-3.69-16.79-4.49-17.56-4.9 0 0-14.86 2.35-16.19 7.94-.25 1.03 1.48 2.94 2.07 7.33.22 1.62-1.2 4.79-.91 6.61.77 4.77 1.74 9.96 2.58 14.28-2.93 6.12-5.92 17.31-5.92 17.31 9.76 5.36 23.23 4.28 34.21.89 0 0-2.68-10.66-5.45-16.99 3.72-12.01 9.29-31.28 7.15-32.47h.02z" fill="#D8462A"/><path d="M506.6 182.34c-.37.25-10.18 7.33-11.05 8.2-.87.87 4.22-2.36 5.09-2.11.87.25-2.86 4.84-2.11 5.22.74.37 8.07-11.3 8.07-11.3v-.01z" fill="#C13725"/><path d="M534.21 182.09c8.71-.3 30.88-8.24 30.88-8.24.89-.37-.37-6.76-1.26-6.39 0 0-18.91 2.31-28.67 4.64-6.36 1.52-7.48 10.21-.95 9.98v.01z" fill="#FFB072"/><path d="M570.95 166.17c-.8-.42-2.75-.41-4.51-.15-.01-.3 0-.63.06-1.01.1-.52.47-.89.99-2.04.37-.82-.05-2.18-1-1.26-.41.4-1.78 1.76-2.18 2.35-.39.57-1.13 1.89-1.36 3.43-.91 1.76-.44 6.21 1.47 6.73 1.23.33 5.28-.5 6.41-1.25.18-.12.8-6.44.13-6.8h-.01z" fill="#FFB072"/><path d="M570.69 166.4s-3.02-.1-3.47.13c-.45.23.19 3.14-1.5 3.85 0 0 .51 3.19 3.01 2.74 2.5-.45 2.62-5.78 1.97-6.72h-.01z" fill="#E5A383" opacity=".3"/><path d="M571.01 166.25c-1.18.02-3.01.38-3.46.8a.71.71 0 00.37 1.23c.59.1 2.9 0 3.76-.37.24-.11.5-.4.46-.95-.03-.56-.8-.71-1.13-.71z" fill="#FFB888"/><path d="M571.01 168.07c-1.18.02-3.03.2-3.48.62-.45.42-.22 1.19.37 1.3.59.1 2.91.12 3.78-.26.24-.11.5-.4.46-.95-.03-.56-.8-.71-1.13-.71z" fill="#FFB888"/><path d="M571 169.86c-1.1-.04-2.84.03-3.29.4-.45.37-.3.96.25 1.09.55.13 2.75.41 3.58.1.23-.09.48-.35.48-.87s-.71-.71-1.02-.72z" fill="#FFB888"/><path d="M570.81 171.5c-1.17-.1-2.44-.14-3.24-.16-.51-.01-.69.93-.06 1.23.45.21 2.3.58 3.08.44.22-.04.54-.1.62-.56.08-.46-.13-.93-.4-.95z" fill="#FFB888"/><path d="M541.8 180.89c-.09-1.2-1.29-3.04-1.73-4.94-.42-1.81.33-4.12.1-5.03-.32-1.28-3.62.29-5.02.62-.77.18-21.51-3.49-29.9-3.75-5.91-.18-10.23 10.94-2.5 13.58 6.67 2.28 30.37 1.24 31.35 1.21 1.96-.07 7.84.15 7.7-1.7v.01z" fill="#D8462A"/><path d="M534.68 172.54c-1.27 1.87-2.58 7.48-1.68 7.59.71.09 1.56-5.26 1.56-5.26s-.75 6.75 1.27 6.39c1.11-.2-.98-3.64-.4-8.49 0 0 0-1.32-.75-.22v-.01z" fill="#C13725"/><path d="M495.69 152.48s-.99 11.04.86 12.58c2.67 2.21 3.65 2.03 3.59 3.57-.15 3.89-7 7.72-10.26 7.52-3.73-.23-7.62-4.03-7.59-6.87.02-1.75 1.54-1.87 5.52-4.36 1.1-.69.21-11.65.21-11.65l7.66-.78.01-.01z" fill="#FFB072"/><path d="M504.05 134.53c0-3.45-2.79-6.24-6.24-6.24s-6.24 2.79-6.24 6.24c0 .29.03.58.07.86-.18 0-9.23-2.1-12.51 3.12-4.96 7.9-.5 19.29-.5 19.29s5.02-1.51 7.22-2.98c1.45.87 3.23 1.34 5.25 1.34 7.27 0 10.3-4.94 10.3-11.04 0-1.85-.43-3.47-1.18-4.84a6.242 6.242 0 003.84-5.76l-.01.01z" fill="#3E2344"/><path d="M498.63 146.11c-1.32-.92-2.59.74-2.96 1.42-.07.13-.12.24-.18.36-.18-.86-.24-1.82.07-3.02 1.63-6.31-4.6-7.13-7.35-7.13-3.76 0-6.03 2.98-6.03 6.85 0 0-.08 5.61 0 7.48.25 5.41 2.43 6.73 6.01 6.73 3.58 0 7.47-3.15 7.97-6.99 0-.06 0-.11.01-.17.69.11 1.47-.12 1.94-.55 1.25-1.17 1.83-4.08.51-5l.01.02z" fill="#FFB072"/><path d="M497.22 149.56l-1.03-.41s.19-.91.41-1.27c.26-.42 1.14-1.62 1.9-.96.76.66.35 2.73-.5 3.41-.5.4-.89.15-.89.15l.11-.93v.01z" fill="#E57E55"/><path d="M485.24 156.07c.08.3 4.26.25 4.4 0 .14-.25-.43-1.43-2.01-1.43-1.58 0-2.46 1.13-2.39 1.43z" fill="#fff" stroke="#E57E55" stroke-width=".38" stroke-linecap="round" stroke-linejoin="round"/><path d="M481.71 145.92s1.67-.13 2.14-.33c.47-.2 2.14-1.21 2.36-1.09.22.11.58.67.58.67s-2.34 1.22-2.89 1.3c-.55.08-1.89-.19-2.19-.54v-.01zm1.45 2.11c-.03.38.46.48 1.07.53.61.04 1.11.01 1.13-.37.03-.38-.44-.72-1.05-.77-.61-.04-1.12.23-1.15.61z" fill="#3E2344"/><path opacity=".5" d="M485.86 151.74s1.39.17 1.42-.21c.03-.38-2.81-1.26-3.01-1.01-.2.25.99.95 1.59 1.22z" fill="#E57E55"/><path d="M486.53 145.93s.13 1.8-.17 2.39c-.31.59-1.8 1.8-1.88 2.1-.07.29 1.28 1.25 1.38 1.31.1.06-2.05-.62-1.88-1.3.17-.67 2.08-2.13 2.19-2.46.11-.33.35-2.05.35-2.05l.01.01z" fill="#E57E55"/><path d="M489.24 148.51c-.03.38.46.48 1.07.53.61.04 1.11.01 1.13-.37.03-.38-.44-.72-1.05-.77-.61-.04-1.12.23-1.15.61zm3.49-2.36s-1.67-.09-2.06-.27c-.39-.18-1.97-1.48-2.19-1.34-.22.14-.65.76-.65.76s2.34 1.39 2.83 1.44c.49.04 1.73-.18 2.07-.58v-.01z" fill="#3E2344"/><path d="M490.85 146.71s.02-.02 0-.02-.02.02 0 .02z" fill="#1E1C1C"/><path d="M483.71 139.74c-1.01.95-2.07 5.01-2.07 5.01s-5.65-10.68 5.13-11.87c8.52-.94 11.31 3.69 11.03 7.78-.26 3.77-2.92 8.38-2.92 8.38s-.39-.68-.67-3.26c-.3-2.79-8.37-8.01-10.49-6.03l-.01-.01z" fill="#3E2344"/><path d="M499.41 139.92s-3.03 2.14-3.44 2.09c-.42-.06-1.14-.61-1.09-1.11.05-.5 3.32-2.43 3.67-2.38.35.06 1.01.7.87 1.4h-.01z" fill="#FFD25A"/><path d="M501.04 131.1s.6 10.44 1.03 12.81c.21 1.14 2.47-10.4-1.03-12.81z" fill="#3E2344"/><path d="M502.46 130.76s.91 13.08 1.34 15.45c.21 1.14 2.16-13.04-1.34-15.45z" fill="#3E2344"/><path d="M423.4 185.15l-19.82-10.1 18.75-4.03c1.17-.18.48-5.37-.69-5.18 0 0-27.4 2.46-29.48 8.17-2.08 5.71 21.63 22.32 21.63 22.32 6.17 5.3 15.78-5.88 9.61-11.18z" fill="#552F5E"/><path d="M428.28 165.78c.26.03.47.08.57.11.4.12.44.54.07.62-.8.17-1.34.19-1.9.36-.38.11-1.18.44-1.18.47.34-.1.7-.19 1.06-.28.91-.2 1.89-.06 2.17.03.39.13.38.61.01.67-.83.14-1.36.18-1.93.35-.51.15-2.4.97-2.7 1.2.12.06.25.12.41.16.34.1.66 0 1.51.04.59.03 1.27.7.44.97-.36.12-1.58.51-2.05.57-.44.06-1.39.09-2.34-.21-3.37-1.05-2.87-3.34-2.64-4.23.21-.82 3.12-1.52 4.03-1.61 1.14-.33 2.62-.23 3.11-.09.15.04.25.14.28.24.4 0 .72.01.87.05.32.09.38.39.21.56v.02z" fill="#FFB072"/><path d="M403.52 175.71c-1.17 1.09-5.45 2.96-5.82 2.5-.29-.37 3.91-1.95 3.91-1.95s-5.4 1.81-5.72.63c-.17-.65 3.34-.22 7.21-1.54 0 0 1.1-.27.41.37l.01-.01z" fill="#3E2344"/><path d="M427.59 302.39l.58 7.21s.29 1.45.3 1.95c.01.49-.21 1.96-.21 1.96-.61.5-2.56.81-3.56.61l-.19-.14s-.19.13-1.57.57c-1.41.45-5.62.89-6.26.43 0 0-.46-1.62 1.27-2.2 4.34-1.44 4.85-3.08 5.13-4.44.35-1.71-.35-5.79-.35-5.79l4.86-.16z" fill="#207089"/><mask id="c" style="mask-type:luminance" maskUnits="userSpaceOnUse" x="416" y="302" width="13" height="14"><path d="M427.59 302.39l.58 7.21s.29 1.45.3 1.95c.01.49-.21 1.96-.21 1.96-.61.5-2.56.81-3.56.61l-.19-.14s-.19.13-1.57.57c-1.41.45-5.62.89-6.26.43 0 0-.46-1.62 1.27-2.2 4.34-1.44 4.85-3.08 5.13-4.44.35-1.71-.35-5.79-.35-5.79l4.86-.16z" fill="#fff"/></mask><g mask="url(#c)"><path d="M422 310.07s1.16-.23 1.83.36c.63.56 1.12 1.03 2.05.77 2.38-.67 2.22-2.51 3.26-1.76l.12 4.83-13.23 1.72-.13-3.66 6.1-2.27v.01z" fill="#1C3742"/><path d="M416.36 314.48s.19.61 4.35.06c4.16-.55 4.5-1.53 7.76-1.73l-.14 1.15-12.16 2.13.19-1.6v-.01z" fill="#207089"/></g><path d="M412.02 229.63c-1.83 40.7 7.17 52.75 9.72 78.8 2.76 1.31 4.39 1.21 6.5 0l-2.6-76.81-13.62-1.99z" fill="#19323A"/><path d="M442.59 304.34l1.05 6.93s-.1 1.47-.05 1.97c.05.49.45 1.92.45 1.92.67.42 2.65.48 3.61.16l.17-.17s.2.1 1.63.37c1.46.27 5.69.18 6.26-.35 0 0 .58-1.61-1.21-1.96-4.49-.89-5.52-2.51-5.97-3.83-.57-1.66-1.45-5.82-1.45-5.82l-4.49.78z" fill="#207089"/><mask id="d" style="mask-type:luminance" maskUnits="userSpaceOnUse" x="442" y="303" width="14" height="13"><path d="M442.59 304.34l1.05 6.93s-.1 1.47-.05 1.97c.05.49.45 1.92.45 1.92.67.42 2.65.48 3.61.16l.17-.17s.2.1 1.63.37c1.46.27 5.69.18 6.26-.35 0 0 .58-1.61-1.21-1.96-4.49-.89-5.52-2.51-5.97-3.83-.57-1.66-1.45-5.82-1.45-5.82l-4.49.78z" fill="#fff"/></mask><g mask="url(#d)"><path d="M449.82 310.97s-1.18-.08-1.77.59c-.55.63-.99 1.17-1.94 1.02-2.45-.37-2.51-2.21-3.45-1.34l.49 4.81 13.34.05-.33-3.64-6.34-1.49z" fill="#1C3742"/><path d="M455.97 314.64s-.11.63-4.31.6c-4.2-.03-4.66-.96-7.91-.75l.28 1.12 12.33.6-.39-1.56v-.01z" fill="#207089"/></g><path d="M423.66 232.7c1.93 18.69 10.19 53.15 18.8 76.83 1.7 2.08 6.9 1.12 7.2-.95-6.56-30.29-4.24-51.11-13.41-75.71l-12.59-.17z" fill="#1C3742"/><path d="M413.03 235.71c.09 3.81 5.61 8.2 11.82 8.05 6.22-.15 10.91-3.36 10.82-7.17-.3-12.31-5.4-18.89-11.62-18.74-6.22.15-11.33 5.32-11.02 17.86z" fill="#1C3742"/><path d="M411.64 232.2c-.14 2.23 5.64 3.69 12.86 4.16 7.22.47 13.32-.25 13.46-2.48.47-7.2-6.03-11.76-13.25-12.23-7.22-.47-12.6 3.22-13.07 10.55z" fill="#3E2344"/><path d="M445.87 192.9c-2.32-4.82-16.67-7.33-17.33-7.41-4.54-.54-14.37-1.53-15.62.72-1.09 1.96-3.93 26.57-1.61 44.78.48 3.78 26.62 5.37 26.86 1.57.2-3.16-.55-4.76-.39-8.06.57-12.08 9.09-29.53 8.09-31.6z" fill="#552F5E"/><path d="M421.15 185.45s-2.48 7.77 3.62 12.13c0 0-4.96-4.56-3.62-12.13zm-8.81 9.77s9.39 12.4 13.84 25.15c0 0-11.67-21.06-13.84-25.15zm26.04-23.9c0 4.17-4.67 11.5-7.04 11.5s-2.57-3.76-2.57-7.93 1.92-7.55 4.3-7.55 5.32-.19 5.32 3.98h-.01z" fill="#3E2344"/><path d="M433.8 176.04s-.84 4.17-.62 6.91c.22 2.74 1.71 5.04 1.51 6.45-.19 1.41-5 4.08-8.43 3.74-3.43-.34-3.79-6.18-3.39-7.12.4-.94 3.62-1.59 3.99-5.23.33-3.17.48-4.93.48-4.93l6.46.17v.01z" fill="#FFB072"/><path fill-rule="evenodd" clip-rule="evenodd" d="M423.69 175.51c1-.74 1.27-3.16.52-4.38 0 0-.57-1.06-1.83-.55-.95.38-1.24 1.58-1.14 2.76.13 1.42 1.35 2.98 2.44 2.17h.01z" fill="#FFB072"/><path d="M423.36 174.94l-.23-1.3.79-.22s-.1-2.39-1.43-1.71c-1.1.55-.43 3.52.87 3.23z" fill="#E57E55"/><path fill-rule="evenodd" clip-rule="evenodd" d="M433.06 176.6s-.34 3.34-1.24 4.46c-1.08 1.35-2.57 2.97-6.5 2.12-3.93-.85-2.54-10.35-2.54-10.35s-.04-3.32.93-5.89c.97-2.57 6.43-3.13 10.5-1.16 0 0 1.04 1.36-.25 6.5 0 0 .94-.82 2.07.05.86.66.77 1.89.27 2.98-.6 1.31-2.21 2.27-3.23 1.3l-.01-.01z" fill="#FFB072"/><path d="M433.58 176.16l.66-1.17-.74-.45s.88-2.24 2.04-1.18c.95.87-.7 3.48-1.96 2.8z" fill="#E57E55"/><path d="M428.62 173.28c-.02.3.36.38.84.41.48.03.87 0 .89-.29.02-.3-.35-.57-.82-.6-.48-.03-.88.18-.9.48h-.01zm3.35-2.46s-1.42-.02-1.83-.16c-.41-.14-2.13-1.17-2.32-1.06-.18.11-.21.86-.21.86s2.05.91 2.52.95c.47.03 1.59-.26 1.83-.58l.01-.01zm-8.12 2.09c-.02.3.36.38.84.41.48.03.87 0 .89-.29.02-.3-.35-.57-.82-.6-.48-.03-.88.18-.9.48h-.01zm-1.12-2.26s1.17.16 1.46.09c.29-.07 1.95-1 2.09-.87.14.13-.05.84-.05.84s-1.78.68-2.12.64c-.34-.04-1.18-.37-1.38-.71v.01z" fill="#3E2344"/><path opacity=".5" d="M425.97 175.82s1.09.14 1.12-.17c.02-.3-2.2-.99-2.36-.79-.16.2.78.75 1.25.96h-.01z" fill="#E57E55"/><path d="M426.49 171.26s.1 1.41-.14 1.88c-.24.47-1.41 1.41-1.47 1.64-.06.23 1 .98 1.08 1.03.08.05-1.61-.49-1.47-1.02.14-.53 1.63-1.67 1.72-1.93.09-.26.28-1.61.28-1.61v.01z" fill="#E57E55"/><path d="M428.3 180.08c.4.04.1-1.34-1.77-1.56-2.06-.23-2.39 1.85-2.03 1.69.61-.27 1.86-.35 3.79-.13h.01z" fill="#fff"/><path d="M428.33 179.82s-.11.04-.12.06c-.01.03 0 0 0-.01a.63.63 0 00-.06-.2c-.07-.15-.18-.28-.32-.4-.27-.24-.62-.41-.99-.5-.75-.21-1.61-.06-2.05.58-.1.16-.19.33-.23.51a.65.65 0 00-.02.23c0 .01 0 .02 0 0s-.07-.04-.09-.03l.12-.05c.42-.15.84-.21 1.26-.24.84-.07 1.67-.02 2.5.06v-.01zm-.06.51c-.81-.09-1.62-.17-2.42-.17-.4 0-.81.03-1.17.15-.06.02-.05.02-.16.06-.06.02-.19-.02-.23-.08-.05-.06-.05-.1-.06-.14-.03-.15 0-.26.02-.38.06-.22.16-.42.29-.61.25-.37.64-.64 1.07-.76.43-.12.88-.1 1.3-.03.43.07.85.24 1.22.52.18.15.34.33.45.55.05.11.1.23.11.39 0 .08 0 .16-.05.28-.05.12-.24.22-.37.2v.02z" fill="#E57E55"/><path d="M422.67 173.91s-1.19-4.26-1.32-5.79c-.15-1.81.2-2.92.49-2.92s.75 1.27.75 1.27-1.03-3.94-.26-4.29c.77-.35 1.95.72 1.95.72s-1.2-1.32-1.32-1.66c-.13-.36 1.4-.95 2.59.64 0 0-.95-1.84-.54-2.6.41-.77 2.2 1.85 2.2 1.85s2.23-1.85 4.83-1.79c2.6.06-.83.35-1.95 1.95 0 0 2.96-1.83 5.78-.53 1.87.86 3.07 3.01 3.3 4.19.24 1.18-2.12-1.36-2.12-1.36s2.31 1.72 2.49 4.62c.18 2.89-3.21 4.35-3.21 4.35s-1.71-1.66-2.97.7c0 0 1.22-4.56.46-6.27s-4.56-.39-5.86-.33c-1.3.06-2.89-1.14-2.89-1.14s-1.26.33-1.95 3.73c-.22 1.08-.25 3.12-.44 4.68l-.01-.02z" fill="#3E2344"/><path d="M435.85 243.41c-.23.18-.42.31-.53.38-.4.23-.76-.06-.55-.41.47-.78.86-1.23 1.15-1.8.2-.39.54-1.29.52-1.31-.17.35-.38.71-.58 1.07-.53.89-1.39 1.57-1.67 1.72-.41.22-.78-.15-.55-.5.52-.78.88-1.23 1.18-1.82.27-.53 1.04-2.67 1.08-3.09-.14.05-.28.12-.44.2-.34.19-.5.54-1.18 1.18-.48.45-1.52.49-1.12-.38.17-.38.79-1.66 1.09-2.08.29-.4.98-1.19 1.94-1.73 3.41-1.92 4.87.22 5.41 1.08.5.79-1.14 3.67-1.75 4.47-.6 1.17-1.8 2.29-2.28 2.57a.44.44 0 01-.41.04c-.3.33-.56.58-.71.66-.31.19-.6 0-.61-.26l.01.01z" fill="#FFB072"/><path d="M439.91 205.15c2 4.47 12.2 14.27 12.2 14.27l-14.49 13.94c-.74.4 2.64 5.98 3.38 5.58 0 0 18.64-10.43 20.2-16.66 1.56-6.23-10.46-27.49-17.56-31.77-2.92-1.76-9.17 2.44-3.72 14.64h-.01z" fill="#552F5E"/><path d="M453.12 219.18c1.78-.28 6.26.68 6.04 1.37-.18.54-4.33-.66-4.33-.66s5.12 1.75 4.17 3.08c-.52.73-2.29-1.94-5.99-3.17 0 0-.95-.45.1-.61l.01-.01z" fill="#3E2344"/><path d="M562.05 340.86c-3.31-2.55-40.97-.69-47.69-.34-4.2-5.42-9.8-10.05-9.8-10.05h-14.43s2.34 4.8-4.08 4.8-15.42-6.7-15.42-6.7l-3.66.43c-1.94-6.25-11.27-13.97-11.27-13.97h-11.68s1.9 3.89-3.3 3.89c-5.2 0-12.48-5.42-12.48-5.42l-11.58 1.35s5.94 7.76 15.46 14.06c-5.25 1.94-11.83 4.83-11.09 6.88.89 2.47 17.75 1.01 26.66.06 3.23.75 6.62 1.11 10.14.9 1.49-.09 2.77-.26 3.86-.5 8.22 8.33 25.13 22.25 45.49 21.05 11-.65 12.9-4.97 11.17-9.97 10.65-.89 46.79-4.1 43.69-6.49l.01.02z" fill="#8E8E8E" opacity=".5"/></g><defs><linearGradient id="paint0_linear_227_16120" x1="378.06" y1="262.33" x2="378.06" y2="104.37" gradientUnits="userSpaceOnUse"><stop stop-color="#545151" stop-opacity=".6"/><stop offset=".65" stop-color="#6D6A6A"/><stop offset="1" stop-color="#fff"/></linearGradient><linearGradient id="paint1_linear_227_16120" x1="361.13" y1="0" x2="361.13" y2="0" gradientUnits="userSpaceOnUse"><stop stop-color="#545151" stop-opacity=".6"/><stop offset=".65" stop-color="#6D6A6A"/><stop offset="1" stop-color="#fff"/></linearGradient><linearGradient id="paint2_linear_227_16120" x1="355.71" y1="262.01" x2="355.71" y2="194.3" gradientUnits="userSpaceOnUse"><stop stop-color="#545151" stop-opacity=".6"/><stop offset=".65" stop-color="#6D6A6A"/><stop offset="1" stop-color="#fff"/></linearGradient><clipPath id="clip0_227_16120"><path fill="#fff" d="M0 0h658.45v357.39H0z"/></clipPath></defs></svg>