<svg width="42" height="34" fill="none" xmlns="http://www.w3.org/2000/svg"><path d="M0 32.96h5.463c15.163.04 31.949 1.547 33.691-12.533-5.424 10.788-18.963 10.67-31.038 10.55C18.766 20.665 14.727 9.281 31.632 8.29c-17.617-1.904-15.321 14.715-25.1 22.25-2.217 1.706-4.157 2.103-5.186 2.222L0 32.96z" fill="#009FE3"/><path d="M23.556 26.733c5.028-.317 16.627-3.927 16.231-13.446-.673 1.468-1.623 2.896-3.127 3.65.277 3.886-9.106 9.003-13.104 9.796z" fill="#F8D200"/><path d="M26.01 19.753c5.028-.635 13.975-3.094 14.173-12.455-.712 1.27-1.9 2.38-3.127 3.094.316 4.006-7.641 8.091-11.046 9.36z" fill="#E20613"/><path d="M26.802 13.287l1.623-.753c5.582-2.578 8.868-5.514 9.502-8.568v-.079l.079-.08c.752-.713 2.059-1.705 2.93-3.45L41.172 0c-.673 10.194-8.314 12.494-12.629 13.05l-1.742.237z" fill="#fff"/><path d="M38.204 3.966c-.673 3.332-3.761 6.109-9.66 8.806 4.83-.595 11.56-3.292 12.431-12.455a14.186 14.186 0 01-2.771 3.65z" fill="#0D0802"/><path d="M37.373 4.64C29.455 10.472 17.22-2.696 8.987 24.67 11.243-9.042 31.87 8.846 41.213 0c0 0-1.267 2.737-3.84 4.64z" fill="#009FE3"/></svg>