<svg width="73" height="28" fill="none" xmlns="http://www.w3.org/2000/svg"><path fill-rule="evenodd" clip-rule="evenodd" d="M72.09 21.455c.319-1.59.447-3.212.381-4.832a.912.912 0 00-.709-1.106.972.972 0 01-.725-.3c-.106-1.827-.237-3.177-.437-5.054C70.484 9 68.447 7.975 67.223 6.87 65.777 5.565 60.721 1.02 56.756.9c-5.9-.184-13.893-.255-19.654.167-1.915.1-3.813.41-5.66.926C27.1 3.368 23.385 6.77 19.27 8.713A109.433 109.433 0 004.224 10.95a3.143 3.143 0 00-2.489 2.013c-.547 1.058-.33 2.05-.58 2.651-.4.033-.416-.069-.542.165a2.7 2.7 0 00-.088.974c-.133 1.84-.545 4.581.99 5.725.076.047.157.09.24.127h2.312c1.157 0 1.08-.22 1.206-1.436A7.063 7.063 0 0112.3 14.84a7.178 7.178 0 016.981 6.018c.236 1.507-.128 1.778 1.414 1.778h30.24c1.08 0 1.01-.106 1.078-1.188A7.063 7.063 0 0166.1 21.34c.121 1.289-.02 1.3 1.191 1.3h2.934a1.625 1.625 0 001.864-1.181v-.004zm-13.03-4.974a5.431 5.431 0 11-.005 10.863 5.431 5.431 0 01.004-10.863zm-46.762 0a5.431 5.431 0 11-.006 10.862A5.431 5.431 0 0112.3 16.48h-.002zm14.587-6.595c.13-.398.216-.81.255-1.227.057-.942-1.666-1.012-2.735-.943a30.77 30.77 0 017.661-4.37A29.12 29.12 0 0137.72 2.8l2.34-.05c.423-.005.48.191.355.524-.4 1.697-.678 3.42-.835 5.156a.899.899 0 01-1.106.975c-3.159.026-11.628.633-11.59.481h.001zm25.281-.958A39.239 39.239 0 0051 3s-4.912-.208-8.027-.246a.69.69 0 00-.58.273c-.335.866-.413 2.045-.848 5.606-.119.974-.056.71 1.026.7 2.664-.032 6.574-.236 9.594-.4l.001-.005zm2.48-.043C55.71 8.828 65.046 9.032 66 9c1.385-.046-5.013-4.888-7-6-.443-.248-1.866-.042-6 0a19.046 19.046 0 011.646 5.885z" fill="#BDBDBD"/></svg>