<svg width="22" height="22" fill="none" xmlns="http://www.w3.org/2000/svg"><path fill-rule="evenodd" clip-rule="evenodd" d="M21.042 1.875h-7.96V0L0 2.02v17.7l13.083 2.253v-2.78h7.96A.912.912 0 0022 18.33V2.736a.913.913 0 00-.958-.86zm.126 16.6h-8.112l-.013-1.485h1.954v-1.728h-1.97l-.008-1.022h1.978v-1.728h-1.993l-.01-1.022h2.003V9.762h-2.01V8.74h2.01V7.012h-2.01V5.99h2.01V4.262h-2.01V2.69h8.18v15.784z" fill="#20744A"/><path d="M16.097 4.26h3.396v1.728h-3.396V4.259zm0 2.75h3.396v1.73h-3.396V7.01zm0 2.75h3.396v1.73h-3.396V9.76zm0 2.752h3.396v1.728h-3.396v-1.728zm0 2.75h3.396v1.73h-3.396v-1.73z" fill="#20744A"/><path fill-rule="evenodd" clip-rule="evenodd" d="M3.415 6.8l1.686-.096 1.06 2.914 1.253-3.034L9.1 6.487l-2.048 4.137L9.1 14.772l-1.783-.12-1.204-3.162-1.204 3.042-1.638-.145 1.903-3.664L3.415 6.8z" fill="#fff"/></svg>