<svg width="163" height="202" fill="none" xmlns="http://www.w3.org/2000/svg"><g clip-path="url(#clip0_212_12581)"><path d="M130.742 138.605l-14.505-3.032 18.415-88.404c.826-4.005-.477-9.977-2.864-13.303-23.115-32.028-60.717-19.019-66.482 8.654l-16.45 78.996-14.504-3.032 18.525-88.973c1.946-9.316 7.931-17.31 16.377-21.665 46.726-24.09 85.925 13.36 77.92 51.745l-16.451 78.996.019.018z" fill="#E0E0E0"/><path d="M130.742 138.605s.091-.551.312-1.58c.22-1.048.514-2.591.936-4.594.826-4.043 2.038-9.959 3.599-17.585 1.56-7.626 3.488-16.942 5.71-27.765 1.119-5.403 2.313-11.19 3.58-17.31 1.138-6.137 3.047-12.55 3.103-19.514.146-6.928-1.341-14.205-4.517-21.059-.404-.845-.789-1.727-1.23-2.572-.477-.827-.973-1.654-1.469-2.48-.9-1.71-2.185-3.198-3.286-4.815-.57-.79-1.286-1.489-1.91-2.242-.679-.717-1.267-1.543-2.019-2.187-1.469-1.341-2.883-2.811-4.554-3.969-3.139-2.59-6.83-4.538-10.612-6.34-.991-.367-1.964-.734-2.956-1.102l-1.487-.551c-.514-.147-1.028-.276-1.542-.423-1.028-.275-2.075-.532-3.103-.808-1.046-.22-2.13-.35-3.195-.533-8.555-1.378-17.717-.165-26.126 3.344-4.223 1.783-8.152 4.263-11.842 7.148-3.617 2.977-6.812 6.524-9.547 10.42-2.68 3.968-4.737 8.378-6.243 13.027-1.34 4.686-2.184 9.592-3.25 14.48-4.075 19.606-8.298 39.893-12.631 60.694-.57 2.774-1.157 5.549-1.726 8.287l-.275-.404a7329.93 7329.93 0 0114.504 3.032l-.404.275c3.268-15.711 6.481-31.072 9.584-46.011 1.56-7.46 3.085-14.83 4.608-22.07.753-3.62 1.506-7.202 2.24-10.767a37.648 37.648 0 013.82-10.162c3.598-6.247 9.014-11.264 15.275-14.186.79-.349 1.542-.771 2.368-1.047l2.424-.864c1.652-.422 3.286-.918 4.975-1.102 1.671-.313 3.342-.35 5.013-.423.826 0 1.67.074 2.497.11l1.248.074 1.23.184c3.287.367 6.408 1.433 9.364 2.664 2.937 1.323 5.618 3.069 8.06 5.035 4.755 4.08 8.39 9.224 10.336 14.829 1.084 2.756 1.579 5.66 1.965 8.49.184 2.848.22 5.696-.257 8.415l-.331 2.04c-.146.661-.275 1.323-.422 1.984-.275 1.324-.551 2.628-.826 3.933-.551 2.59-1.083 5.127-1.597 7.626-2.093 9.959-4.021 19.128-5.747 27.397-3.47 16.501-6.206 29.419-8.005 38l-.073-.128c4.92 1.047 8.537 1.819 10.924 2.333 1.193.258 2.074.46 2.662.588.587.129.881.202.881.202s-.275-.036-.863-.165c-.606-.11-1.468-.294-2.662-.533-2.405-.496-6.04-1.231-10.998-2.242h-.091l.018-.128c1.763-8.6 4.425-21.518 7.821-38.056 1.708-8.268 3.599-17.438 5.674-27.397.514-2.5 1.046-5.035 1.579-7.626.275-1.304.532-2.61.807-3.932.129-.662.276-1.323.404-1.985.111-.661.202-1.341.312-2.003.459-2.682.423-5.475.239-8.287-.385-2.793-.863-5.641-1.946-8.342-1.928-5.495-5.526-10.566-10.19-14.572-2.387-1.948-5.03-3.638-7.931-4.943-2.92-1.213-5.986-2.26-9.217-2.61l-1.212-.183-1.212-.055c-.807-.037-1.634-.11-2.46-.11-1.634.073-3.286.11-4.92.422-1.653.184-3.25.68-4.884 1.084l-2.387.846c-.808.257-1.542.698-2.313 1.029-6.15 2.885-11.457 7.828-14.982 13.947-1.707 3.087-2.956 6.468-3.745 9.977-.735 3.565-1.487 7.148-2.24 10.768-1.506 7.24-3.03 14.609-4.59 22.07-3.103 14.938-6.298 30.3-9.584 46.011l-.074.331-.33-.074c-4.719-.974-9.566-2.003-14.505-3.032l-.33-.073.073-.349c.57-2.738 1.139-5.513 1.726-8.288 4.333-20.782 8.556-41.087 12.65-60.693 1.065-4.888 1.91-9.776 3.268-14.554 1.543-4.704 3.617-9.169 6.353-13.193 2.79-3.97 6.022-7.552 9.694-10.566 3.727-2.922 7.73-5.42 11.99-7.221C88.237.386 97.51-.827 106.175.57c1.083.183 2.166.312 3.231.533l3.599.955c.661.202 1.303.423 1.964.625l2.956 1.102c.441.184.9.386 1.341.57 3.598 1.727 7.086 3.638 10.079 6.119 1.689 1.194 3.103 2.664 4.59 4.024.771.662 1.359 1.489 2.038 2.223.643.772 1.359 1.47 1.928 2.28 1.12 1.634 2.405 3.141 3.323 4.869.496.845.992 1.672 1.469 2.499.441.863.826 1.745 1.23 2.609 3.195 6.927 4.682 14.296 4.517 21.297-.074 7.038-2.002 13.487-3.177 19.625-1.285 6.137-2.515 11.944-3.653 17.364a21938.94 21938.94 0 01-5.857 27.766 6706.164 6706.164 0 00-3.709 17.511c-.422 1.985-.753 3.51-.973 4.539-.22 1.011-.349 1.525-.349 1.525h.019z" fill="#263238"/><path d="M27.964 63.528L157.54 90.549c3.72.776 6.093 4.424 5.321 8.13l-20.471 98.328a6.237 6.237 0 01-7.384 4.842L4.819 174.7 27.964 63.528z" fill="#455A64"/><path d="M28.05 63.651L156.942 90.53c4.098.854 6.712 4.872 5.862 8.956l-20.186 96.96a6.935 6.935 0 01-8.21 5.383L4.906 174.823 28.05 63.651z" fill="#000" opacity=".3"/><path d="M29.054 63.74l111.852 23.326c4.026.84 6.616 4.796 5.777 8.825L126.92 190.82c-1.026 4.929-5.869 8.105-10.794 7.078L6.161 174.965a7.717 7.717 0 01-5.976-9.13l20.051-96.313c.84-4.03 4.792-6.621 8.818-5.782z" fill="#455A64"/><path d="M93.012 124.879c1.817-8.729-3.911-17.273-12.76-18.853-8.244-1.47-16.47 4.061-18.232 12.238-1.542 7.148 2.001 14.13 8.152 17.346l-14.578 19.312 26.64 6.064-3.598-23.612c6.885-.496 12.889-5.421 14.376-12.514v.019z" fill="#000" opacity=".3"/><path d="M127.29 189.358c-.184-.037 3.782-19.423 8.849-43.274 5.068-23.87 9.346-43.164 9.529-43.127.184.037-3.782 19.404-8.849 43.274-5.068 23.851-9.346 43.164-9.529 43.127z" fill="#263238"/><path d="M118.257 85.886c-.037.184-17.13-2.977-38.19-7.074-21.058-4.098-38.096-7.57-38.06-7.773.037-.202 17.13 2.977 38.19 7.075 21.04 4.097 38.078 7.57 38.041 7.772h.019zm-58.514 40.775s-.22-.367-.44-1.102c-.22-.735-.46-1.82-.588-3.179-.257-2.701.184-6.671 2.295-10.346 2.112-3.675 5.306-6.045 7.785-7.203 1.23-.588 2.295-.937 3.048-1.102.734-.166 1.156-.221 1.175-.166.036.129-1.634.46-3.984 1.709-2.35 1.231-5.362 3.565-7.4 7.112-2.02 3.528-2.533 7.331-2.405 9.977.11 2.683.661 4.282.533 4.319l-.019-.019zm4.59 8.637c-.128.147-.973-.423-1.872-1.268-.9-.846-1.524-1.636-1.396-1.783.129-.147.973.423 1.873 1.268s1.524 1.636 1.395 1.783zM103.532 4.3s-.955-.055-2.681-.166c-1.725-.128-4.222-.165-7.288.13-6.096.532-14.615 2.884-22.124 8.617-7.491 5.752-11.971 13.396-14.064 19.147-1.083 2.885-1.69 5.329-2.02 7.02-.33 1.69-.477 2.646-.532 2.646-.018 0 0-.24.018-.699.055-.459.074-1.139.239-1.984.257-1.728.79-4.19 1.818-7.148 2-5.862 6.48-13.671 14.1-19.515 7.62-5.843 16.322-8.14 22.491-8.563 3.103-.239 5.637-.11 7.362.092.863.074 1.524.22 1.983.294.459.074.68.129.68.166l.018-.037zM51.775 53.546c-.183-.037.055-1.875.533-4.098.477-2.223 1.028-3.987 1.211-3.95.184.036-.055 1.874-.532 4.097-.477 2.223-1.028 3.988-1.212 3.95z" fill="#fff"/></g><defs><clipPath id="clip0_212_12581"><path fill="#fff" d="M0 0h163v202H0z"/></clipPath></defs></svg>