<svg width="216" height="58" fill="none" xmlns="http://www.w3.org/2000/svg"><path fill-rule="evenodd" clip-rule="evenodd" d="M59.998 43.766h-1.624v-.685h1.577c.29.01.58-.025.86-.104a.68.68 0 00.396-.38c.088-.264.126-.542.113-.82a1.273 1.273 0 00-.17-.703.944.944 0 00-.566-.362 3.87 3.87 0 00-1.096-.085 3.565 3.565 0 00-1.095.123.84.84 0 00-.548.419c-.13.274-.2.572-.207.875h-.756a3.62 3.62 0 01.189-1.094c.098-.251.265-.469.482-.628.227-.162.489-.27.765-.314.388-.04.78-.056 1.17-.047a5.387 5.387 0 011.502.161c.331.088.622.29.821.571a1.8 1.8 0 01.265 1.037c.029.425-.066.848-.274 1.218a1.22 1.22 0 01-.888.485 1.36 1.36 0 011.01.514c.21.38.304.813.274 1.247.02.402-.076.801-.273 1.15a1.535 1.535 0 01-.87.61 5.325 5.325 0 01-1.567.19 6.244 6.244 0 01-1.671-.171 1.28 1.28 0 01-.812-.59 2.376 2.376 0 01-.246-1.19v-.228h.756v.219c-.02.283.029.567.142.828a.833.833 0 00.566.361 6.7 6.7 0 001.265.086c.317.005.634-.024.945-.086a1.25 1.25 0 00.576-.256.893.893 0 00.368-.448c.061-.203.09-.415.085-.628a1.246 1.246 0 00-.34-.951 1.596 1.596 0 00-1.124-.324zm3.268 2.684c.113-.19.208-.391.283-.6.07-.21.117-.427.142-.647a7.368 7.368 0 000-.856V42.12h3.465v4.33h.51v1.997h-.623V47.05h-3.57v1.398h-.68V46.45h.473zm3.182 0v-3.73h-1.983v1.77a3.916 3.916 0 01-.416 1.96h2.399zm6.185-1.865c.009.424-.03.849-.114 1.265a1.815 1.815 0 01-.358.78 1.49 1.49 0 01-.661.4 4.74 4.74 0 01-2.068 0 1.433 1.433 0 01-.652-.4 1.613 1.613 0 01-.35-.78 5.755 5.755 0 01-.113-1.256 5.224 5.224 0 01.19-1.58 1.259 1.259 0 01.67-.76c.407-.165.845-.24 1.284-.22.353-.008.705.03 1.048.115.25.066.475.2.652.39.18.227.303.495.358.78.085.416.123.84.114 1.266zm-.765 0a5.826 5.826 0 00-.104-1.009 1.205 1.205 0 00-.208-.57.85.85 0 00-.425-.286 2.81 2.81 0 00-.708-.076 1.923 1.923 0 00-.869.152.797.797 0 00-.396.561 4.47 4.47 0 00-.123 1.237c-.016.42.025.839.123 1.246a.86.86 0 00.396.552c.277.11.573.158.87.143.237.005.475-.02.707-.076a.85.85 0 00.416-.276 1.31 1.31 0 00.217-.58c.064-.336.099-.677.104-1.018zm2.606-.029c.009.396.05.79.123 1.18.042.235.17.446.359.59.26.16.564.234.868.21.329.025.657-.048.945-.21a.952.952 0 00.358-.59c.058-.39.083-.785.076-1.18a6.7 6.7 0 00-.066-1.132.952.952 0 00-.35-.58 1.604 1.604 0 00-.944-.21 1.793 1.793 0 00-.944.19.805.805 0 00-.368.562 6.87 6.87 0 00-.076 1.17h.019zm0 1.903v2.693h-.746V42.12h.727v.628c.158-.25.389-.447.661-.56.3-.12.622-.176.944-.163.445-.03.888.072 1.275.295.286.192.486.49.557.828.099.466.143.942.132 1.418a7.13 7.13 0 01-.141 1.103 2.431 2.431 0 01-.236.78 1.25 1.25 0 01-.586.514 2.26 2.26 0 01-1 .19c-.32.005-.639-.04-.945-.133a1.324 1.324 0 01-.642-.532v-.029zm8.763-1.874c0 .425-.048.85-.142 1.265a1.815 1.815 0 01-.359.78c-.18.191-.408.33-.66.4-.34.085-.69.123-1.04.114a3.745 3.745 0 01-1.02-.114 1.415 1.415 0 01-.66-.4 1.805 1.805 0 01-.35-.78 5.756 5.756 0 01-.113-1.256 4.9 4.9 0 01.198-1.58 1.249 1.249 0 01.662-.76 3.067 3.067 0 011.284-.22c.375-.015.75.024 1.114.115.25.063.477.199.651.39.18.227.304.495.36.78.084.416.122.84.113 1.266h-.038zm-.756 0a5.829 5.829 0 00-.066-1.009 1.31 1.31 0 00-.217-.57.87.87 0 00-.415-.286 2.81 2.81 0 00-.718-.076 1.922 1.922 0 00-.869.152.825.825 0 00-.396.561c-.099.405-.14.821-.123 1.237-.016.42.025.839.123 1.246.055.23.197.428.396.552.277.11.573.158.869.143.242.006.483-.02.718-.076.159-.05.3-.147.406-.276.117-.174.194-.372.226-.58a5.87 5.87 0 00.066-1.018zm2.597.181v1.693h1.728a.75.75 0 00.644-.205.762.762 0 00.224-.642.805.805 0 00-.226-.666.995.995 0 00-.642-.18h-1.728zm0-2.075v1.504h1.709a.94.94 0 00.623-.172.782.782 0 00.18-.59.747.747 0 00-.19-.58.939.939 0 00-.613-.162h-1.71zm1.888 4.348h-2.644v-4.928h2.484a2 2 0 011.133.276 1.122 1.122 0 01.396.999.958.958 0 01-.567.94.939.939 0 01-.377.078c.278.049.528.199.702.422.174.223.26.503.242.786a1.37 1.37 0 01-.387 1.113c-.298.21-.655.32-1.02.314h.038zm2.578.019h2.54a1.54 1.54 0 001.04-.352 1.458 1.458 0 00.358-1.122 1.303 1.303 0 00-.353-1.098 1.284 1.284 0 00-1.082-.377H90.28V42.12h-.737v4.938zm.737-.609v-1.731h1.53c.191-.005.382.02.566.076a.52.52 0 01.293.257c.069.172.098.357.085.542a.862.862 0 01-.198.676c-.214.145-.47.212-.728.19l-1.548-.01zm4.155.61h.755V42.12h-.765l.01 4.938zm1.879-.01V42.12h.737v4.025l2.502-4.025h.944v4.929h-.737v-4.015l-2.492 4.015h-.955zm2.72-6.251h.453c.005.191-.027.382-.095.561a.624.624 0 01-.35.286 2.399 2.399 0 01-.65.066 2.313 2.313 0 01-.652-.066.624.624 0 01-.35-.286 1.293 1.293 0 01-.104-.561h.463a.632.632 0 00.057.295.322.322 0 00.208.133c.125.018.252.018.377 0 .126.017.253.017.378 0a.32.32 0 00.198-.133.526.526 0 00.029-.295h.037zm4.853 1.322h4.06v4.929h-.746v-4.33h-2.568v4.33h-.746V42.12zm8.167 0h.756l-1.502 5.585a3.942 3.942 0 01-.358.952 1.295 1.295 0 01-.472.485 1.627 1.627 0 01-.652.124 1.733 1.733 0 01-.416 0v-.647a.863.863 0 00.274 0c.16.01.318-.03.454-.114a.95.95 0 00.292-.438c.129-.346.239-.699.331-1.056h-.283l-1.785-4.929h.755l1.53 4.387 1.076-4.349zm5.288 0h-3.588v3.492c.026.23-.02.463-.132.666-.085.105-.264.152-.548.162h-.113v.609h.349c.784 0 1.171-.466 1.171-1.418v-2.92h2.096v4.338h.746l.019-4.929zm1.228 4.929h2.54c.374.015.741-.11 1.029-.352a1.424 1.424 0 00.397-1.113 1.296 1.296 0 00-.346-1.098 1.276 1.276 0 00-1.08-.377h-1.794V42.12h-.746v4.929zm.746-.6v-1.731h1.548c.262-.028.525.036.746.18a.897.897 0 01.208.695.853.853 0 01-.208.676 1.068 1.068 0 01-.717.19l-1.577-.01zm7.658-1.189h.727a3.38 3.38 0 01-.161.952 1.146 1.146 0 01-.368.57 1.367 1.367 0 01-.614.286c-.311.06-.627.09-.944.086a3.124 3.124 0 01-1.02-.134 1.293 1.293 0 01-.632-.409 1.814 1.814 0 01-.34-.76 6.43 6.43 0 01-.104-1.247 5.312 5.312 0 01.179-1.532 1.285 1.285 0 01.642-.79c.394-.18.825-.261 1.256-.238.373-.007.745.038 1.105.134.27.079.508.242.68.466.177.285.269.615.264.951v.172h-.708a1.64 1.64 0 00-.104-.648.599.599 0 00-.387-.333 2.69 2.69 0 00-.85-.104 1.743 1.743 0 00-.84.152.798.798 0 00-.378.552 5.435 5.435 0 00-.104 1.227c-.013.416.025.831.114 1.237.057.23.199.43.396.561.26.121.545.177.831.162.234.005.468-.014.699-.057a.818.818 0 00.406-.2.858.858 0 00.208-.361c.035-.23.05-.462.047-.695zm4.825-1.494v2.579h2.153c.264.013.529.013.793 0 .174-.018.339-.08.482-.18a.687.687 0 00.274-.372 3.034 3.034 0 000-1.532.644.644 0 00-.378-.37 2.878 2.878 0 00-.812-.087l-2.512-.038zm0-3.063v2.378h2.219c.279.012.557-.027.822-.114a.696.696 0 00.425-.38c.096-.248.138-.515.122-.78a.896.896 0 00-.624-1.104.881.881 0 00-.462 0H131.8zm2.786 6.346h-3.56v-7.04h3.371a1.88 1.88 0 011.341.399 1.747 1.747 0 01.434 1.332c.004.252-.015.503-.057.752-.04.187-.128.36-.254.504a1.4 1.4 0 01-.567.361c.25.054.483.168.68.333a.954.954 0 01.311.514c.063.271.092.55.085.828a2.394 2.394 0 01-.406 1.513 1.683 1.683 0 01-1.378.504zm6.194-1.437a1.229 1.229 0 00-.132-.647.729.729 0 00-.463-.266 6.733 6.733 0 00-1.039-.057 1.678 1.678 0 00-.868.171.731.731 0 00-.265.675c-.014.223.029.446.123.648a.653.653 0 00.359.332c.212.073.436.105.661.096.314.02.63.02.944 0a.94.94 0 00.519-.257.954.954 0 00.199-.647l-.038-.048zm0-.951v-.704a2.843 2.843 0 00-.104-.895.596.596 0 00-.397-.37 3.099 3.099 0 00-.944-.096 3.042 3.042 0 00-.689.057.55.55 0 00-.35.229.9.9 0 00-.122.475v.133h-.756a1.51 1.51 0 01.246-.951c.154-.21.379-.355.632-.41a5.46 5.46 0 011.068-.085c.403-.013.806.029 1.199.124a1.101 1.101 0 01.689.495c.183.344.268.733.246 1.122v3.273h-.699v-.618a1.336 1.336 0 01-.368.457 1.03 1.03 0 01-.473.209 5.74 5.74 0 01-.802 0 3.755 3.755 0 01-1.077-.124 1.151 1.151 0 01-.632-.456 1.856 1.856 0 01-.227-.952 1.669 1.669 0 01.227-.951c.146-.219.369-.375.623-.438a3.869 3.869 0 011.02-.114 5.26 5.26 0 01.887.057c.168.02.33.079.472.171a.94.94 0 01.321.343l.01.019zm8.848 2.388h-6.856V42.12h.746v4.33h2.304v-4.33h.746v4.33h2.304v-4.33h.756v4.929zm5.382-2.331h-3.522c.001.318.023.636.066.951.03.193.105.375.217.533a.7.7 0 00.406.285c.234.065.476.094.718.086a3.96 3.96 0 00.888-.076.558.558 0 00.387-.247 1.1 1.1 0 00.104-.524v-.161h.736c.024.358-.058.716-.236 1.027a1.105 1.105 0 01-.67.457 5.09 5.09 0 01-1.209.114 2.991 2.991 0 01-1.303-.228 1.244 1.244 0 01-.642-.771 4.791 4.791 0 01-.199-1.57c-.009-.41.032-.819.123-1.218a1.91 1.91 0 01.378-.78c.174-.198.4-.343.651-.419a3.25 3.25 0 01.945-.123 2.194 2.194 0 011.633.514c.376.519.551 1.158.491 1.798v.352h.038zm-.736-.571a2.5 2.5 0 00-.133-.904.89.89 0 00-.425-.485 1.977 1.977 0 00-.831-.143 1.775 1.775 0 00-.859.2.835.835 0 00-.425.485 2.49 2.49 0 00-.132.895l2.805-.048zm1.822 2.902V42.12h.737v4.025l2.502-4.025h.944v4.929h-.736v-4.015l-2.493 4.015h-.954zm2.72-6.251h.453c.008.192-.028.384-.104.561a.625.625 0 01-.349.286 2.318 2.318 0 01-.652.066 2.394 2.394 0 01-.651-.066.624.624 0 01-.35-.286c-.068-.179-.1-.37-.094-.561h.453a.531.531 0 00.066.295.316.316 0 00.208.133c.122.018.246.018.368 0 .129.017.259.017.387 0a.322.322 0 00.199-.133.531.531 0 00.066-.295zm7.657 5.395l1.624-4.073h1.19v4.929h-.736v-4.282l-1.747 4.282h-.652l-1.737-4.282v4.282h-.737V42.12h1.171l1.624 4.073zm7.356-.581a1.226 1.226 0 00-.123-.647.723.723 0 00-.472-.266 6.55 6.55 0 00-1.038-.057 1.625 1.625 0 00-.86.171.743.743 0 00-.264.675c-.014.223.028.446.123.648a.634.634 0 00.349.332c.213.071.437.104.661.096.314.02.63.02.944 0a.942.942 0 00.529-.257.955.955 0 00.189-.647l-.038-.048zm0-.951v-.704a2.87 2.87 0 00-.094-.895.59.59 0 00-.406-.371 3.062 3.062 0 00-.945-.095 3.149 3.149 0 00-.689.057.546.546 0 00-.349.229.962.962 0 00-.114.475v.133h-.764a1.51 1.51 0 01.245-.951c.157-.207.381-.352.633-.41a5.427 5.427 0 011.067-.085 4.52 4.52 0 011.208.124c.284.07.531.248.69.495.183.344.268.733.245 1.122v3.273h-.708v-.618a1.21 1.21 0 01-.359.457 1.11 1.11 0 01-.481.209 5.38 5.38 0 01-.803 0c-.36.012-.719-.03-1.067-.124a1.144 1.144 0 01-.642-.456 1.917 1.917 0 01-.217-.952 1.753 1.753 0 01.217-.951c.148-.221.374-.378.633-.438a3.745 3.745 0 011.019-.114c.294-.006.588.013.879.057.171.02.335.08.481.171.134.082.242.2.312.343l.009.019zm8.848 2.388h-6.856V42.12h.746v4.33h2.304v-4.33h.746v4.33h2.314v-4.33h.746v4.929zm1.246 0V42.12h.746v4.035l2.503-4.035h.906v4.929h-.736v-4.006l-2.493 4.006h-.926zm5.411-4.929h.746v2.017h2.568V42.12h.746v4.929h-.746v-2.312h-2.568v2.312h-.746V42.12zm5.307 4.938h2.54c.374.014.74-.111 1.029-.352a1.46 1.46 0 00.397-1.123 1.289 1.289 0 00-.346-1.098 1.267 1.267 0 00-1.08-.377h-1.804V42.12h-.736v4.938zm.736-.609v-1.731h1.52c.192-.006.383.02.567.076a.521.521 0 01.293.257c.072.17.104.356.094.542a.862.862 0 01-.208.676c-.212.147-.47.214-.727.19l-1.539-.01zm4.155.61h.746V42.12h-.746v4.938zM50.112 32.606a2.72 2.72 0 012.087 1.037c.67.866 1.331 1.741 2.011 2.607a2.636 2.636 0 002.05.951h5.665v.857h-5.666a3.421 3.421 0 01-2.616-1.284c-.68-.876-1.34-1.76-2.02-2.627a2.002 2.002 0 00-1.506-.688 1.989 1.989 0 00-1.506.688l-2.342 2.702a3.397 3.397 0 01-2.465 1.208l-2.568.048c-.463 0-.718.514-.944.952a20.771 20.771 0 00-1.889 5.651c-.17.695-.293 1.36-.463 2.075-.17.713-1.614.95-1.7-.162l-1.746-25.356a106.347 106.347 0 01-1.889 12.16 11.149 11.149 0 01-1.369 3.948l-.075.114a1.137 1.137 0 01-.87.523h-5.58c-.412-.03-.802-.2-1.104-.485a4.501 4.501 0 00-1.332-1.094 2.12 2.12 0 00-2.19.38c-.633.562-1.2 1.247-2.002 1.247h-6.837v-.761h6.846c.652 0 1.124-.79 1.728-1.218a2.901 2.901 0 013.607.276c.425.418.793.951 1.34.951 1.89 0 3.712.124 5.563 0 .359 0 .604-.742.85-1.398a29.424 29.424 0 001.227-5.034c.708-3.948 1.162-7.878 1.586-11.845l.048-.362c0-.057-.123 0 .141-.238a.566.566 0 01.85.105c.05.07.08.152.085.238.652 9.267 1.237 18.534 1.889 27.81 0 .105.17.191.226-.075a31.692 31.692 0 012.144-7.27c.444-.95 1.02-1.902 2.02-1.902h2.55a2.685 2.685 0 001.794-.952c.784-.951 1.549-1.903 2.323-2.854l.056-.057a2.835 2.835 0 012.002-.952l-.01.086zm105.04.514a1.084 1.084 0 00-.236-.695 1.352 1.352 0 00-.944-.238h-5.6v1.818h5.6c.336.034.674-.061.944-.267a.961.961 0 00.236-.618zm-6.78-4.834h6.714c.946-.01 1.892.038 2.833.143.66.059 1.302.25 1.888.562.455.265.815.668 1.029 1.15a4.91 4.91 0 01.321 1.904v2.207a5.178 5.178 0 01-.302 1.903 2.18 2.18 0 01-1.001 1.142 4.947 4.947 0 01-1.888.56c-.94.117-1.886.171-2.833.163h-12.785V22.216h17.941v4.015h-11.917v2.055zm32.945-6.07V38.02h-5.712v-8.012l-6.648 8.012h-6.166V22.216h5.694V29.8l6.95-7.583h5.882zm7.29 15.804V26.23h-5.694v-4.015h17.356v4.015h-5.666v11.79h-5.996z" fill="#005D20"/><path fill-rule="evenodd" clip-rule="evenodd" d="M71.245 38.058l-.878-2.37h-5.883l-.944 2.37h-6.752l6.61-16.317h7.884l6.61 16.317h-6.647zM67.402 26.44l-1.738 5.204h3.475l-1.737-5.204zm31.236 8.563a3.045 3.045 0 01-.33 1.531 2.12 2.12 0 01-1.058.952 6.567 6.567 0 01-1.889.447c-.793.076-1.766.124-2.908.124h-13.22V25.404h13.22c.968-.01 1.935.031 2.899.123a5.63 5.63 0 011.888.457c.437.192.796.527 1.02.951.22.47.324.985.302 1.504v1.579a1.397 1.397 0 01-.52 1.16 2.825 2.825 0 01-1.217.572c.465.08.905.268 1.284.551a1.52 1.52 0 01.576 1.304v1.427l-.047-.028zm-13.22-6.394v1.627H91.5c.305.038.614-.036.869-.21a.862.862 0 00.17-.627.719.719 0 00-.236-.619 1.482 1.482 0 00-.84-.171h-6.044zm0 4.567v1.627h6.176c.265.03.532-.034.755-.181a.829.829 0 00.198-.628c0-.333-.075-.552-.236-.656a1.295 1.295 0 00-.717-.162h-6.176zm20.481 4.88V28.61h-5.807v-3.206h17.762v3.206h-5.808v9.448h-6.147zm19.962 0a22.64 22.64 0 01-2.899-.151 5.314 5.314 0 01-1.936-.562 2.429 2.429 0 01-1.105-1.19 5.025 5.025 0 01-.33-1.997v-4.881a4.806 4.806 0 01.33-1.96 2.52 2.52 0 011.077-1.19 5.297 5.297 0 011.936-.59c.962-.116 1.93-.17 2.899-.161h7.308a22.04 22.04 0 012.833.162c.66.076 1.301.276 1.888.59.48.273.86.693 1.086 1.199a4.68 4.68 0 01.34 1.95v4.843a5.029 5.029 0 01-.321 1.97 2.505 2.505 0 01-1.067 1.189 5.383 5.383 0 01-1.888.58c-.952.128-1.911.194-2.871.2h-7.28zm7.327-7.61a.682.682 0 00-.783-.809h-5.666a.938.938 0 00-.67.218.834.834 0 00-.218.59v2.721a.96.96 0 00.161.638c.218.131.475.185.727.152h5.779a.788.788 0 00.566-.162.951.951 0 00.142-.628l-.038-2.72z" fill="#349E30"/><path fill-rule="evenodd" clip-rule="evenodd" d="M116.928 0h.397l.198.01h.585l.199.009h.198l.208.01h.207l.208.01h.208l.208.009.217.01h.217l.217.009.217.01.227.009.227.01h.226l.227.009.226.01.237.009.236.01.236.009.236.01.236.018.245.01.236.01.246.009.245.01.255.018.246.01.255.019.255.01.245.009.255.019.265.01.255.018.264.01.264.019.255.02.265.009.264.019.274.019.264.01.274.018.264.02.274.018.274.02.274.018.274.02.274.009.274.028.283.02.274.018.283.02.274.018.283.02.283.019.284.019.283.019.283.028.283.02.284.018.292.029.284.019.283.019.293.028.283.02.293.028.292.019.284.029.292.019.284.028.292.02.293.028.293.028.293.02.292.028.284.028.292.02.293.028.293.028.292.02.293.028.293.029.293.028.292.029.293.028.283.029.161.01.132.018.293.029.293.019.292.038.293.028.283.029.293.029.293.028.283.029.293.028.283.029.293.028.283.038.293.029.283.028.283.029.284.038.283.029.283.028.283.029.284.038.283.028.274.029.283.038.274.028.283.029.274.038.274.028.274.039.273.028.274.038.274.029.265.038.273.028.265.038.264.029.265.038.264.028.264.039.265.038.255.028.264.038.132.02.132.018.133.02.141.018.142.02.142.018.151.02.151.018.151.02.151.028.16.02.161.028.161.028.169.02.17.028.17.028.17.02.17.028.18.028.179.029.189.028.179.029.189.029.189.028.387.067.397.066.406.067.406.066.425.067.425.067.444.076.443.076.454.076.462.076.463.086.472.076.491.086.482.085.5.086.501.085.51.096.519.085.519.095.123.02.406.075.529.096.538.095.548.095.547.095.548.105.557.104.567.096.566.104.576.105.567.104.585.115.586.104.585.105.586.114.594.105.595.114.595.114.605.114.604.115.604.114.605.114.613.114.614.114.614.114.614.124.613.114.614.124.623.114.614.124.623.114.614.124.623.114.624.124.613.123.624.124.613.114.614.124.623.123.482.096.132.028.614.124.614.114.604.124.614.123.604.124.604.124.605.114.595.124.594.123.595.124.595.114.586.124.585.123.576.115.576.123.576.114.567.124.566.114.557.115.557.123.548.114.548.115.538.114.538.114.529.114.519.114.52.114.51.105.5.114.255.057.246.048.245.057.246.057.245.048.246.057.236.057.236.047.236.058.236.047.236.057.227.048.226.057.227.047.226.048.227.057.217.048.217.057.218.047.217.048.217.048.208.047.207.048.208.057.198.047.208.048.199.047.198.048.198.048.189.038.189.047.189.048.189.047.188.048.18.038.179.047.18.048.17.038.17.048.169.038.17.047.17.038.161.048.16.038.152.038.151.038.16.048.142.038.151.038.142.038.141.038.142.038.132.038.132.038.132.038.123.029.038.019.038.028.037.02.029.037.019.038.019.038.009.039v.047l-.009.038-.029.114-.028.124-.028.114-.029.124-.028.114-.038.124-.028.133-.029.124-.037.133-.029.124-.037.133-.038.133-.038.143-.038.133-.028.143-.038.133-.047.142-.038.143-.038.152-.047.143-.038.143-.047.152-.038.152-.047.153-.047.152-.047.152-.019.076-.028.076-.019.086-.029.076-.028.076-.019.086-.028.076-.028.076-.019.086-.029.076-.028.085-.028.076-.029.086-.028.076-.028.086-.019.085-.029.077-.028.085-.028.086-.028.085-.029.086-.038.076-.028.086-.028.085-.029.086-.028.086-.028.085-.038.086-.028.086-.038.085-.028.086-.029.086-.038.085-.028.086-.038.085-.028.096-.038.085-.028.086-.038.085-.038.096-.028.085-.038.086-.037.095-.038.086-.029.085-.037.095-.038.086-.038.095-.038.086-.037.095-.038.086-.038.095-.038.095-.037.085-.048.096-.037.085-.038.096-.038.095-.038.095-.047.085-.038.095-.047.096-.038.085-.047.095-.038.096-.047.095-.047.095-.038.095-.047.095-.038.095-.047.086-.047.095-.048.095-.047.095-.047.096-.019.047-.028.048-.047.095-.048.095-.047.095-.047.095-.047.095-.047.096-.057.095-.047.095-.048.104-.056.096-.047.095-.057.095-.047.095-.057.095-.047.095-.057.105-.056.095-.048.095-.056.095-.057.105-.057.095-.056.095-.057.095-.057.096-.056.104-.057.096-.057.095-.056.104-.057.095-.066.096-.057.104-.056.095-.066.095-.057.096-.066.104-.057.096-.066.095-.057.104-.066.095-.066.096-.056.104-.067.095-.066.096-.066.104-.066.095-.066.105-.066.095-.066.095-.066.105-.076.095-.066.095-.066.105-.075.095-.067.105-.075.095-.066.095-.066.105-.076.095-.075.104-.076.096-.066.095-.076.104-.075.095-.076.096-.075.104-.076.096-.075.095-.076.104-.075.095-.085.096-.076.104-.075.095-.085.096-.076.104-.085.095-.076.095-.084.105-.085.095-.076.095-.085.105-.085.095-.085.095-.085.096-.085.104-.085.095-.085.095-.085.105-.085.095-.094.095-.085.096-.095.095-.085.104-.094.095-.085.096-.095.095-.084.095-.095.095-.094.105-.095.095-.094.095-.095.095-.094.095-.094.095-.095.096-.094.095-.104.095-.095.095-.104.095-.094.095-.104.095-.094.096-.104.095-.104.095-.094.095-.104.095-.104.086-.104.095-.104.095-.104.095-.113.095-.104.096-.104.085-.104.095-.056.048-.057.047-.057.048-.047.048-.056.038-.057.047-.057.048-.047.047-.057.048-.056.047-.255-.294.047-.048.057-.048.056-.047.057-.038.047-.048.057-.047.056-.048.048-.047.056-.048.057-.038.104-.095.104-.095.104-.086.103-.095.104-.095.104-.096.104-.095.094-.095.104-.085.104-.096.095-.095.104-.095.094-.095.104-.095.094-.095.095-.095.104-.096.094-.095.094-.085.095-.096.094-.104.095-.095.085-.095.094-.096.094-.095.095-.095.085-.095.094-.095.085-.095.095-.096.085-.095.085-.095.094-.095.085-.105.085-.095.085-.095.085-.095.085-.095.085-.095.085-.105.085-.095.076-.095.085-.095.084-.096.076-.104.085-.095.076-.096.085-.095.075-.104.076-.095.085-.096.075-.095.076-.104.075-.096.076-.095.075-.095.076-.104.075-.096.076-.095.075-.095.076-.105.066-.095.076-.095.066-.104.075-.096.066-.095.076-.104.066-.096.076-.095.066-.095.066-.104.066-.096.066-.095.066-.105.076-.095.066-.095.056-.095.066-.105.067-.095.066-.095.066-.095.066-.105.057-.095.066-.095.056-.105.066-.095.057-.095.066-.095.057-.105.056-.095.067-.095.056-.095.057-.095.057-.105.056-.095.057-.095.056-.095.057-.105.057-.095.056-.095.057-.096.057-.095.047-.095.057-.095.056-.095.047-.095.057-.105.047-.095.057-.095.047-.095.057-.095.047-.096.047-.095.057-.095.047-.095.047-.095.048-.095.047-.095.056-.096.038-.095.057-.095.038-.095.047-.095.047-.095.047-.086.048-.095.037-.095.048-.095.047-.095.047-.096.038-.085.047-.095.038-.096.047-.095.038-.085.047-.096.038-.095.037-.095.048-.085.037-.096.038-.085.038-.095.047-.096.038-.085.038-.095.037-.086.038-.095.038-.086.038-.095.038-.085.037-.096.029-.085.037-.086.038-.095.038-.086.028-.085.038-.086.038-.095.028-.086.038-.085.028-.086.038-.095.028-.086.038-.085.028-.086.038-.085.029-.086.037-.086.029-.085.028-.086.028-.086.038-.085.028-.086.029-.086.028-.076.028-.085.029-.086.028-.086.028-.076.029-.085.028-.086.028-.076.029-.086.028-.085.019-.076.028-.086.029-.076.028-.086.028-.076.019-.076.028-.086.019-.076.029-.076.028-.086.019-.076.028-.076.019-.076.028-.076.019-.076.047-.152.048-.153.047-.152.038-.152.047-.152.038-.143.037-.143.048-.142.037-.143.029-.143.047-.143.028-.133.038-.133.038-.133.028-.143.038-.124.038-.133.028-.133.028-.124.038-.123.028-.124.029-.124.028-.114.028-.124h-.018l-.133-.038-.132-.038-.141-.038-.142-.038-.142-.028-.141-.038-.151-.048-.152-.038-.151-.038-.16-.038-.151-.038-.17-.048-.161-.038-.17-.038-.16-.048-.18-.038-.17-.047-.179-.038-.179-.048-.18-.038-.179-.047-.189-.048-.189-.047-.189-.039-.198-.047-.189-.048-.198-.047-.199-.048-.207-.048-.199-.047-.207-.048-.208-.047-.217-.048-.208-.047-.217-.048-.217-.048-.218-.047-.217-.048-.226-.057-.227-.047-.227-.048-.226-.057-.227-.047-.236-.048-.236-.057-.236-.048-.236-.057-.236-.047-.246-.057-.245-.048-.246-.057-.245-.048-.246-.057-.255-.057-.5-.104-.51-.105-.519-.114-.52-.114-.528-.105-.539-.114-.538-.114-.548-.115-.547-.114-.557-.114-.557-.114-.567-.114-.567-.115-.576-.114-.576-.123-.576-.115-.585-.114-.585-.123-.595-.115-.595-.123-.595-.114-.604-.124-.595-.114-.605-.124-.613-.114-.605-.124-.614-.114-.613-.124-.605-.114-.132-.028-.491-.096-.614-.114-.613-.124-.624-.123-.613-.114-.624-.115-.613-.123-.624-.114-.623-.124-.614-.114-.623-.114-.614-.115-.613-.123-.624-.114-.613-.115-.614-.114-.604-.114-.614-.114-.614-.114-.604-.115-.605-.104-.595-.114-.604-.105-.595-.114-.595-.105-.585-.104-.585-.115-.586-.104-.576-.105-.576-.105-.576-.095-.566-.104-.558-.105-.557-.095-.557-.095-.547-.096-.548-.104-.538-.095-.529-.086-.406-.076-.123-.02-.519-.085-.51-.095-.51-.086-.51-.085-.491-.086-.491-.085-.482-.077-.472-.085-.472-.076-.463-.076-.453-.077-.444-.076-.434-.066-.425-.067-.425-.076-.406-.067-.406-.057-.396-.066-.388-.057-.188-.029-.18-.038-.189-.019-.179-.028-.18-.029-.179-.029-.179-.028-.17-.029-.17-.019-.161-.028-.17-.02-.16-.028-.161-.019-.16-.028-.151-.02-.152-.018-.151-.029-.141-.019-.142-.019-.142-.02-.141-.018-.132-.02-.133-.018-.132-.02-.255-.028-.264-.028-.255-.038-.264-.029-.265-.038-.264-.028-.265-.039-.264-.028-.274-.038-.264-.029-.274-.038-.274-.028-.274-.029-.274-.038-.273-.028-.274-.029-.274-.028-.283-.039-.274-.028-.284-.029-.273-.038-.284-.028-.283-.029-.283-.028-.283-.029-.284-.028-.283-.038-.283-.029-.293-.029-.283-.028-.284-.029-.292-.028-.284-.029-.292-.028-.293-.029-.283-.028-.293-.029-.293-.028-.283-.029-.293-.029-.292-.019-.133-.019-.16-.01-.283-.028-.293-.028-.293-.029-.293-.028-.292-.02-.293-.028-.293-.028-.283-.02-.293-.028-.293-.029-.292-.019-.293-.028-.293-.02-.283-.028-.293-.028-.292-.02-.284-.018-.292-.029-.293-.019-.283-.028-.293-.02-.283-.028-.293-.019-.283-.019-.284-.019-.283-.029-.293-.019-.283-.019-.283-.019-.284-.028-.283-.02-.274-.018-.283-.02-.283-.018-.274-.02-.283-.018-.274-.02-.274-.018-.274-.01-.274-.019-.273-.019-.274-.019-.274-.02-.265-.018-.273-.01-.265-.019-.264-.019-.265-.01-.264-.018-.264-.01-.255-.019-.265-.01-.255-.018-.255-.01-.255-.019-.254-.01-.255-.009-.246-.019-.255-.01-.245-.009-.246-.019-.245-.01-.236-.009-.246-.01-.236-.009-.236-.01-.236-.009-.236-.01-.227-.01-.236-.009-.227-.01-.226-.009h-.217l-.227-.01-.217-.009h-.217l-.218-.01-.207-.009h-.217l-.208-.01h-.198l-.208-.009h-.397l-.198-.01h-.387l-.199-.009h-1.378l-.198.01h-.614l-.199.01h-.207l-.208.009h-.198l-.208.01-.208.009h-.208l-.207.01-.208.009-.217.01-.208.009-.208.01-.217.009-.104.01h-.104l-.103.009h-.114l-.104.01-.103.009h-.114l-.104.01-.113.009h-.104l-.104.01-.113.009h-.104l-.113.01-.104.01-.113.009-.104.01h-.114l-.103.009-.114.01-.104.009-.113.01-.104.009-.113.01-.113.009h-.104l-.114.01-.113.009-.104.01-.113.009-.113.01-.104.009-.114.01-.113.009-.104.01-.113.018-.113.01-.114.01-.113.009-.104.01-.113.009-.114.01-.113.018-.113.01-.113.01-.114.009-.104.02-.113.009-.113.01-.114.009-.113.019-.113.01-.113.009-.114.019-.113.01-.113.009-.114.019-.113.01-.113.018-.114.01-.113.019-.113.01-.114.018-.122.01-.104.019-.123.01-.113.018-.114.02-.113.009-.113.019-.114.01-.113.019-.123.019-.113.01-.113.018-.114.02-.113.018-.123.01-.113.019-.113.019-.114.019-.113.019-.123.01-.113.018-.113.02-.114.018-.122.02-.114.018-.113.02-.123.019-.113.019-.113.019-.114.019-.122.019-.114.019-.113.019-.123.019-.113.019-.113.019-.123.019-.113.019-.114.028-.122.02-.114.018-.123.02-.113.019-.113.028-.123.02-.113.018-.123.029-.113.019-.114.019-.122.028-.114.02-.123.018-.113.029-.113.019-.123.028-.113.02-.123.028-.113.019-.123.029-.113.019-.114.028-.122.02-.114.028-.122.028-.114.02-.122.028-.114.019-.123.028-.113.029-.123.029-.113.019-.123.028-.113.029-.123.028h-.019l-.094.02-.123.028-.113.028-.123.029-.113.028-.113.029-.123.028-.114.029-.122.019-.114.029-.122.028-.114.029-.122.028-.114.029-.123.038-.113.028-.123.029-.113.028-.123.029-.113.029-.123.028-.113.038-.123.029-.113.028-.123.029-.113.028-.123.038-.113.029-.123.028-.113.038-.114.029-.122.029-.114.038-.122.028-.114.038-.123.029-.113.038-.122.028-.114.038-.123.029-.113.038-.113.038-.123.029-.113.038-.123.028-.113.038-.123.038-.113.029-.114.038-.123.038-.113.038-.123.029-.113.038-.113.038-.123.038-.113.038-.114.038-.122.038-.114.038-.122.029-.114.038-.113.038-.123.038-.113.038-.113.038-.123.038-.113.047-.218.067-.217.076-.217.076-.217.067-.217.076-.218.076-.217.076-.217.067-.208.076-.217.076-.217.076-.208.067-.217.076-.208.076-.217.076-.207.067-.208.076-.208.076-.217.076-.208.076-.208.067-.207.076-.416.143-.406.152-.415.143-.406.152-.406.143-.407.142-.406.153-.396.142-.397.143-.793.285-.784.286-.358.133-.416.152-.387.133-.387.143-.387.133-.378.143-.378.133-.377.133-.378.134-.368.133-.378.133-.18.067-.188.066-.18.067-.189.057-.18.067-.188.066-.18.067-.188.057-.18.067-.179.056-.18.067-.188.067-.18.057-.18.057-.178.066-.18.058-.18.066-.179.057-.17.057-.18.067-.178.057-.18.057-.18.057-.17.057-.179.057-.18.057-.17.058-.178.057-.17.057-.17.047-.18.057-.17.057-.18.048-.17.057-.17.057-.17.048-.178.057-.17.047-.17.048-.17.057-.17.048-.17.047-.17.048-.17.047-.17.058-.17.038-.16.047-.17.048-.17.047-.17.048-.161.047-.17.039-.17.047-.16.048-.17.038-.161.038-.17.047-.16.038-.086.02-.085.018-.085.029-.085.019-.085.019-.085.02-.094.018-.085.02-.085.018-.094.02-.085.018-.095.02-.085.018-.094.02-.095.018-.094.02-.095.009-.094.019-.094.019-.095.019-.094.019-.095.01-.094.019-.104.019-.094.019-.104.01-.095.018-.104.02-.103.018-.095.01-.104.019-.104.01-.103.018-.104.02-.095.009-.113.019-.104.01-.104.018-.104.02-.103.009-.114.019-.104.01-.113.019-.104.009-.104.02-.113.009-.113.01-.104.018-.113.01-.114.019-.113.01-.113.009-.104.019-.123.01-.066.009h-.047l-.114.019-.113.01-.113.009-.114.019-.113.01-.123.009-.113.01-.113.009-.123.019-.113.01-.123.009-.123.01-.113.009-.123.019-.123.01-.113.009-.123.01-.245.019-.246.019-.245.028-.246.02-.245.018-.255.02-.246.018-.255.02-.255.018-.255.02-.255.018-.255.02-.264.009-.264.019-.255.019-.265.019-.264.01-.264.018-.265.02-.264.01-.265.018-.273.01-.265.019-.274.01-.264.018-.274.01-.274.019-.274.019-.273.01-.274.009-.274.019-.274.01-.274.018-.283.01-.548.028-.557.02-.557.028-.557.029-.557.019-1.124.057-.557.019-.566.028-.558.029-.557.019-.557.028-.557.029-.274.01-.283.009-.274.019-.274.01-.283.018-.274.01-.274.019-.273.01-.086.01-.188.009-.274.01-.274.018-.274.01-.264.019-.274.01-.265.018-.273.02-.265.009-.264.019-.274.019-.264.019-.265.01-.264.018-.255.02-.264.018-.255.02-.265.018-.255.02-.255.019-.255.019-.255.019-.245.019-.255.019-.113.01-.114.009-.113.01-.113.009-.114.01-.113.009-.113.01-.114.018-.113.01-.113.01-.113.009-.114.01-.113.009-.113.019-.104.01-.114.009-.113.01-.113.009-.104.019-.113.01-.114.009-.104.02-.113.009-.104.01-.113.018-.104.01-.113.01-.104.018-.113.01-.104.019-.114.01-.104.018-.103.01-.114.019-.104.01-.103.009-.114.019-.104.019-.104.01-.103.018-.104.01-.114.019-.103.01-.104.018-.104.02-.104.01-.104.018-.104.01-.104.019-.104.019-.103.019-.104.01-.104.018-.095.02-.103.018-.104.01-.104.019-.104.019-.104.019-.094.01-.104.018-.104.02-.095.018-.103.02-.095.019-.104.01-.104.018-.094.02-.104.018-.094.02-.104.018-.095.02-.103.018-.095.02-.094.018-.104.02-.095.018-.094.02-.104.018-.094.02-.095.018-.094.02-.095.019-.103.019-.095.019-.094.019-.095.028-.094.02-.095.018-.094.02-.094.018-.095.02-.094.028-.095.019-.094.019-.095.019-.094.019-.094.019-.095.029-.085.019-.094.019-.095.019-.094.028-.085.02-.095.018-.094.029-.085.019-.094.019-.095.028-.085.02-.094.018-.085.029-.095.019-.085.02-.094.028-.085.019-.094.019-.085.028-.095.02-.085.028-.085.019-.094.019-.085.028-.085.02-.085.028-.095.019-.084.028-.085.02-.085.028-.085.02-.17.047-.18.047-.17.057-.17.048-.038.01-.132.037-.16.048-.17.048-.16.047-.17.057-.161.048-.17.047-.16.058-.161.047-.16.048-.161.057-.16.047-.161.057-.16.048-.152.057-.16.048-.152.057-.15.047-.161.057-.151.058-.151.047-.151.057-.151.057-.152.048-.15.057-.142.057-.151.057-.142.048-.151.057-.142.057-.141.057-.152.057-.141.047-.132.058-.142.057-.142.057-.141.057-.142.057-.132.057-.142.057-.132.057-.132.057-.142.057-.132.058-.132.057-.132.057-.133.057-.122.057-.133.057-.132.057-.122.057-.133.057-.122.057-.123.057-.132.058-.123.066-.123.057-.123.057-.122.057-.123.057-.113.058-.123.057-.114.057-.122.057-.114.057-.122.066-.114.058-.113.057-.113.057-.114.057-.113.057-.113.057-.113.057-.104.057-.114.057-.104.067-.113.057-.104.057-.104.057-.103.057-.104.057-.114.057-.094.057-.104.058-.104.057-.104.057-.094.057-.104.057-.094.057-.104.057-.095.057-.094.057-.095.057-.094.057-.094.058-.095.056-.094.058-.095.057-.094.047-.085.057-.095.058-.084.057-.085.057-.095.047-.085.057-.085.057-.085.057-.085.048-.085.057-.085.057-.075.048-.085.057-.085.057-.076.047-.075.058-.085.047-.076.057-.075.048-.076.057-.076.047-.075.058-.076.047-.075.057-.076.048-.066.047-.075.058-.076.047-.066.048-.066.047-.076.048-.066.047-.066.057-.066.048-.066.048-.066.047-.066.048-.057.047-.066.048-.066.047-.057.039-.066.047-.056.048-.057.047-.057.048-.066.038-.057.047-.056.048-.057.038-.057.048-.047.038-.056.047-.057.038-.047.038-.057.048-.047.038-.104.086-.094.076-.095.076-.094.076-.085.076-.085.076-.085.067-.085.066-.076.067-.075.067-.076.066-.066.057-.057.048.048.047.037.058.048.047.037.057.038.057.047.048.038.057.038.057.047.048.038.057.038.047.037.057.038.057.038.048.047.057.038.048.038.057.038.057.037.047.038.057.038.048.028.057.038.057.038.048.037.057.038.047.038.058.028.047.038.057.038.048.028.057.038.057.038.047.028.058.038.047.028.057.038.048.028.057.038.047.028.058.038.047.028.057.029.048.038.057.028.048.028.057.029.047.037.048.029.057.028.047.028.057.029.048.028.057.028.048.038.057.028.047.029.048.028.057.028.048.029.057.019.047.028.048.028.057.029.048.028.056.028.048.02.048.027.057.029.047.019.048.028.057.028.048.029.057.019.047.028.048.019.057.028.047.019.048.028.057.02.048.027.047.02.048.028.057.019.047.018.048.029.057.019.048.019.047.028.048.019.057.019.047.019.048.018.048.029.057.019.047.019.048.018.047.02.058.018.047.02.048.018.047.019.048.019.047.019.058.018.047.02.048.018.047.02.048.018.057.01.047.018.048.02.048.018.047.019.048.01.047.018.048.02.047.018.058.01.047.018.048.01.047.019.048.019.047.01.048.018.048.01.047.018.048.01.047.019.048.01.047.018.048.01.048.009.047.019.048.01.047.018.048.01.047.009.048.019.048.01.047.009.048.01.047.009.048.018.047.01.048.01.048.009.047.01.048.018.038.01.047.009.048.01.047.009.048.01.048.009.047.01.048.009.038.01.047.009.048.009.048.019.095.01.085.018.096.02.085.009.095.018.086.01.095.019.086.01.095.009.085.019.086.009.095.01.086.009.086.01.085.009.095.01.086.009.085.01.086v.086l.009.085.009.086v.086l.01.085v.086l.009.086v.085l.01.086v.162l.009.085v.971l-.01.076v.161l-.01.039v.114l-.009.038v.123l-.009.038v.039l-.01.038v.076l-.009.038v.038l-.01.038v.038l-.009.038v.038l-.01.038-.009.038v.038l-.01.038-.009.038v.039l-.009.038-.01.038v.038l-.009.038-.01.038-.009.028v.038l-.01.038-.009.038-.01.038-.009.039-.009.038-.01.028-.009.038-.01.038-.009.038-.01.029-.009.038-.01.038-.009.038-.009.029-.01.038-.009.038-.01.038-.009.028-.01.038-.018.038-.01.029-.009.038-.01.038-.009.038-.019.029-.01.038-.009.028-.019.038-.009.038-.01.029-.018.038-.01.029-.01.038-.018.038-.01.028-.018.038-.01.029-.019.038-.01.028-.018.038-.01.029-.018.038-.01.029-.019.038-.01.028-.018.038-.019.029-.01.028-.018.038-.02.029-.009.038-.018.029-.02.038-.009.028-.019.029-.019.038-.018.028-.02.038-.009.029-.019.029-.019.037-.018.03-.02.028-.009.038-.019.028-.019.029-.018.038-.02.028-.018.029-.02.029-.018.037-.019.03v.009l-.019.019-.019.038-.018.028-.02.029-.018.028-.02.029-.037.066-.038.058-.047.066-.038.057-.037.057-.038.067-.047.057-.038.057-.047.057-.038.057-.047.067-.048.057-.037.057-.048.057-.047.057-.047.057-.038.057-.047.057-.047.057-.047.058-.048.057-.047.057-.047.057-.047.057-.057.057-.047.057-.047.057-.048.048-.047.057-.056.057-.048.057-.047.048-.057.057-.047.057-.056.057-.048.047-.056.057-.047.048-.057.057-.057.057-.047.048-.057.057-.047.047-.057.058-.056.057-.057.047-.047.057-.057.048-.056.057-.057.048-.057.057-.047.047-.057.057-.056.048-.057.057-.056.048-.057.057-.057.047-.056.048-.057.057-.057.047-.113.105-.113.105-.114.095-.113.105-.057.047.02.02.018.028.019.019.028.028.02.02.028.028.018.019.02.028.028.02.028.028.019.019.028.029.028.019.02.028.028.02.028.018.028.029.029.019.028.028.028.02.029.028.028.019.028.019.029.029.028.019.028.018.038.03.028.018.029.02.028.028.038.019.028.019.038.028.028.02.038.018.028.029.038.019.028.019.038.019.038.029.028.019.038.019.038.019.038.028.037.02.038.018.029.02.037.028.038.019.038.019.038.019.037.019.038.019.047.019.038.029.038.019.038.019.037.019.048.019.037.019.038.019.047.019.038.019.047.019.038.019.047.028.038.01.047.028.038.01.047.029.048.009.037.029.048.009.047.02.038.018.047.02.047.018.047.02.047.018.048.02.037.018.048.02.047.018.047.02.047.018.047.01.048.019.056.019.047.019.048.019.047.019.047.02.047.009.057.019.047.019.047.019.048.01.056.018.048.02.047.018.056.02.048.009.056.019.047.019.057.019.047.01.057.018.047.02.057.009.047.019.057.019.104.029.113.028.104.038.104.029.113.028.113.029.114.028.103.029.114.028.113.029.113.029.114.028.113.029.123.028.113.029.113.028.123.029.113.019.123.028.114.029.122.028.114.02.122.028.123.029.123.019.123.028.113.02.123.028.122.019.133.028.113.02.132.018.123.029.123.019.122.019.123.029.132.018.123.02.123.019.132.019.123.028.123.02.132.018.123.02.132.018.122.02.133.018.122.02.133.018.122.02.133.009.122.019.133.019.132.019.122.019.133.01.122.019.133.019.132.01.123.018.132.02.123.009.132.019.122.019.133.01.132.018.123.01.122.01.132.018.123.01.133.019.122.01.132.018.123.01.132.01.123.009.123.019.132.01.123.009.123.02.122.009.133.01.122.009.123.01.123.009.123.01.122.018.123.01.123.01.123.009.122.01.114.009.122.01.123.009.114.01.122.009h.113l.237.019.236.019.226.01.227.018.227.01.226.019.217.01.218.009.217.019.207.01.208.009.208.01.208.01.189.009.198.01.189.009.189.01.179.009h.189l.17.01.17.009h.17l.16.01h.16l.152.009h.15l.143.01h.141l.132.009h.369l.113.01h.472l.151.009h.349v.39h-.226l-.132-.01h-.624l-.113-.01h-.368l-.142-.009h-.274l-.15-.01h-.161l-.151-.009h-.17l-.16-.01h-.17l-.18-.009h-.18l-.188-.01-.19-.009-.188-.01h-.198l-.199-.009-.198-.01-.208-.009-.207-.01-.208-.009-.217-.019-.218-.01-.226-.009-.217-.01-.227-.019-.236-.009-.227-.019-.236-.01-.236-.019-.113-.01h-.123l-.123-.018h-.122l-.114-.01-.122-.01-.123-.009-.123-.01-.123-.009-.122-.01-.123-.009-.123-.01-.123-.009-.122-.01-.133-.009-.122-.019-.123-.01-.123-.009-.132-.01-.123-.009-.123-.01-.132-.018-.123-.01-.132-.01-.122-.018-.133-.01-.123-.01-.132-.018-.132-.01-.123-.01-.132-.019-.123-.01-.132-.018-.132-.01-.123-.019-.132-.019-.132-.01-.123-.018-.132-.01-.132-.019-.123-.019-.132-.01-.132-.018-.123-.02-.132-.018-.133-.01-.122-.019-.133-.019-.132-.019-.123-.019-.132-.02-.122-.018-.133-.02-.132-.018-.123-.02-.132-.018-.123-.02-.132-.018-.122-.02-.133-.018-.122-.02-.123-.028-.132-.019-.123-.019-.123-.028-.132-.02-.123-.019-.123-.028-.122-.02-.123-.028-.123-.019-.123-.019-.122-.028-.123-.029-.123-.019-.123-.028-.122-.029-.114-.019-.122-.029-.123-.028-.113-.02-.123-.028-.114-.028-.122-.029-.114-.028-.113-.029-.123-.028-.113-.029-.113-.028-.114-.029-.113-.029-.113-.028-.104-.029-.113-.038-.114-.028-.104-.029-.113-.038-.057-.01-.047-.018-.056-.02-.057-.009-.057-.019-.047-.019-.057-.019-.047-.01-.056-.019-.048-.018-.056-.02-.048-.01-.056-.018-.057-.02-.047-.018-.047-.02-.057-.009-.047-.019-.057-.019-.047-.019-.047-.019-.047-.019-.057-.01-.047-.018-.048-.02-.047-.018-.056-.02-.048-.018-.047-.02-.047-.019-.047-.019-.047-.019-.048-.019-.047-.019-.047-.019-.047-.019-.048-.019-.047-.019-.047-.019-.047-.019-.038-.019-.047-.019-.047-.019-.048-.019-.037-.019-.048-.019-.047-.029-.038-.019-.047-.019L2.304 49l-.038-.019-.047-.019-.038-.019-.047-.028-.038-.02-.047-.018-.038-.02-.047-.018-.038-.029-.037-.019-.038-.019-.047-.029-.038-.019-.038-.019-.038-.028-.038-.02-.037-.018-.038-.029-.047-.019-.038-.019-.038-.028-.038-.02-.028-.018-.038-.029-.037-.019-.038-.029-.038-.018-.038-.03-.028-.018-.038-.029-.038-.019-.028-.028-.038-.02-.028-.028-.038-.019-.038-.028-.028-.02-.028-.028-.038-.029-.028-.018-.038-.03-.028-.028-.029-.019-.028-.028-.028-.029-.038-.019-.029-.028-.028-.029-.028-.019L.5 47.84l-.028-.029-.028-.029-.029-.018-.028-.03-.019-.028-.028-.028-.028-.029-.029-.028-.019-.029-.028-.028-.028-.02-.02-.028-.027-.029-.02-.028-.028-.029-.019-.028-.028-.029-.019-.028-.019-.038-.019-.038L0 47.23v-.038l.01-.048.009-.038.01-.038.028-.029.028-.028.113-.105.114-.105.113-.095.113-.104.114-.105.113-.095.057-.057.056-.048.057-.057.047-.047.057-.048.056-.057.057-.048.057-.057.047-.047.057-.048.056-.057.047-.048.057-.057.057-.047.047-.057.057-.048.056-.057.047-.048.057-.057.047-.047.057-.048.047-.057.047-.047.057-.057.047-.058.047-.047.057-.057.047-.048.048-.057.047-.047.056-.058.048-.057.047-.047.047-.057.047-.057.047-.048.048-.057.047-.057.047-.048.038-.057.047-.057.047-.057.048-.057.037-.048.048-.057.037-.057.048-.057.037-.057.047-.057.038-.048.047-.057.038-.057.038-.057.038-.057.047-.057.038-.057.038-.057.037-.057.038-.057.038-.058.038-.057.019-.038.009-.019.019-.038.019-.028.019-.029.018-.028.02-.029.018-.028.02-.029.009-.029.018-.028.02-.029.009-.038.019-.028.019-.029.018-.028.02-.029.009-.028.019-.029.01-.038.018-.029.019-.028.01-.029.018-.028.02-.038.009-.029.018-.028.01-.029.019-.028.019-.038.01-.029.018-.029.01-.028.009-.038.019-.029.01-.028.018-.029.01-.038.018-.028.01-.029.01-.038.018-.029.01-.028.009-.038.019-.029.01-.028.009-.038.01-.029.018-.028.01-.038.009-.029.01-.028.009-.038.019-.03.01-.028.009-.038.01-.028.009-.038.009-.029.01-.038.009-.028.01-.038.009-.029.01-.038.009-.029.01-.028.009-.038.009-.038.01-.029.009-.038.01-.028.009-.038v-.029l.01-.038.009-.029.01-.038.009-.028v-.038l.009-.038.01-.029.009-.038v-.029l.01-.038.009-.038v-.028l.01-.038.009-.038v-.029l.01-.038v-.038l.009-.029v-.038l.009-.038v-.028l.01-.038v-.076l.009-.038v-.067l.01-.038v-.076l.009-.029v-.114l.01-.038v-.152l.009-.076v-.933l-.01-.085v-.238l-.01-.086v-.076l-.009-.086v-.076l-.01-.085-.009-.086v-.085l-.009-.077-.01-.085-.009-.086v-.086l-.01-.076-.009-.085-.01-.086-.009-.086-.019-.085-.009-.086-.01-.086-.009-.085-.019-.086-.01-.095-.018-.085-.01-.086-.018-.086-.01-.085-.019-.096-.019-.085-.019-.086-.009-.047v-.038l-.01-.048-.018-.048v-.038l-.01-.047-.01-.048-.018-.038-.01-.047-.009-.048-.01-.047-.009-.048-.01-.038-.009-.048-.01-.047-.018-.048-.01-.038-.009-.047-.01-.048-.009-.038-.019-.048-.01-.047-.009-.048-.01-.047-.018-.038-.01-.048-.009-.048-.019-.047-.01-.048-.018-.047-.01-.048-.018-.038-.01-.047-.01-.048-.018-.048-.01-.047-.018-.048-.02-.047-.009-.048-.019-.038-.01-.048-.018-.047-.019-.048-.01-.047-.018-.048-.02-.047-.009-.048-.018-.048-.02-.047-.018-.048-.01-.047-.019-.048-.018-.047-.02-.048-.018-.048-.02-.047-.018-.048-.019-.047-.019-.048-.019-.047-.018-.048-.02-.048-.018-.047-.02-.048-.018-.047-.019-.048-.019-.047-.019-.048-.019-.048-.028-.047-.019-.048-.019-.047-.019-.057-.018-.048-.029-.048-.019-.047-.019-.048-.028-.047-.019-.048-.019-.047-.028-.048-.019-.057-.028-.048-.02-.047-.027-.048-.02-.047-.028-.048-.018-.048-.029-.057-.028-.047-.019-.048-.028-.047-.029-.048-.019-.057-.028-.048-.028-.047-.029-.048-.018-.057-.029-.047-.028-.048-.028-.047-.029-.058-.028-.047-.028-.048-.029-.047-.028-.057-.028-.048-.029-.047-.028-.048-.028-.057-.029-.048-.028-.047-.028-.057-.029-.048-.037-.048-.029-.047-.028-.057-.028-.048-.038-.047-.029-.057-.028-.048-.038-.048-.028-.057-.038-.047-.028-.048-.038-.057-.028-.047-.038-.048-.028-.057-.038-.048-.028-.057-.038-.047-.038-.048-.028-.057-.038-.048-.038-.057-.038-.047-.028-.048-.038-.057-.037-.047-.038-.058-.038-.047-.038-.048-.037-.057-.038-.047-.038-.058-.038-.047-.038-.057-.037-.048-.038-.047-.038-.057-.038-.048-.047-.057-.038-.048-.037-.057-.038-.047-.047-.057-.038-.048-.038-.057-.047-.048-.038-.057-.047-.047-.038-.057-.047-.048-.028-.047-.02-.038-.009-.048-.01-.057.01-.048.01-.047.019-.048.028-.038.038-.038.056-.057.066-.057.067-.057.066-.057.075-.067.076-.067.075-.066.076-.067.085-.066.085-.076.085-.077.094-.076.095-.076.094-.076.104-.086.094-.085.057-.038.047-.048.057-.038.056-.038.057-.047.047-.048.057-.038.057-.048.056-.047.066-.048.057-.038.057-.047.056-.048.066-.048.057-.047.066-.048.066-.047.066-.048.057-.047.066-.048.066-.048.066-.057.076-.047.066-.048.066-.047.066-.048.076-.057.066-.048.075-.057.076-.047.066-.048.076-.057.075-.048.076-.057.075-.057.076-.047.085-.057.075-.048.076-.057.085-.057.075-.048.085-.057.076-.057.085-.047.085-.058.085-.057.085-.057.085-.057.085-.057.085-.048.094-.057.085-.057.095-.057.085-.057.094-.057.085-.057.094-.057.095-.057.094-.057.095-.057.094-.057.095-.058.103-.057.095-.057.094-.057.104-.066.095-.057.103-.058.104-.057.095-.057.104-.057.103-.057.104-.066.114-.058.103-.057.104-.057.114-.057.104-.057.103-.066.114-.058.113-.057.113-.057.114-.066.104-.058.122-.057.114-.057.113-.066.113-.057.123-.057.113-.058.123-.066.113-.057.123-.057.123-.057.113-.067.123-.057.123-.057.132-.057.123-.067.122-.057.123-.057.132-.057.123-.057.132-.067.133-.057.122-.057.132-.057.133-.057.132-.057.132-.067.142-.057.132-.057.132-.057.142-.057.132-.057.141-.057.142-.057.132-.057.142-.067.142-.057.141-.057.151-.057.142-.058.142-.047.15-.067.142-.047.151-.057.142-.057.151-.057.151-.058.151-.057.151-.057.152-.057.15-.047.152-.058.16-.057.151-.057.16-.047.152-.057.16-.057.16-.057.161-.048.161-.057.16-.048.161-.057.16-.047.161-.057.17-.048.16-.057.17-.048.17-.057.161-.047.17-.048.17-.057.132-.038.038-.01.17-.047.18-.048.17-.057.17-.047.094-.02.085-.028.085-.019.085-.029.094-.019.085-.028.085-.02.094-.028.085-.028.095-.02.085-.018.094-.029.085-.019.095-.028.085-.02.094-.028.085-.019.095-.029.094-.019.085-.019.094-.028.095-.02.085-.018.094-.029.095-.019.094-.028.085-.02.094-.018.095-.029.094-.019.095-.019.094-.019.095-.029.094-.019.094-.019.095-.028.094-.02.095-.018.094-.02.095-.018.094-.029.104-.019.094-.019.095-.019.094-.019.095-.019.103-.029.095-.018.094-.02.104-.019.095-.019.094-.019.104-.019.094-.019.104-.019.095-.019.103-.019.095-.019.104-.019.094-.019.104-.019.104-.019.094-.019.104-.019.104-.019.095-.019.103-.02.104-.018.104-.02.095-.018.103-.01.104-.019.104-.019.104-.019.104-.019.104-.019.104-.01.104-.018.103-.02.104-.018.104-.01.104-.019.104-.019.104-.01.104-.018.113-.02.104-.019.104-.01.103-.018.114-.02.104-.009.104-.019.113-.01.104-.018.104-.01.113-.019.104-.019.113-.01.104-.009.113-.019.104-.01.113-.018.104-.01.114-.019.113-.01.104-.018.113-.01.113-.01.104-.019.114-.01.113-.018.113-.01.113-.01.104-.009.114-.019.113-.01.113-.009.114-.01.113-.018.113-.01.114-.01.113-.009.113-.01.114-.018.113-.01.113-.01.123-.009.113-.01.114-.009.113-.01.255-.018.255-.029.255-.019.255-.019.255-.02.255-.018.264-.02.255-.018.264-.02.265-.018.264-.02.264-.018.265-.02.264-.018.274-.01.264-.019.274-.019.265-.019.273-.01.274-.019.274-.019.265-.009.273-.02.19-.009h.094l.273-.019.274-.019.274-.01.274-.018.283-.01.274-.019.283-.01.274-.018.557-.029.558-.019.557-.028.566-.029.557-.029.557-.028 1.124-.048.557-.028.557-.029.557-.028.557-.029.548-.019.274-.019.283-.01.274-.018.274-.01.274-.019.274-.01.264-.018.274-.01.274-.019.264-.019.274-.01.264-.018.274-.02.265-.01.264-.018.264-.02.265-.009.255-.019.264-.019.264-.019.255-.019.265-.019.255-.019.255-.01.255-.018.245-.02.255-.018.246-.029.255-.019.245-.019.246-.02.245-.018.236-.02.246-.028.123-.01.113-.009.123-.01.122-.009.114-.019.122-.01.114-.009.113-.01.123-.018.113-.01.113-.01.114-.009.113-.01.123-.018.113-.01.113-.01.104-.018h.047l.076-.01.104-.01.113-.018.113-.01.114-.02.104-.009.113-.01.104-.018.113-.01.104-.019.113-.01.104-.018.104-.01.104-.019.113-.01.104-.018.104-.01.104-.019.104-.01.094-.018.104-.01.104-.019.104-.019.094-.01.104-.018.095-.02.103-.01.095-.018.094-.02.104-.009.094-.019.095-.019.094-.019.095-.01.094-.018.095-.02.094-.018.085-.02.094-.009.095-.019.085-.019.094-.019.085-.019.085-.019.095-.019.085-.02.085-.018.085-.02.085-.018.085-.02.085-.018.075-.02.085-.018.085-.02.076-.018.16-.038.17-.048.16-.038.161-.038.16-.048.17-.047.161-.038.17-.048.16-.047.17-.039.161-.047.17-.048.16-.047.17-.048.17-.047.17-.048.161-.057.17-.048.17-.047.17-.057.17-.048.17-.047.17-.057.17-.048.17-.057.17-.057.18-.048.17-.057.17-.057.178-.057.17-.057.17-.057.18-.057.17-.048.18-.067.17-.056.179-.058.18-.057.169-.057.18-.066.179-.057.18-.058.179-.066.18-.057.178-.057.18-.067.18-.057.179-.067.18-.066.178-.057.18-.067.189-.057.18-.067.179-.066.188-.067.18-.066.189-.058.18-.076.377-.123.368-.134.378-.142.377-.133.378-.134.378-.133.378-.143.387-.142.387-.133.415-.153.36-.133.783-.285.793-.286.397-.142.406-.153.396-.142.406-.143.406-.152.416-.143.406-.152.415-.143.416-.152.208-.067.207-.076.208-.076.208-.076.217-.076.208-.067.207-.076.218-.076.207-.076.218-.076.217-.067.208-.076.217-.076.217-.076.208-.076.217-.067.217-.076.217-.076.217-.076.227-.077.217-.066.217-.076.123-.038.113-.038.114-.048.122-.038.114-.038.123-.038.113-.038.123-.038.113-.038.123-.038.113-.029.123-.038.113-.038.123-.038.113-.038.123-.038.123-.038.113-.029.123-.038.113-.038.123-.038.113-.038.123-.029.113-.038.123-.028.123-.038.113-.038.123-.029.113-.038.123-.028.113-.038.123-.029.123-.038.113-.029.123-.038.122-.028.114-.038.122-.029.114-.038.123-.028.113-.029.123-.028L94 2.93l.114-.028.122-.029.114-.038.122-.028.123-.029.114-.028.122-.029.123-.028.113-.038.123-.029.113-.029.123-.028.123-.029.113-.028.123-.029.113-.028.123-.029.123-.028.113-.029.123-.028.123-.029.113-.029.123-.019.094-.028h.019l.123-.029.123-.028.113-.029.123-.019.113-.028.123-.029.122-.028.114-.02.122-.028.114-.019.122-.029.123-.028.114-.02.122-.028.114-.019.122-.028.123-.02.114-.028.122-.019.114-.028.122-.02.114-.028.122-.019.114-.019.122-.029.114-.019.122-.028.114-.02.123-.018.113-.029.123-.019.113-.019.123-.019.113-.019.123-.028.113-.02.123-.018.113-.02.123-.018.113-.02.123-.019.113-.028.123-.02.113-.018.123-.02.113-.018.123-.02.113-.018.114-.01.122-.019.114-.019.113-.019.123-.019.113-.019.123-.019.113-.019.114-.019.122-.01.114-.019.113-.019.123-.019.113-.01.113-.018.114-.02.122-.009.114-.019.113-.019.123-.01.113-.018.113-.02.114-.009.113-.019.123-.01.113-.018.113-.01.114-.019.113-.01.123-.019.113-.009.113-.019.114-.01.113-.01.113-.018.114-.01.113-.019.113-.01.114-.009.113-.01.123-.018.104-.01.122-.01.114-.009.103-.019.114-.01.123-.009.103-.01.114-.009.113-.019.113-.01.114-.009.113-.01.113-.009.114-.01.113-.009.104-.01.113-.009.113-.01.114-.009.113-.01.104-.01.113-.009.113-.01.114-.009.104-.01.113-.009h.113l.104-.01.113-.009.114-.01.104-.009.113-.01h.104l.113-.009.113-.01.104-.009h.114l.103-.01.114-.009.104-.01h.113l.104-.009h.113l.104-.01.113-.009h.104l.104-.01h.113l.208-.009.217-.01.208-.009.217-.01.208-.009.217-.01.208-.009h.208l.207-.01h.208l.208-.009h.208l.207-.01h.406l.208-.009h1.001z" fill="#349E30"/><path fill-rule="evenodd" clip-rule="evenodd" d="M118.996 1.827h1.02l.208.01h.415l.208.009h.425l.208.01h.207l.217.009.208.01h.217l.218.009.207.01h.218l.217.009.217.01.217.009.227.01.217.009.217.01.217.009.227.01.217.009.227.019.226.01.217.01.227.009.227.019.226.01.227.018.236.01.227.019.226.01.236.018.227.01.236.019.227.019.236.019.236.019.236.019.236.019.236.019.236.019.236.019.236.02.246.018.236.02.245.028.236.019.246.019.236.028.245.02.246.018.245.029.246.019.245.028.246.02.245.018.246.029.245.029.255.019.057.01.189.018.255.02.245.028.255.028.255.029.246.019.255.028.255.029.255.028.255.029.255.019.254.029.265.028.255.029.255.028.264.029.255.028.264.029.255.038.265.028.264.029.265.029.264.028.264.029.265.038.264.028.265.029.273.038.265.028.264.029.274.038.264.028.274.039.274.028.265.038.273.029.274.038.274.028.274.038.274.038.274.029.273.038.274.038.283.038.274.029.284.038.273.038.284.038.283.038.274.038.283.038.283.038.284.038.283.038.283.038.284.038.283.038.283.038.293.038.283.039.293.047.283.038.293.038.293.038.283.048.292.038.293.038.293.048.293.038.292.047.293.038.293.048.302.038.293.047.292.048.303.038.292.048.302.038.293.047.302.048.303.047.302.048.302.038.302.048.302.047.142.02.16.028.303.047.302.048.302.047.311.048.303.048.311.047.302.048.312.047.312.048.302.047.311.058.312.047.312.048.311.047.312.057.311.048.321.048.312.057.312.047.311.057.321.048.312.057.321.047.321.058.312.047.321.057.321.057.321.048.321.057.321.057.321.048.321.057.33.057.322.057.321.057.321.048.33.057.331.057.321.057.33.057.331.057.321.057.33.057.331.057.33.067.331.057.33.057.331.057.34.057.33.067.331.057.339.057.331.067.34.057.34.057.33.066.34.057.34.067.34.057.34.067.34.057.34.066.34.067.34.057.34.067.34.066.349.057.34.067.349.067.34.066.35.067.349.057.34.076.349.057.35.067.349.066.35.067.349.067.349.066.35.076.358.067.35.066.349.067.359.067.349.066.359.076.35.067.358.066.359.077.35.066.358.067.359.076.359.067.359.076.359.066.359.076.368.067.359.076.358.076.369.067.359.076.368.076.359.067.368.076.368.076.359.076.368.076.368.067.369.076.368.076.368.076.369.076.368.076h.009l.359.076.378.076.368.086.378.076.368.076.378.076.368.077.378.085.377.076.369.077.377.076.378.085.378.076.377.086.378.076.378.086.387.076.378.085.377.077.378.085.387.076.378.086.387.086.387.076.378.085.387.086.387.086.387.076.388.085.387.086.387.086.387.085.387.086.387.085.387.086.397.086.387.085.387.086.397.086.397.085.387.095-.085.372-.397-.086-.387-.086-.397-.085-.387-.086-.396-.086-.388-.085-.387-.076-.396-.086-.387-.086-.388-.085-.387-.076-.387-.086-.387-.086-.387-.076-.387-.085-.378-.077-.387-.085-.387-.086-.378-.076-.387-.076-.378-.086-.387-.076-.378-.085-.377-.076-.378-.077-.387-.085-.378-.076-.378-.076-.377-.077-.378-.076-.378-.085-.368-.076-.378-.077-.377-.076-.369-.076-.377-.076-.369-.076-.377-.076-.369-.076-.377-.076-.369-.067-.368-.076-.368-.076-.368-.076-.369-.076-.368-.067-.368-.076-.368-.076-.369-.076-.368-.067-.359-.076-.368-.067-.359-.076-.368-.066-.359-.077-.368-.066-.359-.076-.359-.067-.359-.076-.359-.067-.358-.066-.359-.076-.359-.067-.359-.067-.359-.066-.358-.067-.35-.076-.359-.066-.358-.067-.35-.067-.359-.066-.349-.067-.349-.066-.35-.067-.349-.067-.359-.066-.349-.067-.35-.057-.349-.066-.34-.067-.349-.067-.35-.066-.349-.057-.34-.067-.35-.067-.339-.057-.35-.066-.34-.057-.349-.067-.34-.067-.34-.057-.34-.066-.34-.057-.34-.057-.34-.067-.34-.057-.34-.057-.33-.067-.34-.057-.34-.057-.33-.067-.34-.057-.331-.057-.34-.057-.33-.057-.331-.057-.33-.057-.34-.057-.331-.057-.33-.057-.321-.057-.331-.058-.33-.057-.331-.057-.33-.057-.321-.057-.331-.057-.321-.048-.33-.057-.321-.057-.321-.047-.331-.057-.321-.057-.321-.048-.321-.057-.321-.048-.321-.057-.312-.047-.321-.057-.321-.048-.311-.057-.322-.048-.321-.057-.311-.047-.321-.048-.312-.048-.311-.057-.312-.047-.312-.048-.311-.047-.312-.048-.311-.057-.312-.038-.312-.057-.311-.048-.312-.047-.302-.048-.312-.047-.302-.038-.311-.048-.303-.048-.302-.047-.302-.048-.312-.047-.151-.02-.151-.018-.302-.048-.302-.048-.302-.047-.293-.038-.302-.048-.302-.038-.293-.047-.302-.048-.302-.038-.293-.048-.293-.038-.302-.047-.293-.038-.292-.048-.293-.038-.293-.038-.292-.048-.293-.038-.293-.038-.293-.038-.283-.047-.293-.038-.292-.038-.284-.038-.292-.038-.284-.039-.283-.038-.293-.038-.283-.038-.283-.038-.283-.038-.284-.038-.283-.038-.274-.038-.283-.038-.283-.029-.284-.038-.274-.038-.283-.038-.274-.028-.283-.038-.274-.038-.274-.029-.273-.038-.274-.029-.274-.038-.274-.038-.274-.028-.274-.038-.273-.029-.274-.028-.265-.038-.274-.029-.264-.038-.274-.029-.264-.028-.265-.029-.273-.038-.265-.028-.264-.029-.265-.028-.264-.029-.264-.028-.265-.029-.255-.029-.264-.038-.264-.019-.255-.028-.265-.029-.255-.028-.255-.029-.264-.028-.255-.029-.255-.028-.255-.02-.255-.028-.255-.029-.255-.028-.255-.02-.245-.028-.255-.028-.246-.02-.255-.028-.245-.019-.198-.019-.057-.01-.246-.018-.245-.029-.255-.019-.246-.028-.245-.02-.246-.019-.245-.028-.236-.02-.246-.018-.245-.029-.236-.019-.246-.019-.236-.019-.245-.019-.236-.019-.246-.028-.236-.02-.236-.018-.236-.02-.236-.018-.236-.02-.227-.009-.236-.02-.227-.018-.236-.01-.226-.019-.236-.019-.227-.01-.227-.018-.226-.01-.236-.019-.217-.01-.227-.009-.227-.019-.226-.01-.227-.009-.217-.01-.227-.018h-.217l-.217-.02-.227-.009-.217-.01h-.217l-.217-.009-.217-.01-.218-.009-.207-.01h-.218l-.217-.009-.207-.01h-.218l-.207-.009h-.218l-.207-.01h-.416l-.208-.01h-.415l-.208-.009h-2.219l-.198.01h-.397l-.188.01h-.397l-.189.009h-.189l-.198.01h-.189l-.189.009-.189.01h-.188l-.199.009-.179.01h-.189l-.189.01-.189.009-.179.01-.189.009-.179.01-.189.009h-.18l-.179.019-.189.01-.179.009-.18.01-.179.009-.18.01-.179.009-.179.01-.17.018-.18.01-.179.01-.17.018-.18.01-.17.01-.17.018-.179.01-.17.019-.17.01-.17.018-.17.01-.17.019-.17.01-.075.01-.095.009-.16.019-.17.01-.17.018-.161.02-.17.018-.16.01-.161.019-.17.019-.16.019-.161.019-.16.019-.161.019-.16.019-.161.019-.16.019-.151.019-.161.019-.16.02-.152.018-.16.02-.151.018-.161.02-.151.018-.151.029-.151.019-.151.019-.161.019-.151.028-.151.02-.141.028-.151.019-.151.019-.152.029-.141.019-.151.019-.142.028-.151.029-.142.019-.151.019-.141.028-.142.029-.142.019-.141.028-.142.02-.142.028-.141.029-.142.019-.141.028-.133.029-.141.019-.142.028-.132.029-.142.028-.132.02-.142.028-.132.028-.132.029-.132.029-.132.019-.142.028-.132.029-.132.028-.123.029-.132.028-.133.029-.132.028-.132.029-.123.028-.132.029-.123.029-.132.028-.123.029-.122.028-.133.029-.122.028-.123.029-.123.028-.123.029-.132.028-.113.029-.123.028-.123.029-.122.038-.123.029-.123.028-.113.029-.123.028-.113.029-.123.038-.113.028-.123.029-.113.028-.114.029-.113.038-.113.029-.123.028-.113.029-.114.038-.113.028-.113.029-.104.038-.114.028-.113.029-.113.029-.104.038-.113.028-.104.029-.114.038-.103.028-.114.029-.104.038-.103.028-.114.029-.104.029-.103.038-.104.028-.104.038-.104.029-.104.028-.104.038-.104.029-.104.028-.094.038-.104.029-.104.029-.094.038-.104.028-.104.029-.094.038-.095.028-.104.038-.094.029-.094.028-.104.039-.095.028-.189.067-.188.057-.19.066-.188.067-.18.057-.179.067-.189.066-.18.067-.179.057-.17.067-.179.057-.18.066-.179.067-.189.066-.189.067-.188.076-.19.067-.198.076-.198.066-.198.077-.198.076-.208.076-.208.076-.208.076-.207.076-.218.076-.425.162-.434.162-.444.161-.444.172-.453.171-.462.171-.454.172-.472.18-.462.181-.473.171-.472.181-.472.18-.472.182-.472.18-.482.181-.472.19-.472.181-.463.181-.472.18-.462.172-.463.18-.453.182-.463.17-.444.182-.444.17-.434.163-.434.17-.425.163-.822.323-.784.305-.745.295-.709.276-.66.256-.614.238-.397.162h6.714l9.083.01h.255l10.907.009h8.857l2.37.01h5.335l4.957.01 4.401.009h3.701l1.539.01h3.126l.075.009h.085l.076-.01h.661l.075-.01h.284l.066-.009h.207l.067-.01h.132l.066-.009h.066l.066-.01h.123l.066-.009H133l.066-.01h.066l.056-.009h.067l.056-.01h.066l.057-.01.057-.009h.056l.066-.01h.057l.057-.009.056-.01h.057l.057-.009.056-.01H134l.057-.009.057-.01.056-.009h.057l.047-.01.057-.009.047-.01.057-.009.047-.01h.057l.047-.009.057-.01.047-.009.047-.01.057-.009.047-.01.047-.009.047-.01.048-.009.047-.01.056-.009.048-.01.047-.009.047-.01.038-.009.047-.01.047-.009.047-.01.048-.009.047-.01.038-.019.047-.01.047-.009.038-.01.047-.009.038-.019.047-.01.047-.009.038-.01.038-.018.047-.01.038-.01.047-.018.038-.01.038-.01.047-.018.037-.01.038-.01.038-.018.038-.01.047-.01.038-.019.038-.018.037-.01.038-.01.038-.019.038-.01.037-.018.038-.01.038-.019.038-.01.038-.018.037-.02.038-.009.038-.019.038-.01.037-.018.029-.02.037-.009.038-.019.038-.019.038-.01.028-.019.038-.018.038-.02.037-.009.029-.02.037-.018.038-.02.029-.018.037-.01.038-.019.028-.019.038-.019.038-.019.028-.019.038-.019.028-.01.038-.018.029-.02.037-.018.038-.02.028-.018.038-.02.029-.018.037-.02.029-.019.037-.019.029-.019.037-.019.029-.019.038-.028.066-.038.066-.038.066-.038.066-.048.066-.038.066-.048.066-.038.066-.047.066-.048.067-.038.066-.047.066-.048.066-.048.066-.047.066-.048.066-.047.066-.048.066-.047.076-.048.066-.057.066-.048.066-.047.076-.057.141-.105.142-.105.142-.104.151-.114.151-.105.151-.124.16-.114.076-.057.085-.057.075-.057.085-.057.085-.067.085-.057.085-.067.085-.057.085-.066.095-.057.085-.067.094-.067.085-.057.095-.066.094-.067.094-.066.048-.02.056-.028.057-.01h.057l.547.02.548.018.548.02.547.019.255.009.284.019.547.02.538.018.529.02.538.028.529.019.529.019.529.028.529.02.519.028.519.019.52.028.51.02.519.028.51.019.51.029.5.028.51.02.501.028.5.028.5.02.491.028.491.028.492.029.491.028.481.02.491.028.482.028.481.03.472.028.473.028.472.029.472.028.472.029.463.028.472.029.453.028.463.029.462.028.454.039.453.028.444.029.453.028.444.029.444.028.443.038.435.029.443.028.435.038.434.029.425.029.434.028.425.038.425.029.416.038.425.028.415.029.416.038.415.028.406.038.406.03.406.028.406.038.406.028.397.038.396.038.397.029.397.038.387.028.387.039.387.028.387.038.378.029.387.038.368.028.378.038.378.038.368.029.368.038.369.029.368.038.359.038.358.028.359.038.359.029.349.038.35.038.349.028.35.039.34.038.349.038.34.028.34.038.33.029.34.038.331.038.33.028.321.039.331.038.321.038.321.028.321.038.311.029.312.038.312.038.311.028.312.039.302.038.302.038.302.028.303.038.292.029.302.038.293.038.283.028.293.038.283.029.284.038.283.038.283.029.274.038.274.028.274.038.274.038.264.029.264.038.265.028.264.039.265.028.255.038.255.029.254.038.246.028.255.038.245.029.246.038.245.028.237.039.245.028.236.029.227.038.236.028.226.038.227.029.227.028.226.038.217.029.227.028.217.03.208.037.217.029.208.028.208.029.207.038.208.028.198.029.208.028.189.029.198.028.199.03.188.028.189.028.189.029.18.028.188.029.18.028.179.029.18.028.34.058.34.057.33.047.321.057.312.048.311.047.293.058.293.047.274.048.273.047.255.038.255.048.246.047.236.038.236.038.217.048.208.038.208.038.198.029.179.038.18.038.17.028.17.029.151.029.141.028.133.029h.009l.123.028.122.02.114.028.104.019.094.019.085.019.151.028.113.029.085.01.048.009.019.01-.085.37h-.019l-.048-.009-.085-.02-.113-.018-.141-.029-.095-.019-.094-.019-.095-.019-.113-.028-.123-.02-.123-.028h-.009l-.132-.019-.142-.028-.16-.029-.161-.029-.17-.038-.17-.028-.189-.038-.198-.038-.198-.029-.217-.038-.218-.038-.226-.038-.236-.047-.246-.038-.255-.048-.264-.038-.265-.048-.283-.047-.293-.048-.292-.047-.302-.048-.312-.048-.321-.057-.331-.047-.34-.057-.349-.048-.17-.029-.179-.028-.18-.029-.189-.019-.179-.038-.189-.019-.189-.028-.189-.029-.198-.028-.198-.029-.189-.028-.208-.029-.198-.029-.208-.028-.198-.038-.217-.029-.208-.028-.208-.029-.217-.028-.217-.029-.217-.028-.227-.038-.217-.029-.227-.029-.226-.028-.236-.029-.227-.038-.236-.028-.236-.029-.236-.038-.246-.028-.245-.029-.236-.028-.255-.039-.246-.028-.255-.038-.245-.029-.265-.028-.254-.038-.255-.029-.265-.028-.264-.038-.265-.029-.273-.038-.265-.029-.274-.038-.274-.028-.283-.038-.274-.029-.283-.028-.283-.038-.283-.029-.293-.038-.293-.028-.293-.039-.292-.028-.293-.038-.302-.029-.302-.038-.303-.028-.302-.038-.311-.029-.312-.038-.312-.028-.311-.038-.312-.029-.321-.038-.321-.029-.321-.038-.33-.028-.321-.038-.331-.029-.33-.038-.331-.029-.34-.037-.34-.03-.34-.037-.34-.029-.349-.038-.34-.028-.349-.038-.35-.029-.359-.038-.349-.028h-.009l-.35-.038-.368-.03-.359-.037-.359-.029-.368-.038-.368-.028-.378-.029-.368-.038-.378-.028-.378-.038-.377-.029-.378-.028-.387-.039-.387-.028-.387-.038-.388-.029-.396-.028-.397-.038-.396-.029-.397-.028-.406-.029-.397-.038-.406-.029-.415-.028-.406-.038-.416-.029-.415-.028-.416-.029-.415-.028-.425-.038-.425-.029-.425-.028-.425-.029-.434-.029-.434-.028-.435-.029-.434-.028-.444-.038-.434-.029-.444-.028-.453-.029-.444-.028-.453-.029-.454-.029-.453-.028-.453-.029-.463-.019-.462-.028-.463-.029-.463-.028-.472-.029-.472-.028-.472-.02-.472-.028-.473-.029-.481-.028-.482-.02-.481-.028-.491-.028-.482-.02-.5-.028-.491-.019-.491-.028-.501-.02-.5-.028-.501-.019-.5-.028-.51-.02-.501-.028-.519-.019-.51-.02-.519-.028-.51-.019-.519-.019-.529-.019-.519-.028-.529-.02-.529-.018-.529-.02-.538-.018-.529-.02-.538-.018-.538-.02-.293-.009-.255-.01-.538-.019-.548-.019-.557-.019-.425-.01-.094.058-.085.067-.095.057-.085.066-.085.057-.094.067-.085.057-.085.067-.085.057-.076.057-.085.066-.075.057-.085.058-.076.057-.085.066-.151.114-.151.115-.151.104-.151.114-.142.115-.141.104-.142.105-.075.048-.067.057-.075.047-.066.057-.066.048-.076.047-.066.048-.066.057-.076.048-.066.047-.066.048-.066.047-.075.048-.067.048-.066.047-.066.048-.075.038-.066.047-.066.048-.067.048-.075.038-.066.047-.076.038-.028.029-.038.019-.038.019-.037.019-.029.019-.037.028-.038.02-.038.018-.028.02-.038.019-.038.019-.038.018-.037.03-.029.018-.038.02-.037.018-.038.02-.038.018-.038.02-.037.018-.038.02-.028.018-.038.02-.047.018-.029.02-.038.018-.037.01-.048.019-.028.019-.047.019-.038.02-.038.018-.037.02-.038.009-.038.019-.038.019-.047.019-.038.019-.037.01-.038.018-.038.02-.047.009-.038.019-.038.019-.047.01-.038.018-.037.02-.048.009-.037.019-.048.01-.037.019-.048.019-.037.01-.048.018-.047.01-.038.019-.047.01-.038.018-.047.01-.047.01-.047.018-.038.01-.047.019-.047.01-.048.009-.047.019-.047.01-.047.009-.038.019-.047.01-.048.009-.056.01-.047.018-.048.01-.047.01-.047.01-.047.009-.047.019-.057.01-.047.009-.048.01-.056.009-.047.01-.057.009-.047.01-.057.009-.047.01-.057.009-.047.01-.057.009-.056.01-.048.009-.056.01-.057.009-.056.01-.048.009-.066.01-.047.009h-.057l-.056.01-.066.009-.057.01h-.057l-.056.009-.057.01-.057.009h-.066l-.056.01-.057.009h-.066l-.057.01-.066.009h-.057l-.066.01-.066.01h-.056l-.067.009h-.066l-.066.01h-.066l-.057.009h-.066l-.066.01h-.141l-.066.009h-.133l-.066.01h-.075l-.066.009h-.218l-.066.01h-.292l-.076.009h-.774l-.775.01h-4.239l-3.352.009h-4.401l-4.957.01-5.335.009h-5.581l-5.646.01-10.907.009h-.255l-9.083.01h-8.98l-.076-.01-.066-.02-.075-.028-.057-.038-.057-.057-.047-.057-.028-.067-.02-.066-.009-.076v-.077l.02-.066.028-.067.047-.066.047-.057.066-.038.066-.039.17-.066.5-.19.246-.105.113-.038.425-.171.5-.19.549-.22.604-.237.66-.257.709-.276.755-.295.784-.305.822-.323.425-.162.434-.171.434-.162.444-.171.444-.18.463-.172.453-.18.462-.172.463-.18.472-.182.472-.18.473-.181.472-.181.472-.18.481-.182.472-.18.473-.181.472-.18.472-.182.463-.18.472-.172.462-.17.454-.172.453-.171.453-.172.434-.161.444-.162.425-.162.217-.086.208-.076.208-.076.208-.076.207-.067.199-.076.198-.076.198-.066.199-.076.198-.067.189-.076.189-.067.188-.066.18-.067.18-.057.179-.067.18-.066.178-.067.18-.057.18-.067.188-.066.189-.057.18-.067.198-.066.188-.058.19-.066.103-.029.095-.038.094-.028.104-.038.094-.029.104-.028.095-.038.104-.029.103-.038.104-.029.095-.028.104-.038.103-.029.104-.028.104-.038.104-.029.104-.028.104-.039.113-.028.104-.038.104-.029.104-.028.113-.029.104-.038.113-.028.104-.038.113-.029.104-.028.114-.029.113-.038.113-.029.113-.028.104-.038.114-.029.113-.028.113-.038.114-.029.122-.028.114-.029.113-.038.113-.029.123-.028.113-.029.123-.038.114-.028.122-.029.114-.028.122-.029.123-.038.123-.029.113-.028.123-.029.123-.028.122-.029.123-.038.132-.028.123-.029.123-.028.123-.029.132-.028.123-.029.122-.029.133-.028.132-.029.122-.028.133-.029.132-.028.123-.029.132-.028.132-.029.132-.028.132-.029.133-.029.132-.028.132-.02.142-.028.132-.028.132-.029.142-.028.132-.029.141-.019.133-.028.141-.029.142-.028.132-.029.142-.02.141-.028.142-.028.142-.02.141-.028.142-.019.151-.028.142-.029.141-.019.151-.028.142-.02.142-.028.151-.019.151-.029.142-.019.151-.028.151-.02.151-.018.151-.029.151-.019.151-.019.151-.028.151-.02.151-.018.151-.029.161-.019.151-.019.16-.019.152-.019.16-.02.151-.028.161-.019.16-.019.161-.019.16-.019.161-.019.16-.019.161-.019.16-.01.161-.018.17-.02.16-.018.17-.02.161-.018.16-.02.17-.009.17-.019.17-.02.17-.009.161-.019.094-.01.076-.009.17-.01.17-.018.179-.01.17-.019.17-.01.17-.018.179-.01.17-.01.18-.018.179-.01.17-.01.18-.018.179-.01.179-.01.18-.009.179-.01.18-.009.179-.01.179-.009.189-.019h.18l.179-.01.189-.009.189-.01.179-.01.189-.009.189-.01h.189l.189-.009.188-.01h.189l.189-.009.189-.01h.189l.198-.009h.189l.198-.01h.189l.198-.009h.586l.198-.01h1.407zM24.702 47.258l.038.067.028.076.038.067.038.066.037.067.038.076.038.066.038.067.037.067.038.066.047.076.038.067.038.067.038.066.047.067.038.066.038.067.037.067.048.066.037.067.047.066.038.067.047.067.038.066.047.057.038.067.047.066.048.067.037.067.048.057.047.066.047.067.038.057.047.067.047.066.047.057.048.067.047.057.047.067.047.066.048.057.047.067.047.057.047.057.047.067.048.057.056.066.047.057.048.058.047.066.057.057.047.057.047.058.057.066.047.057.056.057.048.057.047.057.057.057.047.058.057.057.056.057.047.057.057.057.057.057.047.057.056.057.057.057.047.057.057.057.057.048.056.057.057.057.057.057.056.048.057.057.047.057.057.048.066.057.047.057.066.047.057.057.057.048.056.057.057.048.057.047.056.057.066.048.029.028.028.029.057.047.066.048.056.057.057.048.066.047.057.048.056.047.067.048.056.057.066.048.057.047.066.048.057.047.066.048.066.048.057.038.066.047.056.048.066.047.067.048.056.047.066.048.066.038.066.048.067.047.056.038.066.048.066.038.067.047.066.048.066.038.066.038.066.048.066.038.066.047.066.038.066.038.066.048.02.01.046.028.067.038.066.038.066.048.075.038.066.038.067.038.066.038.066.038.075.038.066.038.066.038.076.038.066.038.066.038.076.038.066.039.075.028.066.038.067.038.075.029.066.038.076.038.066.028.075.038.076.03.066.037.076.029.066.038.075.028.066.038.076.029.075.028.076.039.066.028.076.029.075.028.076.029.066.028.047.02.028.009.076.038.075.028.076.029.066.028.076.02.075.028.076.029.075.028.076.029.075.028.076.02.075.028.076.028.075.02.076.028.075.028.076.02.076.028.075.019.076.028.075.02.085.019.076.028.075.02.076.018.075.02.076.028.085.019.075.019.076.019.076.019.085.019.075.019.076.019.085.019.075.019.057.01.019.01.085.018.075.02.076.009.085.019.075.019.085.019.076.01.075.018.085.01.076.019.085.01.075.018.085.01.076.019.085.01.075.009.085.01.076.018.085.01.085.01.075.009.085.01.076.009.085.01.085.019h.075l.085.01.085.009.085.01.076.009.085.01h.085l.075.009.085.01.085.009h.085l.076.01h.085l.085.009h.085l.085.01h.16l.085.009h.255l.085.01h.605l.075-.01h.274l.076-.01h.207l.076-.01h.066l.066-.009h.142l.075-.01h.066l.066-.009.076-.01h.066l.066-.009h.076l.066-.01.066-.009.075-.01h.066l.067-.009.075-.01.066-.009.066-.01.076-.009h.066l.066-.01.066-.009.076-.01.066-.009.066-.01.066-.01.066-.009.076-.019.066-.01.066-.009.066-.01.066-.009.019-.01.057-.009.066-.01.066-.009.066-.01.066-.018.066-.01.066-.01.066-.018.066-.01.076-.019.066-.01.066-.018.066-.01.066-.019.066-.01.067-.019.066-.019.066-.009.066-.02.066-.018.066-.01.066-.019.066-.019.057-.019.066-.019.066-.01.066-.018.066-.02.066-.018.066-.02.067-.018.066-.02.066-.018.056-.02.067-.019.066-.019.066-.028.066-.02.038-.009.028-.01.057-.018.066-.02.066-.018.066-.029.056-.019.067-.019.066-.028.056-.02.066-.018.067-.029.056-.019.066-.029.066-.019.057-.028.066-.02.066-.028.057-.019.066-.028.057-.02.066-.028.066-.028.056-.02.067-.028.056-.029.066-.018.057-.029.066-.029.057-.028.066-.029.057-.028.056-.02.066-.028.057-.028.066-.029.057-.028.056-.029.066-.028.057-.03.019-.009.047-.019.057-.028.056-.029.057-.028.066-.029.057-.038.057-.028.066-.029.056-.029.057-.038.057-.028.056-.029.066-.028.057-.038.057-.029.056-.028.057-.038.057-.029.056-.038.067-.029.056-.028.057-.038.056-.029.057-.038.057-.028.056-.038.057-.038.057-.029.056-.038.057-.038.057-.029.056-.038.057-.038.047-.028.057-.038.056-.038.057-.038.057-.038.056-.038.048-.029.056-.038.057-.038.057-.038.056-.038.047-.038.057-.038.057-.038.047-.038.057-.039.056-.038.048-.038.056-.038.057-.038.047-.047.057-.038.047-.038.057-.038.047-.039.056-.047.048-.038.056-.038.048-.038.056-.048.047-.038.057-.047.047-.039.047-.038.057-.047.047-.038.057-.048.047-.038.047-.038.048-.047.056-.048.048-.038.047-.048.047-.038.057-.047.047-.038.047-.048.047-.048.047-.038.057-.047.047-.048.048-.038.047-.047.047-.048.047-.048.047-.047.048-.038.047-.048.047-.047.047-.048.047-.047.048-.048.047-.048.038-.038.047-.047.047-.048.047-.047.047-.048.048-.047.038-.058.047-.038.047-.057.047-.047.038-.048.047-.047.047-.048.038-.048.047-.047.038-.057.047-.048.047-.047.038-.048.047-.057.038-.048.047-.047.038-.048.047-.057.038-.047.047-.048.038-.057.038-.048.047-.057.038-.047.038-.048.038-.057.047-.048.037-.057.038-.047.321.219-.037.057-.038.057-.038.047-.038.057-.047.057-.038.058-.038.047-.037.057-.038.057-.047.048-.038.057-.038.048-.047.057-.038.057-.047.047-.038.057-.038.048-.047.057-.038.048-.047.057-.038.047-.047.057-.047.048-.038.057-.047.048-.038.047-.047.057-.047.048-.038.047-.047.058-.047.047-.047.048-.038.047-.047.057-.048.048-.047.047-.047.048-.047.057-.048.048-.037.047-.047.048-.048.047-.047.048-.047.047-.047.048-.048.048-.047.057-.047.047-.057.048-.047.047-.047.038-.047.048-.047.048-.048.047-.047.048-.057.047-.047.048-.047.047-.047.039-.057.047-.047.048-.047.047-.057.048-.047.038-.047.047-.057.048-.047.038-.057.048-.047.047-.057.038-.047.048-.057.038-.047.048-.057.038-.056.047-.047.038-.057.048-.047.038-.057.047-.057.038-.047.048-.056.038-.057.038-.047.048-.057.038-.057.038-.056.047-.057.038-.047.039-.057.038-.056.047-.057.038-.057.038-.056.038-.057.038-.057.038-.047.039-.057.038-.056.038-.057.047-.057.029-.056.038-.057.038-.057.038-.066.038-.056.038-.057.038-.057.038-.056.038-.057.038-.057.029-.066.038-.056.038-.057.038-.057.029-.066.038-.056.038-.057.028-.057.038-.066.038-.056.029-.057.038-.066.029-.057.038-.066.028-.057.038-.056.029-.066.028-.057.038-.066.029-.038.019-.019.019-.066.028-.057.029-.066.029-.056.038-.066.028-.057.029-.066.028-.066.038-.057.029-.066.028-.066.029-.057.028-.066.029-.066.029-.057.028-.066.029-.066.028-.056.029-.067.028-.066.029-.066.028-.066.02-.056.028-.067.028-.066.029-.066.019-.066.029-.066.028-.057.029-.066.019-.066.028-.066.02-.066.028-.066.028-.066.02-.066.028-.067.019-.066.019-.018.01-.048.018-.066.02-.066.028-.066.02-.066.018-.066.029-.066.019-.076.019-.066.019-.066.028-.066.02-.066.018-.066.02-.066.018-.076.02-.066.018-.066.02-.066.019-.076.019-.066.019-.066.019-.066.019-.076.019-.066.019-.066.01-.075.018-.066.02-.067.018-.075.01-.066.019-.066.019-.076.01-.066.018-.066.01-.076.019-.066.019-.075.01-.066.009-.057.019h-.019l-.066.01-.075.019-.067.01-.075.009-.066.019-.076.01-.066.009-.075.01-.066.018-.076.01-.066.01-.076.009-.066.01-.075.009-.076.01-.066.009-.075.01-.076.009-.066.01-.076.009h-.075l-.066.01-.076.009-.075.01-.066.009h-.076l-.076.01-.066.009h-.075l-.076.01h-.075l-.066.009h-.076l-.075.01h-.076l-.066.009h-.151l-.076.01h-.293l-.075.009h-.737l-.094-.01h-.255l-.085-.009h-.094l-.085-.01h-.085l-.085-.009h-.095l-.085-.01h-.085l-.085-.009-.085-.01h-.047l-.047-.01h-.085l-.085-.009-.085-.01-.085-.009-.085-.01-.085-.009-.085-.019-.085-.01-.085-.009-.085-.01-.085-.009-.085-.019-.085-.01-.085-.009-.085-.019-.085-.01-.085-.018-.085-.01-.085-.019-.085-.01-.085-.018-.085-.02-.075-.009-.085-.019-.085-.019-.085-.02-.085-.018-.076-.02-.085-.009-.085-.028-.085-.01-.019-.01-.056-.018-.085-.02-.085-.018-.076-.02-.085-.018-.085-.029-.075-.019-.085-.019-.076-.029-.085-.019-.085-.019-.075-.028-.085-.029-.076-.019-.085-.028-.075-.02-.085-.028-.076-.028-.075-.02-.085-.028-.076-.029-.075-.028-.085-.029-.076-.028-.075-.029-.086-.028-.075-.029-.076-.028-.084-.029-.076-.028-.076-.029-.075-.028-.076-.029-.085-.038-.075-.029-.076-.028-.075-.038-.029-.01-.047-.019-.075-.028-.076-.038-.075-.029-.076-.038-.076-.029-.075-.038-.076-.038-.075-.028-.076-.038-.066-.038-.075-.038-.076-.029-.075-.038-.076-.038-.066-.038-.076-.038-.075-.038-.076-.038-.066-.038-.075-.038-.076-.038-.066-.038-.075-.038-.067-.038-.075-.048-.076-.038-.066-.038-.075-.048-.066-.038-.076-.038-.066-.047-.066-.038-.076-.039-.066-.047-.066-.038-.076-.048-.066-.038-.066-.047-.056-.038-.02-.01-.065-.038-.066-.048-.067-.047-.066-.048-.066-.038-.075-.047-.066-.048-.066-.047-.066-.048-.067-.048-.066-.047-.066-.048-.066-.047-.066-.048-.057-.047-.066-.048-.066-.048-.066-.047-.066-.048-.066-.057-.057-.047-.066-.048-.066-.048-.057-.057-.066-.047-.066-.048-.056-.057-.067-.048-.066-.057-.056-.047-.066-.057-.057-.048-.057-.057-.066-.048-.056-.057-.067-.057-.056-.047-.057-.057-.038-.029-.028-.028-.057-.048-.056-.057-.057-.057-.066-.057-.057-.057-.056-.057-.057-.057-.057-.048-.056-.057-.057-.057-.057-.057-.056-.057-.057-.057-.057-.067-.056-.057-.057-.057-.047-.057-.057-.057-.056-.058-.057-.057-.047-.066-.057-.057-.057-.057-.056-.067-.048-.057-.056-.057-.047-.067-.057-.057-.047-.057-.057-.067-.047-.057-.047-.066-.057-.057-.047-.067-.057-.066-.047-.058-.047-.066-.047-.057-.048-.067-.056-.066-.048-.058-.047-.066-.047-.067-.047-.066-.047-.057-.048-.067-.047-.067-.047-.066-.047-.067-.048-.066-.047-.067-.037-.057-.048-.067-.047-.066-.047-.067-.038-.067-.047-.066-.047-.076-.038-.067-.047-.067-.038-.066-.047-.067-.038-.066-.047-.067-.038-.076-.038-.067-.047-.066-.038-.067-.038-.066-.047-.077-.038-.066-.037-.067-.038-.076-.038-.066-.038-.077-.037-.066-.038-.067-.038-.076-.038-.066-.038-.077-.037-.066-.038-.076-.038-.067-.028-.076-.038-.067-.038-.076-.037-.076-.029-.067-.038-.076.36-.161.037.066zm166.218 2.588l-.037.057-.038.048-.047.057-.038.047-.038.058-.047.047-.038.048-.047.057-.038.047-.038.058-.047.047-.038.048-.047.057-.038.047-.047.048-.038.057-.047.047-.038.048-.047.048-.047.057-.038.047-.047.048-.047.047-.038.048-.047.048-.047.047-.038.057-.047.048-.048.047-.047.048-.047.048-.038.047-.047.048-.047.047-.047.048-.048.047-.047.048-.047.038-.047.048-.048.047-.047.048-.047.047-.047.048-.047.038-.048.047-.047.048-.047.048-.047.038-.047.047-.057.048-.047.038-.048.047-.047.048-.047.038-.057.048-.047.047-.047.038-.047.048-.057.038-.047.048-.047.038-.057.047-.047.038-.057.038-.047.048-.047.038-.057.047-.047.039-.057.038-.047.047-.057.038-.047.038-.057.038-.047.048-.056.038-.048.038-.056.038-.057.038-.047.048-.057.038-.047.038-.057.038-.056.038-.048.038-.056.038-.057.038-.057.038-.056.038-.047.038-.057.038-.057.038-.056.029-.048.038-.056.038-.057.038-.057.038-.056.038-.057.029-.057.038-.056.038-.057.029-.056.038-.057.038-.057.028-.056.038-.057.038-.057.029-.056.038-.057.028-.057.038-.056.029-.057.038-.057.029-.056.038-.066.028-.057.029-.057.038h-.009l-.047.028-.057.029-.057.038-.066.029-.056.028-.057.029-.057.038-.066.028-.057.029-.056.028-.066.029-.057.028-.057.029-.066.028-.056.038-.057.029-.066.029-.057.028-.066.02-.057.028-.056.028-.066.029-.057.028-.066.029-.057.028-.066.02-.056.028-.067.029-.056.028-.066.02-.057.028-.066.028-.066.02-.057.028-.066.028-.057.02-.066.028-.066.019-.056.028-.067.02-.066.028-.056.019-.066.02-.066.028-.057.019-.066.019-.066.028-.066.02-.057.018-.066.029-.066.019-.066.019-.066.019-.057.019-.066.029-.066.019-.066.018-.067.02-.066.019-.066.019-.056.019-.066.019-.067.019-.066.019-.066.01-.066.018-.066.02-.066.018-.066.02-.047.009-.019.01-.066.009-.066.019-.067.019-.066.01-.066.018-.066.02-.066.009-.066.02-.066.009-.066.019-.066.019-.066.01-.067.018-.066.01-.075.01-.066.018-.066.01-.066.01-.067.018-.066.01-.066.01-.075.009-.066.019-.067.01-.066.009-.066.01-.075.009-.066.01-.066.009-.067.01-.075.009-.066.01-.066.009-.019.01h-.047l-.076.009-.066.01-.066.01-.076.009-.066.01h-.066l-.066.009-.075.01-.067.009h-.066l-.075.01h-.066l-.076.009-.066.01h-.066l-.076.009h-.066l-.075.01h-.142l-.066.009h-.076l-.066.01h-.207l-.076.009h-.491l-.075.01h-.208l-.066-.01h-.406l-.066-.01h-.142l-.066-.01h-.132l-.066-.009h-.067l-.066-.01h-.132l-.075-.009-.066-.01h-.067l-.066-.009h-.066l-.066-.01-.066-.009h-.066l-.066-.01-.066-.009h-.066l-.066-.01-.067-.009-.066-.01-.066-.009h-.066l-.066-.01-.066-.009-.066-.01-.066-.009-.066-.01-.066-.009-.067-.01-.066-.01-.066-.009-.056-.01-.066-.009-.067-.019-.066-.01-.066-.009-.066-.01-.066-.009-.066-.01-.066-.018-.057-.01-.066-.01-.066-.018-.066-.01-.066-.019-.057-.01-.066-.009-.066-.019-.066-.01-.066-.018-.057-.02-.066-.009-.066-.019-.057-.01-.066-.019-.028-.01h-.038l-.066-.018-.057-.02-.066-.018-.066-.01-.057-.019-.066-.019-.066-.019-.056-.01-.067-.018-.066-.02-.056-.018-.066-.02-.057-.018-.066-.02-.057-.019-.066-.019-.066-.018-.057-.02-.066-.019-.056-.019-.067-.019-.056-.019-.066-.019-.057-.019-.066-.028-.057-.02-.056-.018-.066-.02-.067-.028-.056-.019-.057-.019-.066-.019-.057-.028-.066-.02-.056-.028-.057-.02-.066-.028-.057-.019-.056-.028-.067-.02-.056-.028-.057-.019-.038-.019-.018-.01-.067-.018-.056-.029-.057-.028-.057-.02-.066-.028-.056-.029-.057-.019-.057-.028-.066-.029-.056-.028-.057-.02-.057-.028-.056-.028-.057-.029-.057-.028-.066-.029-.056-.029-.057-.028-.057-.029-.056-.019-.057-.028-.057-.029-.056-.038-.057-.028-.057-.029-.056-.028-.057-.029-.057-.029-.056-.028-.057-.029-.057-.038-.056-.028-.057-.029-.047-.028-.057-.038-.056-.029-.057-.029-.057-.038-.056-.028-.057-.029-.047-.038-.057-.028-.028-.02-.029-.018-.056-.029-.057-.028-.047-.038-.057-.029-.056-.038-.048-.038-.056-.029-.057-.038-.047-.028-.057-.038-.056-.029-.048-.038-.056-.038-.057-.038-.047-.029-.057-.038-.047-.038-.057-.028-.047-.038-.057-.038-.047-.038-.056-.038-.048-.038-.056-.038-.048-.03-.056-.037-.047-.038-.057-.038-.047-.038-.047-.038-.057-.038-.047-.039-.048-.038-.056-.038-.047-.038-.048-.038-.047-.047-.057-.038-.047-.038-.047-.039-.047-.038-.057-.038-.047-.047-.047-.038-.047-.038-.048-.048-.047-.038-.057-.038-.047-.038-.047-.048-.047-.038-.047-.038-.048-.047-.047-.038-.047-.048-.047-.038-.047-.047-.048-.039-.047-.047-.047-.038-.047-.048-.038-.038-.047-.047-.048-.038-.047-.048-.047-.048-.047-.038-.038-.047-.047-.048-.047-.038-.048-.047-.037-.048-.048-.038-.047-.048-.047-.047-.038-.038-.047-.048-.038-.047-.047-.048-.047-.048-.038-.047-.009-.01-.321.305.037.038.038.047.047.058.048.047.037.048.048.047.037.048.048.047.047.048.038.047.047.048.037.048.048.047.047.048.047.047.047.048.038.047.047.039.048.047.047.048.047.047.047.048.038.047.047.038.047.048.048.048.047.047.047.038.047.048.047.047.048.038.047.048.047.048.047.038.048.047.056.038.047.048.048.038.047.047.047.048.047.038.057.048.047.038.047.047.048.038.056.038.047.048.048.038.056.038.047.048.048.038.056.038.048.047.056.038.047.038.048.039.056.047.048.038.056.038.047.038.057.038.057.038.047.038.057.048.047.038.056.038.048.038.056.038.057.038.047.038.057.038.056.038.057.039.047.038.057.028.057.038.056.038.048.038.056.038.057.038.056.029.029.029.028.01.057.037.047.029.057.038.056.038.057.028.057.038.056.038.057.029.057.038.056.029.057.038.057.028.056.038.057.029.057.038.056.028.066.038.057.029.057.029.056.038.057.028.057.029.056.038.066.028.057.029.057.038.056.028.066.029.057.029.057.028.056.029.066.028.057.029.057.038.066.019.057.028.066.038.056.029.057.019.066.029.057.028.066.029.019.01.037.018.057.029.066.028.057.02.066.028.066.028.057.029.066.019.056.028.067.029.056.019.066.029.057.028.066.02.066.028.057.019.066.028.066.02.057.028.066.019.066.028.066.02.057.018.066.029.066.019.056.019.067.029.066.019.066.019.066.019.066.019.057.028.066.02.066.018.066.02.066.018.066.02.066.018.066.02.057.018.066.02.066.019.066.019.038.01.028.009.066.019.067.019.066.01.066.018.066.02.066.018.066.01.066.019.066.019.066.01.066.018.076.01.066.019.066.01.066.018.066.01.066.019.067.01.075.018.066.01.066.01.066.019.067.01.066.009.075.019.066.01.066.009.066.01.076.009.066.01.066.018.066.01.076.01.066.009.066.01.076.009.066.01.066.009.066.01h.075v.009h.067l.075.01.066.009.066.01h.076l.066.009h.075l.067.01.066.009h.075l.066.01h.076l.066.009h.075l.067.01H175l.066.009h.142l.075.01h.208l.076.01h.944l.075-.01h.227l.066-.01h.076l.075-.01h.076l.075-.009h.066l.076-.01h.075l.076-.009h.066l.076-.01.075-.01h.066l.076-.009.075-.01.076-.009.066-.01h.076l.075-.009.066-.01.076-.009.075-.01.066-.009.076-.01.047-.009h.028l.067-.01.075-.009.066-.01.076-.018.075-.01.066-.01.076-.009.066-.019.076-.01.066-.009.075-.019.066-.01.076-.019.066-.009.075-.01.067-.018.075-.01.066-.02.066-.018.076-.01.066-.019.076-.019.066-.01.066-.018.075-.02.066-.018.066-.01.076-.019.066-.019.066-.019.076-.019.066-.019.066-.019h.019l.047-.019.076-.019.066-.019.066-.02.066-.018.066-.02.075-.018.067-.029.066-.019.066-.019.066-.019.066-.019.066-.028.066-.02.076-.018.066-.029.066-.019.066-.029.066-.019.066-.028.066-.02.066-.028.067-.019.066-.028.066-.02.066-.028.066-.028.066-.02.057-.028.066-.029.066-.028.066-.019.066-.029.066-.028.057-.029h.009l.057-.028.066-.029.066-.028.066-.029.066-.019.057-.038.066-.029.066-.028.057-.029.066-.028.066-.029.057-.028.066-.029.066-.028.057-.038.066-.029.056-.028.066-.029.066-.038.057-.029.066-.028.057-.038.066-.029.057-.038.056-.028.066-.029.057-.038.066-.029.057-.037.056-.039.067-.028.056-.038.057-.029.066-.038.047-.028.01-.01.066-.028.056-.038.057-.038.057-.029.056-.038.066-.038.057-.038.057-.038.056-.038.057-.038.057-.038.056-.029.066-.038.057-.038.057-.038.056-.038.057-.038.057-.048.056-.038.057-.038.057-.038.056-.038.057-.038.047-.038.057-.038.057-.048.056-.038.057-.038.057-.038.056-.048.047-.038.057-.038.057-.047.056-.038.048-.048.056-.038.057-.038.047-.048.057-.038.056-.047.048-.038.056-.048.047-.038.057-.047.057-.039.047-.047.047-.048.057-.038.057-.047.047-.048.047-.038.057-.048.047-.047.047-.048.057-.038.047-.047.057-.048.047-.047.047-.048.057-.038.047-.048.047-.047.047-.048.048-.047.056-.048.047-.047.048-.048.047-.048.047-.047.047-.048.047-.047.048-.048.047-.047.047-.058.047-.047.047-.048.048-.047.047-.048.047-.047.047-.057.038-.048.047-.048.048-.047.047-.057.047-.048.038-.047.047-.058.047-.047.038-.048.047-.057.047-.047.038-.057.047-.048.048-.057.037-.048.048-.057.037-.047.048-.057.037-.048.048-.057.037-.048.038-.057.047-.047.038-.057.047-.058.038-.047.038-.057.047-.057.038-.048.038-.057.037-.057.038-.057.047-.048.038-.057.038-.057v-.01l.038-.047.037-.047-.321-.229z" fill="#349E30"/></svg>