<svg width="55" height="35" fill="none" xmlns="http://www.w3.org/2000/svg"><path d="M20.045 3.644H34.9v26.788H20.045V3.644z" fill="#FF5F00"/><path d="M20.988 17.038c0-5.443 2.547-10.27 6.461-13.394A16.837 16.837 0 0016.98 0C7.593 0 0 7.62 0 17.038s7.593 17.038 16.979 17.038c3.962 0 7.593-1.372 10.47-3.644-3.914-3.076-6.461-7.951-6.461-13.394z" fill="#EB001B"/><path d="M54.945 17.038c0 9.418-7.593 17.038-16.979 17.038a16.837 16.837 0 01-10.47-3.644c3.962-3.124 6.462-7.951 6.462-13.394 0-5.443-2.547-10.27-6.462-13.394A16.837 16.837 0 0137.966 0c9.386 0 16.98 7.667 16.98 17.038z" fill="#F79E1B"/><path d="M10.583 19.89v-2.84c0-1.088-.66-1.798-1.792-1.798-.566 0-1.18.19-1.604.805-.33-.52-.801-.805-1.509-.805-.472 0-.943.142-1.32.663v-.568h-.99v4.543h.99v-2.508c0-.805.424-1.183 1.085-1.183.66 0 .99.426.99 1.183v2.508h.99v-2.508c0-.805.472-1.183 1.085-1.183.66 0 .99.426.99 1.183v2.508h1.085zm14.668-4.543h-1.603v-1.373h-.99v1.373h-.897v.899h.896v2.082c0 1.042.424 1.657 1.556 1.657.425 0 .896-.142 1.227-.331l-.283-.852c-.283.189-.613.236-.85.236-.47 0-.66-.284-.66-.757v-2.035h1.604v-.9zm8.395-.095c-.566 0-.943.284-1.179.663v-.568h-.99v4.543h.99v-2.555c0-.758.33-1.184.943-1.184.189 0 .425.048.614.095l.282-.946c-.188-.048-.471-.048-.66-.048zm-12.687.473c-.472-.331-1.132-.473-1.84-.473-1.131 0-1.886.568-1.886 1.467 0 .758.566 1.183 1.557 1.326l.471.047c.52.094.802.236.802.473 0 .331-.377.568-1.038.568-.66 0-1.179-.237-1.509-.473l-.471.757c.518.379 1.226.568 1.933.568 1.32 0 2.076-.615 2.076-1.467 0-.805-.614-1.23-1.557-1.373l-.472-.047c-.424-.047-.754-.142-.754-.426 0-.331.33-.52.849-.52.566 0 1.132.236 1.415.378l.424-.805zm26.317-.473c-.566 0-.943.284-1.179.663v-.568h-.99v4.543h.99v-2.555c0-.758.33-1.184.943-1.184.19 0 .425.048.614.095l.283-.946c-.189-.048-.472-.048-.66-.048zm-12.64 2.367c0 1.372.944 2.366 2.406 2.366.66 0 1.132-.142 1.603-.52l-.471-.805c-.377.284-.755.426-1.18.426-.801 0-1.367-.568-1.367-1.467 0-.852.566-1.42 1.368-1.468.424 0 .802.142 1.179.426l.471-.804c-.471-.379-.943-.52-1.603-.52-1.462 0-2.405.993-2.405 2.366zm9.15 0v-2.272h-.99v.568c-.33-.426-.802-.663-1.415-.663-1.273 0-2.264.994-2.264 2.367 0 1.372.99 2.366 2.264 2.366.66 0 1.132-.237 1.415-.663v.568h.99v-2.27zm-3.631 0c0-.805.518-1.468 1.367-1.468.802 0 1.368.616 1.368 1.468 0 .804-.566 1.467-1.368 1.467-.849-.048-1.367-.663-1.367-1.467zm-11.838-2.367c-1.32 0-2.264.947-2.264 2.367s.943 2.366 2.31 2.366c.661 0 1.322-.19 1.84-.615l-.471-.71c-.378.284-.85.473-1.32.473-.614 0-1.227-.284-1.369-1.089h3.349v-.378c.047-1.467-.802-2.414-2.075-2.414zm0 .852c.613 0 1.038.379 1.132 1.089H27.09c.095-.616.52-1.089 1.227-1.089zm24.572 1.515v-4.07h-.99v2.366c-.33-.426-.802-.663-1.416-.663-1.273 0-2.263.994-2.263 2.367 0 1.372.99 2.366 2.264 2.366.66 0 1.131-.237 1.414-.663v.568h.99v-2.27zm-3.632 0c0-.805.519-1.468 1.368-1.468.802 0 1.368.616 1.368 1.468 0 .804-.566 1.467-1.368 1.467-.849-.048-1.368-.663-1.368-1.467zm-33.108 0v-2.272h-.991v.568c-.33-.426-.802-.663-1.415-.663-1.273 0-2.264.994-2.264 2.367 0 1.372.99 2.366 2.264 2.366.66 0 1.132-.237 1.415-.663v.568h.99v-2.27zm-3.68 0c0-.805.52-1.468 1.368-1.468.802 0 1.368.616 1.368 1.468 0 .804-.566 1.467-1.368 1.467-.848-.048-1.367-.663-1.367-1.467z" fill="#fff"/></svg>