<svg width="55" height="42" fill="none" xmlns="http://www.w3.org/2000/svg"><path d="M10.716 41.292v-2.744c0-1.051-.644-1.737-1.749-1.737-.552 0-1.15.183-1.564.777-.322-.503-.782-.777-1.473-.777-.46 0-.92.137-1.288.64v-.549h-.967v4.39h.967v-2.424c0-.777.414-1.143 1.058-1.143.644 0 .967.412.967 1.143v2.424h.966v-2.424c0-.777.46-1.143 1.058-1.143.645 0 .967.412.967 1.143v2.424h1.058zm14.312-4.39h-1.565v-1.326h-.966v1.326h-.875v.869h.875v2.012c0 1.006.414 1.6 1.518 1.6.414 0 .874-.137 1.197-.32l-.277-.823a1.52 1.52 0 01-.828.229c-.46 0-.644-.274-.644-.732v-1.966h1.564v-.869zm8.19-.091c-.551 0-.92.274-1.15.64v-.549h-.966v4.39h.966v-2.47c0-.73.322-1.142.92-1.142.185 0 .415.045.599.091l.276-.914c-.184-.046-.46-.046-.644-.046zm-12.378.457c-.46-.32-1.105-.457-1.795-.457-1.104 0-1.84.548-1.84 1.417 0 .732.552 1.143 1.518 1.28l.46.046c.507.092.783.229.783.458 0 .32-.368.548-1.013.548-.644 0-1.15-.228-1.472-.457l-.46.732c.506.365 1.196.548 1.886.548 1.289 0 2.025-.594 2.025-1.417 0-.778-.598-1.189-1.519-1.326l-.46-.046c-.414-.046-.736-.137-.736-.411 0-.32.322-.503.828-.503.553 0 1.105.228 1.38.365l.415-.777zm25.678-.457c-.552 0-.92.274-1.15.64v-.549H44.4v4.39h.966v-2.47c0-.73.323-1.142.92-1.142.185 0 .415.045.6.091l.275-.914c-.184-.046-.46-.046-.644-.046zm-12.333 2.286c0 1.326.92 2.286 2.347 2.286.644 0 1.104-.137 1.565-.503l-.46-.777c-.369.274-.737.411-1.151.411-.782 0-1.334-.548-1.334-1.417 0-.823.552-1.372 1.334-1.417.414 0 .782.137 1.15.411l.46-.777c-.46-.366-.92-.503-1.564-.503-1.427 0-2.347.96-2.347 2.286zm8.928 0v-2.195h-.967v.549c-.322-.411-.782-.64-1.38-.64-1.243 0-2.21.96-2.21 2.286s.967 2.286 2.21 2.286c.644 0 1.104-.228 1.38-.64v.549h.967v-2.195zm-3.544 0c0-.777.506-1.417 1.335-1.417.782 0 1.334.594 1.334 1.417 0 .777-.552 1.417-1.334 1.417-.829-.045-1.335-.64-1.335-1.417zm-11.55-2.286c-1.289 0-2.21.914-2.21 2.286 0 1.372.921 2.286 2.256 2.286.644 0 1.288-.183 1.794-.594l-.46-.686c-.368.274-.828.457-1.288.457-.598 0-1.197-.274-1.335-1.052h3.268v-.365c.046-1.418-.783-2.332-2.025-2.332zm0 .823c.598 0 1.012.366 1.104 1.052h-2.3c.091-.595.505-1.052 1.196-1.052zm23.975 1.463v-3.932h-.966v2.286c-.322-.411-.783-.64-1.38-.64-1.243 0-2.21.96-2.21 2.286s.967 2.286 2.21 2.286c.643 0 1.104-.228 1.38-.64v.549h.966v-2.195zm-3.543 0c0-.777.506-1.417 1.334-1.417.783 0 1.335.594 1.335 1.417 0 .777-.552 1.417-1.335 1.417-.828-.045-1.334-.64-1.334-1.417zm-32.305 0v-2.195h-.966v.549c-.322-.411-.783-.64-1.38-.64-1.243 0-2.21.96-2.21 2.286s.967 2.286 2.21 2.286c.643 0 1.104-.228 1.38-.64v.549h.966v-2.195zm-3.59 0c0-.777.507-1.417 1.335-1.417.783 0 1.335.594 1.335 1.417 0 .777-.553 1.417-1.335 1.417-.828-.045-1.334-.64-1.334-1.417z" fill="#000"/><path d="M20.517 3.569h14.496v25.88H20.517V3.57z" fill="#FF5F00"/><path d="M21.438 16.509c0-5.258 2.485-9.922 6.304-12.94A16.53 16.53 0 0017.527.048C8.369.048.96 7.41.96 16.509c0 9.1 7.409 16.461 16.566 16.461a16.53 16.53 0 0010.216-3.52 16.399 16.399 0 01-6.304-12.941z" fill="#EB001B"/><path d="M54.57 16.509c0 9.1-7.408 16.461-16.566 16.461a16.53 16.53 0 01-10.216-3.52 16.33 16.33 0 006.305-12.941c0-5.258-2.486-9.922-6.305-12.94A16.53 16.53 0 0138.004.048c9.158 0 16.567 7.407 16.567 16.461z" fill="#F79E1B"/></svg>