<svg width="52" height="51" fill="none" xmlns="http://www.w3.org/2000/svg"><path d="M34.703 30.838c0-.69-.297-1.068-.745-1.337-.457-.26-1.008-.296-1.762-.296h-3.342v6.072h1.464v-2.21h1.566c.516 0 .839.05 1.032.269.262.278.23.815.23 1.187v.749h1.421v-1.195c0-.538-.032-.807-.227-1.111a1.701 1.701 0 00-.72-.504l.04-.018c.398-.15 1.042-.639 1.042-1.606h.002zm-1.888.873l-.06-.008c-.195.118-.422.128-.72.128h-1.75v-1.355h1.786c.262 0 .515 0 .72.11a.571.571 0 01.32.547c0 .26-.102.46-.287.58l-.009-.002zm11.163 2.264h-2.81v1.297h2.828c1.462 0 2.275-.6 2.275-1.9 0-.608-.143-.97-.405-1.254-.33-.286-.856-.421-1.58-.445l-.815-.034c-.227 0-.388 0-.557-.066a.461.461 0 01-.324-.454c0-.194.035-.354.195-.446.181-.1.387-.147.594-.136h2.656v-1.293h-2.92c-1.522 0-2.073.941-2.073 1.808 0 1.943 1.677 1.841 3.048 1.875.22 0 .389.032.481.124.103.07.177.228.177.388 0 .168-.076.328-.169.388-.125.116-.32.15-.6.15v-.002zM.005.874v20.747l1.753-4.045h3.79l.49 1.001v-1.001h4.426l.973 2.194.95-2.176h14.09c.635 0 1.209.124 1.633.512v-.498h3.875v.498c.658-.37 1.48-.498 2.42-.498h5.643l.526 1.001v-1h4.155l.547 1V17.6h4.03v8.505h-4.088l-.778-1.297v1.261h-5.104l-.55-1.354h-1.27l-.583 1.319h-2.624c-1.042 0-1.82-.218-2.345-.512v.512H25.7v-1.899c0-.26-.058-.26-.22-.296h-.228v2.229h-12.11v-1.026l-.457 1.026h-2.522l-.44-1.026v1H4.84l-.55-1.345H3.029l-.548 1.345H0V50.06h51.529V36.244c-.584.292-1.328.386-2.108.386h-3.73v-.548c-.457.354-1.235.548-1.981.548H31.87v-1.933c0-.26-.044-.26-.262-.26h-.16v2.203h-3.902v-2.295c-.643.295-1.397.318-2.015.295h-.456v1.969h-4.72l-1.177-1.33-1.236 1.296h-7.668v-8.461h7.82l1.125 1.296 1.202-1.296h5.22c.61 0 1.6.07 2.04.489v-.522h4.714c.44 0 1.397.102 1.962.486v-.511h7.067v.511c.356-.353 1.11-.511 1.743-.511h4.095v.511c.424-.318 1.007-.511 1.82-.511h2.547V.876L.005.874zm45.834 31.199c.008.018.008.034.017.044.026.014.059.014.077.04l-.093-.076-.001-.008zm5.789-4.027h.145v1.195h-.145v-1.195zm.075 4.195v-.018c-.059-.05-.093-.098-.161-.15-.32-.328-.847-.463-1.651-.48l-.786-.024c-.254 0-.415-.017-.584-.066a.463.463 0 01-.323-.454c0-.194.066-.347.195-.439.16-.092.32-.108.583-.108h2.65V29.24h-2.775c-1.5 0-2.081.941-2.081 1.808 0 1.933 1.691 1.841 3.054 1.875.23 0 .39.024.483.124.102.07.169.228.169.388a.499.499 0 01-.195.387c-.102.117-.297.15-.583.15h-2.795v1.304h2.787c.911 0 1.59-.252 1.954-.774h.059c.195-.295.297-.647.297-1.125 0-.523-.102-.842-.297-1.137zm-11.407-1.773v-1.253h-4.842v6.097h4.842v-1.26h-3.404v-1.22h3.32V31.57h-3.32v-1.093l3.404-.01zM29.278 18.793h1.48v6.065h-1.48v-6.065zm-.838 1.633l-.018.018c0-.683-.28-1.077-.736-1.345-.467-.27-1.014-.296-1.75-.296h-3.334v6.072h1.462v-2.229h1.558c.515 0 .847.066 1.058.26.265.296.23.816.23 1.177v.767h1.463v-1.187c0-.537-.034-.807-.239-1.119a1.762 1.762 0 00-.71-.503 1.704 1.704 0 001.025-1.615h-.01zm-1.853.85h-.026c-.203.117-.424.125-.72.125h-1.785v-1.345h1.786c.261 0 .515.008.71.11.195.084.33.278.33.538s-.103.471-.295.573zm7.912-1.22h1.363V18.77h-1.397c-1 0-1.736.228-2.209.71-.617.645-.78 1.486-.78 2.395 0 1.103.262 1.791.78 2.305.5.511 1.396.673 2.098.673h1.695l.55-1.355h3.012l.567 1.355h2.944V20.31l2.76 4.542h2.066v-6.057h-1.49v4.23l-2.555-4.222h-2.21v5.618l-2.455-5.718h-2.175l-2.04 4.786h-.651c-.379 0-.786-.066-1.014-.295-.271-.319-.398-.774-.398-1.421 0-.614.169-1.103.414-1.355.288-.296.593-.362 1.118-.362h.007zm3.613-.226l1 2.404v.008h-2.015l1.015-2.412zM5.16 23.496l.55 1.354h2.963v-4.742l2.107 4.742h1.261l2.106-4.742.034 4.742h1.497v-6.047h-2.42l-1.743 4.095-1.903-4.103h-2.36v5.736L4.78 18.795H2.62L.032 24.852h1.555l.56-1.345H5.16l-.002-.012zM3.67 19.83l1 2.404-.009.008H2.68l.989-2.412zm22.02 9.375h-4.636l-1.846 1.985-1.785-1.985h-5.83v6.072h5.745l1.852-2.01 1.788 2.003h2.816v-2.02h1.82c1.294 0 2.53-.353 2.53-2.034l-.009-.009c0-1.68-1.293-2.002-2.445-2.002zm-9.064 4.804h-3.58v-1.203h3.18v-1.235h-3.18v-1.093h3.639l1.592 1.765-1.659 1.774.008-.008zm5.72.715l-2.234-2.473 2.234-2.379v4.852zm3.36-2.71h-1.912v-1.548h1.912c.525 0 .915.212.915.741 0 .53-.32.808-.915.808zm-4.103-11.958v-1.261h-4.85v6.065h4.85v-1.253h-3.404v-1.213h3.31V21.15h-3.31v-1.093h3.404z" fill="#016FD0"/></svg>