<svg width="63" height="21" fill="none" xmlns="http://www.w3.org/2000/svg"><path d="M32.582 7.132c-.036 2.769 2.526 4.313 4.455 5.232 1.983.942 2.649 1.547 2.64 2.39-.014 1.29-1.58 1.859-3.046 1.88-2.558.04-4.045-.674-5.227-1.213l-.922 4.211c1.186.534 3.383 1 5.66 1.02 5.347 0 8.844-2.578 8.863-6.575.021-5.073-7.183-5.354-7.133-7.621.017-.688.688-1.421 2.16-1.608.728-.094 2.74-.166 5.019.86l.895-4.075c-1.226-.436-2.802-.854-4.764-.854-5.032 0-8.571 2.613-8.6 6.353zM54.544 1.13c-.976 0-1.8.556-2.166 1.41L44.74 20.353h5.342l1.063-2.87h6.529l.616 2.87H63L58.891 1.13h-4.347zm.747 5.193l1.542 7.218H52.61l2.681-7.218zM26.105 1.13l-4.212 19.223h5.091l4.21-19.223h-5.09zm-7.532 0l-5.299 13.084-2.143-11.125C10.88 1.847 9.886 1.13 8.783 1.13H.121L0 1.688c1.778.377 3.799.985 5.023 1.636.749.397.962.744 1.209 1.689l4.06 15.34h5.38L23.918 1.13h-5.346z" fill="url(#paint0_linear)"/><defs><linearGradient id="paint0_linear" x1="28.964" y1="21.051" x2="29.526" y2=".64" gradientUnits="userSpaceOnUse"><stop stop-color="#222357"/><stop offset="1" stop-color="#254AA5"/></linearGradient></defs></svg>