<svg width="28" height="28" fill="none" xmlns="http://www.w3.org/2000/svg"><path d="M6.91 1h12.186A33.046 33.046 0 0127 8.918v18.743H6.91V1z" fill="url(#paint0_linear_4676_78741)"/><path d="M6.91 1h12.186A33.046 33.046 0 0127 8.918v18.743H6.91V1z" stroke="#C8C8C8" stroke-width=".5"/><path d="M19.094 1A33.41 33.41 0 0127 8.918a7.107 7.107 0 00-5.601-2.132A6.328 6.328 0 0019.094 1z" fill="url(#paint1_linear_4676_78741)"/><path d="M19.094 1A33.41 33.41 0 0127 8.918a7.107 7.107 0 00-5.601-2.132A6.328 6.328 0 0019.094 1v0z" stroke="#C8C8C8" stroke-width=".5"/><path d="M2.998 4.502h14.811v2.836H2.998V4.502z" stroke="#C8C8C8" stroke-width="4"/><path d="M14.007 18.535c.49-.96 1.05-2.04 1.492-3.127l.176-.428c-.582-2.215-.93-3.992-.619-5.141a.793.793 0 01.802-.482h.267c.508-.007.747.64.774.89.004.38-.046.76-.148 1.126.025-.39-.033-.78-.17-1.146-.21-.46-.41-.735-.59-.78a.568.568 0 00-.21.427 6.15 6.15 0 00-.08.987c.024.971.177 1.935.454 2.866.057-.164.105-.321.147-.47.062-.232.455-1.775.455-1.775s-.099 2.054-.237 2.675c-.03.131-.062.261-.097.394a9.019 9.019 0 002.253 3.52c.4.346.836.646 1.303.895a17.756 17.756 0 012.644-.199 3.312 3.312 0 012.035.455.776.776 0 01.224.509c-.004.1-.019.199-.043.296.01-.054.01-.315-.793-.574a9.36 9.36 0 00-3.242-.045c1.645.805 3.25 1.205 3.757.966.107-.072.2-.162.275-.267a2.865 2.865 0 01-.153.508.803.803 0 01-.396.271c-.803.21-2.891-.281-4.712-1.321a38.47 38.47 0 00-6.059 1.44c-1.76 3.084-3.083 4.5-4.158 3.961l-.396-.198a.459.459 0 01-.149-.498c.125-.614.895-1.54 2.442-2.462.166-.106.907-.493.907-.493s-.55.531-.677.635c-1.235 1.012-2.145 2.284-2.123 2.778v.043c1.05-.15 2.62-2.284 4.642-6.239l.003.003zm.638.325a82.126 82.126 0 01-.973 1.767 25.815 25.815 0 015.226-1.48 8.673 8.673 0 01-.67-.509 8.96 8.96 0 01-2.205-2.867 24.558 24.558 0 01-1.384 3.089" fill="#F91D0A"/><path d="M1.329 2.897h18.135v6.096H1.329V2.897z" fill="url(#paint2_linear_4676_78741)"/><path d="M19.81 9.358H1V2.532h18.81v6.826zm-.676-6.15H1.677V8.68h17.457V3.208z" fill="url(#paint3_linear_4676_78741)"/><path d="M6.068 3.791h1.32a1.155 1.155 0 01.902.348c.226.276.339.628.315.984a1.42 1.42 0 01-.315.99 1.155 1.155 0 01-.902.344h-.525v1.417h-.795V3.791zm.796.763v1.14h.44a.445.445 0 00.357-.148c.09-.12.135-.27.126-.42a.63.63 0 00-.126-.42.443.443 0 00-.357-.148h-.44v-.004zm3.097.036v2.49h.285a.896.896 0 00.744-.315c.19-.272.28-.6.258-.93a1.445 1.445 0 00-.256-.924.902.902 0 00-.746-.315h-.285V4.59zm-.795-.792h.84c.352-.017.703.026 1.04.128.234.09.439.246.59.448.147.19.257.406.322.638.074.266.11.542.105.818.004.279-.031.557-.105.826a1.87 1.87 0 01-.322.637 1.38 1.38 0 01-.595.452 3.114 3.114 0 01-1.04.131H9.16V3.791l.006.007zm3.505-.007h2.156v.796h-1.355v.76h1.27v.796h-1.27v1.731h-.795V3.791" fill="#FFF9F9"/><defs><linearGradient id="paint0_linear_4676_78741" x1="12.775" y1="21.885" x2="20.206" y2="8.454" gradientUnits="userSpaceOnUse"><stop stop-color="#fff"/><stop offset="1" stop-color="#E1E1E1"/></linearGradient><linearGradient id="paint1_linear_4676_78741" x1="22.135" y1="5.8" x2="23.278" y2="4.746" gradientUnits="userSpaceOnUse"><stop stop-color="#fff"/><stop offset="1" stop-color="#C8C8C8"/></linearGradient><linearGradient id="paint2_linear_4676_78741" x1="12.158" y1="11.367" x2="8.635" y2=".523" gradientUnits="userSpaceOnUse"><stop offset=".127" stop-color="#8A0000"/><stop offset=".244" stop-color="#900000" stop-opacity=".999"/><stop offset=".398" stop-color="#A00000" stop-opacity=".999"/><stop offset=".573" stop-color="#BC0000" stop-opacity=".998"/><stop offset=".761" stop-color="#E20000" stop-opacity=".997"/><stop offset=".867" stop-color="#FA0000" stop-opacity=".996"/></linearGradient><linearGradient id="paint3_linear_4676_78741" x1="12.306" y1="11.797" x2="8.504" y2=".093" gradientUnits="userSpaceOnUse"><stop offset=".315" stop-color="#5E0000"/><stop offset=".444" stop-color="#830000" stop-opacity=".999"/><stop offset=".618" stop-color="#AE0000" stop-opacity=".998"/><stop offset=".775" stop-color="#CD0000" stop-opacity=".997"/><stop offset=".908" stop-color="#E00000" stop-opacity=".996"/><stop offset="1" stop-color="#E70000" stop-opacity=".996"/></linearGradient></defs></svg>