<svg width="609" height="653" fill="none" xmlns="http://www.w3.org/2000/svg"><path d="M26.804 570.732L.06 607.039l45.011 33.497c2.93-4.492-13.922-30.462-13.922-30.462l18.087-22.564-22.43-16.793v.015z" fill="#455A64"/><path d="M18.683 597.773c-1.042-.417-2.38.119-2.827 1.145-.446 1.026.075 2.395 1.116 2.811 1.041.432 2.663-.163 2.99-1.234.327-1.071-.372-2.633-1.488-2.797" fill="#fff"/><path d="M0 607.114l2.841-3.897 42.05 33.853s1.34 2.365.06 3.599L0 607.114zm32.04 3.272c-.163.208-1.339-.506-2.945-.595-1.607-.134-2.87.402-3.005.164-.163-.194 1.13-1.265 3.08-1.116 1.948.134 3.078 1.383 2.885 1.547h-.015zm3.273 5.474c-.105.252-1.34-.09-2.782.282-1.443.327-2.38 1.19-2.603 1.026-.238-.118.58-1.517 2.365-1.948 1.8-.446 3.153.416 3.005.64h.014zm-1.518 7.645c-.238-.104.283-1.428 1.74-2.216 1.458-.789 2.842-.491 2.797-.238 0 .267-1.16.416-2.35 1.085-1.205.64-1.964 1.518-2.187 1.369zm1.8-18.712c-.238.134-1.026-.922-2.335-1.755-1.294-.863-2.559-1.175-2.544-1.443 0-.253 1.547-.371 3.064.64 1.532.997 2.038 2.469 1.8 2.558h.015zm100.018-186c.818 4.552 2.082 43.269 2.9 63.691.818 20.422-1.22 30.477-3.555 35.043-2.335 4.567-90.408 69.477-97.117 85.02L15.59 584.565s32.664-58.753 46.676-69.418c14.013-10.664 40.787-20.481 40.787-20.481l-7.616-111.838 36.577-1.993 3.6 37.958z" fill="#263238"/><path d="M53.757 606.623l-.387 45.098 56.108.773c-.253-5.369-29.125-16.525-29.125-16.525l1.428-28.885-28.009-.461h-.015z" fill="#455A64"/><path d="M63.024 633.292c-1.086.283-1.86 1.487-1.621 2.588.238 1.101 1.458 1.889 2.558 1.621 1.1-.267 2.053-1.68 1.696-2.751s-1.844-1.919-2.841-1.399" fill="#fff"/><path d="M53.37 651.795v-4.834l53.936 2.797s2.469 1.13 2.157 2.885l-56.093-.863v.015zm27.89-16.108c0 .267-1.383.372-2.751 1.234-1.384.833-2.098 2.008-2.35 1.889-.253-.059.178-1.695 1.844-2.707 1.651-1.026 3.302-.684 3.243-.431l.014.015zm5.846 2.513c.06.268-1.13.714-2.082 1.86-.982 1.115-1.235 2.365-1.503 2.35-.252.044-.43-1.562.774-2.975 1.19-1.413 2.811-1.502 2.811-1.249v.014zm3.243 7.095c-.253.06-.61-1.323.119-2.811.714-1.502 2.008-2.067 2.127-1.844.149.223-.684 1.026-1.264 2.261-.61 1.219-.7 2.379-.967 2.394h-.015zm-9.49-16.227c-.12.253-1.369-.149-2.916-.06-1.546.06-2.766.551-2.9.313-.149-.194 1.041-1.205 2.856-1.265 1.83-.089 3.094.803 2.96 1.012z" fill="#263238"/><path d="M139.659 376.209c0 2.648 4.269 69.283-17.523 117.46 0 0-7.541 15.083-8.865 21.672C111.947 521.945 83.7 631.21 83.7 631.21l-32.576-1.19s-5.22-54.752.06-86.433c5.28-31.682 14.92-27.993 14.92-48.445s-4.865-62.902-4.865-62.902-7.11-11.602-9.534-34.062c-1.964-18.25 6.619-37.81 6.619-37.81l8.508-15.037 71.86-3.764.967 34.642z" fill="#263238"/><path d="M139.659 376.209s0-.773-.015-2.261c-.03-1.517-.075-3.748-.149-6.663-.149-5.876-.357-14.532-.64-25.718v-.178h-.178c-17.656.892-42.185 2.142-71.86 3.659h-.163l-.075.149c-2.647 4.67-5.533 9.772-8.523 15.037v.03a96.242 96.242 0 00-5.117 16.481c-1.28 5.786-1.993 11.884-1.8 18.131.402 6.247 1.413 12.539 2.93 18.875 1.577 6.322 3.585 12.688 6.887 18.697l-.044-.149a1232.623 1232.623 0 013.347 34.433c.476 5.92.907 11.929 1.19 18.013a235.5 235.5 0 01.282 9.177c.06 1.547-.06 3.064-.089 4.611-.164 1.532-.238 3.079-.565 4.581-.536 3.035-1.636 5.965-3.08 8.731-1.442 2.782-3.063 5.534-4.417 8.434-2.767 5.801-4.552 12.063-5.846 18.444-2.588 12.791-3.123 26.089-3.257 39.476-.06 17.7.833 35.058 2.29 51.865l.03.342h.342c11.097.417 21.97.804 32.576 1.19h.312l.075-.282c9.43-36.605 18.251-70.816 26.001-101.575.952-3.852 1.889-7.645 2.826-11.379.476-1.889.788-3.763 1.368-5.548.565-1.8 1.235-3.555 1.919-5.28 1.398-3.451 2.901-6.798 4.433-10.055.386-.818.773-1.621 1.16-2.424.402-.789.788-1.607 1.101-2.44.669-1.651 1.338-3.272 1.993-4.893 5.132-12.985 8.166-25.584 10.293-37.081 4.165-23.07 4.715-41.841 4.909-54.633.089-12.836-.432-19.797-.432-19.797v1.294c.03.878.06 2.142.105 3.793.089 3.347.148 8.3.059 14.696-.268 12.791-.907 31.547-5.132 54.558-2.157 11.467-5.206 24.036-10.353 36.962-.654 1.606-1.323 3.227-1.993 4.863a22.087 22.087 0 01-1.1 2.425c-.387.803-.774 1.621-1.176 2.424-1.547 3.273-3.064 6.619-4.477 10.085-.699 1.74-1.368 3.51-1.948 5.325-.595 1.829-.923 3.733-1.399 5.578-.937 3.733-1.874 7.526-2.841 11.378-7.898 30.73-16.69 64.94-26.105 101.545l.387-.282c-10.606-.387-21.48-.789-32.576-1.19l.372.357c-1.443-16.763-2.335-34.121-2.276-51.777.15-13.357.67-26.624 3.243-39.327 1.28-6.336 3.064-12.539 5.786-18.265 1.339-2.871 2.945-5.593 4.403-8.419 1.473-2.811 2.603-5.83 3.154-8.954.342-1.547.416-3.124.58-4.67.03-1.562.148-3.124.089-4.671a234.88 234.88 0 00-.283-9.207c-.297-6.098-.728-12.107-1.204-18.027a1183.712 1183.712 0 00-3.377-34.463v-.075l-.045-.074c-3.213-5.846-5.25-12.227-6.827-18.474-1.502-6.277-2.529-12.583-2.93-18.741-.194-6.173.49-12.226 1.755-17.968 1.234-5.756 2.945-11.26 5.057-16.376v.03c2.96-5.266 5.831-10.383 8.479-15.053l-.238.149c29.675-1.607 54.203-2.93 71.845-3.882l-.179-.164c.342 11.17.61 19.827.803 25.702.104 2.916.179 5.147.223 6.664.06 1.502.105 2.261.105 2.261v-.03z" fill="#455A64"/><path d="M116.29 239.74s-19.411-3.421-17.537 21.463c1.116 14.904 5.504 40.398 7.928 56.685.833 5.637 2.678 15.722 10.13 21.642l53.4 36.962 16.853-20.155-47.688-45.425-7.497-44.92-15.589-26.267v.015z" fill="#455A64"/><path d="M118.566 150.049c6.158 4.849 9.684 12.881 9.074 20.705-.298 3.793-1.339 8.136 1.13 11.037 2.44 2.87 7.259 2.781 9.594 5.741 2.767 3.48.447 8.657 1.443 12.985.923 4.061 5.221 7.065 9.356 6.53a34.322 34.322 0 01-17.016 7.377c-1.592-2.038-3.168-4.075-4.76-6.113 1.8 2.142 1.324 5.548-.417 7.734-1.74 2.187-4.447 3.377-7.11 4.225-12.747 4.045-27.354 1.666-38.153-6.203" fill="#263238"/><path d="M47.138 183.62c.952-2.915 2.544-5.607 3.183-8.612 1.384-6.441-1.755-13.684 1.369-19.485 2.23-4.12 6.96-6.143 11.438-7.526 4.478-1.384 9.282-2.544 12.629-5.831 2.454-2.41 3.837-5.726 6.292-8.151 3.48-3.451 8.612-4.611 13.506-4.923 5.028-.313 10.219.178 14.726 2.395 4.522 2.216 8.27 6.38 9.074 11.348.386 2.425.089 4.953.862 7.289.833 2.558 2.856 4.551 4.091 6.946 2.618 5.057 1.205 11.869-3.228 15.469L86.6 217.072c-7.243 2.737-24.796-.58-30.388-5.92-5.593-5.355-11.484-20.169-9.089-27.532h.015z" fill="#263238"/><path d="M120.173 166.872c-1.428-10.115-9.118-22.058-19.159-20.214l-30.999 10.427c-3.05.565-.862 5.533-.565 8.627l6.738 69.908s-4.18 2.989-5.682 2.409a.422.422 0 00-.506.625c3.719 5.399 21.3 29.034 39.403 21.82 4.046-1.606-.416-14.353.045-19.083l-.535-12.063c-.402-6.158-.595-8.687-.581-8.627 0 0 12.822-3.153 14.206-20.288.684-8.523-.789-22.296-2.38-33.541h.015z" fill="#FFBF9D"/><path d="M118.016 182.445c.134 1.145-.729 2.201-1.919 2.35-1.19.149-2.261-.64-2.395-1.785-.134-1.145.729-2.201 1.919-2.35 1.19-.164 2.261.64 2.395 1.785zm-21.107 1.324c.133 1.145-.73 2.201-1.92 2.35-1.19.149-2.26-.64-2.394-1.785-.134-1.145.729-2.201 1.919-2.35 1.19-.164 2.26.639 2.395 1.785zm21.88-8.493c-.238.401-2.261-.878-4.789-.506-2.529.327-4.15 2.097-4.478 1.785-.163-.134.03-.833.744-1.621.684-.789 1.949-1.651 3.525-1.875 1.577-.208 3.005.268 3.883.848.892.58 1.249 1.19 1.13 1.369h-.015zm-22.713 1.874c-.298.372-2.291-1.071-5.013-.967-2.722.074-4.656 1.651-4.968 1.309-.149-.149.134-.803.981-1.517.819-.714 2.262-1.428 3.957-1.488 1.696-.059 3.154.551 4.001 1.205.863.655 1.176 1.279 1.042 1.443v.015zm8.523 16.019c-.015-.134 1.413-.491 3.748-.982.595-.104 1.146-.267 1.22-.684.104-.446-.193-1.071-.535-1.74-.67-1.398-1.384-2.871-2.113-4.403-2.945-6.277-5.131-11.468-4.879-11.587.253-.119 2.856 4.879 5.802 11.156a643.706 643.706 0 012.037 4.447c.283.655.729 1.398.491 2.321-.119.461-.535.818-.907.952-.372.148-.714.178-.997.223-2.365.312-3.822.431-3.852.297h-.015z" fill="#263238"/><path d="M108.347 220.701s-11.334 1.606-23.145-4.313c0 0 6.62 11.453 23.443 8.567l-.298-4.254zm-10.873-20.705c.312-.535.654-1.115 1.205-1.428.595-.342 1.338-.327 2.023-.208.996.179 1.963.61 2.647 1.354.685.743 1.012 1.844.67 2.796-.268.982-1.726 1.517-2.722 1.681-.997.178-2.038-.119-2.916-.61-.743-.417-1.457-1.086-1.487-1.934-.03-.595.282-1.145.58-1.666v.015z" fill="#FF9A6C"/><path d="M97.95 196.709c.372-.044.58 2.484 2.886 4.12 2.305 1.636 4.983 1.146 5.042 1.503.045.163-.565.535-1.71.654-1.116.119-2.782-.104-4.195-1.116-1.413-.996-2.097-2.439-2.261-3.465-.179-1.056.06-1.711.238-1.696zm-2.083-28.707c-.178.655-2.543.536-5.25 1.071-2.722.491-4.88 1.458-5.28.922-.18-.252.163-.892.996-1.576s2.201-1.369 3.837-1.681c1.637-.312 3.154-.164 4.195.164 1.041.327 1.577.788 1.502 1.1zm21.48-1.279c-.432.565-2.306.164-4.522.298-2.217.074-4.061.669-4.537.148-.208-.253.044-.803.818-1.368.773-.565 2.082-1.071 3.614-1.145 1.518-.075 2.871.312 3.689.788.819.491 1.116 1.011.938 1.294v-.015z" fill="#263238"/><path d="M63.158 159.524c1.562-2.41 4.373-3.644 7.05-4.685a155.88 155.88 0 0135.908-9.148c1.532 2.514.119 5.95-2.186 7.779-2.306 1.83-5.266 2.559-8.033 3.585-2.767 1.026-5.593 2.618-6.723 5.34-1.205 2.885-.194 6.321-1.25 9.266-1.83 5.072-8.91 6.708-10.71 11.795-1.353 3.853.863 7.943 1.429 11.974.624 4.581-1.071 9.415-4.418 12.598-2.648 2.514-6.262 3.912-9.892 3.987-.833-14.562-1.68-29.109-2.514-43.671-.178-3.034-.297-6.291 1.369-8.85l-.03.03z" fill="#263238"/><path d="M33.84 196.293c2.305-2.068 5.176-3.838 6.099-6.798 1.338-4.298-2.113-9.341.104-13.253 2.023-3.569 7.987-3.391 9.877-7.035 1.472-2.841-.224-5.369.342-7.868.565-2.499 4.105-4.686 6.649-4.388l19.887 28.811c1.844 9.668 3.704 14.814 1.621 20.467-1.145 3.108-2.617 6.128-3.064 9.4-.446 3.272.387 6.976 3.064 8.924-11.885.937-23.026-5.295-33.319-11.304-3.63-2.127-7.259-4.239-10.903-6.366-1.13-.669-2.32-1.368-2.99-2.499-1.591-2.647.327-6.039 2.633-8.106v.015z" fill="#263238"/><path d="M44.803 210.349s.416.163 1.264.238c.848.089 2.127.119 3.704-.268 1.562-.387 3.466-1.175 5.161-2.782 1.696-1.576 3.064-4.03 3.407-6.946a11.77 11.77 0 00-.387-4.566c-.461-1.547-1.324-2.99-2.202-4.418-.877-1.428-1.83-2.9-2.276-4.581-.43-1.651-.446-3.614.64-5.042 1.086-1.443 3.094-1.8 4.953-2.558.938-.372 1.904-.952 2.53-1.875.624-.922.832-2.052.817-3.123-.03-2.172-.952-4.165-1.353-6.188-.209-1.011-.283-2.067-.015-3.034a4.238 4.238 0 011.71-2.41c1.71-1.219 3.912-1.428 6.01-1.606 2.127-.149 4.343-.625 6.128-1.8a11.519 11.519 0 004.195-4.551c.922-1.845 1.25-3.823 1.547-5.697.282-1.874.55-3.704 1.16-5.34.625-1.636 1.621-3.064 2.796-4.209 2.395-2.276 5.43-3.496 8.226-3.719 2.811-.238 5.37.506 7.363 1.532a16.411 16.411 0 014.582 3.481c2.141 2.38 2.736 4.105 2.826 4.06 0 0-.03-.104-.119-.312-.09-.193-.209-.506-.417-.877-.387-.759-1.041-1.83-2.112-3.05a16.066 16.066 0 00-4.596-3.644c-2.023-1.086-4.641-1.889-7.586-1.681-2.9.209-6.054 1.428-8.583 3.793-1.235 1.205-2.306 2.693-2.96 4.418-.67 1.725-.937 3.599-1.22 5.459-.297 1.859-.64 3.778-1.502 5.503a10.89 10.89 0 01-3.957 4.269c-1.696 1.101-3.719 1.532-5.83 1.696-2.083.193-4.433.371-6.352 1.725-.952.654-1.696 1.666-1.979 2.796-.297 1.131-.208 2.276 0 3.347.432 2.142 1.34 4.075 1.354 6.069.015.981-.178 1.963-.7 2.722-.52.773-1.338 1.279-2.23 1.651-.893.371-1.845.624-2.767 1.026-.922.372-1.83.922-2.44 1.755-1.249 1.681-1.19 3.838-.713 5.578.49 1.814 1.502 3.302 2.38 4.73.892 1.428 1.74 2.811 2.186 4.269.446 1.457.55 2.959.417 4.358-.283 2.811-1.577 5.176-3.184 6.723-1.606 1.562-3.436 2.38-4.968 2.796-3.109.788-4.908.149-4.908.283z" fill="#455A64"/><path d="M28.946 189.867s-.238.298-.387.967c-.148.669-.133 1.77.506 2.945.327.565.818 1.16 1.517 1.606a4.58 4.58 0 002.544.67c1.889.015 4.12-1.116 5.206-3.302.55-1.071.848-2.321.848-3.63 0-1.308-.342-2.647-.833-3.926-.937-2.574-2.663-5.072-2.692-8.092-.03-1.457.312-3.034 1.383-4.09 1.056-1.071 2.692-1.339 4.314-1.354 1.636-.059 3.406.149 5.146-.535a4.485 4.485 0 002.113-1.785c.505-.803.758-1.711.862-2.618.223-1.859-.208-3.614-.431-5.28a11.496 11.496 0 01.268-4.894c.877-3.123 2.975-5.756 5.533-7.258 2.573-1.547 5.563-1.726 8.24-1.889 2.708-.149 5.31-.313 7.527-1.19a15.489 15.489 0 005.325-3.347 15.888 15.888 0 002.916-3.748c1.264-2.306 1.413-3.778 1.413-3.778-.09-.03-.342 1.413-1.651 3.644-.67 1.101-1.592 2.38-2.945 3.6-1.34 1.219-3.08 2.409-5.236 3.168-2.142.818-4.67.952-7.393 1.071-2.678.134-5.771.267-8.538 1.904-2.722 1.576-4.924 4.328-5.86 7.63a12.125 12.125 0 00-.298 5.176c.223 1.725.624 3.436.431 5.117-.163 1.681-1.041 3.272-2.558 3.852-1.503.61-3.228.446-4.894.491-1.651.015-3.525.283-4.775 1.562-1.25 1.249-1.591 3.019-1.547 4.566.03 1.592.506 3.094 1.086 4.433.58 1.353 1.22 2.602 1.71 3.852.492 1.249.819 2.499.834 3.718 0 1.22-.253 2.395-.744 3.392-.982 2.037-3.005 3.123-4.775 3.138a4.492 4.492 0 01-2.365-.565 4.261 4.261 0 01-1.458-1.458c-.64-1.086-.714-2.142-.61-2.781.104-.67.283-.982.253-.997l.015.015zm125.275 7.095c-.104 0 .64 1.145-.045 3.109-.342.922-1.115 2.052-2.469 2.499-1.324.446-3.153.104-4.358-1.19-.61-.64-.967-1.518-1.027-2.484-.059-.967.134-1.993.462-3.005.624-2.008 1.918-4.209 1.725-6.827-.149-2.544-1.428-5.147-3.615-6.872a11.312 11.312 0 00-3.703-1.948c-1.369-.447-2.827-.536-4.24-.61-1.413-.075-2.811-.104-4.105-.432-1.294-.312-2.454-.966-3.198-1.993-.744-1.011-1.071-2.275-1.16-3.51-.09-1.249.059-2.469.312-3.659.491-2.38 1.205-4.685 1.071-6.961a10.503 10.503 0 00-2.127-5.771c-1.145-1.547-2.633-2.484-3.867-3.272-1.25-.789-2.321-1.458-3.094-2.142-1.592-1.339-1.86-2.559-1.949-2.499 0 0 0 .074.045.208.044.134.104.342.238.58.238.506.699 1.205 1.472 1.919.774.729 1.83 1.458 3.064 2.261 1.22.818 2.633 1.755 3.689 3.242 1.071 1.458 1.86 3.377 1.949 5.504.104 2.142-.595 4.373-1.116 6.797-.253 1.205-.431 2.514-.342 3.838.089 1.323.432 2.707 1.265 3.867.847 1.175 2.186 1.919 3.584 2.261 1.399.342 2.827.372 4.24.446 1.413.074 2.781.164 4.06.58 1.28.387 2.47 1.011 3.481 1.815 2.038 1.606 3.258 4.016 3.406 6.381.209 2.394-.981 4.506-1.636 6.619-.327 1.071-.52 2.156-.446 3.227.074 1.056.506 2.083 1.205 2.782 1.383 1.428 3.391 1.755 4.849 1.219 1.487-.55 2.276-1.784 2.603-2.781a4.476 4.476 0 00.119-2.425c-.149-.535-.327-.773-.327-.773h-.015z" fill="#263238"/><path d="M140.001 313.47v-16.465c1.844-9.222.967-20.169-3.317-28.618-2.499-4.923-8.241-12.762-10.323-15.692l-16.392-21.24c-9.014 6.559-23.116 1.815-35.224-2.588 0 0-11.959 6.619-17.522 12.836-5.846 6.545 14.146 88.426 14.146 88.426-9.059 18.117-20.736 34.166-22.52 50.721l94.603 3.644-4.017-43.373.581-27.636-.015-.015z" fill="#455A64"/><path d="M138.692 341.567s-.075-.669-.075-1.859c.015-1.353.03-3.034.06-5.042.074-4.418.163-10.219.268-16.629.119-6.5.297-12.376.505-16.63.104-2.126.209-3.852.298-5.042s.178-1.844.223-1.844c.059 0 .074.669.074 1.859-.015 1.354-.029 3.034-.059 5.042-.075 4.418-.164 10.219-.268 16.63-.119 6.5-.297 12.375-.506 16.629a207.834 207.834 0 01-.297 5.042c-.089 1.19-.179 1.844-.223 1.844z" fill="#263238"/><path d="M181.903 356.546s9.207.505 14.934 4.075c5.712 3.585 14.889 9.133 18.668 16.019 1.74 3.169-3.213 3.838-5.668 1.994-2.439-1.845-6.187-5.296-8.047-5.727l-1.859-.431s3.733 8.314 5.667 11.23c1.934 2.915 3.6 7.913-2.172 8.151 0 0-3.897 5.057-7.824 1.308 0 0-3.064 4.582-8.002-1.77 0 0-2.871 3.645-4.076 2.246-1.205-1.398-5.132-3.599-6.277-8.151-1.145-4.551-5.965-15.602-5.965-15.602l10.636-13.357-.015.015zm206.475-127.828c1.027 0 43.271-4.432 43.271-4.432s3.57-17.18 3.391-21.642c-.193-4.462-3.198-33.987-3.198-33.987l15.812-7.482s21.137 71.276 16.511 77.211c-4.626 5.935-13.283 11.215-14.027 11.245-.744.03-40.92 17.834-68.87 8.582-27.964-9.251 7.11-29.495 7.11-29.495z" fill="#FFBF9D"/><path d="M351.37 267.197c6.218 6.173 16.928 11.29 34.792 6.842 35.357-8.82 61.834-16.302 72.38-22.013 10.532-5.727 6.426-30.909 7.319-32.054 2.677-3.451-.253-10.858-4.061-12.018-10.814-3.272-29.63-1.978-30.582-.997-5.549 5.831-.491 12.911-.491 12.911l-46.603 6.098s-8.106-.55-17.121 1.101" fill="#455A64"/><path d="M367.004 227.067s.371-.104 1.115-.238a46.29 46.29 0 013.302-.506c2.901-.357 7.2-.758 12.718-.535h-.03c11.127-1.487 27.206-3.644 46.588-6.247l-.223.52c-1.443-2.201-2.35-4.863-2.142-7.66.104-1.383.595-2.766 1.339-3.956.342-.625.833-1.146 1.279-1.696.149-.119.416-.268.61-.327l.535-.134c.357-.089.699-.119 1.056-.193 5.578-.714 11.394-.744 17.374-.372 2.99.208 6.024.565 9.044 1.249.758.179 1.502.387 2.261.58a5.6 5.6 0 012.127 1.25c1.22 1.1 2.038 2.543 2.633 4.046.565 1.517.833 3.183.61 4.848-.164.819-.402 1.666-.938 2.365-.133.149-.119.551-.133.937v1.19c.119 3.198.267 6.456.193 9.743-.134 4.67-.55 9.385-2.216 13.714-.833 2.142-2.053 4.224-3.868 5.697-.892.773-1.948 1.249-2.93 1.755-.997.52-2.023.937-3.035 1.398-4.06 1.74-8.166 3.168-12.182 4.492-4.031 1.338-8.003 2.543-11.885 3.674-15.544 4.521-29.69 8.076-41.56 11.036-2.96.759-5.831 1.383-8.568 1.785-2.751.327-5.354.55-7.809.417-4.894-.134-9.044-1.265-12.182-2.648a28.043 28.043 0 01-6.694-4.165c-1.383-1.16-1.993-1.889-1.993-1.889.045-.044.684.655 2.097 1.77a29.284 29.284 0 006.709 4.016c3.124 1.324 7.229 2.395 12.063 2.484 2.425.104 4.998-.134 7.72-.476 2.722-.416 5.534-1.041 8.509-1.829 11.855-3.02 25.971-6.634 41.485-11.186a356.382 356.382 0 0011.855-3.703c4.016-1.339 8.092-2.767 12.123-4.492.997-.461 2.023-.863 2.99-1.383.997-.506 1.993-.952 2.796-1.666 1.681-1.354 2.841-3.317 3.645-5.385 1.606-4.179 2.023-8.835 2.156-13.461.09-3.257-.059-6.485-.178-9.698v-1.219c0-.209 0-.417.015-.64.03-.119.015-.208.059-.372.03-.089.075-.178.119-.253l.075-.119c.446-.58.654-1.308.803-2.037.193-1.488-.045-3.035-.58-4.463-.551-1.413-1.324-2.751-2.425-3.748a4.864 4.864 0 00-1.844-1.086c-.744-.193-1.473-.401-2.202-.58-2.96-.669-5.964-1.026-8.924-1.249-5.921-.387-11.737-.372-17.225.327-.328.06-.685.089-.997.179l-.476.119c-.134.059-.193.059-.312.133-.417.521-.893.997-1.205 1.577-.699 1.116-1.146 2.365-1.25 3.659-.208 2.573.67 5.147 1.994 7.214l.297.446-.521.06c-19.396 2.484-35.491 4.536-46.632 5.964h-.03c-5.459-.282-9.772.06-12.673.357a60.404 60.404 0 00-3.302.417c-.744.104-1.13.134-1.13.134v.059z" fill="#263238"/><path d="M240.839 275.514l-18.954-34.051L580.904 41.644c8.591-4.781 19.435-1.692 24.217 6.898l1.627 2.925c4.782 8.59 1.693 19.434-6.898 24.215L240.831 275.501l.008.013z" fill="#49a122"/><path d="M541.896 95.144l-43.961-78.98a3.335 3.335 0 011.291-4.531L519.397.406a3.336 3.336 0 014.532 1.291l43.961 78.98-25.994 14.467zm-86.497-36.777l32.039 57.562a4.82 4.82 0 006.555 1.867l17.572-9.78a4.82 4.82 0 001.868-6.555L481.393 43.9a4.82 4.82 0 00-6.555-1.867l-17.572 9.78a4.818 4.818 0 00-1.867 6.554z" fill="#49a122"/><path d="M483.709 55.004l19.836 35.636 40.369-22.468-19.836-35.636-40.369 22.468z" fill="#49a122"/><path d="M575.621 44.578c.104.193-70.357 39.61-157.344 88.024-87.032 48.445-157.643 87.549-157.747 87.355-.104-.193 70.343-39.594 157.36-88.039 87.002-48.43 157.627-87.534 157.731-87.355v.014z" fill="#263238"/><path d="M95.436 341.389c26.462 47.537 82.287 66.948 124.695 43.358 42.407-23.605 55.319-81.272 28.857-128.824-26.462-47.538-82.287-66.948-124.695-43.358-42.408 23.605-55.319 81.272-28.857 128.824zm130.57-72.675c18.549 33.318 9.49 73.731-20.215 90.271-29.719 16.54-68.84 2.93-87.374-30.373-18.548-33.318-9.49-73.73 20.215-90.27 29.72-16.54 68.84-2.931 87.374 30.372zm75.877-26.157l-19.59-35.195c-2.604-4.679-.922-10.586 3.757-13.19l1.586-.883c4.679-2.604 10.586-.921 13.191 3.758l19.59 35.194c2.604 4.679.921 10.586-3.758 13.191l-1.585.882c-4.679 2.604-10.587.921-13.191-3.757zm37.622-20.956l-19.59-35.195c-2.604-4.678-.921-10.586 3.758-13.19l1.586-.882c4.679-2.604 10.586-.922 13.19 3.757l19.59 35.195c2.605 4.678.922 10.586-3.757 13.19l-1.599.889c-4.679 2.605-10.586.922-13.191-3.757l.013-.007z" fill="#49a122"/><path d="M300.395 196.427c.193-.105 4.73 7.883 10.159 17.834 5.429 9.95 9.669 18.101 9.475 18.205-.193.104-4.73-7.883-10.159-17.834-5.415-9.95-9.669-18.101-9.475-18.191v-.014zm-17.255 12.345c.193-.104 4.626 7.511 9.906 17.016 5.296 9.504 9.431 17.284 9.238 17.388-.194.104-4.626-7.512-9.922-17.016-5.28-9.505-9.43-17.284-9.237-17.388h.015zm55.126-33.005c.193-.105 4.804 7.853 10.323 17.759 5.518 9.906 9.832 18.027 9.653 18.132-.193.104-4.804-7.839-10.323-17.76-5.518-9.906-9.832-18.027-9.653-18.131zm-18.177 10.977c.193-.105 4.715 7.794 10.114 17.64 5.4 9.847 9.624 17.909 9.431 18.013-.193.104-4.715-7.794-10.115-17.641-5.399-9.847-9.624-17.908-9.43-18.012zm107.886-53.651c3.421.402 6.931-2.112 7.675-5.474.744-3.361-1.398-7.11-4.67-8.195 2.127-2.172 2.677-5.757 1.279-8.464-1.398-2.707-4.626-4.343-7.631-3.882-.119-3.004-1.904-5.89-4.552-7.333-2.647-1.443-6.039-1.383-8.627.134-3.317-2.856-8.672-2.975-12.123-.268-2.915-.55-6.113 1.012-7.482 3.645-1.383 2.632-.833 6.143 1.294 8.225" fill="#263238"/><path d="M397.809 106.558h1.547c15.544.044 28.455 12.018 29.645 27.517 1.116 14.413 2.172 30.358 2.053 38.077-.253 16.005-16.258 18.444-16.258 18.444l1.294 19.232-38.853-1.324-3.228-69.759c-1.383-16.629 7.14-31.295 23.8-32.217v.03z" fill="#FFBF9D"/><path d="M414.915 190.596s-10.219.58-20.959-6.203c0 0 5.147 12.123 21.122 10.725l-.163-4.522z" fill="#FF9A6C"/><path d="M420.21 149.112c.045 1.205-.952 2.231-2.216 2.306-1.264.059-2.306-.863-2.35-2.068-.045-1.205.952-2.231 2.201-2.305 1.265-.06 2.321.862 2.35 2.067h.015zm5.325-7.214c-.282.298-2.008-.996-4.477-.996-2.454-.03-4.269 1.219-4.537.922-.134-.134.164-.669.952-1.235.774-.565 2.098-1.115 3.63-1.1 1.532 0 2.826.58 3.555 1.16.758.58 1.011 1.115.863 1.249h.014zm-27.518 6.158c.045 1.205-.952 2.231-2.216 2.306-1.264.059-2.306-.863-2.35-2.068-.045-1.205.952-2.231 2.216-2.305 1.264-.06 2.32.862 2.35 2.067zm3.332-5.771c-.282.298-2.008-.996-4.477-.996-2.454-.03-4.269 1.219-4.537.922-.134-.134.164-.67.952-1.235.774-.565 2.097-1.115 3.629-1.101 1.533 0 2.827.581 3.556 1.161.758.58 1.011 1.115.862 1.249h.015zm8.88 18.28c0-.134 1.518-.401 4.002-.714.624-.059 1.219-.178 1.323-.61.149-.446-.104-1.13-.416-1.859-.58-1.517-1.205-3.123-1.844-4.789-2.559-6.813-4.403-12.42-4.136-12.524.283-.104 2.574 5.34 5.132 12.167.61 1.681 1.205 3.287 1.77 4.819.238.714.64 1.532.313 2.469-.164.476-.64.803-1.042.922-.401.119-.758.134-1.071.149-2.499.134-4.046.134-4.046 0l.015-.03zm-6.708-27.74c-.327.625-2.44-.059-5.028-.149-2.588-.148-4.775.328-5.013-.312-.104-.312.357-.863 1.295-1.368.922-.491 2.335-.878 3.897-.804 1.562.075 2.9.581 3.748 1.161.863.58 1.235 1.175 1.101 1.472zm22.163-1.071c-.52.551-2.543-.03-4.983-.059-2.439-.104-4.507.357-4.983-.223-.208-.283.119-.848 1.026-1.369.893-.52 2.38-.952 4.061-.907 1.681.045 3.124.565 3.972 1.13.863.58 1.145 1.161.907 1.428z" fill="#263238"/><path d="M427.484 126.742s-4.195-10.04-9.014-12.39c-5.846-2.856-8.389 3.569-13.953 1.993-5.578-1.577-11.156-4.314-16.867-.015-6.248 4.7-3.347 8.017-3.749 15.127-1.651 28.796-6.931 36.917-8.389 23.352-.164-1.487-4.284-2.677-4.879-8.954-.774-8.151-1.056-18.028.788-23.799 1.547-4.863 4.329-8.225 9.327-11.914 7.883-5.83 18.667-5.92 26.001-5.161 7.333.759 21.434 9.237 20.735 21.79v-.029z" fill="#263238"/><path d="M376.538 154.363c-.089-2.469-2.216-4.433-4.685-4.195-2.99.268-6.307 1.964-6.129 8.136.313 10.948 11.246 8.374 11.246 8.062 0-.208-.268-7.407-.432-11.988v-.015z" fill="#FFBF9D"/><path d="M374.471 162.291s-.194.133-.506.297a1.949 1.949 0 01-1.428.074c-1.175-.386-2.202-2.201-2.306-4.164a6.144 6.144 0 01.461-2.752c.313-.818.818-1.383 1.399-1.502.58-.149.996.178 1.145.491.149.297.089.52.149.535.029.03.223-.193.134-.639a1.168 1.168 0 00-.447-.67c-.267-.208-.654-.297-1.056-.253-.848.09-1.576.878-1.948 1.755-.417.878-.64 1.949-.58 3.065.133 2.201 1.323 4.239 2.915 4.64.773.179 1.413-.074 1.74-.342.328-.283.387-.52.342-.55l-.014.015z" fill="#FF9A6C"/><path d="M376.806 133.152c1.413.967 2.915 1.979 4.626 2.157 1.711.179 3.674-.803 3.971-2.499.134-.758-.044-1.651.447-2.231.595-.699 1.695-.476 2.618-.372 3.183.342 6.902-3.153 7.734-6.247.804 1.22 2.589 1.592 3.808.803 1.235-.788 1.681-1.234 2.648-2.335.967-1.1 2.321-2.082 3.763-1.874.804.119 1.562.595 2.38.536 1.443-.119 2.142-1.8 2.365-3.228.224-1.428.402-3.094 1.622-3.867 1.13-.714 2.588-.298 3.912-.09 1.324.194 3.034-.104 3.376-1.398.179-.684-.104-1.398-.49-1.993-1.696-2.692-5.415-3.897-8.36-2.707-1.056-3.614-4.433-6.44-8.181-6.857-3.749-.401-7.646 1.621-9.46 4.938-2.306-2.112-5.668-2.989-8.717-2.305-3.049.684-5.697 2.93-6.887 5.816-2.663-.714-5.697.312-7.393 2.484-1.695 2.171-1.948 5.369-.61 7.779-1.963 1.115-3.659 3.064-3.703 5.339-.045 2.261 2.156 4.522 4.343 3.942-.892 1.755-.178 4.15 1.532 5.146 1.711.997 4.135.417 5.236-1.219" fill="#263238"/><path d="M412.029 111.02v.193c-.015.134-.03.327-.074.58a7.133 7.133 0 01-.803 2.112 7.57 7.57 0 01-2.44 2.574c-1.145.773-2.722 1.368-4.492 1.264l.193-.238c.342.937.238 2.053-.223 3.019-.446.982-1.145 1.845-1.874 2.693-.372.401-.714.877-1.235 1.249-.505.357-1.115.565-1.74.64-1.235.148-2.633-.238-3.525-1.28l.416-.119c-.282 2.172-1.532 4.344-3.495 5.667-1.042.744-2.336 1.205-3.6 1.161-1.264-.015-2.439-.387-3.54-.789l.297-.134a8.78 8.78 0 01-2.603 3.377c-1.086.848-2.514 1.353-3.823 1.026-2.588-.55-4.283-2.707-4.626-4.73l.253.119c-1.279.699-2.662.759-3.763.536a6.21 6.21 0 01-2.618-1.175 5.458 5.458 0 01-1.22-1.339c-.208-.357-.282-.565-.282-.565.059-.045.357.833 1.606 1.755a6.08 6.08 0 002.559 1.071c1.056.178 2.365.089 3.555-.565l.208-.119.045.238c.342 1.889 1.978 3.897 4.373 4.387 1.175.283 2.439-.163 3.466-.966a8.212 8.212 0 002.439-3.198l.089-.209.208.075c1.086.386 2.217.743 3.392.743 1.175.03 2.32-.371 3.317-1.085 1.859-1.25 3.034-3.287 3.302-5.34l.075-.521.342.402c.758.892 1.993 1.264 3.108 1.13a3.395 3.395 0 001.533-.55c.431-.297.773-.759 1.16-1.175.744-.833 1.413-1.666 1.844-2.573.446-.893.536-1.889.253-2.737l-.089-.268h.268c1.666.134 3.183-.401 4.298-1.13 1.146-.714 1.904-1.636 2.425-2.44.997-1.651.967-2.811 1.056-2.781l-.015.015z" fill="#455A64"/><path d="M410.185 168.731c-.075-.401-2.752.253-5.206-1.562-2.47-1.814-2.871-4.73-3.258-4.655-.178 0-.357.758-.089 1.978.253 1.19 1.056 2.811 2.558 3.927 1.503 1.1 3.213 1.324 4.329 1.13 1.145-.178 1.725-.639 1.666-.818z" fill="#263238"/><path d="M492.68 584.877l10.561 35.98s40.132 1.339 42.735 7.809l-69.048 22.995-18.772-55.391 34.509-11.393h.015z" fill="#455A64"/><path d="M480.899 624.992c-1.22.803-1.636 2.618-.878 3.867.759 1.25 2.604 1.696 3.823.908 1.235-.789 1.8-2.945.908-4.105-.893-1.161-3.079-1.562-4.091-.506" fill="#E0E0E0"/><path d="M542.079 626.078s3.525.312 3.897 2.588l-69.048 22.995-1.666-5.652 66.817-19.931z" fill="#263238"/><path d="M504.252 620.143c.104.342-1.532 1.056-2.826 2.692-1.339 1.607-1.71 3.347-2.067 3.317-.328.045-.506-2.141 1.1-4.105 1.592-1.963 3.764-2.246 3.793-1.904zm8.241.58c.178.298-1.086 1.354-1.755 3.169-.729 1.784-.491 3.421-.833 3.525-.298.163-1.19-1.741-.313-3.972.863-2.231 2.797-3.034 2.901-2.722zm6.991 7.304c-.283.178-1.309-1.354-1.056-3.496.238-2.142 1.577-3.391 1.815-3.168.282.208-.417 1.547-.595 3.302-.223 1.755.163 3.198-.164 3.347v.015zm-18.549-15.812c-.044.357-1.74.402-3.599 1.175-1.875.729-3.154 1.86-3.422 1.622-.282-.179.759-1.904 2.961-2.782 2.201-.892 4.135-.342 4.06-.015z" fill="#fff"/><path d="M331.527 585.204l-15.038 34.359s29.883 26.818 27.712 33.437l-67.68-26.758 21.226-54.499 33.765 13.461h.015z" fill="#455A64"/><path d="M296.735 608.348c-1.457-.163-2.945.952-3.153 2.395-.223 1.443.907 2.96 2.35 3.153 1.443.179 3.273-1.1 3.332-2.558.06-1.458-1.353-3.168-2.811-3.005" fill="#E0E0E0"/><path d="M342.906 648.508s2.499 2.499 1.309 4.492l-67.679-26.758 2.35-5.415 64.006 27.681" fill="#263238"/><path d="M317.738 619.652c-.148.328-1.859-.178-3.897.238-2.052.372-3.465 1.473-3.718 1.22-.283-.178.996-1.963 3.48-2.424 2.484-.491 4.329.699 4.135.966zm5.935 5.742c-.044.357-1.71.342-3.376 1.294-1.696.907-2.588 2.305-2.901 2.157-.327-.075.209-2.098 2.306-3.243 2.097-1.16 4.09-.535 3.971-.223v.015zm.67 10.084c-.327-.044-.134-1.874 1.428-3.361 1.547-1.488 3.391-1.577 3.421-1.25.074.343-1.309.923-2.573 2.157-1.294 1.205-1.934 2.559-2.276 2.454zm-4.046-24.036c-.253.253-1.592-.803-3.511-1.413-1.903-.655-3.599-.595-3.674-.952-.104-.312 1.8-.982 4.061-.223 2.261.729 3.392 2.395 3.124 2.588z" fill="#fff"/><path d="M356.874 396.453l-23.71 96.175s-42.765 71.99-50.009 108.015l39.12 15.38s28.456-69.387 36.8-82.119a102.573 102.573 0 0112.882-15.871c3.109-3.124 5.37-6.991 6.485-11.245l17.954-68.614-39.522-41.721z" fill="#263238"/><path d="M346.774 381.073s3.302 25.747 28.083 37.17l52.24 85.08s4.106 27.665 11.989 50.973c7.824 23.144 23.592 68.212 23.592 68.212l42.973-16.064-27.385-93.617-4.477-32.47-42.631-108.506-36.621-21.954-47.748 31.176h-.015z" fill="#263238"/><path d="M346.774 381.073s.253-.193.788-.536c.551-.357 1.339-.892 2.365-1.576 2.113-1.398 5.236-3.451 9.282-6.128 8.166-5.355 20.081-13.194 35.194-23.115l.119-.074.119.074c10.68 6.381 22.981 13.744 36.651 21.91l.074.044.03.09c11.93 30.298 26.492 67.275 42.72 108.476v.045l.015.044c1.413 10.263 2.945 21.24 4.492 32.47v-.059c7.393 25.301 15.306 52.342 23.472 80.23 1.309 4.492 2.618 8.955 3.913 13.402l.104.342-.342.119c-14.637 5.474-28.991 10.828-42.973 16.049l-.372.134-.134-.372c-7.452-21.582-14.622-42.361-21.435-62.069-1.71-4.924-3.391-9.802-4.789-14.681a302.984 302.984 0 01-3.793-14.502 377.325 377.325 0 01-5.504-28.008l.045.119a242242.92 242242.92 0 01-52.136-85.139l.089.074c-7.095-3.316-12.524-7.898-16.407-12.464-3.912-4.581-6.366-9.118-8.017-12.866-1.651-3.778-2.499-6.812-2.99-8.865-.253-1.026-.387-1.815-.476-2.335a7.795 7.795 0 01-.104-.803s.059.267.164.788c.104.521.252 1.309.535 2.32a53.398 53.398 0 003.079 8.806c1.681 3.733 4.15 8.225 8.062 12.762a48.58 48.58 0 0016.347 12.315l.06.03.03.045c13.03 21.165 30.894 50.17 52.344 85.005l.03.059v.075a385.313 385.313 0 005.533 27.948 315.276 315.276 0 003.808 14.472c1.398 4.864 3.079 9.713 4.789 14.651 6.828 19.708 14.012 40.488 21.48 62.055l-.491-.238c13.982-5.221 28.336-10.59 42.973-16.064l-.238.476c-1.294-4.433-2.603-8.91-3.912-13.402-8.152-27.888-16.065-54.929-23.458-80.23v-.06c-1.547-11.215-3.049-22.207-4.462-32.47v.09A119624.284 119624.284 0 00430.905 372l.119.134a65311.882 65311.882 0 00-36.592-22.014h.224c-15.128 9.817-27.072 17.566-35.239 22.876-4.09 2.648-7.229 4.671-9.371 6.054-1.056.684-1.859 1.19-2.424 1.547-.551.342-.833.521-.833.521l-.015-.045z" fill="#455A64"/><path d="M369.711 197.274s-12.525 9.639-18.609 20.408c-7.288 12.88-8.077 32.009-8.3 61.697-.208 27.472 3.898 35.088 2.306 45.44-3.094 20.214-5.414 88.069-5.414 88.069s40.117-15.424 47.956-22.236l7.839-6.813 50.261 16.615-10.144-61.757-6.962-76.973-8.91-40.83-1.562-16.019-43.062-17.417-5.414 9.831.015-.015z" fill="#455A64"/><path d="M416.685 203.983c.521.089-1.235 3.614-4.343 8.79l-.119.208-.238-.089c-4.374-1.695-10.13-3.822-16.437-6.113-7.11-2.588-13.536-4.998-18.132-6.872-2.306-.937-4.15-1.725-5.415-2.305-1.264-.58-1.948-.923-1.933-.967.015-.045.743.193 2.052.684 1.428.535 3.288 1.235 5.504 2.068 4.79 1.755 11.156 4.075 18.207 6.663 6.307 2.306 12.063 4.492 16.392 6.292l-.357.119c3.213-5.102 5.131-8.449 4.849-8.478h-.03z" fill="#263238"/><path d="M468.613 171.855s-3.184-4.953-6.188-9.52c-3.02-4.566-7.557-6.797-8.271-9.192-.728-2.395-4.73-12.97-5.369-15.603-.893-3.689-.774-7.764-.774-7.764s3.287-1.413 4.864 3.302c.952 2.826 3.972 12.42 4.626 12.896.655.476 1.562-.223 1.562-.223s-3.362-9.222-3.51-10.977c-.149-1.741.461-13.268.461-13.268s2.395-.729 3.956 2.216c1.562 2.93 1.622 10.427 1.622 10.427l2.365 8.3-.818-8.211 1.19-15.082s3.748.342 4.76 4.418c.996 4.075-.328 9.757.357 10.977.669 1.219 1.398 8.493 1.398 8.493s.818-17.715 2.707-18.221c1.889-.506 3.451 1.383 3.183 4.953-.268 3.57-.342 11.111.64 14.458.981 3.331 11.052 16.302 10.219 22.058-.833 5.771-.923 10.382-.923 10.382h-17.314l-.714-4.804-.029-.015z" fill="#FFBF9D"/><path d="M408.102 216.447c.967.372 42.185 10.561 42.185 10.561s9.207-14.934 10.546-19.188c1.339-4.254 8.568-33.05 8.568-33.05l17.418-1.651s-4.403 74.221-10.769 78.208c-6.366 4.001-16.303 6.024-17.017 5.801-.714-.224-44.535 2.826-67.68-15.395-23.13-18.221 16.734-25.316 16.734-25.316l.015.03z" fill="#FFBF9D"/><path d="M378.546 255.729s5.92 7.497 16.853 9.906c10.933 2.41 34.212 6.664 34.212 6.664l-1.13-11.423-50.649-5.414" fill="#000" opacity=".3"/><path d="M360.191 240.022c3.748 7.913 12.078 16.392 30.389 18.281 36.25 3.748 63.693 5.741 75.548 3.956 11.856-1.785 16.571-26.877 17.791-27.651 3.689-2.335 3.451-10.293.267-12.672-9.043-6.753-27.191-11.959-28.41-11.349-7.2 3.584-4.849 11.973-4.849 11.973l-45.904-10.129s-7.437-3.272-16.466-4.804" fill="#455A64"/><path d="M388.557 207.612s.387.03 1.131.149c.743.119 1.844.327 3.272.639a76.872 76.872 0 0112.138 3.823h-.03c10.977 2.38 26.819 5.83 45.933 9.98l-.387.417c-.595-2.559-.565-5.37.595-7.928.565-1.279 1.488-2.395 2.603-3.272.536-.476 1.175-.789 1.785-1.161.179-.074.491-.104.685-.104l.55.06c.372.03.699.119 1.056.178 5.489 1.235 10.978 3.183 16.466 5.578 2.737 1.22 5.459 2.588 8.077 4.254.655.417 1.279.878 1.919 1.324.655.506 1.22 1.16 1.577 1.889.758 1.457 1.056 3.079 1.086 4.7 0 1.621-.298 3.272-1.071 4.76-.432.714-.952 1.428-1.681 1.904-.179.089-.298.476-.446.833l-.387 1.115c-.982 3.049-1.949 6.158-3.154 9.207-1.725 4.343-3.703 8.627-6.753 12.137-1.517 1.726-3.361 3.273-5.578 4.031-1.1.417-2.261.521-3.361.64-1.116.163-2.217.178-3.317.282-4.418.253-8.747.194-12.986.075a358.932 358.932 0 01-12.42-.58c-16.154-1.042-30.657-2.514-42.84-3.778-3.034-.283-5.949-.685-8.657-1.25-2.692-.639-5.221-1.309-7.482-2.261-4.551-1.799-8.062-4.268-10.546-6.633a28.14 28.14 0 01-4.879-6.203c-.907-1.562-1.234-2.454-1.234-2.454.044-.03.416.848 1.368 2.38a29.435 29.435 0 004.953 6.053c2.485 2.306 5.98 4.716 10.502 6.456 2.231.922 4.745 1.576 7.422 2.186 2.693.536 5.564.908 8.613 1.175 12.182 1.19 26.685 2.618 42.824 3.615 4.031.238 8.166.446 12.406.565 4.224.104 8.553.164 12.926-.104 1.086-.104 2.186-.134 3.287-.283 1.101-.134 2.202-.223 3.198-.61 2.038-.699 3.793-2.141 5.251-3.822 2.93-3.392 4.909-7.616 6.619-11.914 1.19-3.035 2.142-6.114 3.139-9.178l.401-1.145c.075-.193.149-.387.238-.58.06-.104.09-.193.194-.327.059-.075.134-.149.193-.208l.104-.09c.61-.401 1.056-1.011 1.443-1.636.699-1.324.997-2.871.982-4.388-.03-1.517-.313-3.049-.997-4.343a4.885 4.885 0 00-1.368-1.636c-.625-.431-1.25-.878-1.874-1.294-2.559-1.636-5.251-3.005-7.973-4.209-5.43-2.38-10.918-4.344-16.303-5.563-.327-.06-.669-.149-.997-.179l-.49-.059c-.149 0-.194 0-.343.029-.565.342-1.175.64-1.666 1.071-1.026.804-1.889 1.83-2.409 3.005-1.071 2.35-1.131 5.072-.58 7.467l.119.52-.506-.119c-19.084-4.269-34.911-7.823-45.874-10.278h-.029c-5.043-2.127-9.208-3.272-12.034-3.986-1.413-.357-2.514-.58-3.258-.744-.743-.148-1.115-.253-1.115-.253l-.03.075z" fill="#263238"/><path d="M466.128 236.914c-.044.089-1.204-.328-2.96-1.294-1.755-.967-4.06-2.544-6.262-4.671-2.201-2.142-3.852-4.388-4.879-6.098-1.026-1.711-1.487-2.871-1.398-2.915.223-.134 2.484 4.283 6.828 8.463 4.298 4.224 8.805 6.292 8.686 6.515h-.015z" fill="#263238"/><path d="M142.529 359.401s9.208.506 14.935 4.076c5.711 3.585 14.889 9.133 18.667 16.019 1.741 3.168-3.213 3.838-5.667 1.993-2.454-1.844-6.188-5.295-8.047-5.726l-1.859-.432s3.733 8.315 5.667 11.245c1.933 2.916 3.599 7.913-2.172 8.151 0 0-3.897 5.057-7.824 1.309 0 0-3.064 4.581-8.003-1.77 0 0-2.87 3.644-4.075 2.246-1.205-1.398-5.132-3.599-6.277-8.151-1.146-4.551-5.965-15.603-5.965-15.603l10.635-13.357h-.015z" fill="#FFBF9D"/><path d="M64.05 238.104s-7.199 1.948-11.587 8.701c-3.54 5.444-4.626 14.948-3.614 21.894 2.142 14.785 8.94 39.774 12.747 55.808 1.31 5.533 4.016 15.439 11.944 20.69l56.346 33.793 15.068-22.37-51.377-41.87-10.16-57.385-19.367-19.276v.015z" fill="#455A64"/><path d="M54.293 294.536s.074.193.178.58c.12.431.268.996.461 1.74.402 1.577.982 3.838 1.726 6.738 1.472 5.905 3.6 14.383 6.232 24.914 1.339 5.206 4.433 10.561 9.282 14.696 2.38 2.127 5.31 3.673 8.24 5.473 2.93 1.77 5.965 3.6 9.06 5.459 12.42 7.496 26.119 15.781 40.592 24.512l-.52.119c1.725-2.558 3.57-5.295 5.414-8.046 3.273-4.864 6.5-9.654 9.654-14.309l.074.505c-19.352-15.93-36.904-30.372-50.93-41.929l-.075-.06-.03-.089c-3.362-14.16-5.801-25.732-7.333-33.794a306.557 306.557 0 01-1.651-9.311 260.649 260.649 0 00-.357-2.44c-.075-.55-.09-.832-.09-.832s.075.282.179.818c.104.58.253 1.383.446 2.424.402 2.127.982 5.265 1.8 9.281 1.636 8.032 4.165 19.59 7.586 33.72l-.104-.164c14.057 11.513 31.653 25.911 51.035 41.796l.268.223-.193.298a6751.958 6751.958 0 00-9.639 14.324c-1.86 2.751-3.704 5.488-5.429 8.046l-.209.313-.312-.194c-14.458-8.76-28.158-17.06-40.563-24.586-3.094-1.874-6.114-3.719-9.044-5.489-2.9-1.8-5.876-3.391-8.3-5.578-4.924-4.239-8.047-9.727-9.386-15.037-2.529-10.546-4.582-19.069-5.995-24.974-.684-2.915-1.22-5.191-1.591-6.767-.164-.744-.298-1.324-.387-1.756-.09-.401-.12-.595-.104-.609l.015-.015zm.937-48.46s.387-.238 1.145-.476c.759-.253 1.874-.535 3.302-.744 2.797-.386 6.962-.446 10.993 1.488 3.956 2.023 6.664 5.102 8.21 7.481.774 1.205 1.265 2.276 1.503 3.035.253.758.297 1.205.268 1.219-.134.045-.58-1.68-2.217-3.941-1.606-2.246-4.328-5.176-8.106-7.095-3.823-1.83-7.84-1.874-10.591-1.636-2.782.267-4.463.818-4.507.684v-.015z" fill="#263238"/></svg>