<svg width="62" height="20" fill="none" xmlns="http://www.w3.org/2000/svg"><path d="M31.797 6.368c-.035 2.775 2.464 4.323 4.348 5.244 1.934.945 2.584 1.55 2.577 2.395-.015 1.293-1.544 1.864-2.974 1.886-2.496.039-3.948-.676-5.101-1.217l-.9 4.222c1.158.535 3.301 1.001 5.524 1.022 5.218 0 8.631-2.584 8.65-6.59.02-5.085-7.01-5.367-6.962-7.64.016-.689.672-1.424 2.108-1.611.71-.095 2.673-.167 4.898.86l.873-4.083C43.642.418 42.104 0 40.19 0c-4.91 0-8.364 2.62-8.392 6.368zM53.229.352c-.953 0-1.756.557-2.114 1.413L43.662 19.62h5.214l1.037-2.877h6.371l.602 2.877h4.595L57.471.352H53.23zm.73 5.205l1.504 7.235h-4.12l2.615-7.235zM25.474.352l-4.11 19.268h4.969L30.442.35h-4.967v.001zm-7.35 0l-5.17 13.114-2.092-11.15C10.617 1.07 9.648.351 8.572.351H.118L0 .912c1.735.377 3.707.986 4.902 1.639.73.398.94.746 1.18 1.693l3.961 15.376h5.25L23.343.352h-5.217" fill="url(#paint0_linear_640_215)"/><defs><linearGradient id="paint0_linear_640_215" x1="28.265" y1="20.32" x2="28.844" y2="-.139" gradientUnits="userSpaceOnUse"><stop stop-color="#222357"/><stop offset="1" stop-color="#254AA5"/></linearGradient></defs></svg>